<?xml version="1.0" encoding="UTF-8"?>
<svg width="23px" height="24px" viewBox="0 0 23 24" version="1.1" xmlns="http://www.w3.org/2000/svg" xmlns:xlink="http://www.w3.org/1999/xlink">
    <!-- Generator: sketchtool 53 (72520) - https://sketchapp.com -->
    <title>69EA9F90-C0BC-4923-9E74-CB06C87579D6</title>
    <desc>Created with sketchtool.</desc>
    <g id="Kategori" stroke="none" stroke-width="1" fill="none" fill-rule="evenodd">
        <g id="Special---36px" transform="translate(-223.000000, -465.000000)">
            <g id="Icon/Special/36px/Active/ic_fashion-wanita" transform="translate(217.000000, 459.000000)">
                <g>
                    <rect id="Rectangle" x="0" y="0" width="36" height="36"></rect>
                    <circle id="Oval" fill="#FED156" fill-rule="nonzero" cx="19.8" cy="16.2" r="9"></circle>
                    <path d="M11.844,10.215 L12.249,10.215 C12.913184,10.2165733 13.5651706,10.3935411 14.139,10.728 L14.139,10.728 C14.3400679,10.8533336 14.5949321,10.8533336 14.796,10.728 L14.796,10.728 C15.369327,10.3923425 16.0216434,10.2152852 16.686,10.215 L17.1,10.215 C17.6430187,10.2050893 18.1614818,10.4408905 18.5108873,10.856683 C18.8602927,11.2724754 19.0032812,11.8238016 18.9,12.357 L18.567,14.076 C18.1792745,16.0282772 16.4623903,17.4319715 14.472,17.424 L14.472,17.424 C12.4816097,17.4319715 10.7647255,16.0282772 10.377,14.076 L10.044,12.357 C9.94071883,11.8238016 10.0837073,11.2724754 10.4331127,10.856683 C10.7825182,10.4408905 11.3009813,10.2050893 11.844,10.215 Z" id="Path" stroke="#E65015" stroke-width="2" stroke-linecap="round"></path>
                    <path d="M12.276,7.2 L12.276,10.215" id="Path" stroke="#E65015" stroke-width="2" stroke-linecap="round"></path>
                    <path d="M16.659,7.2 L16.659,10.215" id="Path" stroke="#E65015" stroke-width="2" stroke-linecap="round"></path>
                    <path d="M7.2,27.792 L8.154,22.5 C8.62878237,19.5963326 11.1161054,17.4502582 14.058,17.406 L14.877,17.406 C17.8188946,17.4502582 20.3062176,19.5963326 20.781,22.5 L21.735,27.774" id="Path" stroke="#E65015" stroke-width="2" stroke-linecap="round"></path>
                    <path d="M12.042,27.792 C11.4116037,28.4557062 10.5363717,28.8315044 9.621,28.8315044 C8.7056283,28.8315044 7.83039629,28.4557062 7.2,27.792" id="Path" stroke="#E65015" stroke-width="2" stroke-linecap="round"></path>
                    <path d="M12.042,27.792 C12.6739756,28.4561999 13.5506824,28.8321755 14.4675,28.8321755 C15.3843176,28.8321755 16.2610244,28.4561999 16.893,27.792" id="Path" stroke="#E65015" stroke-width="2" stroke-linecap="round"></path>
                    <path d="M16.893,27.792 C17.5233963,28.4557062 18.3986283,28.8315044 19.314,28.8315044 C20.2293717,28.8315044 21.1046037,28.4557062 21.735,27.792" id="Path" stroke="#E65015" stroke-width="2" stroke-linecap="round"></path>
                </g>
            </g>
        </g>
    </g>
</svg>