<?xml version="1.0" encoding="UTF-8"?>
<svg width="23px" height="24px" viewBox="0 0 23 24" version="1.1" xmlns="http://www.w3.org/2000/svg" xmlns:xlink="http://www.w3.org/1999/xlink">
    <!-- Generator: sketchtool 53 (72520) - https://sketchapp.com -->
    <title>07F867B3-E0D4-4BC7-AA31-62DEB23B7024</title>
    <desc>Created with sketchtool.</desc>
    <g id="Kategori" stroke="none" stroke-width="1" fill="none" fill-rule="evenodd">
        <g id="Special---36px" transform="translate(-603.000000, -365.000000)">
            <g id="Icon/Special/36px/Active/ic_hiburan" transform="translate(597.000000, 359.000000)">
                <g>
                    <rect id="Rectangle" x="0" y="0" width="36" height="36"></rect>
                    <circle id="Oval" fill="#FED156" fill-rule="nonzero" cx="19.8" cy="16.2" r="9"></circle>
                    <path d="M19.611,28.512 L18.774,28.179 C18.1283669,27.9282137 17.441629,27.8000227 16.749,27.801 L15.651,27.801 C14.958371,27.8000227 14.2716331,27.9282137 13.626,28.179 L12.789,28.512 C11.5295438,29.0055121 10.1076303,28.8452197 8.98965391,28.0836996 C7.87167755,27.3221794 7.20189568,26.0576938 7.2,24.705 L7.2,22.257 C7.2,19.9456883 9.07368832,18.072 11.385,18.072 L21.015,18.072 C23.3263117,18.072 25.2,19.9456883 25.2,22.257 L25.2,24.705 C25.1981043,26.0576938 24.5283225,27.3221794 23.4103461,28.0836996 C22.2923697,28.8452197 20.8704562,29.0055121 19.611,28.512 Z" id="Path" stroke="#E65015" stroke-width="2" stroke-linecap="round"></path>
                    <path d="M11.466,21.771 L11.466,24.867" id="Path" stroke="#E65015" stroke-width="2" stroke-linecap="round"></path>
                    <path d="M13.014,23.319 L9.918,23.319" id="Path" stroke="#E65015" stroke-width="2" stroke-linecap="round"></path>
                    <circle id="Oval" fill="#E65015" fill-rule="nonzero" cx="20.538" cy="21.429" r="1"></circle>
                    <circle id="Oval" fill="#E65015" fill-rule="nonzero" cx="20.538" cy="25.209" r="1"></circle>
                    <circle id="Oval" fill="#E65015" fill-rule="nonzero" cx="22.428" cy="23.319" r="1"></circle>
                    <circle id="Oval" fill="#E65015" fill-rule="nonzero" cx="18.648" cy="23.319" r="1"></circle>
                    <path d="M16.2,18.072 C16.2,18.072 13.878,14.958 15.903,12.672 C17.928,10.386 18.342,9.378 18.081,7.272" id="Path" stroke="#E65015" stroke-width="2" stroke-linecap="round"></path>
                </g>
            </g>
        </g>
    </g>
</svg>