<?xml version="1.0" encoding="UTF-8"?>
<svg width="23px" height="23px" viewBox="0 0 23 23" version="1.1" xmlns="http://www.w3.org/2000/svg" xmlns:xlink="http://www.w3.org/1999/xlink">
    <!-- Generator: sketchtool 53 (72520) - https://sketchapp.com -->
    <title>5AE02793-163B-4760-A72A-F3422636DEF1</title>
    <desc>Created with sketchtool.</desc>
    <g id="Kategori" stroke="none" stroke-width="1" fill="none" fill-rule="evenodd">
        <g id="Special---36px" transform="translate(-299.000000, -366.000000)">
            <g id="Icon/Special/36px/Active/ic_mokado" transform="translate(293.000000, 359.000000)">
                <g>
                    <rect id="Rectangle" x="0" y="0" width="36" height="36"></rect>
                    <circle id="Oval" fill="#FED156" fill-rule="nonzero" cx="19.8" cy="16.2" r="9"></circle>
                    <path d="M18.756,13.437 C18.432,15.192 15.255,18.333 14.742,18.333 C14.229,18.333 11.142,15.192 10.719,13.437 C10.296,11.682 11.475,10.485 12.978,10.89 C13.4732598,11.1207057 13.9313071,11.4240483 14.337,11.79 C14.5634494,11.9704446 14.8845506,11.9704446 15.111,11.79 C15.5227717,11.4232992 15.9868629,11.1199716 16.488,10.89 C18.216,10.44 19.08,11.7 18.756,13.437 Z" id="Path" stroke="#E65015" stroke-width="2" stroke-linecap="round"></path>
                    <path d="M20.88,13.941 L21.969,13.653 C22.8915661,13.405656 23.874611,13.5350792 24.7017213,14.0127776 C25.5288316,14.490476 26.1322009,15.277288 26.379,16.2 L27.675,21.024 C27.922344,21.9465661 27.7929208,22.929611 27.3152224,23.7567213 C26.837524,24.5838316 26.050712,25.1872009 25.128,25.434 L13.032,28.674 C12.1057468,28.9204355 11.1194607,28.787328 10.2916723,28.3041698 C9.46388389,27.8210117 8.86294315,27.0276971 8.622,26.1 L7.326,21.312 C7.07956447,20.3857468 7.21267204,19.3994607 7.69583018,18.5716723 C8.17898832,17.7438839 8.97230293,17.1429432 9.9,16.902" id="Path" stroke="#E65015" stroke-width="2" stroke-linecap="round"></path>
                    <path d="M8.622,26.136 L27.675,21.015" id="Path" stroke="#E65015" stroke-width="2" stroke-linecap="round"></path>
                    <path d="M19.8,18.549 L23.868,17.451" id="Path" stroke="#E65015" stroke-width="2" stroke-linecap="round"></path>
                </g>
            </g>
        </g>
    </g>
</svg>