<?xml version="1.0" encoding="UTF-8"?>
<svg width="12px" height="12px" viewBox="0 0 12 12" version="1.1" xmlns="http://www.w3.org/2000/svg" xmlns:xlink="http://www.w3.org/1999/xlink">
    <!-- Generator: sketchtool 53 (72520) - https://sketchapp.com -->
    <title>157D2031-E7CB-4E68-B788-C06B972F805A</title>
    <desc>Created with sketchtool.</desc>
    <g id="Glyph" stroke="none" stroke-width="1" fill="none" fill-rule="evenodd">
        <g id="Glyph---16px" transform="translate(-780.000000, -478.000000)">
            <g id="Icon/Glyph/16px/ic_arrow-up" transform="translate(778.000000, 476.000000)">
                <g>
                    <rect id="Rectangle" x="0" y="0" width="16" height="16"></rect>
                    <path d="M13.4333333,7.12666667 L8.53333333,2.22666667 C8.39200372,2.08499352 8.20011332,2.00537343 8,2.00537343 C7.79988668,2.00537343 7.60799628,2.08499352 7.46666667,2.22666667 L2.56666667,7.12666667 C2.30818427,7.38669164 2.30818427,7.8066417 2.56666667,8.06666667 C2.6918444,8.1928751 2.86224164,8.26386555 3.04,8.26386555 C3.21775836,8.26386555 3.3881556,8.1928751 3.51333333,8.06666667 L7.33333333,4.24666667 L7.33333333,13.3333333 C7.33333333,13.7015232 7.63181017,14 8,14 C8.36818983,14 8.66666667,13.7015232 8.66666667,13.3333333 L8.66666667,4.24666667 L12.4866667,8.06666667 C12.6118444,8.1928751 12.7822416,8.26386555 12.96,8.26386555 C13.1377584,8.26386555 13.3081556,8.1928751 13.4333333,8.06666667 L13.4333333,8.06666667 C13.6918157,7.8066417 13.6918157,7.38669164 13.4333333,7.12666667 Z" id="Path" fill="#70727D" fill-rule="nonzero"></path>
                </g>
            </g>
        </g>
    </g>
</svg>