<?xml version="1.0" encoding="UTF-8"?>
<svg width="12px" height="12px" viewBox="0 0 12 12" version="1.1" xmlns="http://www.w3.org/2000/svg" xmlns:xlink="http://www.w3.org/1999/xlink">
    <!-- Generator: sketchtool 53 (72520) - https://sketchapp.com -->
    <title>F754C47D-5319-4A6A-9A0D-98EA27DED158</title>
    <desc>Created with sketchtool.</desc>
    <g id="Glyph" stroke="none" stroke-width="1" fill="none" fill-rule="evenodd">
        <g id="Glyph---16px" transform="translate(-388.000000, -478.000000)">
            <g id="Icon/Glyph/16px/ic_add-to-cart" transform="translate(386.000000, 476.000000)">
                <g>
                    <rect id="Rectangle" x="0" y="0" width="16" height="16"></rect>
                    <path d="M11.3333333,9.68666667 L5.70666667,10.2066667 C5.69027279,10.3309061 5.66351278,10.4535562 5.62666667,10.5733333 L12.74,10.5733333 C13.013583,10.6632557 13.1985001,10.9186845 13.1985001,11.2066667 C13.1985001,11.4946488 13.013583,11.7500776 12.74,11.84 L5.36666667,11.84 C5.01407893,11.8413551 4.68302906,11.670512 4.47985258,11.3823466 C4.27667609,11.0941813 4.22695747,10.7249802 4.34666667,10.3933333 L4.42,10.1866667 C4.47338543,10.0418784 4.49388081,9.88702444 4.48,9.73333333 L4.01333333,4.91333333 C3.99454876,4.73894956 3.88576531,4.58715869 3.72666667,4.51333333 L2.39333333,3.84666667 C2.0973441,3.68800178 1.97666425,3.32588516 2.11829558,3.02137779 C2.25992691,2.71687042 2.61462042,2.57585769 2.92666667,2.7 L4.26,3.36666667 C4.81785293,3.62797885 5.19930727,4.16100445 5.26666667,4.77333333 L5.66666667,8.93333333 L11.2533333,8.42666667 C11.7316835,8.3831677 12.1247302,8.03078095 12.22,7.56 L12.76,4.73333333 C12.8420895,4.40165969 13.1616495,4.18574076 13.5,4.23333333 C13.66507,4.26395665 13.8109495,4.35953385 13.9049421,4.49864276 C13.9989346,4.63775167 14.033179,4.80875802 14,4.97333333 L13.4266667,7.79333333 C13.2267896,8.8192968 12.3741498,9.59047417 11.3333333,9.68666667 Z M7.05333333,14.04 C6.53050377,14.04 6.10666667,13.6161629 6.10666667,13.0933333 C6.10666667,12.5705038 6.53050377,12.1466667 7.05333333,12.1466667 C7.5761629,12.1466667 8,12.5705038 8,13.0933333 C8,13.6161629 7.5761629,14.04 7.05333333,14.04 Z M11.24,14.04 C10.7171704,14.04 10.2933333,13.6161629 10.2933333,13.0933333 C10.2933333,12.5705038 10.7171704,12.1466667 11.24,12.1466667 C11.7628296,12.1466667 12.1866667,12.5705038 12.1866667,13.0933333 C12.1866667,13.6161629 11.7628296,14.04 11.24,14.04 Z M7.07333333,5.89333333 C6.8856183,5.89409527 6.70628055,5.81568266 6.57937837,5.67735929 C6.4524762,5.53903592 6.38977063,5.35362131 6.40666667,5.16666667 C6.40666667,4.79847683 6.7051435,4.5 7.07333333,4.5 L8.16666667,4.5 L8.16666667,3.4 C8.16666667,3.01524162 8.47857496,2.70333333 8.86333333,2.70333333 C9.24809171,2.70333333 9.56,3.01524162 9.56,3.4 L9.56,4.56 L10.6666667,4.56 C10.8491791,4.55086281 11.027441,4.6170459 11.1597706,4.74307417 C11.2921003,4.86910243 11.3668952,5.04392583 11.3666667,5.22666667 C11.3668952,5.4094075 11.2921003,5.58423091 11.1597706,5.71025917 C11.027441,5.83628743 10.8491791,5.90247053 10.6666667,5.89333333 L9.56,5.89333333 L9.56,6.98666667 C9.56,7.37142504 9.24809171,7.68333333 8.86333333,7.68333333 C8.47857496,7.68333333 8.16666667,7.37142504 8.16666667,6.98666667 L8.16666667,5.89333333 L7.07333333,5.89333333 Z" id="Combined-Shape" fill="#70727D" fill-rule="nonzero"></path>
                </g>
            </g>
        </g>
    </g>
</svg>