<?xml version="1.0" encoding="UTF-8"?>
<svg width="14px" height="14px" viewBox="0 0 14 14" version="1.1" xmlns="http://www.w3.org/2000/svg" xmlns:xlink="http://www.w3.org/1999/xlink">
    <!-- Generator: sketchtool 53 (72520) - https://sketchapp.com -->
    <title>92F123DF-9372-4C46-A66F-56C6472E94E0</title>
    <desc>Created with sketchtool.</desc>
    <defs>
        <polygon id="path-1" points="0 0 16 0 16 14.2730748 0 14.2730748"></polygon>
    </defs>
    <g id="Glyph" stroke="none" stroke-width="1" fill="none" fill-rule="evenodd">
        <g id="Glyph---16px" transform="translate(-563.000000, -573.000000)">
            <g id="Icon/Glyph/16px/ic_attention" transform="translate(562.000000, 572.000000)">
                <g id="Others/Icon/Alert/Red">
                    <g>
                        <g id="icon/alert-copy">
                            <rect id="bound" stroke="#979797" stroke-width="0.975" fill="#D8D8D8" opacity="0" x="0.4875" y="0.4875" width="15.025" height="15.025"></rect>
                            <g id="attention" transform="translate(0.000000, 0.666667)">
                                <mask id="mask-2" fill="white">
                                    <use xlink:href="#path-1"></use>
                                </mask>
                                <g id="Clip-2"></g>
                                <path d="M14.8134614,11.4266738 L9.19055747,1.68740108 C8.94217124,1.25699298 8.4970392,1 7.99998221,1 C7.50292522,1 7.05779318,1.25699298 6.80940695,1.68740108 L1.18650307,11.4266738 C0.937832311,11.8570107 0.937832311,12.3710678 1.18650307,12.8014759 C1.4348893,13.2318129 1.88002134,13.488877 2.37707833,13.488877 L13.6231706,13.488877 C14.1199431,13.488877 14.5650751,13.2318129 14.8137459,12.8014759 C15.0621321,12.3710678 15.0621321,11.8570107 14.8134614,11.4266738 Z M7.99998221,11.9045256 C7.50655285,11.9045256 7.10502356,11.5030675 7.10502356,11.009567 C7.10502356,10.5161376 7.50655285,10.1146083 7.99998221,10.1146083 C8.4934827,10.1146083 8.89494086,10.5161376 8.89494086,11.009567 C8.89494086,11.5030675 8.4934827,11.9045256 7.99998221,11.9045256 Z M8.90105805,8.07907886 C8.90105805,8.57585133 8.49682581,8.97987018 7.99998221,8.97987018 C7.50320974,8.97987018 7.09919089,8.57585133 7.09919089,8.07907886 L7.09919089,3.94407397 C7.09919089,3.70820663 7.29010402,3.5172935 7.52597136,3.5172935 L8.47427758,3.5172935 C8.71021605,3.5172935 8.90105805,3.70820663 8.90105805,3.94407397 L8.90105805,8.07907886 Z" id="Fill-1" fill="#70727D" fill-rule="nonzero" mask="url(#mask-2)"></path>
                            </g>
                        </g>
                    </g>
                </g>
            </g>
        </g>
    </g>
</svg>