<?xml version="1.0" encoding="UTF-8"?>
<svg width="10px" height="15px" viewBox="0 0 10 15" version="1.1" xmlns="http://www.w3.org/2000/svg" xmlns:xlink="http://www.w3.org/1999/xlink">
    <!-- Generator: sketchtool 53 (72520) - https://sketchapp.com -->
    <title>B2507A3E-6DCF-40DA-A84D-19A8BA79BFF8</title>
    <desc>Created with sketchtool.</desc>
    <g id="Glyph" stroke="none" stroke-width="1" fill="none" fill-rule="evenodd">
        <g id="Glyph---16px" transform="translate(-725.000000, -476.000000)">
            <g id="Icon/Glyph/16px/ic_attachment" transform="translate(722.000000, 476.000000)">
                <g>
                    <rect id="Rectangle" x="0" y="0" width="16" height="16"></rect>
                    <path d="M11.8266667,4.07333333 C11.4584768,4.07333333 11.16,4.37181017 11.16,4.74 L11.16,10.1533333 C11.16,11.2822926 10.5577074,12.325494 9.58000001,12.8899736 C8.6022926,13.4544533 7.3977074,13.4544533 6.41999999,12.8899736 C5.44229258,12.325494 4.83999998,11.2822926 4.84,10.1533333 L4.84,4.66666667 C4.72962951,3.89209498 5.08105449,3.12428932 5.73942522,2.70157082 C6.39779595,2.27885232 7.24220405,2.27885232 7.90057478,2.70157082 C8.55894551,3.12428932 8.91037049,3.89209498 8.8,4.66666667 L8.8,10.06 C8.76453483,10.4255676 8.45728385,10.7044534 8.09,10.7044534 C7.72271615,10.7044534 7.41546517,10.4255676 7.38,10.06 L7.38,4.72666667 C7.38,4.35847683 7.08152317,4.06 6.71333333,4.06 C6.3451435,4.06 6.04666667,4.35847683 6.04666667,4.72666667 L6.04666667,10.06 C6.1085648,11.1432176 7.0050153,11.9899048 8.09,11.9899048 C9.1749847,11.9899048 10.0714352,11.1432176 10.1333333,10.06 L10.1333333,4.66666667 C10.2731579,3.39600012 9.67398076,2.15729387 8.59099314,1.47811629 C7.50800552,0.798938699 6.13199448,0.798938699 5.04900686,1.47811629 C3.96601924,2.15729387 3.36684212,3.39600012 3.50666667,4.66666667 L3.50666667,10.1533333 C3.50666667,12.6349328 5.51840052,14.6466667 8,14.6466667 C10.4815995,14.6466667 12.4933333,12.6349328 12.4933333,10.1533333 L12.4933333,4.74 C12.4933333,4.56318901 12.4230954,4.39361973 12.2980712,4.26859548 C12.1730469,4.14357123 12.0034777,4.07333333 11.8266667,4.07333333 Z" id="Path" fill="#70727D" fill-rule="nonzero"></path>
                </g>
            </g>
        </g>
    </g>
</svg>