<?xml version="1.0" encoding="UTF-8"?>
<svg width="12px" height="12px" viewBox="0 0 12 12" version="1.1" xmlns="http://www.w3.org/2000/svg" xmlns:xlink="http://www.w3.org/1999/xlink">
    <!-- Generator: sketchtool 53 (72520) - https://sketchapp.com -->
    <title>CA22B004-D45B-4AB1-9F26-47F45A43D962</title>
    <desc>Created with sketchtool.</desc>
    <g id="Glyph" stroke="none" stroke-width="1" fill="none" fill-rule="evenodd">
        <g id="Glyph---16px" transform="translate(-1004.000000, -478.000000)">
            <g id="Icon/Glyph/16px/ic_approved" transform="translate(1002.000000, 476.000000)">
                <g>
                    <rect id="Rectangle" x="0" y="0" width="16" height="16"></rect>
                    <path d="M9.02,2.08666667 C6.44355211,1.64245692 3.8760672,2.91770945 2.67325158,5.23905402 C1.47043596,7.56039859 1.90922681,10.3933671 3.75792987,12.2420701 C5.60663293,14.0907732 8.43960141,14.529564 10.760946,13.3267484 C13.0822905,12.1239328 14.3575431,9.55644789 13.9133333,6.98 C13.481926,4.47780715 11.5221929,2.51807397 9.02,2.08666667 Z M7.08666667,10.7133333 C7.01136337,10.7907152 6.90797473,10.834367 6.8,10.834367 C6.69202527,10.834367 6.58863663,10.7907152 6.51333333,10.7133333 L4.22,8.42 C4.10845289,8.30869203 4.04576623,8.15758243 4.04576623,8 C4.04576623,7.84241757 4.10845289,7.69130797 4.22,7.58 L4.22,7.58 C4.33156465,7.46639556 4.48410821,7.40239895 4.64333333,7.40239895 C4.80255846,7.40239895 4.95510202,7.46639556 5.06666667,7.58 L6.8,9.33333333 L10.9266667,5.20666667 C11.1630463,4.97281401 11.5436204,4.97281401 11.78,5.20666667 L11.78,5.20666667 C11.8915471,5.31797463 11.9542338,5.46908424 11.9542338,5.62666667 C11.9542338,5.78424909 11.8915471,5.9353587 11.78,6.04666667 L7.08666667,10.7133333 Z" id="Shape" fill="#70727D" fill-rule="nonzero"></path>
                </g>
            </g>
        </g>
    </g>
</svg>