<?xml version="1.0" encoding="UTF-8"?>
<svg width="12px" height="12px" viewBox="0 0 12 12" version="1.1" xmlns="http://www.w3.org/2000/svg" xmlns:xlink="http://www.w3.org/1999/xlink">
    <!-- Generator: sketchtool 53 (72520) - https://sketchapp.com -->
    <title>44EF25E1-DF30-4E7E-A989-7706D696B3BF</title>
    <desc>Created with sketchtool.</desc>
    <g id="Glyph" stroke="none" stroke-width="1" fill="none" fill-rule="evenodd">
        <g id="Glyph---16px" transform="translate(-892.000000, -478.000000)">
            <g id="Icon/Glyph/16px/ic_arrow-left" transform="translate(890.000000, 476.000000)">
                <g>
                    <rect id="Rectangle" x="0" y="0" width="16" height="16"></rect>
                    <path d="M13.3333333,7.33333333 L4.24,7.33333333 L8.06666667,3.51333333 C8.32514906,3.25330836 8.32514906,2.8333583 8.06666667,2.57333333 C7.94148893,2.4471249 7.77109169,2.37613445 7.59333333,2.37613445 C7.41557498,2.37613445 7.24517773,2.4471249 7.12,2.57333333 L2.22666667,7.46666667 C1.93445713,7.76478002 1.93445713,8.24188664 2.22666667,8.54 L7.12,13.4333333 C7.24517773,13.5595418 7.41557498,13.6305322 7.59333333,13.6305322 C7.77109169,13.6305322 7.94148893,13.5595418 8.06666667,13.4333333 C8.32514906,13.1733084 8.32514906,12.7533583 8.06666667,12.4933333 L4.24666667,8.66666667 L13.3333333,8.66666667 C13.7015232,8.66666667 14,8.36818983 14,8 C14,7.63181017 13.7015232,7.33333333 13.3333333,7.33333333 Z" id="Path" fill="#70727D" fill-rule="nonzero"></path>
                </g>
            </g>
        </g>
    </g>
</svg>