<?xml version="1.0" encoding="UTF-8"?>
<svg width="12px" height="12px" viewBox="0 0 12 12" version="1.1" xmlns="http://www.w3.org/2000/svg" xmlns:xlink="http://www.w3.org/1999/xlink">
    <!-- Generator: sketchtool 53 (72520) - https://sketchapp.com -->
    <title>0780A3A4-5624-43A8-8D95-8546B3165C5D</title>
    <desc>Created with sketchtool.</desc>
    <g id="Glyph" stroke="none" stroke-width="1" fill="none" fill-rule="evenodd">
        <g id="Glyph---16px" transform="translate(-836.000000, -478.000000)">
            <g id="Icon/Glyph/16px/ic_arrow-right" transform="translate(834.000000, 476.000000)">
                <g>
                    <rect id="Rectangle" x="0" y="0" width="16" height="16"></rect>
                    <path d="M13.7733333,7.46666667 L8.88,2.57333333 C8.75482227,2.4471249 8.58442502,2.37613445 8.40666667,2.37613445 C8.22890831,2.37613445 8.05851107,2.4471249 7.93333333,2.57333333 C7.67485094,2.8333583 7.67485094,3.25330836 7.93333333,3.51333333 L11.7533333,7.33333333 L2.66666667,7.33333333 C2.29847683,7.33333333 2,7.63181017 2,8 C2,8.36818983 2.29847683,8.66666667 2.66666667,8.66666667 L11.76,8.66666667 L7.93333333,12.4933333 C7.67485094,12.7533583 7.67485094,13.1733084 7.93333333,13.4333333 C8.05851107,13.5595418 8.22890831,13.6305322 8.40666667,13.6305322 C8.58442502,13.6305322 8.75482227,13.5595418 8.88,13.4333333 L13.7733333,8.54 C13.9170613,8.39841168 13.9979891,8.20508805 13.9979891,8.00333333 C13.9979891,7.80157861 13.9170613,7.60825499 13.7733333,7.46666667 Z" id="Path" fill="#70727D" fill-rule="nonzero"></path>
                </g>
            </g>
        </g>
    </g>
</svg>