<?xml version="1.0" encoding="UTF-8"?>
<svg width="12px" height="12px" viewBox="0 0 12 12" version="1.1" xmlns="http://www.w3.org/2000/svg" xmlns:xlink="http://www.w3.org/1999/xlink">
    <!-- Generator: sketchtool 53 (72520) - https://sketchapp.com -->
    <title>6FDCA130-882A-4D06-8481-7A005ED1C135</title>
    <desc>Created with sketchtool.</desc>
    <g id="Glyph" stroke="none" stroke-width="1" fill="none" fill-rule="evenodd">
        <g id="Glyph---16px" transform="translate(-948.000000, -478.000000)">
            <g id="Icon/Glyph/16px/ic_arrow-down" transform="translate(946.000000, 476.000000)">
                <g>
                    <rect id="Rectangle" x="0" y="0" width="16" height="16"></rect>
                    <path d="M13.4333333,7.94 C13.3081556,7.81379157 13.1377584,7.74280112 12.96,7.74280112 C12.7822416,7.74280112 12.6118444,7.81379157 12.4866667,7.94 L8.66666667,11.76 L8.66666667,2.66666667 C8.66666667,2.29847683 8.36818983,2 8,2 C7.63181017,2 7.33333333,2.29847683 7.33333333,2.66666667 L7.33333333,11.76 L3.51333333,7.94 C3.3881556,7.81379157 3.21775836,7.74280112 3.04,7.74280112 C2.86224164,7.74280112 2.6918444,7.81379157 2.56666667,7.94 C2.30818427,8.20002497 2.30818427,8.61997503 2.56666667,8.88 L7.46666667,13.78 C7.60799628,13.9216731 7.79988668,14.0012932 8,14.0012932 C8.20011332,14.0012932 8.39200372,13.9216731 8.53333333,13.78 L13.4333333,8.88 C13.6918157,8.61997503 13.6918157,8.20002497 13.4333333,7.94 Z" id="Path" fill="#70727D" fill-rule="nonzero"></path>
                </g>
            </g>
        </g>
    </g>
</svg>