<?xml version="1.0" encoding="UTF-8"?>
<svg width="12px" height="14px" viewBox="0 0 12 14" version="1.1" xmlns="http://www.w3.org/2000/svg" xmlns:xlink="http://www.w3.org/1999/xlink">
    <!-- Generator: sketchtool 53 (72520) - https://sketchapp.com -->
    <title>6D77AAEB-F689-44A1-AF23-9AC31D99630E</title>
    <desc>Created with sketchtool.</desc>
    <g id="Glyph" stroke="none" stroke-width="1" fill="none" fill-rule="evenodd">
        <g id="Glyph---16px" transform="translate(-1004.000000, -381.000000)">
            <g id="Icon/Glyph/16px/ic_add-document" transform="translate(1002.000000, 380.000000)">
                <g>
                    <rect id="Rectangle" x="0" y="0" width="16" height="16"></rect>
                    <path class="test" d="M9.64666667,1.64666667 C9.44495306,1.44550375 9.17154312,1.33278211 8.88666667,1.33333333 L4,1.33333333 C3.26362033,1.33333333 2.66666667,1.930287 2.66666667,2.66666667 L2.66666667,13.3333333 C2.66666667,14.069713 3.26362033,14.6666667 4,14.6666667 L12,14.6666667 C12.7363797,14.6666667 13.3333333,14.069713 13.3333333,13.3333333 L13.3333333,5.78 C13.3338846,5.49512355 13.2211629,5.22171361 13.02,5.02 L9.64666667,1.64666667 Z M10,10.6666667 L8.66666667,10.6666667 L8.66666667,12 C8.66666667,12.3681898 8.36818983,12.6666667 8,12.6666667 L8,12.6666667 C7.63181017,12.6666667 7.33333333,12.3681898 7.33333333,12 L7.33333333,10.6666667 L6,10.6666667 C5.63181017,10.6666667 5.33333333,10.3681898 5.33333333,10 L5.33333333,10 C5.33333333,9.63181017 5.63181017,9.33333333 6,9.33333333 L7.33333333,9.33333333 L7.33333333,8 C7.33333333,7.63181017 7.63181017,7.33333333 8,7.33333333 L8,7.33333333 C8.36818983,7.33333333 8.66666667,7.63181017 8.66666667,8 L8.66666667,9.33333333 L10,9.33333333 C10.3681898,9.33333333 10.6666667,9.63181017 10.6666667,10 L10.6666667,10 C10.6666667,10.3681898 10.3681898,10.6666667 10,10.6666667 Z M8.66666667,5.44666667 L8.66666667,2.92 C8.66357853,2.82064059 8.72206349,2.72966113 8.81373643,2.69121764 C8.90540937,2.65277415 9.01129391,2.67482446 9.08,2.74666667 L11.92,5.58666667 C11.9918422,5.65537276 12.0138925,5.7612573 11.975449,5.85293024 C11.9370055,5.94460317 11.8460261,6.00308814 11.7466667,6 L9.22,6 C8.91440244,6 8.66666667,5.75226423 8.66666667,5.44666667 L8.66666667,5.44666667 Z" id="test" fill="#70727D" fill-rule="nonzero"></path>
                </g>
            </g>
        </g>
    </g>
</svg>
