<?xml version="1.0" encoding="UTF-8"?>
<svg width="12px" height="12px" viewBox="0 0 12 12" version="1.1" xmlns="http://www.w3.org/2000/svg" xmlns:xlink="http://www.w3.org/1999/xlink">
    <!-- Generator: sketchtool 53 (72520) - https://sketchapp.com -->
    <title>734AD431-D4F1-4E47-A265-D6304A986E0A</title>
    <desc>Created with sketchtool.</desc>
    <g id="Glyph" stroke="none" stroke-width="1" fill="none" fill-rule="evenodd">
        <g id="Glyph---16px" transform="translate(-500.000000, -574.000000)">
            <g id="Icon/Glyph/16px/ic_backtotop" transform="translate(498.000000, 572.000000)">
                <g id="Icon/Glyph/16px/ic_arrow-up">
                    <rect id="Rectangle" x="0" y="0" width="16" height="16"></rect>
                    <rect id="Rectangle" fill="#70727D" x="3" y="2" width="10" height="1" rx="0.5"></rect>
                    <path d="M13.4333333,7.69662188 L8.53333333,3.20294301 C8.39200372,3.07301778 8.20011332,3 8,3 C7.79988668,3 7.60799628,3.07301778 7.46666667,3.20294301 L2.56666667,7.69662188 C2.30818427,7.93508488 2.30818427,8.32021156 2.56666667,8.55867456 C2.6918444,8.67441745 2.86224164,8.73952118 3.04,8.73952118 C3.21775836,8.73952118 3.3881556,8.67441745 3.51333333,8.55867456 L7.33333333,5.0554392 L7.33333333,13.3886151 C7.33333333,13.7262737 7.63181017,14 8,14 C8.36818983,14 8.66666667,13.7262737 8.66666667,13.3886151 L8.66666667,5.0554392 L12.4866667,8.55867456 C12.6118444,8.67441745 12.7822416,8.73952118 12.96,8.73952118 C13.1377584,8.73952118 13.3081556,8.67441745 13.4333333,8.55867456 L13.4333333,8.55867456 C13.6918157,8.32021156 13.6918157,7.93508488 13.4333333,7.69662188 Z" id="Path" fill="#70727D" fill-rule="nonzero"></path>
                </g>
            </g>
        </g>
    </g>
</svg>