<?xml version="1.0" encoding="UTF-8"?>
<svg width="14px" height="13px" viewBox="0 0 14 13" version="1.1" xmlns="http://www.w3.org/2000/svg" xmlns:xlink="http://www.w3.org/1999/xlink">
    <!-- Generator: sketchtool 53 (72520) - https://sketchapp.com -->
    <title>434BC24C-3ECC-4AAB-B028-D6536713FDEB</title>
    <desc>Created with sketchtool.</desc>
    <g id="Glyph" stroke="none" stroke-width="1" fill="none" fill-rule="evenodd">
        <g id="Glyph---16px" transform="translate(-667.000000, -477.000000)">
            <g id="Icon/Glyph/16px/ic_basket" transform="translate(666.000000, 476.000000)">
                <g>
                    <rect id="Rectangle" x="0" y="0" width="16" height="16"></rect>
                    <path d="M13.4733333,5.90666667 L11.4733333,5.90666667 L11.4733333,5.28 C11.4733333,3.39118616 9.94214718,1.86 8.05333333,1.86 C6.1683381,1.87440299 4.64173746,3.39507508 4.62,5.28 L4.62,5.90666667 L2.52666667,5.90666667 C2.16609542,5.90217327 1.82261796,6.06006547 1.59125981,6.33666124 C1.35990166,6.61325702 1.26519215,6.97923081 1.33333333,7.33333333 L2.38,12.3666667 C2.4900556,12.9360424 2.99351453,13.3438722 3.57333333,13.3333333 L12.4266667,13.3333333 C12.9923599,13.3322506 13.4795634,12.9341358 13.5933333,12.38 L14.14,9.75333333 L14.6666667,7.33333333 C14.7348079,6.97923081 14.6400983,6.61325702 14.4087402,6.33666124 C14.177382,6.06006547 13.8339046,5.90217327 13.4733333,5.90666667 L13.4733333,5.90666667 Z M5.95333333,5.28 C5.90962085,4.50757412 6.29686522,3.77436213 6.95946815,3.37497524 C7.62207107,2.97558835 8.45126226,2.97558835 9.11386519,3.37497524 C9.77646811,3.77436213 10.1637125,4.50757412 10.12,5.28 L10.12,5.90666667 L5.95333333,5.90666667 L5.95333333,5.28 Z M8,11.2266667 C7.1126625,11.2266667 6.39333333,10.5073375 6.39333333,9.62 C6.39333333,9.62 6.39333333,9.54666667 6.39333333,9.51333333 C6.45831198,8.65373338 7.19517622,8.00170341 8.05629432,8.04182698 C8.91741243,8.08195055 9.59045335,8.79967467 9.57521833,9.66159241 C9.55998332,10.5235102 8.86199818,11.2170004 8,11.2266667 L8,11.2266667 Z" id="Shape" fill="#70727D" fill-rule="nonzero"></path>
                </g>
            </g>
        </g>
    </g>
</svg>