<?xml version="1.0" encoding="UTF-8"?>
<svg width="8px" height="8px" viewBox="0 0 8 8" version="1.1" xmlns="http://www.w3.org/2000/svg" xmlns:xlink="http://www.w3.org/1999/xlink">
    <!-- Generator: sketchtool 53 (72520) - https://sketchapp.com -->
    <title>6990EA0F-3864-45AA-9C8E-5F635D6602FC</title>
    <desc>Created with sketchtool.</desc>
    <g id="Glyph" stroke="none" stroke-width="1" fill="none" fill-rule="evenodd">
        <g id="Glyph---16px" transform="translate(-388.000000, -758.000000)">
            <g id="Icon/Glyph/16px/ic_cancel-small" transform="translate(384.000000, 754.000000)">
                <g>
                    <rect id="Rectangle" x="0" y="0" width="16" height="16"></rect>
                    <path d="M8.73785055,8 L11.8471861,11.1093356 C12.050938,11.3130874 12.050938,11.6434343 11.8471861,11.8471861 C11.6434343,12.050938 11.3130874,12.050938 11.1093356,11.8471861 L8,8.73785055 L4.89066441,11.8471861 C4.6869126,12.050938 4.35656566,12.050938 4.15281385,11.8471861 C3.94906205,11.6434343 3.94906205,11.3130874 4.15281385,11.1093356 L7.26214945,8 L4.15281385,4.89066441 C3.94906205,4.6869126 3.94906205,4.35656566 4.15281385,4.15281385 C4.35656566,3.94906205 4.6869126,3.94906205 4.89066441,4.15281385 L8,7.26214945 L11.1093356,4.15281385 C11.3130874,3.94906205 11.6434343,3.94906205 11.8471861,4.15281385 C12.050938,4.35656566 12.050938,4.6869126 11.8471861,4.89066441 L8.73785055,8 Z" id="Combined-Shape" fill="#70727D" fill-rule="nonzero"></path>
                </g>
            </g>
        </g>
    </g>
</svg>