<?xml version="1.0" encoding="UTF-8"?>
<svg width="14px" height="12px" viewBox="0 0 14 12" version="1.1" xmlns="http://www.w3.org/2000/svg" xmlns:xlink="http://www.w3.org/1999/xlink">
    <!-- Generator: sketchtool 53 (72520) - https://sketchapp.com -->
    <title>20D374FA-C9FE-4C02-B467-F42D28AD72A6</title>
    <desc>Created with sketchtool.</desc>
    <g id="Glyph" stroke="none" stroke-width="1" fill="none" fill-rule="evenodd">
        <g id="Glyph---16px" transform="translate(-499.000000, -478.000000)">
            <g id="Icon/Glyph/16px/ic_card" transform="translate(498.000000, 476.000000)">
                <g>
                    <rect id="Rectangle" x="0" y="0" width="16" height="16"></rect>
                    <path d="M13.3333333,2.66666667 L2.66666667,2.66666667 C1.930287,2.66666667 1.33333333,3.26362033 1.33333333,4 L1.33333333,12 C1.33333333,12.7363797 1.930287,13.3333333 2.66666667,13.3333333 L13.3333333,13.3333333 C14.069713,13.3333333 14.6666667,12.7363797 14.6666667,12 L14.6666667,4 C14.6666667,3.26362033 14.069713,2.66666667 13.3333333,2.66666667 Z M12.6666667,12 L3.33333333,12 C2.9651435,12 2.66666667,11.7015232 2.66666667,11.3333333 L2.66666667,8.66666667 C2.66666667,8.29847683 2.9651435,8 3.33333333,8 L12.6666667,8 C13.0348565,8 13.3333333,8.29847683 13.3333333,8.66666667 L13.3333333,11.3333333 C13.3333333,11.7015232 13.0348565,12 12.6666667,12 Z M12.6666667,5.33333333 L3.33333333,5.33333333 C2.9651435,5.33333333 2.66666667,5.0348565 2.66666667,4.66666667 L2.66666667,4.66666667 C2.66666667,4.29847683 2.9651435,4 3.33333333,4 L12.6666667,4 C13.0348565,4 13.3333333,4.29847683 13.3333333,4.66666667 L13.3333333,4.66666667 C13.3333333,5.0348565 13.0348565,5.33333333 12.6666667,5.33333333 Z" id="Shape" fill="#70727D" fill-rule="nonzero"></path>
                </g>
            </g>
        </g>
    </g>
</svg>