<?xml version="1.0" encoding="UTF-8"?>
<svg width="12px" height="8px" viewBox="0 0 12 8" version="1.1" xmlns="http://www.w3.org/2000/svg" xmlns:xlink="http://www.w3.org/1999/xlink">
    <!-- Generator: sketchtool 53 (72520) - https://sketchapp.com -->
    <title>1BACD189-8550-4B6F-A71A-B68795E3590C</title>
    <desc>Created with sketchtool.</desc>
    <g id="Glyph" stroke="none" stroke-width="1" fill="none" fill-rule="evenodd">
        <g id="Glyph---16px" transform="translate(-892.000000, -288.000000)">
            <g id="Icon/Glyph/16px/ic_chevron-up" transform="translate(890.000000, 284.000000)">
                <g>
                    <rect id="Rectangle" x="0" y="0" width="16" height="16"></rect>
                    <path d="M12.4866667,10.9333333 L8,6.44666667 L3.51333333,10.9333333 C3.3881556,11.0595418 3.21775836,11.1305322 3.04,11.1305322 C2.86224164,11.1305322 2.6918444,11.0595418 2.56666667,10.9333333 L2.56666667,10.9333333 C2.44045823,10.8081556 2.36946778,10.6377584 2.36946778,10.46 C2.36946778,10.2822416 2.44045823,10.1118444 2.56666667,9.98666667 L7.46666667,5.09333333 C7.60799628,4.95166019 7.79988668,4.8720401 8,4.8720401 C8.20011332,4.8720401 8.39200372,4.95166019 8.53333333,5.09333333 L13.4333333,10 C13.5595418,10.1251777 13.6305322,10.295575 13.6305322,10.4733333 C13.6305322,10.6510917 13.5595418,10.8214889 13.4333333,10.9466667 L13.4333333,10.9466667 C13.3063865,11.0711286 13.134986,11.1397304 12.9572222,11.1372267 C12.7794583,11.1347229 12.6100578,11.0613211 12.4866667,10.9333333 Z" id="Path" fill="#70727D" fill-rule="nonzero"></path>
                </g>
            </g>
        </g>
    </g>
</svg>