<?xml version="1.0" encoding="UTF-8"?>
<svg width="12px" height="8px" viewBox="0 0 12 8" version="1.1" xmlns="http://www.w3.org/2000/svg" xmlns:xlink="http://www.w3.org/1999/xlink">
    <!-- Generator: sketchtool 53 (72520) - https://sketchapp.com -->
    <title>28A83752-E086-4C20-83AB-56556E2B1F78</title>
    <desc>Created with sketchtool.</desc>
    <g id="Glyph" stroke="none" stroke-width="1" fill="none" fill-rule="evenodd">
        <g id="Glyph---16px" transform="translate(-836.000000, -288.000000)">
            <g id="Icon/Glyph/16px/ic_chevron-down" transform="translate(834.000000, 284.000000)">
                <g>
                    <rect id="Rectangle" x="0" y="0" width="16" height="16"></rect>
                    <path d="M3.51333333,5.06666667 L8,9.55333333 L12.4866667,5.06666667 C12.6118444,4.94045823 12.7822416,4.86946778 12.96,4.86946778 C13.1377584,4.86946778 13.3081556,4.94045823 13.4333333,5.06666667 L13.4333333,5.06666667 C13.5595418,5.1918444 13.6305322,5.36224164 13.6305322,5.54 C13.6305322,5.71775836 13.5595418,5.8881556 13.4333333,6.01333333 L8.53333333,10.9066667 C8.39200372,11.0483398 8.20011332,11.1279599 8,11.1279599 C7.79988668,11.1279599 7.60799628,11.0483398 7.46666667,10.9066667 L2.56666667,6 C2.44045823,5.87482227 2.36946778,5.70442502 2.36946778,5.52666667 C2.36946778,5.34890831 2.44045823,5.17851107 2.56666667,5.05333333 L2.56666667,5.05333333 C2.69361345,4.92887143 2.865014,4.86026963 3.04277784,4.86277334 C3.22054168,4.86527706 3.38994218,4.93867888 3.51333333,5.06666667 Z" id="Path" fill="#70727D" fill-rule="nonzero"></path>
                </g>
            </g>
        </g>
    </g>
</svg>