<?xml version="1.0" encoding="UTF-8"?>
<svg width="12px" height="12px" viewBox="0 0 12 12" version="1.1" xmlns="http://www.w3.org/2000/svg" xmlns:xlink="http://www.w3.org/1999/xlink">
    <!-- Generator: sketchtool 53 (72520) - https://sketchapp.com -->
    <title>E5AE9203-F262-4AD5-A148-7F529C29A9BC</title>
    <desc>Created with sketchtool.</desc>
    <g id="Glyph" stroke="none" stroke-width="1" fill="none" fill-rule="evenodd">
        <g id="Glyph---16px" transform="translate(-164.000000, -478.000000)">
            <g id="Icon/Glyph/16px/ic_chat" transform="translate(162.000000, 476.000000)">
                <g>
                    <rect id="Rectangle" x="0" y="0" width="16" height="16"></rect>
                    <path d="M11.64,2 L4.36,2 C3.73470291,1.99822861 3.13440926,2.24538616 2.69163073,2.68691391 C2.24885219,3.12844166 1.99999749,3.72803373 2,4.35333333 L2,12.82 C1.99790864,13.0184255 2.11649995,13.1982485 2.29971543,13.2744661 C2.4829309,13.3506838 2.69407268,13.3080297 2.83333333,13.1666667 L4.29333333,11.7066667 C4.36075169,11.6396067 4.45158551,11.6013608 4.54666667,11.6 L11.64,11.6 C12.9418721,11.5963379 13.9963379,10.5418721 14,9.24 L14,4.36 C13.9963379,3.0581279 12.9418721,2.00366211 11.64,2 Z M10.9733333,9.2 L4.97333333,9.2 C4.64196248,9.2 4.37333333,8.93137085 4.37333333,8.6 L4.37333333,8.6 C4.37333333,8.26862915 4.64196248,8 4.97333333,8 L10.9733333,8 C11.3047042,8 11.5733333,8.26862915 11.5733333,8.6 L11.5733333,8.6 C11.5736507,8.92123017 11.3209129,9.18572325 11,9.2 L10.9733333,9.2 Z M11.5733333,6.8 C11.5733333,7.13137085 11.3047042,7.4 10.9733333,7.4 L4.97333333,7.4 C4.64196248,7.4 4.37333333,7.13137085 4.37333333,6.8 L4.37333333,6.8 C4.37333333,6.46862915 4.64196248,6.2 4.97333333,6.2 L10.9733333,6.2 C11.3047042,6.2 11.5733333,6.46862915 11.5733333,6.8 L11.5733333,6.8 Z M10.9733333,5.6 L4.97333333,5.6 C4.64196248,5.6 4.37333333,5.33137085 4.37333333,5 L4.37333333,5 C4.37333333,4.66862915 4.64196248,4.4 4.97333333,4.4 L10.9733333,4.4 C11.3047042,4.4 11.5733333,4.66862915 11.5733333,5 L11.5733333,5 C11.5736507,5.32123017 11.3209129,5.58572325 11,5.6 L10.9733333,5.6 Z" id="Shape" fill="#70727D" fill-rule="nonzero"></path>
                </g>
            </g>
        </g>
    </g>
</svg>