<?xml version="1.0" encoding="UTF-8"?>
<svg width="12px" height="10px" viewBox="0 0 12 10" version="1.1" xmlns="http://www.w3.org/2000/svg" xmlns:xlink="http://www.w3.org/1999/xlink">
    <!-- Generator: sketchtool 53.2 (72643) - https://sketchapp.com -->
    <title>FF7CBD3D-1112-4A00-8045-80A0AAF0BD71</title>
    <desc>Created with sketchtool.</desc>
    <g id="Glyph" stroke="none" stroke-width="1" fill="none" fill-rule="evenodd">
        <g id="Glyph---16px" transform="translate(-220.000000, -479.000000)">
            <g id="Icon/Glyph/16px/ic_category" transform="translate(218.000000, 476.000000)">
                <g>
                    <rect id="Rectangle" x="0" y="0" width="16" height="16"></rect>
                    <path d="M13.2866667,10.4933333 C13.4758544,10.4933333 13.6572936,10.5684879 13.7910695,10.7022638 C13.9248455,10.8360398 14,11.0174789 14,11.2066667 L14,11.5066667 C14,11.9006298 13.6806298,12.22 13.2866667,12.22 L6.89333333,12.22 C6.49937021,12.22 6.18,11.9006298 6.18,11.5066667 L6.18,11.2066667 C6.18,10.8127035 6.49937021,10.4933333 6.89333333,10.4933333 L13.2866667,10.4933333 Z M2.86666667,10.4933333 L4.64,10.4933333 C5.11496488,10.4933333 5.5,10.8783684 5.5,11.3533333 C5.5,11.8282982 5.11496488,12.2133333 4.64,12.2133333 L2.86666667,12.2133333 C2.39170178,12.2133333 2.00666667,11.8282982 2.00666667,11.3533333 C2.00666667,10.8783684 2.39170178,10.4933333 2.86666667,10.4933333 Z M7.04,3.78 L13.14,3.78 C13.6149649,3.78 14,4.16503512 14,4.64 C14,5.11496488 13.6149649,5.5 13.14,5.5 L7.04,5.5 C6.56503512,5.5 6.18,5.11496488 6.18,4.64 C6.18,4.16503512 6.56503512,3.78 7.04,3.78 Z M7.04,7.14 L13.14,7.14 C13.6149649,7.14 14,7.52503512 14,8 C14,8.47496488 13.6149649,8.86 13.14,8.86 L7.04,8.86 C6.56503512,8.86 6.18,8.47496488 6.18,8 C6.18,7.52503512 6.56503512,7.14 7.04,7.14 Z M5.08666667,3.85333333 C5.32864512,3.97125653 5.48156801,4.2174883 5.48,4.48666667 L5.48,4.79333333 C5.48401227,5.16985551 5.18945074,5.48209073 4.81333333,5.5 L2.71333333,5.5 C2.52359992,5.50179854 2.34111394,5.42722168 2.20694613,5.29305387 C2.07277832,5.15888606 1.99820146,4.97640008 2,4.78666667 L2,4.48666667 C1.99816411,4.29752831 2.07294778,4.11569721 2.20732153,3.98257928 C2.34169529,3.84946136 2.52422055,3.77638829 2.71333333,3.78 L4.78666667,3.78 C4.89102817,3.78062572 4.99378514,3.80574409 5.08666667,3.85333333 Z M5.04,7.18666667 C5.29630421,7.30542106 5.45838831,7.56423278 5.45333333,7.84666667 L5.45333333,8.14666667 C5.45708645,8.18212318 5.45708645,8.21787682 5.45333333,8.25333333 C5.40819824,8.59076303 5.12684541,8.8467941 4.78666667,8.86 L2.70666667,8.86 C2.5180862,8.86000839 2.33732503,8.78464178 2.204606,8.65067069 C2.07188698,8.5166996 1.99822094,8.33523874 2,8.14666667 L2,7.84666667 C1.99816411,7.65752831 2.07294778,7.47569721 2.20732153,7.34257928 C2.34169529,7.20946136 2.52422055,7.13638829 2.71333333,7.14 L4.78666667,7.14 C4.87305395,7.14199943 4.9585707,7.15775252 5.04,7.18666667 Z" id="Combined-Shape" fill="#70727D" fill-rule="nonzero"></path>
                </g>
            </g>
        </g>
    </g>
</svg>