<?xml version="1.0" encoding="UTF-8"?>
<svg width="8px" height="12px" viewBox="0 0 8 12" version="1.1" xmlns="http://www.w3.org/2000/svg" xmlns:xlink="http://www.w3.org/1999/xlink">
    <!-- Generator: sketchtool 53 (72520) - https://sketchapp.com -->
    <title>E578B24A-59C2-4C6D-B989-1820F04B8342</title>
    <desc>Created with sketchtool.</desc>
    <g id="Glyph" stroke="none" stroke-width="1" fill="none" fill-rule="evenodd">
        <g id="Glyph---16px" transform="translate(-1006.000000, -286.000000)">
            <g id="Icon/Glyph/16px/ic_chevron-left" transform="translate(1002.000000, 284.000000)">
                <g>
                    <rect id="Rectangle" x="0" y="0" width="16" height="16"></rect>
                    <path d="M10.9333333,3.51333333 L6.44666667,8 L10.9333333,12.4866667 C11.0595418,12.6118444 11.1305322,12.7822416 11.1305322,12.96 C11.1305322,13.1377584 11.0595418,13.3081556 10.9333333,13.4333333 L10.9333333,13.4333333 C10.8081556,13.5595418 10.6377584,13.6305322 10.46,13.6305322 C10.2822416,13.6305322 10.1118444,13.5595418 9.98666667,13.4333333 L5.09333333,8.53333333 C4.95166019,8.39200372 4.8720401,8.20011332 4.8720401,8 C4.8720401,7.79988668 4.95166019,7.60799628 5.09333333,7.46666667 L10,2.56666667 C10.1251777,2.44045823 10.295575,2.36946778 10.4733333,2.36946778 C10.6510917,2.36946778 10.8214889,2.44045823 10.9466667,2.56666667 L10.9466667,2.56666667 C11.0711286,2.69361345 11.1397304,2.865014 11.1372267,3.04277784 C11.1347229,3.22054168 11.0613211,3.38994218 10.9333333,3.51333333 Z" id="Path" fill="#70727D" fill-rule="nonzero"></path>
                </g>
            </g>
        </g>
    </g>
</svg>