<?xml version="1.0" encoding="UTF-8"?>
<svg width="8px" height="12px" viewBox="0 0 8 12" version="1.1" xmlns="http://www.w3.org/2000/svg" xmlns:xlink="http://www.w3.org/1999/xlink">
    <!-- Generator: sketchtool 53 (72520) - https://sketchapp.com -->
    <title>5DA8015A-F39F-4BAD-B726-B816A7B6D3AD</title>
    <desc>Created with sketchtool.</desc>
    <g id="Glyph" stroke="none" stroke-width="1" fill="none" fill-rule="evenodd">
        <g id="Glyph---16px" transform="translate(-950.000000, -286.000000)">
            <g id="Icon/Glyph/16px/ic_chevron-right" transform="translate(946.000000, 284.000000)">
                <g>
                    <rect id="Rectangle" x="0" y="0" width="16" height="16"></rect>
                    <path d="M5.06666667,12.4866667 L9.55333333,8 L5.06666667,3.51333333 C4.94045823,3.3881556 4.86946778,3.21775836 4.86946778,3.04 C4.86946778,2.86224164 4.94045823,2.6918444 5.06666667,2.56666667 L5.06666667,2.56666667 C5.32589567,2.31257142 5.74077099,2.31257142 6,2.56666667 L10.8933333,7.46666667 C11.0350065,7.60799628 11.1146266,7.79988668 11.1146266,8 C11.1146266,8.20011332 11.0350065,8.39200372 10.8933333,8.53333333 L6,13.4333333 C5.87482227,13.5595418 5.70442502,13.6305322 5.52666667,13.6305322 C5.34890831,13.6305322 5.17851107,13.5595418 5.05333333,13.4333333 L5.05333333,13.4333333 C4.92887143,13.3063865 4.86026963,13.134986 4.86277334,12.9572222 C4.86527706,12.7794583 4.93867888,12.6100578 5.06666667,12.4866667 Z" id="Path" fill="#70727D" fill-rule="nonzero"></path>
                </g>
            </g>
        </g>
    </g>
</svg>