<?xml version="1.0" encoding="UTF-8"?>
<svg width="12px" height="12px" viewBox="0 0 12 12" version="1.1" xmlns="http://www.w3.org/2000/svg" xmlns:xlink="http://www.w3.org/1999/xlink">
    <!-- Generator: sketchtool 53 (72520) - https://sketchapp.com -->
    <title>8241A159-0503-4685-96AB-3EB292328E25</title>
    <desc>Created with sketchtool.</desc>
    <g id="Glyph" stroke="none" stroke-width="1" fill="none" fill-rule="evenodd">
        <g id="Glyph---16px" transform="translate(-276.000000, -478.000000)">
            <g id="Icon/Glyph/16px/ic_cart" transform="translate(274.000000, 476.000000)">
                <g>
                    <rect id="Rectangle" x="0" y="0" width="16" height="16"></rect>
                    <path d="M13.3333333,10.3333333 C13.7015232,10.3333333 14,10.6318102 14,11 C14,11.3681898 13.7015232,11.6666667 13.3333333,11.6666667 L5.54666667,11.6666667 C5.17684423,11.6671021 4.83007031,11.4870708 4.61763463,11.18435 C4.40519895,10.8816291 4.35382494,10.4942996 4.48,10.1466667 L4.55333333,9.92666667 C4.6131303,9.77652504 4.6337769,9.6136463 4.61333333,9.45333333 L4.12,4.36 C4.10049885,4.1787225 3.98630702,4.02139152 3.82,3.94666667 L2.38,3.28 C2.15984124,3.18159475 2.0099874,2.97196647 1.98812315,2.73180938 C1.9662589,2.49165228 2.07579306,2.25840895 2.27456161,2.12186394 C2.47333016,1.98531894 2.73034336,1.96676082 2.94666667,2.07333333 L4.38666667,2.74 C4.74554906,2.90999734 5.03842464,3.1935009 5.22,3.54666667 L13.3333333,3.54666667 C13.5275705,3.5447523 13.7129828,3.62764909 13.8410763,3.77367574 C13.9691699,3.9197024 14.027204,4.11433443 14,4.30666667 L13.42,7.3 C13.2727367,8.09092486 12.6150177,8.68587396 11.8133333,8.75333333 L5.94,9.29333333 L5.94,9.33333333 C5.97058712,9.67090502 5.9320239,10.0111687 5.82666667,10.3333333 L13.3333333,10.3333333 Z M7.33333333,14 C6.78104858,14 6.33333333,13.5522847 6.33333333,13 C6.33333333,12.4477153 6.78104858,12 7.33333333,12 C7.88561808,12 8.33333333,12.4477153 8.33333333,13 C8.33333333,13.5522847 7.88561808,14 7.33333333,14 Z M11.7533333,14 C11.2010486,14 10.7533333,13.5522847 10.7533333,13 C10.7533333,12.4477153 11.2010486,12 11.7533333,12 C12.3056181,12 12.7533333,12.4477153 12.7533333,13 C12.7533333,13.5522847 12.3056181,14 11.7533333,14 Z" id="Combined-Shape" fill="#70727D" fill-rule="nonzero"></path>
                </g>
            </g>
        </g>
    </g>
</svg>