<?xml version="1.0" encoding="UTF-8"?>
<svg width="12px" height="12px" viewBox="0 0 12 12" version="1.1" xmlns="http://www.w3.org/2000/svg" xmlns:xlink="http://www.w3.org/1999/xlink">
    <!-- Generator: sketchtool 53 (72520) - https://sketchapp.com -->
    <title>CC82E8D2-AEAD-4239-8F59-2672411CB744</title>
    <desc>Created with sketchtool.</desc>
    <g id="Glyph" stroke="none" stroke-width="1" fill="none" fill-rule="evenodd">
        <g id="Glyph---16px" transform="translate(-556.000000, -382.000000)">
            <g id="Icon/Glyph/16px/ic_date" transform="translate(554.000000, 380.000000)">
                <g>
                    <rect id="Rectangle" x="0" y="0" width="16" height="16"></rect>
                    <path d="M11.32,3.33333333 L12.6,3.33333333 C13.3731986,3.33333333 14,3.96013468 14,4.73333333 L14,6.26666667 C14,6.45076158 13.8507616,6.6 13.6666667,6.6 L2.33333333,6.6 C2.14923842,6.6 2,6.45076158 2,6.26666667 L2,4.73333333 C2,4.36203025 2.14749958,4.00593477 2.41005051,3.74338384 C2.67260144,3.48083291 3.02869691,3.33333333 3.4,3.33333333 L4.68,3.33333333 L4.68,2.54666667 C4.68,2.244751 4.924751,2 5.22666667,2 C5.52858233,2 5.77333333,2.244751 5.77333333,2.54666667 L5.77333333,3.33333333 L10.2266667,3.33333333 L10.2266667,2.54666667 C10.2266667,2.244751 10.4714177,2 10.7733333,2 C11.075249,2 11.32,2.244751 11.32,2.54666667 L11.32,3.33333333 Z M2.33333333,7.33333333 L13.6666667,7.33333333 C13.8507616,7.33333333 14,7.48257175 14,7.66666667 L14,12.6 C14,12.9713031 13.8525004,13.3273986 13.5899495,13.5899495 C13.3273986,13.8525004 12.9713031,14 12.6,14 L3.4,14 C3.02869691,14 2.67260144,13.8525004 2.41005051,13.5899495 C2.14749958,13.3273986 2,12.9713031 2,12.6 L2,7.66666667 C2,7.48257175 2.14923842,7.33333333 2.33333333,7.33333333 Z" id="Combined-Shape" fill="#70727D" fill-rule="nonzero"></path>
                </g>
            </g>
        </g>
    </g>
</svg>