<?xml version="1.0" encoding="UTF-8"?>
<svg width="10px" height="12px" viewBox="0 0 10 12" version="1.1" xmlns="http://www.w3.org/2000/svg" xmlns:xlink="http://www.w3.org/1999/xlink">
    <!-- Generator: sketchtool 53 (72520) - https://sketchapp.com -->
    <title>68D7E980-E6D3-437D-8ABA-84C502DF9984</title>
    <desc>Created with sketchtool.</desc>
    <g id="Glyph" stroke="none" stroke-width="1" fill="none" fill-rule="evenodd">
        <g id="Glyph---16px" transform="translate(-389.000000, -286.000000)">
            <g id="Icon/Glyph/16px/ic_download-outline" transform="translate(386.000000, 284.000000)">
                <g>
                    <rect id="Rectangle" x="0" y="0" width="16" height="16"></rect>
                    <path d="M8,10.9 C7.66996558,10.8977476 7.35399042,10.7660913 7.12,10.5333333 L4,7.43333333 C3.68940398,7.12377644 3.59835198,6.65640971 3.77002833,6.2528969 C3.94170469,5.8493841 4.34157981,5.59088454 4.78,5.6 L5.53333333,5.6 L5.53333333,3.8 C5.53333333,2.80588745 6.33922078,2 7.33333333,2 L8.66666667,2 C9.14405635,2 9.60189339,2.18964231 9.93945887,2.52720779 C10.2770244,2.86477328 10.4666667,3.32261032 10.4666667,3.8 L10.4666667,5.6 L11.22,5.6 C11.6584202,5.59088454 12.0582953,5.8493841 12.2299717,6.2528969 C12.401648,6.65640971 12.310596,7.12377644 12,7.43333333 L8.87333333,10.5333333 C8.6426291,10.7669242 8.32831066,10.8988899 8,10.9 Z M5.40666667,6.9 L8,9.52666667 L10.5933333,6.93333333 L9.13333333,6.93333333 L9.13333333,3.8 C9.13333333,3.54226712 8.92439955,3.33333333 8.66666667,3.33333333 L7.33333333,3.33333333 C7.07560045,3.33333333 6.86666667,3.54226712 6.86666667,3.8 L6.86666667,6.93333333 L5.40666667,6.9 Z M3.76666667,12.5866667 L12.2333333,12.5866667 C12.6236146,12.5866667 12.94,12.9030521 12.94,13.2933333 C12.94,13.6836146 12.6236146,14 12.2333333,14 L3.76666667,14 C3.37638544,14 3.06,13.6836146 3.06,13.2933333 C3.06,12.9030521 3.37638544,12.5866667 3.76666667,12.5866667 Z" id="Combined-Shape" fill="#70727D" fill-rule="nonzero"></path>
                </g>
            </g>
        </g>
    </g>
</svg>