<?xml version="1.0" encoding="UTF-8"?>
<svg width="12px" height="12px" viewBox="0 0 12 12" version="1.1" xmlns="http://www.w3.org/2000/svg" xmlns:xlink="http://www.w3.org/1999/xlink">
    <!-- Generator: sketchtool 53 (72520) - https://sketchapp.com -->
    <title>32187CAF-B271-4B12-8C9C-C0B1CC8FFA4E</title>
    <desc>Created with sketchtool.</desc>
    <g id="Glyph" stroke="none" stroke-width="1" fill="none" fill-rule="evenodd">
        <g id="Glyph---16px" transform="translate(-556.000000, -286.000000)">
            <g id="Icon/Glyph/16px/ic_down" transform="translate(554.000000, 284.000000)">
                <g>
                    <rect id="Rectangle" x="0" y="0" width="16" height="16"></rect>
                    <path d="M12.6666667,2 C13.4030463,2 14,2.59695367 14,3.33333333 L14,12.6666667 C14,13.4030463 13.4030463,14 12.6666667,14 L3.33333333,14 C2.59695367,14 2,13.4030463 2,12.6666667 L2,3.33333333 C2,2.59695367 2.59695367,2 3.33333333,2 L12.6666667,2 Z M3.33333333,12.6666667 L12.6666667,12.6666667 L12.6666667,3.33333333 L3.33333333,3.33333333 L3.33333333,12.6666667 Z M10.6666667,4.46666667 C10.937918,4.28454644 11.3011833,4.32583862 11.5246396,4.56419202 C11.7480959,4.80254542 11.7658902,5.16771674 11.5666667,5.42666667 L6.44,10.3866667 L8.66666667,10.3866667 C9.0348565,10.3866667 9.33333333,10.6851435 9.33333333,11.0533333 C9.33333333,11.4215232 9.0348565,11.72 8.66666667,11.72 L4.94666667,11.72 C4.62160122,11.7187248 4.3340156,11.5090829 4.23333333,11.2 C4.2301164,11.1622907 4.2301164,11.124376 4.23333333,11.0866667 C4.22954164,11.0445296 4.22954164,11.0021371 4.23333333,10.96 L4.23333333,7.28 C4.23333333,6.91181017 4.53181017,6.61333333 4.9,6.61333333 C5.26818983,6.61333333 5.56666667,6.91181017 5.56666667,7.28 L5.56666667,9.38 L10.6666667,4.46666667 Z" id="Combined-Shape" fill="#70727D" fill-rule="nonzero"></path>
                </g>
            </g>
        </g>
    </g>
</svg>