<?xml version="1.0" encoding="UTF-8"?>
<svg width="10px" height="12px" viewBox="0 0 10 12" version="1.1" xmlns="http://www.w3.org/2000/svg" xmlns:xlink="http://www.w3.org/1999/xlink">
    <!-- Generator: sketchtool 53 (72520) - https://sketchapp.com -->
    <title>DA231E75-49BF-4987-98AE-27CC32D98F6F</title>
    <desc>Created with sketchtool.</desc>
    <g id="Glyph" stroke="none" stroke-width="1" fill="none" fill-rule="evenodd">
        <g id="Glyph---16px" transform="translate(-445.000000, -286.000000)">
            <g id="Icon/Glyph/16px/ic_download-full" transform="translate(442.000000, 284.000000)">
                <g>
                    <rect id="Rectangle" x="0" y="0" width="16" height="16"></rect>
                    <path d="M11.7866667,6.23333333 L10.12,6.23333333 L10.12,3.33333333 C10.12,2.59695367 9.52304633,2 8.78666667,2 L7.21333333,2 C6.47695367,2 5.88,2.59695367 5.88,3.33333333 L5.88,6.23333333 L4.21333333,6.23333333 C4.01882518,6.23285518 3.84325692,6.34980876 3.76875715,6.52948467 C3.69425738,6.70916058 3.73555572,6.91603447 3.87333333,7.05333333 L7.52666667,10.7 C7.6518444,10.8262084 7.82224164,10.8971989 8,10.8971989 C8.17775836,10.8971989 8.3481556,10.8262084 8.47333333,10.7 L12.1266667,7.05333333 C12.2644443,6.91603447 12.3057426,6.70916058 12.2312428,6.52948467 C12.1567431,6.34980876 11.9811748,6.23285518 11.7866667,6.23333333 L11.7866667,6.23333333 Z M3.06,13.2933333 L3.06,13.2933333 C3.05820116,13.4812987 3.13207555,13.6620892 3.2649932,13.7950068 C3.39791085,13.9279244 3.57870133,14.0017988 3.76666667,14 L12.2333333,14 C12.4212987,14.0017988 12.6020892,13.9279244 12.7350068,13.7950068 C12.8679244,13.6620892 12.9417988,13.4812987 12.94,13.2933333 L12.94,13.2933333 C12.94,12.9030521 12.6236146,12.5866667 12.2333333,12.5866667 L3.76666667,12.5866667 C3.57924701,12.5866667 3.39950358,12.6611188 3.26697787,12.7936445 C3.13445217,12.9261702 3.06,13.1059137 3.06,13.2933333 Z" id="Shape" fill="#70727D" fill-rule="nonzero"></path>
                </g>
            </g>
        </g>
    </g>
</svg>