<?xml version="1.0" encoding="UTF-8"?>
<svg width="14px" height="8px" viewBox="0 0 14 8" version="1.1" xmlns="http://www.w3.org/2000/svg" xmlns:xlink="http://www.w3.org/1999/xlink">
    <!-- Generator: sketchtool 53 (72520) - https://sketchapp.com -->
    <title>2BBE7F27-1D90-4703-BB36-B6F9F844983A</title>
    <desc>Created with sketchtool.</desc>
    <g id="Glyph" stroke="none" stroke-width="1" fill="none" fill-rule="evenodd">
        <g id="Glyph---16px" transform="translate(-779.000000, -288.000000)">
            <g id="Icon/Glyph/16px/ic_decrease" transform="translate(778.000000, 284.000000)">
                <g>
                    <rect id="Rectangle" x="0" y="0" width="16" height="16"></rect>
                    <path d="M14.48,4.23333333 C14.219975,3.97485094 13.800025,3.97485094 13.54,4.23333333 L9.54,8.11333333 L7.88666667,6 C7.69134371,5.7901343 7.41294149,5.67779656 7.12666667,5.69333333 C6.86800518,5.70782925 6.62679363,5.82843503 6.46,6.02666667 L2.66666667,9.62666667 L2.66666667,8 C2.66666667,7.63181017 2.36818983,7.33333333 2,7.33333333 C1.63181017,7.33333333 1.33333333,7.63181017 1.33333333,8 L1.33333333,11.22 C1.33106996,11.2577439 1.33106996,11.2955895 1.33333333,11.3333333 L1.33333333,11.4333333 C1.43226543,11.7560789 1.72910878,11.9773622 2.06666667,11.98 L5.33333333,11.98 C5.70152317,11.98 6,11.6815232 6,11.3133333 C6,10.9451435 5.70152317,10.6466667 5.33333333,10.6466667 L3.54,10.6466667 L7.14,7.21333333 L8.77333333,9.3 C8.95765674,9.50057167 9.21759568,9.61472369 9.49,9.61472369 C9.76240432,9.61472369 10.0223433,9.50057167 10.2066667,9.3 L14.46,5.19333333 C14.5930228,5.07041509 14.6703086,4.89866439 14.6740811,4.71758502 C14.6778536,4.53650566 14.607788,4.36168514 14.48,4.23333333 Z" id="Path" fill="#70727D" fill-rule="nonzero"></path>
                </g>
            </g>
        </g>
    </g>
</svg>