<?xml version="1.0" encoding="UTF-8"?>
<svg width="12px" height="14px" viewBox="0 0 12 14" version="1.1" xmlns="http://www.w3.org/2000/svg" xmlns:xlink="http://www.w3.org/1999/xlink">
    <!-- Generator: sketchtool 53 (72520) - https://sketchapp.com -->
    <title>705A2FF8-86BC-4162-918D-E7BB301F8FD3</title>
    <desc>Created with sketchtool.</desc>
    <g id="Glyph" stroke="none" stroke-width="1" fill="none" fill-rule="evenodd">
        <g id="Glyph---16px" transform="translate(-668.000000, -285.000000)">
            <g id="Icon/Glyph/16px/ic_delete" transform="translate(666.000000, 284.000000)">
                <g>
                    <rect id="Rectangle" x="0" y="0" width="16" height="16"></rect>
                    <path d="M3.55333333,12.3333333 C3.55699522,13.6204779 4.5995221,14.6630048 5.88666667,14.6666667 L10.1133333,14.6666667 C11.4004779,14.6630048 12.4430048,13.6204779 12.4466667,12.3333333 L12.4466667,5.05333333 C12.4466667,4.8517688 12.3665955,4.65845983 12.2240678,4.51593218 C12.0815402,4.37340453 11.8882312,4.29333333 11.6866667,4.29333333 L4.31333333,4.29333333 C3.89359692,4.29333333 3.55333333,4.63359692 3.55333333,5.05333333 L3.55333333,12.3333333 Z M12.7333333,2.07333333 L10.5933333,2.07333333 L10.06,1.54 C9.92734709,1.40751213 9.74748281,1.33316822 9.56,1.33333333 L6.44,1.33333333 C6.25251719,1.33316822 6.07265291,1.40751213 5.94,1.54 L5.40666667,2.07333333 L3.26666667,2.07333333 C3.14588747,2.0715168 3.02952191,2.11869501 2.94410846,2.20410846 C2.85869501,2.28952191 2.8115168,2.40588747 2.81333333,2.52666667 L2.81333333,3.10666667 C2.81332001,3.22629421 2.86129344,3.34092773 2.94650713,3.42488828 C3.03172083,3.50884884 3.14705245,3.55511882 3.26666667,3.55333333 L12.7333333,3.55333333 C12.8529475,3.55511882 12.9682792,3.50884884 13.0534929,3.42488828 C13.1387066,3.34092773 13.18668,3.22629421 13.1866667,3.10666667 L13.1866667,2.52666667 C13.1884832,2.40588747 13.141305,2.28952191 13.0558915,2.20410846 C12.9704781,2.11869501 12.8541125,2.0715168 12.7333333,2.07333333 Z" id="Shape" fill="#70727D" fill-rule="nonzero"></path>
                </g>
            </g>
        </g>
    </g>
</svg>