<?xml version="1.0" encoding="UTF-8"?>
<svg width="12px" height="12px" viewBox="0 0 12 12" version="1.1" xmlns="http://www.w3.org/2000/svg" xmlns:xlink="http://www.w3.org/1999/xlink">
    <!-- Generator: sketchtool 53 (72520) - https://sketchapp.com -->
    <title>1ED6A32E-F4BD-4E24-95B0-636F95F97D92</title>
    <desc>Created with sketchtool.</desc>
    <g id="Glyph" stroke="none" stroke-width="1" fill="none" fill-rule="evenodd">
        <g id="Glyph---16px" transform="translate(-164.000000, -574.000000)">
            <g id="Icon/Glyph/16px/ic_edit" transform="translate(162.000000, 572.000000)">
                <g>
                    <polygon id="Bounds" fill-opacity="0.1" fill="#FF0000" opacity="0" points="0 0 16 0 16 16 0 16"></polygon>
                    <path d="M2,13.4940877 C2,13.7734953 2.23071289,14 2.5059123,14 L3.9940877,14 C4.27349535,14 4.65400255,13.8459975 4.85563119,13.6443688 L11.5177021,6.98229786 C11.7141118,6.78588818 11.7093014,6.46263468 11.525719,6.27905238 L9.72094762,4.47428095 C9.52896555,4.28229888 9.21933079,4.28066921 9.01770214,4.48229786 L2.35563119,11.1443688 C2.15922151,11.3407785 2,11.7307129 2,12.0059123 L2,13.4940877 Z M13.8066667,3.75333333 L12.2466667,2.19333333 C11.9866667,1.93333333 11.5666667,1.93333333 11.3066667,2.19333333 L10.4461083,3.05389165 C10.2475942,3.25240581 10.2506986,3.57736532 10.434281,3.76094762 L12.2390524,5.56571905 C12.4310344,5.75770112 12.7461604,5.75383964 12.9461083,5.55389165 L13.8066667,4.69333333 C14.0666667,4.43333333 14.0666667,4.01333333 13.8066667,3.75333333 Z" id="Shape" fill="#70727D" fill-rule="nonzero"></path>
                </g>
            </g>
        </g>
    </g>
</svg>