<?xml version="1.0" encoding="UTF-8"?>
<svg width="12px" height="12px" viewBox="0 0 12 12" version="1.1" xmlns="http://www.w3.org/2000/svg" xmlns:xlink="http://www.w3.org/1999/xlink">
    <!-- Generator: sketchtool 53 (72520) - https://sketchapp.com -->
    <title>8AB5B612-4C4B-4834-AA52-99F79B2069C1</title>
    <desc>Created with sketchtool.</desc>
    <g id="Glyph" stroke="none" stroke-width="1" fill="none" fill-rule="evenodd">
        <g id="Glyph---16px" transform="translate(-332.000000, -286.000000)">
            <g id="Icon/Glyph/16px/ic_fav-product" transform="translate(330.000000, 284.000000)">
                <g>
                    <rect id="Rectangle" x="0" y="0" width="16" height="16"></rect>
                    <path d="M13.6466667,7.74666667 L8.24666667,2.34666667 C8.02170739,2.12321858 7.71707007,1.99848519 7.4,2 L3.2,2 C2.53877324,2.00364321 2.00364321,2.53877324 2,3.2 L2,7.4 C1.9992144,7.7201925 2.1264258,8.02742002 2.35333333,8.25333333 L7.75333333,13.6533333 C7.97829261,13.8767814 8.28292993,14.0015148 8.6,14 C8.9184797,14.0020117 9.2240947,13.8744716 9.44666667,13.6466667 L13.6466667,9.44666667 C13.8744716,9.2240947 14.0020117,8.9184797 14,8.6 C13.9978926,8.28038587 13.8711192,7.97421603 13.6466667,7.74666667 L13.6466667,7.74666667 Z M4.1,5 C3.60294373,5 3.2,4.59705627 3.2,4.1 C3.2,3.60294373 3.60294373,3.2 4.1,3.2 C4.59705627,3.2 5,3.60294373 5,4.1 C5.00179213,4.33923974 4.90754658,4.569201 4.73837379,4.73837379 C4.569201,4.90754658 4.33923974,5.00179213 4.1,5 Z M11.16,9.96 L8.9,12.22 C8.82100264,12.3006263 8.71287688,12.3460612 8.6,12.3460612 C8.48712312,12.3460612 8.37899736,12.3006263 8.3,12.22 L6.04,9.96 C5.61953912,9.59067559 5.43963833,9.01800024 5.57336918,8.4745815 C5.70710003,7.93116275 6.13222132,7.50737833 6.67605856,7.37535969 C7.21989581,7.24334106 7.7920017,7.42504465 8.16,7.84666667 L8.6,8.27333333 L9.04,7.84 C9.31976775,7.55672742 9.70186709,7.39812015 10.1,7.4 C10.4978247,7.4 10.8793556,7.55803526 11.1606602,7.83933983 C11.4419647,8.1206444 11.6,8.50217527 11.6,8.9 C11.6018798,9.29813291 11.4432726,9.68023225 11.16,9.96 L11.16,9.96 Z" id="Shape" fill="#70727D" fill-rule="nonzero"></path>
                </g>
            </g>
        </g>
    </g>
</svg>