<?xml version="1.0" encoding="UTF-8"?>
<svg width="12px" height="12px" viewBox="0 0 12 12" version="1.1" xmlns="http://www.w3.org/2000/svg" xmlns:xlink="http://www.w3.org/1999/xlink">
    <!-- Generator: sketchtool 53 (72520) - https://sketchapp.com -->
    <title>C274FD1D-FC9A-4EB2-B746-473CEBC1BC4E</title>
    <desc>Created with sketchtool.</desc>
    <g id="Glyph" stroke="none" stroke-width="1" fill="none" fill-rule="evenodd">
        <g id="Glyph---16px" transform="translate(-444.000000, -478.000000)">
            <g id="Icon/Glyph/16px/ic_fingerprint" transform="translate(442.000000, 476.000000)">
                <g>
                    <rect id="Rectangle" x="0" y="0" width="16" height="16"></rect>
                    <path d="M11.4866667,3.48 C11.4427601,3.48977877 11.3972399,3.48977877 11.3533333,3.48 C10.328776,2.90578357 9.17449312,2.60287039 8,2.6 C6.83487769,2.59342617 5.68742518,2.88487911 4.66666667,3.44666667 C4.52254256,3.52305367 4.34384222,3.47325194 4.26,3.33333333 C4.22015831,3.26387838 4.21044083,3.18115525 4.2331023,3.10435806 C4.25576377,3.02756086 4.30883429,2.96336534 4.38,2.92666667 C6.64098026,1.70456158 9.36568641,1.70456158 11.6266667,2.92666667 C11.6985517,2.96078417 11.7530221,3.02324495 11.7770437,3.09910282 C11.8010654,3.17496069 11.7924769,3.25739012 11.7533333,3.32666667 C11.7005213,3.42402374 11.5973753,3.48333272 11.4866667,3.48 Z M2.9,6.66666667 C2.83840357,6.66524985 2.77840506,6.64678877 2.72666667,6.61333333 C2.65266576,6.56563032 2.60335535,6.4878283 2.59180324,6.40054565 C2.58025112,6.313263 2.6076236,6.22531178 2.66666667,6.16 C3.24368988,5.3332891 4.01223669,4.6585233 4.90666667,4.19333333 C6.85481829,3.22330464 9.14518171,3.22330464 11.0933333,4.19333333 C11.986879,4.65087552 12.7556627,5.31898516 13.3333333,6.14 C13.4074585,6.22623461 13.4264555,6.34696645 13.3823945,6.45179759 C13.3383335,6.55662872 13.2387891,6.62753703 13.125315,6.63492276 C13.0118408,6.64230849 12.9039447,6.58490191 12.8466667,6.48666667 C12.3199326,5.74534168 11.6225169,5.14167692 10.8133333,4.72666667 C9.03781958,3.84024884 6.94884709,3.84024884 5.17333333,4.72666667 C4.36252261,5.14821428 3.66509976,5.75874511 3.14,6.50666667 C3.09823652,6.60239797 3.00443023,6.66493549 2.9,6.66666667 Z M6.66666667,13.8733333 C6.58671525,13.8747297 6.50965914,13.8434257 6.45333333,13.7866667 C5.96965439,13.3266042 5.5643239,12.7906672 5.25333333,12.2 C4.80945764,11.4033729 4.5797588,10.5052504 4.58666667,9.59333333 C4.64114186,7.76003944 6.16644484,6.31517236 8,6.36 C9.82840719,6.3226125 11.3455185,7.76535564 11.4,9.59333333 C11.4,9.75901876 11.2656854,9.89333333 11.1,9.89333333 C10.9343146,9.89333333 10.8,9.75901876 10.8,9.59333333 C10.784297,8.86775052 10.4799765,8.17836612 9.95443143,7.677847 C9.42888636,7.17732789 8.7254856,6.90697774 8,6.92666667 C7.27565307,6.90878046 6.5739738,7.17993366 6.04988212,7.68025985 C5.52579043,8.18058604 5.2223899,8.86893622 5.20666667,9.59333333 C5.19024438,10.3998856 5.38318658,11.1969207 5.76666667,11.9066667 C6.0570309,12.4382499 6.43065032,12.9199039 6.87333333,13.3333333 C6.98512152,13.4535889 6.98512152,13.6397445 6.87333333,13.76 C6.82137336,13.8226966 6.74746612,13.8632264 6.66666667,13.8733333 Z M10.9666667,12.7666667 C10.3068702,12.7820697 9.65804813,12.5960275 9.10666667,12.2333333 C8.21456954,11.6394283 7.67900619,10.6383753 7.68,9.56666667 C7.68,9.40098124 7.81431458,9.26666667 7.98,9.26666667 C8.14568542,9.26666667 8.28,9.40098124 8.28,9.56666667 C8.28737924,10.4300006 8.72500824,11.2327372 9.44666667,11.7066667 C9.89759353,12.0013915 10.4282352,12.1503436 10.9666667,12.1333333 C11.1767581,12.1289638 11.3862297,12.108908 11.5933333,12.0733333 C11.6722806,12.0579096 11.7540977,12.0755833 11.8196393,12.1222186 C11.8851809,12.168854 11.9286953,12.2403586 11.94,12.32 C11.953496,12.3987115 11.9350515,12.4795556 11.8887522,12.5446249 C11.8424528,12.6096943 11.7721203,12.6536179 11.6933333,12.6666667 C11.4502759,12.7227359 11.2025549,12.7562118 10.9533333,12.7666667 L10.9666667,12.7666667 Z M9.74666667,14 L9.67333333,14 C8.82583863,13.7967817 8.05218464,13.3603023 7.44,12.74 C6.60209978,11.9134371 6.13334935,10.7836283 6.14,9.60666667 C6.14000002,8.58678084 6.96678084,7.76000004 7.98666667,7.76000004 C9.00655249,7.76000004 9.83333331,8.58678084 9.83333333,9.60666667 C9.83333333,10.2951817 10.391485,10.8533333 11.08,10.8533333 C11.768515,10.8533333 12.3266667,10.2951817 12.3266667,9.60666667 C12.2612557,7.27994287 10.3269696,5.44401031 8,5.5 C6.31314198,5.46689931 4.7572383,6.40562786 4,7.91333333 C3.75847151,8.43999639 3.63774914,9.01399711 3.64666667,9.59333333 C3.64355984,10.3341946 3.77923188,11.0690848 4.04666667,11.76 C4.07676372,11.8341281 4.07527672,11.9173332 4.04255017,11.9903386 C4.00982362,12.063344 3.94869752,12.1198143 3.87333333,12.1466667 C3.72973503,12.1972211 3.57078912,12.1347781 3.5,12 C3.21248723,11.2394912 3.06565461,10.4330413 3.06666667,9.62 C3.05406824,8.950929 3.19309842,8.28768669 3.47333333,7.68 C4.31885531,5.95615051 6.08007655,4.87192301 8,4.89333333 C10.6494438,4.8296407 12.8560456,6.91134056 12.9466667,9.56 C12.9466667,10.5798858 12.1198858,11.4066667 11.1,11.4066667 C10.0801142,11.4066667 9.25333333,10.5798858 9.25333333,9.56 C9.21392848,8.90393218 8.6567116,8.40006585 8,8.42666667 C7.68056063,8.4140649 7.36929753,8.52944703 7.13525536,8.74721888 C6.90121319,8.96499074 6.76374112,9.26714829 6.75333333,9.58666667 C6.74694792,10.6028988 7.1507463,11.5787449 7.87333333,12.2933333 C8.40757901,12.8431787 9.0874676,13.2293739 9.83333333,13.4066667 C9.99348249,13.4490261 10.0889866,13.6131737 10.0466667,13.7733333 C10.0122933,13.9099572 9.88748382,14.0042577 9.74666667,14 L9.74666667,14 Z" id="Shape" fill="#70727D" fill-rule="nonzero"></path>
                </g>
            </g>
        </g>
    </g>
</svg>