<?xml version="1.0" encoding="UTF-8"?>
<svg width="12px" height="12px" viewBox="0 0 12 12" version="1.1" xmlns="http://www.w3.org/2000/svg" xmlns:xlink="http://www.w3.org/1999/xlink">
    <!-- Generator: sketchtool 53 (72520) - https://sketchapp.com -->
    <title>F2A1DD57-A984-4E1A-98EB-3CB01DE80188</title>
    <desc>Created with sketchtool.</desc>
    <g id="Glyph" stroke="none" stroke-width="1" fill="none" fill-rule="evenodd">
        <g id="Glyph---16px" transform="translate(-276.000000, -286.000000)">
            <g id="Icon/Glyph/16px/ic_home" transform="translate(274.000000, 284.000000)">
                <g>
                    <rect id="Rectangle" x="0" y="0" width="16" height="16"></rect>
                    <path d="M13.84,6.11333333 L8.66666667,2.20666667 C8.28596265,1.92659004 7.76737069,1.92659004 7.38666667,2.20666667 L4.93333333,4 L2.16,6.11333333 C2.02429859,6.2252853 1.97767013,6.41275665 2.04511422,6.57523561 C2.11255832,6.73771456 2.27824139,6.83705659 2.45333333,6.82 L2.72666667,6.82 L3.39333333,13.3866667 C3.45765561,13.7636833 3.79868036,14.029567 4.18,14 L5.86,14 C6.13982427,14 6.36666667,13.7731576 6.36666667,13.4933333 L6.36666667,11.1333333 C6.36806319,10.7021458 6.52419825,10.2857856 6.80666667,9.96 C7.06901287,9.65646213 7.43504362,9.46156264 7.83333333,9.41333333 C8.29296234,9.36827391 8.75028665,9.51909975 9.09293224,9.82874984 C9.43557784,10.1383999 9.631782,10.5781702 9.63333333,11.04 L9.63333333,13.4933333 C9.63333333,13.7731576 9.86017573,14 10.14,14 L11.82,14 C12.1939134,14.0189342 12.5230606,13.7556165 12.5866667,13.3866667 L12.88,10.56 L13.2733333,6.82 L13.5466667,6.82 C13.7217586,6.83705659 13.8874417,6.73771456 13.9548858,6.57523561 C14.0223299,6.41275665 13.9757014,6.2252853 13.84,6.11333333 Z" id="Path" fill="#70727D" fill-rule="nonzero"></path>
                </g>
            </g>
        </g>
    </g>
</svg>