
<?xml version="1.0" encoding="UTF-8"?>
<svg width="9px" height="14px" viewBox="0 0 9 14" version="1.1" xmlns="http://www.w3.org/2000/svg" xmlns:xlink="http://www.w3.org/1999/xlink">
    <!-- Generator: sketchtool 53.2 (72643) - https://sketchapp.com -->
    <title>1136D24B-A530-48D1-B9F0-9059EE3A1DC6</title>
    <desc>Created with sketchtool.</desc>
    <g id="Glyph" stroke="none" stroke-width="1" fill="none" fill-rule="evenodd">
        <g id="Glyph---16px" transform="translate(-838.000000, -573.000000)">
            <g id="Icon/Glyph/16px/ic_handphone" transform="translate(834.000000, 572.000000)">
                <g id="Icon/Glyph/24px/ic_handphone" transform="translate(0.000000, -1.000000)">
                    <rect id="Rectangle" x="0" y="1" width="16" height="16"></rect>
                    <path d="M6.66666667,2.33333333 L9.66666667,2.33333333 C11.139426,2.33333333 12.3333333,3.52724067 12.3333333,5 L12.3333333,13 C12.3333333,14.4727593 11.139426,15.6666667 9.66666667,15.6666667 L6.66666667,15.6666667 C5.19390733,15.6666667 4,14.4727593 4,13 L4,5 C4,3.52724067 5.19390733,2.33333333 6.66666667,2.33333333 Z M5.77777778,5.94444444 C5.40958794,5.94444444 5.11111111,6.24292128 5.11111111,6.61111111 L5.11111111,11.3888889 C5.11111111,11.7570787 5.40958794,12.0555556 5.77777778,12.0555556 L10.5555556,12.0555556 C10.9237454,12.0555556 11.2222222,11.7570787 11.2222222,11.3888889 L11.2222222,6.61111111 C11.2222222,6.24292128 10.9237454,5.94444444 10.5555556,5.94444444 L5.77777778,5.94444444 Z M8.16666667,5.20555556 C8.52565175,5.20555556 8.81666667,4.91454064 8.81666667,4.55555556 C8.81666667,4.19657047 8.52565175,3.90555556 8.16666667,3.90555556 C7.80768158,3.90555556 7.51666667,4.19657047 7.51666667,4.55555556 C7.51666667,4.91454064 7.80768158,5.20555556 8.16666667,5.20555556 Z M7.19444444,14 L9.13888889,14 C9.44571375,14 9.69444444,13.7512693 9.69444444,13.4444444 C9.69444444,13.1376196 9.44571375,12.8888889 9.13888889,12.8888889 L7.19444444,12.8888889 C6.88761958,12.8888889 6.63888889,13.1376196 6.63888889,13.4444444 C6.63888889,13.7512693 6.88761958,14 7.19444444,14 Z" id="Combined-Shape" fill="#70727D" fill-rule="nonzero"></path>
                </g>
            </g>
        </g>
    </g>
</svg>
