<?xml version="1.0" encoding="UTF-8"?>
<svg width="12px" height="12px" viewBox="0 0 12 12" version="1.1" xmlns="http://www.w3.org/2000/svg" xmlns:xlink="http://www.w3.org/1999/xlink">
    <!-- Generator: sketchtool 53 (72520) - https://sketchapp.com -->
    <title>83AB01D0-160B-43D6-9B43-D83BA574593C</title>
    <desc>Created with sketchtool.</desc>
    <g id="Glyph" stroke="none" stroke-width="1" fill="none" fill-rule="evenodd">
        <g id="Glyph---16px" transform="translate(-332.000000, -478.000000)">
            <g id="Icon/Glyph/16px/ic_help" transform="translate(330.000000, 476.000000)">
                <g>
                    <rect id="Rectangle" x="0" y="0" width="16" height="16"></rect>
                    <path d="M8,2 C4.6862915,2 2,4.6862915 2,8 C2,11.3137085 4.6862915,14 8,14 C11.3137085,14 14,11.3137085 14,8 C14,4.6862915 11.3137085,2 8,2 Z M8.76666667,11.4866667 C8.76675913,11.5624665 8.73537085,11.634901 8.68,11.6866667 C8.62655733,11.7396093 8.5551748,11.7705418 8.48,11.7733333 L7.56666667,11.7733333 C7.4893111,11.7715513 7.41548841,11.7405934 7.36,11.6866667 C7.30893451,11.632558 7.28033788,11.5610664 7.28,11.4866667 L7.28,10.5466667 C7.28033788,10.4722669 7.30893451,10.4007754 7.36,10.3466667 C7.41548841,10.2927399 7.4893111,10.261782 7.56666667,10.26 L8.48,10.26 C8.5551748,10.2627916 8.62655733,10.293724 8.68,10.3466667 C8.73537085,10.3984324 8.76675913,10.4708669 8.76666667,10.5466667 L8.76666667,11.4866667 Z M10.5466667,7.1 C10.4588378,7.30306586 10.3445112,7.4936102 10.2066667,7.66666667 C10.0691831,7.83081709 9.91748376,7.98251645 9.75333333,8.12 L9.29333333,8.51333333 C9.15463117,8.63202044 9.02535377,8.76129784 8.90666667,8.9 C8.80352954,9.02643035 8.73670228,9.17852 8.71333333,9.34 C8.70081295,9.41518715 8.66597082,9.4848714 8.61333333,9.54 C8.56856818,9.59709963 8.49917359,9.62931855 8.42666667,9.62666667 L7.62,9.62666667 C7.54205,9.62780781 7.46715337,9.59639955 7.41333333,9.54 C7.35356695,9.48897767 7.32349757,9.41129843 7.33333333,9.33333333 C7.33781842,9.08141846 7.39695908,8.83348259 7.50666667,8.60666667 C7.60348575,8.40096018 7.72920061,8.21014299 7.88,8.04 C8.02211628,7.87564314 8.17826039,7.72396029 8.34666667,7.58666667 C8.51333333,7.45333333 8.66666667,7.32666667 8.80666667,7.2 C8.93806279,7.08918978 9.05658487,6.9639589 9.16,6.82666667 C9.247929,6.70944808 9.29478902,6.56652504 9.29333333,6.42 C9.29733223,6.15519956 9.17002663,5.90558075 8.95333333,5.75333333 C8.69271525,5.56401818 8.37501703,5.46988537 8.05333333,5.48666667 C7.46199645,5.47692412 6.92832388,5.83982146 6.72,6.39333333 C6.69148182,6.45666192 6.65324277,6.51514518 6.60666667,6.56666667 C6.55261335,6.61130029 6.48315901,6.63285509 6.41333333,6.62666667 L5.55333333,6.62666667 C5.49312415,6.62727616 5.43529637,6.60318125 5.39333333,6.56 C5.35295726,6.51940655 5.3312304,6.46388234 5.33333333,6.40666667 C5.3476012,6.13803034 5.42773333,5.87702851 5.56666667,5.64666667 C5.71162275,5.38095342 5.90362657,5.14377222 6.13333333,4.94666667 C6.38993232,4.72958365 6.68047292,4.55616019 6.99333333,4.43333333 C7.32919638,4.29393826 7.68970458,4.2236505 8.05333333,4.22666667 C8.38284774,4.22592087 8.71072054,4.27308065 9.02666667,4.36666667 C9.32790922,4.4530652 9.61205007,4.59062545 9.86666667,4.77333333 C10.1072321,4.95149649 10.3072019,5.17873496 10.4533333,5.44 C10.6035351,5.7251867 10.6770487,6.04451104 10.6666667,6.36666667 C10.6754995,6.6166379 10.6347141,6.8658819 10.5466667,7.1 Z" id="Shape" fill="#70727D" fill-rule="nonzero"></path>
                </g>
            </g>
        </g>
    </g>
</svg>