<?xml version="1.0" encoding="UTF-8"?>
<svg width="14px" height="8px" viewBox="0 0 14 8" version="1.1" xmlns="http://www.w3.org/2000/svg" xmlns:xlink="http://www.w3.org/1999/xlink">
    <!-- Generator: sketchtool 53 (72520) - https://sketchapp.com -->
    <title>D03A561A-55D1-41CA-84AF-294DE10D1FEA</title>
    <desc>Created with sketchtool.</desc>
    <g id="Glyph" stroke="none" stroke-width="1" fill="none" fill-rule="evenodd">
        <g id="Glyph---16px" transform="translate(-723.000000, -288.000000)">
            <g id="Icon/Glyph/16px/ic_increase" transform="translate(722.000000, 284.000000)">
                <g>
                    <rect id="Rectangle" x="0" y="0" width="16" height="16"></rect>
                    <path d="M14.4666667,4.28 C14.3257517,4.14608208 14.1334027,4.08034257 13.94,4.1 L13.8866667,4.1 L10.6666667,4.1 C10.2984768,4.1 10,4.39847683 10,4.76666667 C10,5.1348565 10.2984768,5.43333333 10.6666667,5.43333333 L12.4,5.43333333 L8.90666667,8.95333333 L7.28,6.87333333 C7.08690937,6.66024446 6.80690459,6.54726007 6.52,6.56666667 C6.2641489,6.58075921 6.02436052,6.69585763 5.85333333,6.88666667 L1.55333333,10.7533333 C1.3497436,10.9383799 1.28073603,11.2294839 1.37959722,11.4862279 C1.47845842,11.7429719 1.72488093,11.9126172 2,11.9133333 C2.16522389,11.912902 2.32440113,11.8511317 2.44666667,11.74 L6.52666667,8.05333333 L8.16666667,10.1533333 C8.35992757,10.3621379 8.63585218,10.4744612 8.92,10.46 C9.17784636,10.4424739 9.417938,10.3224281 9.58666667,10.1266667 L13.3333333,6.37333333 L13.3333333,8.08 C13.3333333,8.44818983 13.6318102,8.74666667 14,8.74666667 C14.3681898,8.74666667 14.6666667,8.44818983 14.6666667,8.08 L14.6666667,4.86666667 C14.6696505,4.84901409 14.6696505,4.83098591 14.6666667,4.81333333 C14.6831249,4.61459023 14.6097471,4.41891608 14.4666667,4.28 Z" id="Path" fill="#70727D" fill-rule="nonzero"></path>
                </g>
            </g>
        </g>
    </g>
</svg>