<?xml version="1.0" encoding="UTF-8"?>
<svg width="14px" height="12px" viewBox="0 0 14 12" version="1.1" xmlns="http://www.w3.org/2000/svg" xmlns:xlink="http://www.w3.org/1999/xlink">
    <!-- Generator: sketchtool 53 (72520) - https://sketchapp.com -->
    <title>27EE61D0-9D28-477D-82A3-BC998D5AA332</title>
    <desc>Created with sketchtool.</desc>
    <g id="Glyph" stroke="none" stroke-width="1" fill="none" fill-rule="evenodd">
        <g id="Glyph---16px" transform="translate(-219.000000, -286.000000)">
            <g id="Icon/Glyph/16px/ic_image" transform="translate(218.000000, 284.000000)">
                <g>
                    <rect id="Rectangle" x="0" y="0" width="16" height="16"></rect>
                    <path d="M1.88,4.66666667 L1.88,4.66666667 C1.5774425,4.677333 1.33670709,4.92394001 1.33333333,5.22666667 L1.33333333,7.44666667 L1.33333333,7.44666667 L1.33333333,10.5866667 C1.33332921,12.2261933 2.66047744,13.5563239 4.3,13.56 L11.88,13.56 C12.1866728,13.5563489 12.4333551,13.3066946 12.4333333,13 L12.4333333,13 C12.4333333,12.6944024 12.1855976,12.4466667 11.88,12.4466667 L4.62,12.4466667 C3.41233735,12.4466667 2.43333333,11.4676627 2.43333333,10.26 L2.43333333,5.22666667 C2.43335507,4.91997211 2.18667283,4.67031779 1.88,4.66666667 Z M12.7266667,3.56 L9.43333333,3.56 C9.21988193,3.56261056 9.0139605,3.48119977 8.86,3.33333333 L8.22666667,2.66666667 C8.0748648,2.51391945 7.86868103,2.42760996 7.65333333,2.42666667 L5.48,2.42666667 C4.41635377,2.43029675 3.5539708,3.28970599 3.54666667,4.35333333 L3.54666667,9.38666667 C3.5431194,9.90057144 3.74432726,10.3947417 4.10584025,10.7600074 C4.46735325,11.1252731 4.95941933,11.3315734 5.47333333,11.3333333 L12.7266667,11.3333333 C13.2394195,11.3351045 13.7318745,11.1331113 14.0956958,10.7717905 C14.459517,10.4104698 14.6649016,9.91941949 14.6666667,9.40666667 L14.6666667,5.48666667 C14.6649016,4.97391384 14.459517,4.48286355 14.0956958,4.1215428 C13.7318745,3.76022205 13.2394195,3.55822884 12.7266667,3.56 Z M5.5,9.28666667 L7.5,6.62 C7.54678757,6.56095114 7.61799514,6.52652167 7.69333333,6.52652167 C7.76867153,6.52652167 7.8398791,6.56095114 7.88666667,6.62 L9.45333333,8.62 C9.4988981,8.67638352 9.56750691,8.70915055 9.64,8.70915055 C9.71249309,8.70915055 9.7811019,8.67638352 9.82666667,8.62 L10.8333333,7.40666667 C10.8788981,7.35028315 10.9475069,7.31751611 11.02,7.31751611 C11.0924931,7.31751611 11.1611019,7.35028315 11.2066667,7.40666667 L12.6666667,9.28 C12.7222386,9.35196223 12.7323739,9.44914902 12.6928457,9.53102895 C12.6533174,9.61290888 12.5709134,9.66542152 12.48,9.66666667 L5.69333333,9.66666667 C5.60360939,9.66606897 5.52171221,9.61547248 5.48102534,9.53550173 C5.44033846,9.45553098 5.44765788,9.35954359 5.5,9.28666667 Z" id="Shape" fill="#70727D" fill-rule="nonzero"></path>
                </g>
            </g>
        </g>
    </g>
</svg>