<?xml version="1.0" encoding="UTF-8"?>
<svg width="14px" height="14px" viewBox="0 0 14 14" version="1.1" xmlns="http://www.w3.org/2000/svg" xmlns:xlink="http://www.w3.org/1999/xlink">
    <!-- Generator: sketchtool 53 (72520) - https://sketchapp.com -->
    <title>F4090492-9044-4234-A72B-3964164A4362</title>
    <desc>Created with sketchtool.</desc>
    <g id="Glyph" stroke="none" stroke-width="1" fill="none" fill-rule="evenodd">
        <g id="Glyph---16px" transform="translate(-615.000000, -573.000000)">
            <g id="Icon/Glyph/16px/ic_information" transform="translate(614.000000, 572.000000)">
                <g>
                    <rect id="Rectangle" x="0" y="0" width="16" height="16"></rect>
                    <g id="ic_information" transform="translate(1.000000, 1.000000)" fill="#70727D" fill-rule="nonzero">
                        <path d="M7,14 C3.13400675,14 0,10.8659932 0,7 C0,3.13400675 3.13400675,0 7,0 C10.8659932,0 14,3.13400675 14,7 C14,10.8659932 10.8659932,14 7,14 Z M9.00028007,10.7223819 C8.93705328,10.7522798 8.83481213,10.7860008 8.69512503,10.824623 C8.55494779,10.8633433 8.42859223,10.8832426 8.31752874,10.8832426 C8.08128599,10.8832426 7.91473975,10.8441302 7.81818411,10.7664936 C7.7225107,10.6887589 7.67457597,10.542014 7.67457597,10.327631 C7.67457597,10.2426424 7.68878974,10.1158948 7.71907979,9.95003473 C7.7484876,9.78309639 7.78181645,9.63458695 7.81936042,9.50470245 L8.27576964,7.88884128 C8.32056754,7.74062591 8.35124969,7.57751059 8.36771807,7.39988741 C8.38457854,7.22216621 8.39222457,7.09816327 8.39222457,7.02729045 C8.39222457,6.68684603 8.27273084,6.4100205 8.03374336,6.19671585 C7.79485391,5.9838033 7.4548016,5.87705295 7.01368443,5.87705295 C6.76822724,5.87705295 6.5090464,5.92067453 6.23447548,6.00801573 C5.95990455,6.0948668 5.67268827,6.19946058 5.37253254,6.32160102 L5.25,6.82202393 C5.3395958,6.78869508 5.44605207,6.75311163 5.57083921,6.71635186 C5.69494018,6.6795921 5.81668851,6.66086913 5.93500594,6.66086913 C6.17703222,6.66086913 6.34014754,6.70184401 6.42552822,6.78300957 C6.5109089,6.86456723 6.5538443,7.00964576 6.5538443,7.2168728 C6.5538443,7.33136721 6.54002263,7.45840895 6.51208521,7.59701777 C6.48414779,7.73601869 6.44964263,7.88344984 6.40866774,8.03852703 L5.95039603,9.66095595 C5.90971522,9.8313252 5.87991531,9.98414779 5.86109431,10.1193257 C5.84237133,10.2548957 5.83354899,10.3873289 5.83354899,10.5168213 C5.83354899,10.8499137 5.95686574,11.1248768 6.20310715,11.3420044 C6.44925052,11.5579558 6.79469427,11.6666667 7.23885024,11.6666667 C7.52792902,11.6666667 7.78181645,11.6287306 8.00012043,11.5529565 C8.21832639,11.4771823 8.51132621,11.366903 8.87813963,11.2221186 L9.00028007,10.7223819 Z M9.1159508,3.93868612 C9.1159508,3.65764547 9.0101807,3.4167955 8.79658197,3.21652831 C8.58406153,3.01704533 8.32782147,2.91666667 8.02805785,2.91666667 C7.727412,2.91666667 7.46979958,3.01665322 7.25531861,3.21652831 C7.04054357,3.4167955 6.93291098,3.65764547 6.93291098,3.93868612 C6.93291098,4.22011886 7.04054357,4.46018463 7.25531861,4.65819722 C7.47048576,4.85650389 7.72711792,4.95570624 8.02805785,4.95570624 C8.32782147,4.95570624 8.58406153,4.85650389 8.79658197,4.65819722 C9.0097886,4.46057673 9.1159508,4.22011886 9.1159508,3.93868612 Z" id="Combined-Shape"></path>
                    </g>
                </g>
            </g>
        </g>
    </g>
</svg>