<?xml version="1.0" encoding="UTF-8"?>
<svg width="12px" height="12px" viewBox="0 0 12 12" version="1.1" xmlns="http://www.w3.org/2000/svg" xmlns:xlink="http://www.w3.org/1999/xlink">
    <!-- Generator: sketchtool 53 (72520) - https://sketchapp.com -->
    <title>A9F4C74D-F7C8-4C0D-8E74-D33025E59138</title>
    <desc>Created with sketchtool.</desc>
    <g id="Glyph" stroke="none" stroke-width="1" fill="none" fill-rule="evenodd">
        <g id="Glyph---16px" transform="translate(-164.000000, -286.000000)">
            <g id="Icon/Glyph/16px/ic_increase-out" transform="translate(162.000000, 284.000000)">
                <g>
                    <rect id="Rectangle" x="0" y="0" width="16" height="16"></rect>
                    <path d="M12.6666667,12.6666667 L3.33333333,12.6666667 L3.33333333,3.33333333 L7.33333333,3.33333333 C7.70152317,3.33333333 8,3.0348565 8,2.66666667 L8,2.66666667 C8,2.29847683 7.70152317,2 7.33333333,2 L3.33333333,2 C2.59695367,2 2,2.59695367 2,3.33333333 L2,12.6666667 C2,13.4030463 2.59695367,14 3.33333333,14 L12.6666667,14 C13.4030463,14 14,13.4030463 14,12.6666667 L14,8.66666667 C14,8.29847683 13.7015232,8 13.3333333,8 L13.3333333,8 C12.9651435,8 12.6666667,8.29847683 12.6666667,8.66666667 L12.6666667,12.6666667 Z M9.33333333,2.66666667 L9.33333333,2.66666667 C9.33333333,3.0348565 9.63181017,3.33333333 10,3.33333333 L11.7266667,3.33333333 L5.64,9.42 C5.38590475,9.67922901 5.38590475,10.0941043 5.64,10.3533333 L5.64,10.3533333 C5.89922901,10.6074286 6.31410433,10.6074286 6.57333333,10.3533333 L12.6666667,4.27333333 L12.6666667,6 C12.6666667,6.36818983 12.9651435,6.66666667 13.3333333,6.66666667 L13.3333333,6.66666667 C13.7015232,6.66666667 14,6.36818983 14,6 L14,2.33333333 C14,2.14923842 13.8507616,2 13.6666667,2 L10,2 C9.63181017,2 9.33333333,2.29847683 9.33333333,2.66666667 Z" id="Shape" fill="#70727D" fill-rule="nonzero"></path>
                </g>
            </g>
        </g>
    </g>
</svg>