<?xml version="1.0" encoding="UTF-8"?>
<svg width="14px" height="12px" viewBox="0 0 14 12" version="1.1" xmlns="http://www.w3.org/2000/svg" xmlns:xlink="http://www.w3.org/1999/xlink">
    <!-- Generator: sketchtool 53 (72520) - https://sketchapp.com -->
    <title>63E4E7F4-8A16-404C-A31C-D67DC5613FD0</title>
    <desc>Created with sketchtool.</desc>
    <g id="Glyph" stroke="none" stroke-width="1" fill="none" fill-rule="evenodd">
        <g id="Glyph---16px" transform="translate(-947.000000, -382.000000)">
            <g id="Icon/Glyph/16px/ic_invisible" transform="translate(946.000000, 380.000000)">
                <g>
                    <rect id="Rectangle" x="0" y="0" width="16" height="16"></rect>
                    <path d="M8.44,4.94666667 C9.78156388,5.15234409 10.8343226,6.20510279 11.04,7.54666667 C11.1163375,8.074598 11.0495701,8.61334212 10.8466667,9.10666667 L12.6666667,10.8933333 C13.4986163,10.1971732 14.1657561,9.32510988 14.62,8.34 C14.7232629,8.11343356 14.7232629,7.8532331 14.62,7.62666667 C13.4402763,5.03260028 10.8497094,3.3707764 8,3.38 C7.16742953,3.37888835 6.34127462,3.52560985 5.56,3.81333333 L6.89333333,5.14666667 C7.38264706,4.94634163 7.91582479,4.87739624 8.44,4.94666667 Z M2.26,2.85333333 C2.04559212,3.0691307 2.04559212,3.41753597 2.26,3.63333333 L3.26666667,4.66666667 L3.55333333,4.94666667 C2.63135147,5.66229168 1.8969703,6.59113515 1.41333333,7.65333333 C1.30642082,7.87909329 1.30642082,8.14090671 1.41333333,8.36666667 C2.59656727,10.9378603 5.16961752,12.5837791 8,12.58 C8.91309561,12.5763998 9.81748824,12.4023042 10.6666667,12.0666667 L10.9266667,12.32 L12.3333333,13.7266667 C12.5491307,13.9410745 12.897536,13.9410745 13.1133333,13.7266667 L13.1133333,13.7266667 C13.3277412,13.5108693 13.3277412,13.162464 13.1133333,12.9466667 L3.04,2.85333333 C2.82420263,2.63892545 2.47579737,2.63892545 2.26,2.85333333 Z M5.26,6.66666667 L6.21333333,7.61333333 C6.18140424,7.74424322 6.16573054,7.87858917 6.16666667,8.01333333 C6.1812441,9.01542614 6.99780117,9.82010602 8,9.82 C8.13459431,9.81841138 8.26865474,9.80277099 8.4,9.77333333 L9.33333333,10.72 C8.63208088,11.080107 7.81596508,11.1449162 7.06666667,10.9 C6.11816764,10.5921125 5.37455412,9.84849903 5.06666667,8.9 C4.8386929,8.15869078 4.90802621,7.35777147 5.26,6.66666667 L5.26,6.66666667 Z M7.92666667,6.18666667 L9.85333333,8.12 L9.85333333,8.02 C9.86420197,7.52338793 9.67309159,7.04362121 9.32373979,6.69049942 C8.97438799,6.33737764 8.49670012,6.14112886 8,6.14666667 L7.92666667,6.18666667 Z" id="Shape" fill="#70727D" fill-rule="nonzero"></path>
                </g>
            </g>
        </g>
    </g>
</svg>