<?xml version="1.0" encoding="UTF-8"?>
<svg width="12px" height="14px" viewBox="0 0 12 14" version="1.1" xmlns="http://www.w3.org/2000/svg" xmlns:xlink="http://www.w3.org/1999/xlink">
    <!-- Generator: sketchtool 53 (72520) - https://sketchapp.com -->
    <title>1D25E14B-8C32-42B5-9139-4A7AC0D3E01B</title>
    <desc>Created with sketchtool.</desc>
    <g id="Glyph" stroke="none" stroke-width="1" fill="none" fill-rule="evenodd">
        <g id="Glyph---16px" transform="translate(-724.000000, -189.000000)">
            <g id="Icon/Glyph/16px/ic_locked" transform="translate(722.000000, 188.000000)">
                <g>
                    <rect id="Rectangle" x="0" y="0" width="16" height="16"></rect>
                    <path d="M11.1733333,5.77333333 L11.1733333,5.77333333 L11.1733333,4.66666667 C11.2175356,2.98594441 9.98125268,1.54505526 8.31333333,1.33333333 C7.41936252,1.24671563 6.53045178,1.54217756 5.86621416,2.1467227 C5.20197654,2.75126784 4.82436316,3.60851237 4.82666667,4.50666667 L4.82666667,5.77333333 L4.82666667,5.77333333 C3.77516243,5.77699077 2.92365744,6.62849576 2.92,7.68 L2.92,12.76 C2.92365744,13.8115042 3.77516243,14.6630092 4.82666667,14.6666667 L11.1733333,14.6666667 C12.2248376,14.6630092 13.0763426,13.8115042 13.08,12.76 L13.08,7.68 C13.0763426,6.62849576 12.2248376,5.77699077 11.1733333,5.77333333 Z M8,11.4933333 C7.29675742,11.4933333 6.72666667,10.9232426 6.72666667,10.22 C6.72666667,9.51675742 7.29675742,8.94666667 8,8.94666667 C8.70324258,8.94666667 9.27333333,9.51675742 9.27333333,10.22 C9.26968792,10.9217271 8.70172706,11.4896879 8,11.4933333 Z M10,5.77333333 L6.03333333,5.77333333 L6.03333333,4.58 C6.01134378,3.62264407 6.67104778,2.78403729 7.60666667,2.58 C8.18850649,2.4632019 8.79216848,2.61082713 9.25443997,2.98296212 C9.71671145,3.3550971 9.98984748,3.91330649 10,4.50666667 L10,5.77333333 Z" id="Shape" fill="#70727D" fill-rule="nonzero"></path>
                </g>
            </g>
        </g>
    </g>
</svg>