<?xml version="1.0" encoding="UTF-8"?>
<svg width="4px" height="12px" viewBox="0 0 4 12" version="1.1" xmlns="http://www.w3.org/2000/svg" xmlns:xlink="http://www.w3.org/1999/xlink">
    <!-- Generator: sketchtool 53 (72520) - https://sketchapp.com -->
    <title>00E484ED-CFCA-48A4-8125-DD373EE21983</title>
    <desc>Created with sketchtool.</desc>
    <g id="Glyph" stroke="none" stroke-width="1" fill="none" fill-rule="evenodd">
        <g id="Glyph---16px" transform="translate(-840.000000, -382.000000)">
            <g id="Icon/Glyph/16px/ic_more" transform="translate(834.000000, 380.000000)">
                <g>
                    <rect id="Rectangle" x="0" y="0" width="16" height="16"></rect>
                    <path d="M8,14 C7.21943755,14 6.58666667,13.3672291 6.58666667,12.5866667 C6.58666667,11.8061042 7.21943755,11.1733333 8,11.1733333 C8.78056245,11.1733333 9.41333333,11.8061042 9.41333333,12.5866667 C9.41333333,13.3672291 8.78056245,14 8,14 Z M8,9.41333333 C7.21943755,9.41333333 6.58666667,8.78056245 6.58666667,8 C6.58666667,7.21943755 7.21943755,6.58666667 8,6.58666667 C8.78056245,6.58666667 9.41333333,7.21943755 9.41333333,8 C9.41333333,8.78056245 8.78056245,9.41333333 8,9.41333333 Z M8,4.82666667 C7.21943755,4.82666667 6.58666667,4.19389578 6.58666667,3.41333333 C6.58666667,2.63277089 7.21943755,2 8,2 C8.78056245,2 9.41333333,2.63277089 9.41333333,3.41333333 C9.41333333,4.19389578 8.78056245,4.82666667 8,4.82666667 Z" id="Combined-Shape" fill="#70727D" fill-rule="nonzero"></path>
                </g>
            </g>
        </g>
    </g>
</svg>