<?xml version="1.0" encoding="UTF-8"?>
<svg width="14px" height="12px" viewBox="0 0 14 12" version="1.1" xmlns="http://www.w3.org/2000/svg" xmlns:xlink="http://www.w3.org/1999/xlink">
    <!-- Generator: sketchtool 53 (72520) - https://sketchapp.com -->
    <title>0D6F86A5-C962-407E-BADD-39BFB9A75526</title>
    <desc>Created with sketchtool.</desc>
    <g id="Glyph" stroke="none" stroke-width="1" fill="none" fill-rule="evenodd">
        <g id="Glyph---16px" transform="translate(-891.000000, -574.000000)">
            <g id="Icon/Glyph/16px/ic_mail" transform="translate(890.000000, 572.000000)">
                <g id="Icon/Glyph/24px/ic_mail">
                    <rect id="Rectangle" x="0" y="0" width="16" height="16"></rect>
                    <g id="Group" transform="translate(1.333333, 2.666667)" fill="#70727D" fill-rule="nonzero">
                        <path d="M2.66666667,-3.04645198e-13 L10.6666667,-3.04201109e-13 C12.139426,-3.05779723e-13 13.3333333,1.19390733 13.3333333,2.66666667 L13.3333333,8 C13.3333333,9.47275933 12.139426,10.6666667 10.6666667,10.6666667 L2.66666667,10.6666667 C1.19390733,10.6666667 -3.62349542e-14,9.47275933 -3.64153152e-14,8 L-3.64153152e-14,2.66666667 C-3.65956762e-14,1.19390733 1.19390733,-3.03930567e-13 2.66666667,-3.04201109e-13 Z M10.8994724,1.49382893 L6.66666667,5.12194815 L2.43386092,1.49382893 C2.15431035,1.25421416 1.7334437,1.28658852 1.49382893,1.56613908 C1.25421416,1.84568965 1.28658852,2.2665563 1.56613908,2.50617107 L6.23280575,6.50617107 C6.48246557,6.7201652 6.85086776,6.7201652 7.10052758,6.50617107 L11.7671942,2.50617107 C12.0467448,2.2665563 12.0791192,1.84568965 11.8395044,1.56613908 C11.5998896,1.28658852 11.179023,1.25421416 10.8994724,1.49382893 Z" id="Combined-Shape"></path>
                    </g>
                </g>
            </g>
        </g>
    </g>
</svg>