<?xml version="1.0" encoding="UTF-8"?>
<svg width="13px" height="13px" viewBox="0 0 13 13" version="1.1" xmlns="http://www.w3.org/2000/svg" xmlns:xlink="http://www.w3.org/1999/xlink">
    <!-- Generator: sketchtool 53 (72520) - https://sketchapp.com -->
    <title>66B8156C-9FDE-46F3-8E17-FB4D143ABBE0</title>
    <desc>Created with sketchtool.</desc>
    <g id="Glyph" stroke="none" stroke-width="1" fill="none" fill-rule="evenodd">
        <g id="Glyph---16px" transform="translate(-779.000000, -574.000000)">
            <g id="Icon/Glyph/16px/ic_my-location" transform="translate(778.000000, 572.000000)">
                <g>
                    <g id="Icon/Glyph/24px/ic_arrow-right">
                        <rect id="Rectangle" x="0" y="0" width="16" height="16"></rect>
                    </g>
                    <path d="M1.78215284,7.8744557 L6.38283737,9.40619371 C6.48246362,9.43936297 6.56063703,9.51753638 6.59380629,9.61716263 L8.1255443,14.2178472 C8.24185153,14.5671842 8.61933081,14.7560922 8.96866787,14.639785 C9.15918643,14.5763543 9.31096596,14.430429 9.38183756,14.2425514 L13.4796597,3.37939997 C13.6096107,3.03490542 13.4356888,2.65029132 13.0911942,2.52034032 C12.9395449,2.46313484 12.7722493,2.46313484 12.6206,2.52034032 L1.75744861,6.61816244 C1.41295406,6.74811344 1.23903216,7.13272754 1.36898315,7.47722209 C1.43985475,7.66509967 1.59163429,7.81102502 1.78215284,7.8744557 Z" id="Path" fill="#70727D" fill-rule="nonzero"></path>
                </g>
            </g>
        </g>
    </g>
</svg>