<?xml version="1.0" encoding="UTF-8"?>
<svg width="11px" height="12px" viewBox="0 0 11 12" version="1.1" xmlns="http://www.w3.org/2000/svg" xmlns:xlink="http://www.w3.org/1999/xlink">
    <!-- Generator: sketchtool 53 (72520) - https://sketchapp.com -->
    <title>C40C5D61-8018-450D-A33A-95B506577079</title>
    <desc>Created with sketchtool.</desc>
    <g id="Glyph" stroke="none" stroke-width="1" fill="none" fill-rule="evenodd">
        <g id="Glyph---16px" transform="translate(-781.000000, -382.000000)">
            <g id="Icon/Glyph/16px/ic_notification" transform="translate(778.000000, 380.000000)">
                <g>
                    <rect id="Rectangle" x="0" y="0" width="16" height="16"></rect>
                    <path d="M13.22,8.54 C13.5005359,8.99334376 13.5604637,9.54941295 13.3829616,10.0521196 C13.2054595,10.5548263 12.8096611,10.9499818 12.3066667,11.1266667 L6.66666667,13.18 C6.16439998,13.3670922 5.60435645,13.3160514 5.14418589,13.0412453 C4.68401533,12.7664392 4.37348212,12.2975863 4.3,11.7666667 L3.71333333,7.55333333 C3.49206224,5.97862797 4.2456777,4.42660172 5.62,3.62666667 L5.48666667,3.25333333 C5.4021138,3.01515627 5.45104968,2.74996317 5.61504064,2.55764971 C5.7790316,2.36533626 6.0331635,2.27511943 6.28170732,2.32098304 C6.53025114,2.36684666 6.73544715,2.54182293 6.82,2.78 L6.96,3.14666667 C8.53299935,2.87018184 10.1161767,3.57733441 10.96,4.93333333 L13.22,8.54 Z M9.59333333,13.8066667 C9.36090454,13.8921741 9.10391936,13.8810853 8.87972002,13.7758744 C8.65552067,13.6706635 8.48276474,13.4800862 8.4,13.2466667 L11.0666667,12.28 C11.2408259,12.7641357 10.9903431,13.2979026 10.5066667,13.4733333 L9.59333333,13.8066667 Z" id="Combined-Shape" fill="#70727D" fill-rule="nonzero"></path>
                </g>
            </g>
        </g>
    </g>
</svg>