<?xml version="1.0" encoding="UTF-8"?>
<svg width="12px" height="12px" viewBox="0 0 12 12" version="1.1" xmlns="http://www.w3.org/2000/svg" xmlns:xlink="http://www.w3.org/1999/xlink">
    <!-- Generator: sketchtool 53 (72520) - https://sketchapp.com -->
    <title>683D8269-9EB9-4223-8430-08FD9EC03B9E</title>
    <desc>Created with sketchtool.</desc>
    <g id="Glyph" stroke="none" stroke-width="1" fill="none" fill-rule="evenodd">
        <g id="Glyph---16px" transform="translate(-612.000000, -382.000000)">
            <g id="Icon/Glyph/16px/ic_print" transform="translate(610.000000, 380.000000)">
                <g>
                    <rect id="Rectangle" x="0" y="0" width="16" height="16"></rect>
                    <path d="M12.2,5.6 L3.8,5.6 C2.80588745,5.6 2,6.40588745 2,7.4 L2,10.3733333 C2,10.7194318 2.28056822,11 2.62666667,11 L4.4,11 L4.4,12.84 C4.40360009,13.1477759 4.65222408,13.3963999 4.96,13.4 L11.04,13.4 C11.3477759,13.3963999 11.5963999,13.1477759 11.6,12.84 L11.6,11 L13.3733333,11 C13.7194318,11 14,10.7194318 14,10.3733333 L14,7.4 C14,6.40588745 13.1941125,5.6 12.2,5.6 Z M10.4,12.2 L5.6,12.2 L5.6,9.2 L10.4,9.2 L10.4,12.2 Z M12.2,8 C11.8686292,8 11.6,7.73137085 11.6,7.4 C11.6,7.06862915 11.8686292,6.8 12.2,6.8 C12.5313708,6.8 12.8,7.06862915 12.8,7.4 C12.8,7.73137085 12.5313708,8 12.2,8 L12.2,8 Z M10.8333333,2.6 L5.16666667,2.6 C4.74475764,2.60362174 4.40362174,2.94475764 4.4,3.36666667 L4.4,4.23333333 C4.40362174,4.65524236 4.74475764,4.99637826 5.16666667,5 L10.8333333,5 C11.2552424,4.99637826 11.5963783,4.65524236 11.6,4.23333333 L11.6,3.36666667 C11.5963783,2.94475764 11.2552424,2.60362174 10.8333333,2.6 Z" id="Shape" fill="#70727D" fill-rule="nonzero"></path>
                </g>
            </g>
        </g>
    </g>
</svg>