<?xml version="1.0" encoding="UTF-8"?>
<svg width="12px" height="14px" viewBox="0 0 12 14" version="1.1" xmlns="http://www.w3.org/2000/svg" xmlns:xlink="http://www.w3.org/1999/xlink">
    <!-- Generator: sketchtool 53 (72520) - https://sketchapp.com -->
    <title>65235782-70E9-43AD-806B-8A063806CA92</title>
    <desc>Created with sketchtool.</desc>
    <g id="Glyph" stroke="none" stroke-width="1" fill="none" fill-rule="evenodd">
        <g id="Glyph---16px" transform="translate(-724.000000, -381.000000)">
            <g id="Icon/Glyph/16px/ic_pin-point" transform="translate(722.000000, 380.000000)">
                <g>
                    <rect id="Rectangle" x="0" y="0" width="16" height="16"></rect>
                    <path d="M13.3333333,6.17333333 L13.3333333,6.12 C13.0373479,3.39732391 10.7387171,1.33430279 8,1.33333333 C5.27658565,1.35460577 3.0009243,3.41244563 2.70666667,6.12 L2.70666667,6.17333333 C2.69671561,6.37098594 2.69671561,6.56901406 2.70666667,6.76666667 C2.70361425,8.3620302 3.39762969,9.87912359 4.60666667,10.92 C5.86098315,11.9442332 6.94157381,13.1644002 7.80666667,14.5333333 C7.85363169,14.6182176 7.94298946,14.6709006 8.04,14.6709006 C8.13701054,14.6709006 8.22636831,14.6182176 8.27333333,14.5333333 C9.13842619,13.1644002 10.2190168,11.9442332 11.4733333,10.92 C12.6675036,9.87168274 13.3464372,8.35564121 13.3333333,6.76666667 C13.3432844,6.56901406 13.3432844,6.37098594 13.3333333,6.17333333 L13.3333333,6.17333333 Z M8,8.98666667 C7.04844844,8.98660523 6.19112988,8.41192989 5.82952851,7.5317624 C5.46792713,6.65159491 5.67363415,5.64019416 6.35031651,4.97120137 C7.02699887,4.30220858 8.04068443,4.10807349 8.91666199,4.47970998 C9.79263955,4.85134647 10.3574798,5.71517655 10.3466667,6.66666667 C10.3284815,7.95074921 9.28420651,8.98315744 8,8.98666667 Z" id="Shape" fill="#70727D" fill-rule="nonzero"></path>
                </g>
            </g>
        </g>
    </g>
</svg>