<?xml version="1.0" encoding="UTF-8"?>
<svg width="12px" height="12px" viewBox="0 0 12 12" version="1.1" xmlns="http://www.w3.org/2000/svg" xmlns:xlink="http://www.w3.org/1999/xlink">
    <!-- Generator: sketchtool 53 (72520) - https://sketchapp.com -->
    <title>152C827C-24D6-4278-A5E3-A1D667403962</title>
    <desc>Created with sketchtool.</desc>
    <g id="Glyph" stroke="none" stroke-width="1" fill="none" fill-rule="evenodd">
        <g id="Glyph---16px" transform="translate(-668.000000, -382.000000)">
            <g id="Icon/Glyph/16px/ic_plus" transform="translate(666.000000, 380.000000)">
                <g>
                    <rect id="Rectangle" x="0" y="0" width="16" height="16"></rect>
                    <path d="M13.3333333,7.33333333 L8.66666667,7.33333333 L8.66666667,2.66666667 C8.66666667,2.29847683 8.36818983,2 8,2 C7.63181017,2 7.33333333,2.29847683 7.33333333,2.66666667 L7.33333333,7.33333333 L2.66666667,7.33333333 C2.29847683,7.33333333 2,7.63181017 2,8 C2,8.36818983 2.29847683,8.66666667 2.66666667,8.66666667 L7.33333333,8.66666667 L7.33333333,13.3333333 C7.33333333,13.7015232 7.63181017,14 8,14 C8.36818983,14 8.66666667,13.7015232 8.66666667,13.3333333 L8.66666667,8.66666667 L13.3333333,8.66666667 C13.7015232,8.66666667 14,8.36818983 14,8 C14,7.63181017 13.7015232,7.33333333 13.3333333,7.33333333 Z" id="Path" fill="#70727D" fill-rule="nonzero"></path>
                </g>
            </g>
        </g>
    </g>
</svg>