<?xml version="1.0" encoding="UTF-8"?>
<svg width="6px" height="6px" viewBox="0 0 6 6" version="1.1" xmlns="http://www.w3.org/2000/svg" xmlns:xlink="http://www.w3.org/1999/xlink">
    <!-- Generator: sketchtool 53 (72520) - https://sketchapp.com -->
    <title>9210CF68-B306-4BD0-BC15-561C65D624E3</title>
    <desc>Created with sketchtool.</desc>
    <g id="Glyph" stroke="none" stroke-width="1" fill="none" fill-rule="evenodd">
        <g id="Glyph---16px" transform="translate(-951.000000, -577.000000)">
            <g id="Icon/Glyph/16px/ic_plus_small" transform="translate(946.000000, 572.000000)">
                <g>
                    <rect id="Rectangle-Copy" opacity="0" x="0" y="0" width="16" height="16"></rect>
                    <path d="M7.5,7.5 L7.5,5.5 C7.5,5.22385763 7.72385763,5 8,5 C8.27614237,5 8.5,5.22385763 8.5,5.5 L8.5,7.5 L10.5,7.5 C10.7761424,7.5 11,7.72385763 11,8 C11,8.27614237 10.7761424,8.5 10.5,8.5 L8.5,8.5 L8.5,10.5 C8.5,10.7761424 8.27614237,11 8,11 C7.72385763,11 7.5,10.7761424 7.5,10.5 L7.5,8.5 L5.5,8.5 C5.22385763,8.5 5,8.27614237 5,8 C5,7.72385763 5.22385763,7.5 5.5,7.5 L7.5,7.5 Z" id="Combined-Shape" fill="#70727D" fill-rule="nonzero"></path>
                </g>
            </g>
        </g>
    </g>
</svg>