<?xml version="1.0" encoding="UTF-8"?>
<svg width="12px" height="12px" viewBox="0 0 12 12" version="1.1" xmlns="http://www.w3.org/2000/svg" xmlns:xlink="http://www.w3.org/1999/xlink">
    <!-- Generator: sketchtool 53 (72520) - https://sketchapp.com -->
    <title>10C4ED56-91AD-414F-9BC4-CD2D84F8D029</title>
    <desc>Created with sketchtool.</desc>
    <g id="Glyph" stroke="none" stroke-width="1" fill="none" fill-rule="evenodd">
        <g id="Glyph---16px" transform="translate(-500.000000, -382.000000)">
            <g id="Icon/Glyph/16px/ic_profile" transform="translate(498.000000, 380.000000)">
                <g>
                    <rect id="Rectangle" x="0" y="0" width="16" height="16"></rect>
                    <path d="M13.16,10.4666667 C13.7044071,11.1351596 14.0011453,11.9712077 14,12.8333333 C14,13.4776655 13.4776655,14 12.8333333,14 L3.16666667,14 C2.85724743,14 2.5605012,13.8770837 2.34170876,13.6582912 C2.12291631,13.4394988 2,13.1427526 2,12.8333333 C2,10.7530608 3.68639411,9.06666667 5.76666667,9.06666667 L10.2333333,9.06666667 C11.3701728,9.06776413 12.4457028,9.58225455 13.16,10.4666667 Z M7.98666667,8.14666667 C6.28931154,8.14666667 4.91333333,6.77068846 4.91333333,5.07333333 C4.91333333,3.3759782 6.28931154,2 7.98666667,2 C9.6840218,2 11.06,3.3759782 11.06,5.07333333 C11.06,6.77068846 9.6840218,8.14666667 7.98666667,8.14666667 Z" id="Combined-Shape" fill="#70727D" fill-rule="nonzero"></path>
                </g>
            </g>
        </g>
    </g>
</svg>