<?xml version="1.0" encoding="UTF-8"?>
<svg width="13px" height="12px" viewBox="0 0 13 12" version="1.1" xmlns="http://www.w3.org/2000/svg" xmlns:xlink="http://www.w3.org/1999/xlink">
    <!-- Generator: sketchtool 53 (72520) - https://sketchapp.com -->
    <title>1944EE04-0A62-4827-AA86-DF4F7EF63F85</title>
    <desc>Created with sketchtool.</desc>
    <g id="Glyph" stroke="none" stroke-width="1" fill="none" fill-rule="evenodd">
        <g id="Glyph---16px" transform="translate(-444.000000, -382.000000)">
            <g id="Icon/Glyph/16px/ic_qna" transform="translate(442.000000, 380.000000)">
                <g>
                    <rect id="Rectangle" x="0" y="0" width="16" height="16"></rect>
                    <path d="M12.2,4.4 L12.2,4.4 L12.2,8 C12.2,8.97938496 11.4060516,9.77333333 10.4266667,9.77333333 L4.42666667,9.77333333 C4.42666667,10.7674459 5.23255412,11.5733333 6.22666667,11.5733333 L11.6266667,11.5733333 L13.2266667,13.1733333 C13.3602241,13.3096861 13.5633529,13.3509641 13.7395365,13.2775543 C13.9157201,13.2041445 14.0294417,13.0308454 14.0266667,12.84 L14.0266667,6.2 C14.0267196,5.7179539 13.8334211,5.25602876 13.490066,4.91768614 C13.1467109,4.57934353 12.6819932,4.39285857 12.2,4.4 Z M11,6.8 L11,3.8 C11,2.80588745 10.1941125,2 9.2,2 L3.8,2 C2.80588745,2 2,2.80588745 2,3.8 L2,9.86666667 C1.99722493,10.0575121 2.11094656,10.2308111 2.28713016,10.304221 C2.46331376,10.3776308 2.66644252,10.3363527 2.8,10.2 L4.4,8.6 L9.2,8.6 C10.1941125,8.6 11,7.79411255 11,6.8 Z" id="Shape" fill="#70727D" fill-rule="nonzero"></path>
                </g>
            </g>
        </g>
    </g>
</svg>