<?xml version="1.0" encoding="UTF-8"?>
<svg width="14px" height="11px" viewBox="0 0 14 11" version="1.1" xmlns="http://www.w3.org/2000/svg" xmlns:xlink="http://www.w3.org/1999/xlink">
    <!-- Generator: sketchtool 53 (72520) - https://sketchapp.com -->
    <title>1D4D9F4F-A19F-4FD8-A15E-9E7B2A017B61</title>
    <desc>Created with sketchtool.</desc>
    <g id="Glyph" stroke="none" stroke-width="1" fill="none" fill-rule="evenodd">
        <g id="Glyph---16px" transform="translate(-1003.000000, -574.000000)">
            <g id="Icon/Glyph/16px/ic_reply-outline" transform="translate(1002.000000, 572.000000)">
                <g>
                    <rect id="Rectangle" fill-opacity="0.1" fill="#FF0000" opacity="0" x="0" y="0" width="16" height="16"></rect>
                    <path d="M14.6637166,12.3700358 C14.1393229,8.08730063 10.5783284,4.82659911 6.30037435,4.6384074 L6.30037435,3.67313641 C6.30037435,2.93990073 5.90089924,2.6796875 5.55889893,2.6796875 C5.30977375,2.6796875 5.05708823,2.80603026 4.80806479,3.0550537 L1.78896078,6.07415771 C1.18145753,6.68166096 1.18145753,7.67012531 1.78896078,8.27762859 L4.80806479,11.2967326 C5.05708823,11.545756 5.30977375,11.6720988 5.55889893,11.6720988 C5.90089924,11.6720988 6.30037435,11.4118856 6.30037435,10.6786499 L6.30037435,9.6464437 C6.78702799,9.55143229 7.28029378,9.50341797 7.77081299,9.50341797 C10.2056071,9.50341797 12.5196533,10.6790568 13.9608968,12.6482544 C14.0361735,12.7509969 14.1543783,12.8081665 14.2762451,12.8081665 C14.3242594,12.8081665 14.3729858,12.7992147 14.4197795,12.7807007 C14.585083,12.7152914 14.6853841,12.5465291 14.6637166,12.3700358 L14.6637166,12.3700358 Z M11.6558024,9.66750081 C10.4648031,9.04911297 9.12141927,8.72237141 7.77081299,8.72237141 C7.11844891,8.72237141 6.4621175,8.79927573 5.81992594,8.95115154 C5.64373779,8.99285888 5.51932781,9.15022786 5.51932781,9.33119711 L5.51932781,10.6786499 C5.51932781,10.7606405 5.51118979,10.8205566 5.50193279,10.8612467 C5.4665324,10.8390706 5.41841635,10.8024495 5.36043294,10.7443644 L2.34122721,7.72536214 C2.03828937,7.4223226 2.03828937,6.9294637 2.34122721,6.62642417 L5.36033122,3.60732016 C5.41841635,3.54933674 5.46643068,3.51261393 5.50193279,3.49043781 C5.51118979,3.53122966 5.51932781,3.59104411 5.51932781,3.67313641 L5.51932781,5.02048747 C5.51932781,5.23614503 5.69419352,5.41101073 5.90985107,5.41101073 C9.47104898,5.41101073 12.5496623,7.74865724 13.5812581,11.0408935 C13.0064087,10.4961548 12.3563843,10.0312703 11.6558024,9.66750081 Z" id="Color" fill="#70727D" fill-rule="nonzero"></path>
                </g>
            </g>
        </g>
    </g>
</svg>