<?xml version="1.0" encoding="UTF-8"?>
<svg width="14px" height="11px" viewBox="0 0 14 11" version="1.1" xmlns="http://www.w3.org/2000/svg" xmlns:xlink="http://www.w3.org/1999/xlink">
    <!-- Generator: sketchtool 53 (72520) - https://sketchapp.com -->
    <title>71F1AEC9-469D-46B9-A49A-EFE635AE4969</title>
    <desc>Created with sketchtool.</desc>
    <g id="Glyph" stroke="none" stroke-width="1" fill="none" fill-rule="evenodd">
        <g id="Glyph---16px" transform="translate(-163.000000, -670.000000)">
            <g id="Icon/Glyph/16px/ic_reply" transform="translate(162.000000, 668.000000)">
                <g>
                    <rect id="Rectangle-Copy" fill-opacity="0.1" fill="#FF0000" opacity="0" x="0" y="0" width="16" height="16"></rect>
                    <path d="M14.6637166,12.357015 C14.1393229,8.07427979 10.5783284,4.81357828 6.30037434,4.62538656 L6.30037434,3.66011557 C6.30037434,2.9268799 5.90089924,2.66666667 5.55889893,2.66666667 C5.30977374,2.66666667 5.05708822,2.79300943 4.80806479,3.04203286 L1.78896077,6.06113688 C1.18145752,6.66864013 1.18145752,7.65710448 1.78896077,8.26460776 L4.80806479,11.2837117 C5.05708822,11.5327352 5.30977374,11.659078 5.55889893,11.659078 C5.90100098,11.659078 6.30037434,11.3988647 6.30037434,10.6656291 L6.30037434,9.63342286 C6.78702799,9.53841146 7.28029377,9.49039714 7.77091471,9.49039714 C10.2057088,9.49039714 12.519755,10.666036 13.9609985,12.6352336 C14.0362752,12.7379761 14.15448,12.7951457 14.2762451,12.7951457 C14.3243612,12.7951457 14.3730875,12.7861939 14.4198812,12.7676798 C14.585083,12.7022705 14.6853841,12.5335083 14.6637166,12.357015 L14.6637166,12.357015 Z" id="Color" fill="#70727D" fill-rule="nonzero"></path>
                </g>
            </g>
        </g>
    </g>
</svg>