<?xml version="1.0" encoding="UTF-8"?>
<svg width="14px" height="12px" viewBox="0 0 14 12" version="1.1" xmlns="http://www.w3.org/2000/svg" xmlns:xlink="http://www.w3.org/1999/xlink">
    <!-- Generator: sketchtool 53 (72520) - https://sketchapp.com -->
    <title>E822B980-1534-4C70-8AB0-FBD70D3EF928</title>
    <desc>Created with sketchtool.</desc>
    <g id="Glyph" stroke="none" stroke-width="1" fill="none" fill-rule="evenodd">
        <g id="Glyph---16px" transform="translate(-331.000000, -382.000000)">
            <g id="Icon/Glyph/16px/ic_reset" transform="translate(330.000000, 380.000000)">
                <g>
                    <rect id="Rectangle" x="0" y="0" width="16" height="16"></rect>
                    <path d="M10,2.28666667 C12.3554285,2.76591364 14.1748258,4.64238685 14.5811111,7.01149082 C14.9873963,9.38059479 13.8971755,11.7560477 11.8360137,12.99271 C9.77485195,14.2293722 7.16582284,14.0734066 5.26666667,12.6 C5.12109032,12.4854091 5.02976355,12.315408 5.01458737,12.1307645 C4.99941119,11.946121 5.06175446,11.7634895 5.18666667,11.6266667 C5.42242742,11.4068669 5.78167632,11.3872205 6.04,11.58 C7.41392761,12.6663269 9.29125542,12.8625543 10.8601279,12.0838231 C12.4290004,11.3050918 13.4078355,9.69116901 13.3733333,7.94 C13.3102774,5.49604126 11.3439587,3.52972258 8.9,3.46666667 C7.68732323,3.45061512 6.518778,3.92113726 5.6555918,4.77304816 C4.7924056,5.62495907 4.30656044,6.78721701 4.30666667,8 L5.8,8 C5.87633816,7.99888997 5.94565778,8.04437862 5.97502171,8.11485206 C6.00438565,8.1853255 5.98787442,8.26657701 5.93333333,8.32 L3.82,10.42 C3.77102993,10.4705074 3.70368293,10.499015 3.63333333,10.499015 C3.56298374,10.499015 3.49563674,10.4705074 3.44666667,10.42 L1.38666667,8.32 C1.33212558,8.26657701 1.31561435,8.1853255 1.34497829,8.11485206 C1.37434222,8.04437862 1.44366184,7.99888997 1.52,8 L3.01333333,8 C3.01478638,6.2515575 3.80044291,4.59596569 5.15395088,3.48913713 C6.50745885,2.38230857 8.28607183,1.94097388 10,2.28666667 Z M9.21333333,7.66 L11.1,8.74666667 C11.2126045,8.81089405 11.2949309,8.91739278 11.328722,9.04254505 C11.3625131,9.16769733 11.3449761,9.30115919 11.28,9.41333333 C11.2146571,9.52480833 11.1076647,9.60572138 10.9826081,9.6382361 C10.8575514,9.67075083 10.7246978,9.65219775 10.6133333,9.58666667 L8.24,8.22 L8.24,5.48666667 C8.24,5.21788809 8.45788809,5 8.72666667,5 C8.99544524,5 9.21333333,5.21788809 9.21333333,5.48666667 L9.21333333,7.66 Z" id="Combined-Shape" fill="#70727D" fill-rule="nonzero"></path>
                </g>
            </g>
        </g>
    </g>
</svg>
