<?xml version="1.0" encoding="UTF-8"?>
<svg width="12px" height="12px" viewBox="0 0 12 12" version="1.1" xmlns="http://www.w3.org/2000/svg" xmlns:xlink="http://www.w3.org/1999/xlink">
    <!-- Generator: sketchtool 53 (72520) - https://sketchapp.com -->
    <title>C8BC10A0-DFC9-487F-A57C-367F132CECAF</title>
    <desc>Created with sketchtool.</desc>
    <g id="Glyph" stroke="none" stroke-width="1" fill="none" fill-rule="evenodd">
        <g id="Glyph---16px" transform="translate(-388.000000, -382.000000)">
            <g id="Icon/Glyph/16px/ic_remind" transform="translate(386.000000, 380.000000)">
                <g>
                    <rect id="Rectangle" x="0" y="0" width="16" height="16"></rect>
                    <path d="M9.06,3.33333333 C11.2152355,3.75322521 12.9033356,5.43342468 13.3333333,7.58666667 C13.7973019,9.92006619 12.6814683,12.2825538 10.5845839,13.4064291 C8.48769947,14.5303045 5.90257068,14.1514362 4.21636605,12.4731233 C2.53016142,10.7948105 2.13917013,8.21148744 3.25319635,6.10935383 C4.36722258,4.00722021 6.72444961,2.88031616 9.06,3.33333333 Z M10.9266667,10.62 L10.9266667,10.6266667 C11.1009033,10.3060663 10.9850284,9.90496085 10.6666667,9.72666667 L8.49333333,8.57333333 L8.49333333,5.05333333 C8.49333333,4.6851435 8.1948565,4.38666667 7.82666667,4.38666667 C7.45847683,4.38666667 7.16,4.6851435 7.16,5.05333333 L7.16,8.64666667 C7.1671503,9.09667871 7.42415202,9.50531144 7.82666667,9.70666667 L10.0266667,10.8933333 C10.3507644,11.0654533 10.7530253,10.9432852 10.9266667,10.62 Z M3.23333333,4.8 C3.11143443,4.90278719 2.95363503,4.95282574 2.79477901,4.93906655 C2.635923,4.92530737 2.48907714,4.84888223 2.38666667,4.72666667 C2.28387947,4.60476777 2.23384093,4.44696836 2.24760011,4.28811235 C2.2613593,4.12925633 2.33778444,3.98241047 2.46,3.88 L4.3,2.34 C4.55680532,2.13128262 4.93349992,2.16687581 5.14666667,2.42 C5.35464295,2.67462869 5.31896879,3.04920735 5.06666667,3.26 L3.23333333,4.8 Z M13.54,3.88666667 C13.7902312,4.09940152 13.8229159,4.47378934 13.6133333,4.72666667 C13.5109229,4.84888223 13.364077,4.92530737 13.205221,4.93906655 C13.046365,4.95282574 12.8885656,4.90278719 12.7666667,4.8 L10.9266667,3.25333333 C10.8048721,3.15210853 10.7285988,3.00639414 10.7148255,2.84862635 C10.7010521,2.69085856 10.7509217,2.53413169 10.8533333,2.41333333 C10.9557438,2.29111777 11.1025897,2.21469263 11.2614457,2.20093345 C11.4203017,2.18717426 11.5781011,2.23721281 11.7,2.34 L13.54,3.88666667 Z" id="Combined-Shape" fill="#70727D" fill-rule="nonzero"></path>
                </g>
            </g>
        </g>
    </g>
</svg>