<?xml version="1.0" encoding="UTF-8"?>
<svg width="12px" height="11px" viewBox="0 0 12 11" version="1.1" xmlns="http://www.w3.org/2000/svg" xmlns:xlink="http://www.w3.org/1999/xlink">
    <!-- Generator: sketchtool 53 (72520) - https://sketchapp.com -->
    <title>0257714D-A846-4166-8CB8-39796B327C3A</title>
    <desc>Created with sketchtool.</desc>
    <g id="Glyph" stroke="none" stroke-width="1" fill="none" fill-rule="evenodd">
        <g id="Glyph---16px" transform="translate(-444.000000, -574.000000)">
            <g id="Icon/Glyph/16px/ic_star" transform="translate(442.000000, 572.000000)">
                <g id="Icon/Glyph/24px/ic_star" stroke-width="1" fill-rule="evenodd">
                    <rect id="Rectangle" x="0" y="0" width="16" height="16"></rect>
                </g>
                <path d="M8,11.4747489 L5.2003234,12.569747 C4.94315137,12.6703311 4.65313274,12.5433915 4.55254866,12.2862195 C4.52625178,12.218984 4.51482706,12.1468511 4.51905996,12.0747802 L4.69531743,9.07375646 L2.78876467,6.74947882 C2.61363299,6.53597587 2.64473906,6.22092526 2.858242,6.04579359 C2.91406059,6.00000686 2.97913256,5.96685103 3.04898415,5.94860561 L5.95759385,5.1888691 L7.57895604,2.65738838 C7.72789075,2.42485222 8.03713398,2.35707986 8.26967014,2.50601456 C8.3304648,2.54495231 8.38210621,2.59659372 8.42104396,2.65738838 L10.0424061,5.1888691 L12.9510159,5.94860561 C13.2181942,6.01839331 13.378211,6.29155829 13.3084233,6.55873668 C13.2901779,6.62858826 13.2570221,6.69366023 13.2112353,6.74947882 L11.3046826,9.07375646 L11.48094,12.0747802 C11.4971307,12.3504475 11.2867832,12.5870451 11.0111159,12.6032357 C10.9390449,12.6074686 10.8669121,12.5960439 10.7996766,12.569747 L8,11.4747489 Z" id="Star" fill="#70727D" fill-rule="nonzero"></path>
            </g>
        </g>
    </g>
</svg>