<?xml version="1.0" encoding="UTF-8"?>
<svg width="10px" height="12px" viewBox="0 0 10 12" version="1.1" xmlns="http://www.w3.org/2000/svg" xmlns:xlink="http://www.w3.org/1999/xlink">
    <!-- Generator: sketchtool 53 (72520) - https://sketchapp.com -->
    <title>571B34CC-4BF7-4132-BB16-92418020E11B</title>
    <desc>Created with sketchtool.</desc>
    <g id="Glyph" stroke="none" stroke-width="1" fill="none" fill-rule="evenodd">
        <g id="Glyph---16px" transform="translate(-221.000000, -382.000000)">
            <g id="Icon/Glyph/16px/ic_save-outline" transform="translate(218.000000, 380.000000)">
                <g>
                    <rect id="Rectangle" x="0" y="0" width="16" height="16"></rect>
                    <path d="M11.3333333,2 L4.66666667,2 C3.930287,2 3.33333333,2.59695367 3.33333333,3.33333333 L3.33333333,12.6666667 C3.33406257,12.9620906 3.48297959,13.237437 3.72981492,13.399758 C3.97665026,13.5620791 4.28846469,13.5897137 4.56,13.4733333 L8,12 L11.44,13.4733333 C11.7115353,13.5897137 12.0233497,13.5620791 12.2701851,13.399758 C12.5170204,13.237437 12.6659374,12.9620906 12.6666667,12.6666667 L12.6666667,3.33333333 C12.6666667,2.59695367 12.069713,2 11.3333333,2 Z M11.3333333,12 L8,10.5466667 L4.66666667,12 L4.66666667,3.33333333 L11.3333333,3.33333333 L11.3333333,12 Z" id="Shape" fill="#70727D" fill-rule="nonzero"></path>
                </g>
            </g>
        </g>
    </g>
</svg>