<?xml version="1.0" encoding="UTF-8"?>
<svg width="12px" height="12px" viewBox="0 0 12 12" version="1.1" xmlns="http://www.w3.org/2000/svg" xmlns:xlink="http://www.w3.org/1999/xlink">
    <!-- Generator: sketchtool 53 (72520) - https://sketchapp.com -->
    <title>01948F3A-0C3B-47E8-AE8D-628E01582578</title>
    <desc>Created with sketchtool.</desc>
    <g id="Glyph" stroke="none" stroke-width="1" fill="none" fill-rule="evenodd">
        <g id="Glyph---16px" transform="translate(-164.000000, -382.000000)">
            <g id="Icon/Glyph/16px/ic_scan" transform="translate(162.000000, 380.000000)">
                <g>
                    <rect id="Rectangle" x="0" y="0" width="16" height="16"></rect>
                    <path d="M2.66666667,5.92 C2.48985567,5.92 2.3202864,5.84976211 2.19526215,5.72473785 C2.07023789,5.5997136 2,5.43014433 2,5.25333333 L2,2.95333333 C2,2.42682187 2.42682187,2 2.95333333,2 L5.25333333,2 C5.62152317,2 5.92,2.29847683 5.92,2.66666667 C5.92,3.0348565 5.62152317,3.33333333 5.25333333,3.33333333 L3.72,3.33333333 C3.5064499,3.33333333 3.33333333,3.5064499 3.33333333,3.72 L3.33333333,5.25333333 C3.33333333,5.62152317 3.0348565,5.92 2.66666667,5.92 Z M5.25333333,12.6666667 C5.62152317,12.6666667 5.92,12.9651435 5.92,13.3333333 C5.92,13.7015232 5.62152317,14 5.25333333,14 L2.95333333,14 C2.42682187,14 2,13.5731781 2,13.0466667 L2,10.7466667 C2,10.3784768 2.29847683,10.08 2.66666667,10.08 C3.0348565,10.08 3.33333333,10.3784768 3.33333333,10.7466667 L3.33333333,12.28 C3.33333333,12.4935501 3.5064499,12.6666667 3.72,12.6666667 L5.25333333,12.6666667 Z M13.3333333,10.08 C13.7015232,10.08 14,10.3784768 14,10.7466667 L14,13.0466667 C14,13.5731781 13.5731781,14 13.0466667,14 L10.7466667,14 C10.3784768,14 10.08,13.7015232 10.08,13.3333333 C10.08,12.9651435 10.3784768,12.6666667 10.7466667,12.6666667 L12.28,12.6666667 C12.4935501,12.6666667 12.6666667,12.4935501 12.6666667,12.28 L12.6666667,10.7466667 C12.6666667,10.3784768 12.9651435,10.08 13.3333333,10.08 Z M13.0466667,2 C13.5731781,2 14,2.42682187 14,2.95333333 L14,5.25333333 C14,5.62152317 13.7015232,5.92 13.3333333,5.92 C12.9651435,5.92 12.6666667,5.62152317 12.6666667,5.25333333 L12.6666667,3.72 C12.6666667,3.5064499 12.4935501,3.33333333 12.28,3.33333333 L10.7466667,3.33333333 C10.3784768,3.33333333 10.08,3.0348565 10.08,2.66666667 C10.08,2.29847683 10.3784768,2 10.7466667,2 L13.0466667,2 Z M2.47333333,9.33333333 C2.21191855,9.33333333 2,9.12141478 2,8.86 C2,8.59858522 2.21191855,8.38666667 2.47333333,8.38666667 L13.5266667,8.38666667 C13.7880814,8.38666667 14,8.59858522 14,8.86 C14,9.12141478 13.7880814,9.33333333 13.5266667,9.33333333 L11.7066667,9.33333333 L11.7066667,11.2066667 C11.7084786,11.3398221 11.6563822,11.4680545 11.5622183,11.5622183 C11.4680545,11.6563822 11.3398221,11.7084786 11.2066667,11.7066667 L4.79333333,11.7066667 C4.6601779,11.7084786 4.53194548,11.6563822 4.43778165,11.5622183 C4.34361783,11.4680545 4.29152144,11.3398221 4.29333333,11.2066667 L4.29333333,9.33333333 L2.47333333,9.33333333 Z M4.29333333,4.79333333 C4.29152144,4.6601779 4.34361783,4.53194548 4.43778165,4.43778165 C4.53194548,4.34361783 4.6601779,4.29152144 4.79333333,4.29333333 L11.2066667,4.29333333 C11.3398221,4.29152144 11.4680545,4.34361783 11.5622183,4.43778165 C11.6563822,4.53194548 11.7084786,4.6601779 11.7066667,4.79333333 L11.7067124,7.66666667 L4.2932876,7.66666667 L4.29333333,4.79333333 Z" id="Combined-Shape" fill="#70727D" fill-rule="nonzero"></path>
                </g>
            </g>
        </g>
    </g>
</svg>