<?xml version="1.0" encoding="UTF-8"?>
<svg width="12px" height="12px" viewBox="0 0 12 12" version="1.1" xmlns="http://www.w3.org/2000/svg" xmlns:xlink="http://www.w3.org/1999/xlink">
    <!-- Generator: sketchtool 53 (72520) - https://sketchapp.com -->
    <title>81C6E0DC-20E3-436C-BAA1-44C72B6800D7</title>
    <desc>Created with sketchtool.</desc>
    <g id="Glyph" stroke="none" stroke-width="1" fill="none" fill-rule="evenodd">
        <g id="Glyph---16px" transform="translate(-1004.000000, -190.000000)">
            <g id="Icon/Glyph/16px/ic_setting" transform="translate(1002.000000, 188.000000)">
                <g>
                    <rect id="Rectangle" x="0" y="0" width="16" height="16"></rect>
                    <path d="M12.4733333,8.25333333 C12.4733333,8.09333333 12.4733333,7.90666667 12.4733333,7.74666667 C12.4668967,7.5298203 12.5663749,7.32340295 12.74,7.19333333 L13.7266667,6.42 C13.8380426,6.32669842 13.8686599,6.16804534 13.8,6.04 L12.6,3.96 C12.5251888,3.83380513 12.3700859,3.78022415 12.2333333,3.83333333 L11.08,4.29333333 C10.8586549,4.38194101 10.6074302,4.35179404 10.4133333,4.21333333 C10.2991698,4.13640113 10.181246,4.06520184 10.06,4 C9.8520611,3.89905263 9.7073616,3.70196193 9.67333333,3.47333333 L9.49333333,2.25333333 C9.47321339,2.10711773 9.34758698,1.99862219 9.2,2 L6.8,2 C6.65241302,1.99862219 6.52678661,2.10711773 6.50666667,2.25333333 L6.33333333,3.47333333 C6.29610314,3.70063012 6.15237583,3.89639663 5.94666667,4 C5.81556149,4.06538432 5.68864984,4.13885949 5.56666667,4.22 C5.37381375,4.36258404 5.11923514,4.39058769 4.9,4.29333333 L3.77333333,3.83333333 C3.63665325,3.7771736 3.47953787,3.83144982 3.40666667,3.96 L2.20666667,6.04 C2.12555223,6.16589497 2.15786403,6.3333288 2.28,6.42 L3.26666667,7.19333333 C3.43778331,7.32482481 3.53466647,7.53101204 3.52666667,7.74666667 L3.52666667,8.25333333 C3.53466647,8.46898796 3.43778331,8.67517519 3.26666667,8.80666667 L2.28,9.58 C2.16084057,9.66856503 2.12901974,9.8334548 2.20666667,9.96 L3.40666667,12.04 C3.47935253,12.1687044 3.63495374,12.2252867 3.77333333,12.1733333 L4.92,11.7066667 C5.14134506,11.618059 5.39256981,11.648206 5.58666667,11.7866667 C5.70733797,11.8641864 5.8319499,11.9353932 5.96,12 C6.16900546,12.1010862 6.3157412,12.2975629 6.35333333,12.5266667 L6.52666667,13.7466667 C6.54678661,13.8928823 6.67241302,14.0013778 6.82,14 L9.22,14 C9.36758698,14.0013778 9.49321339,13.8928823 9.51333333,13.7466667 L9.69333333,12.5266667 C9.7273616,12.2980381 9.8720611,12.1009474 10.08,12 C10.2081357,11.9331189 10.3327449,11.8596885 10.4533333,11.78 C10.6461863,11.637416 10.9007649,11.6094123 11.12,11.7066667 L12.2733333,12.1733333 C12.4116815,12.2283951 12.5693349,12.1710666 12.64,12.04 L13.84,9.96 C13.9086599,9.83195466 13.8780426,9.67330158 13.7666667,9.58 L12.78,8.80666667 C12.5912004,8.68555729 12.4759597,8.47762306 12.4733333,8.25333333 Z M8.41333333,10.06 C7.50584576,10.2417682 6.58635171,9.8080042 6.14952428,8.99206598 C5.71269684,8.17612776 5.8615384,7.17041072 6.51597456,6.51597456 C7.17041072,5.8615384 8.17612776,5.71269684 8.99206598,6.14952428 C9.8080042,6.58635171 10.2417682,7.50584576 10.06,8.41333333 C9.89194278,9.24328361 9.24328361,9.89194278 8.41333333,10.06 L8.41333333,10.06 Z" id="Shape" fill="#70727D" fill-rule="nonzero"></path>
                </g>
            </g>
        </g>
    </g>
</svg>