<?xml version="1.0" encoding="UTF-8"?>
<svg width="10px" height="12px" viewBox="0 0 10 12" version="1.1" xmlns="http://www.w3.org/2000/svg" xmlns:xlink="http://www.w3.org/1999/xlink">
    <!-- Generator: sketchtool 53 (72520) - https://sketchapp.com -->
    <title>563F1FC9-FCAB-4536-8810-CD22E1137D89</title>
    <desc>Created with sketchtool.</desc>
    <g id="Glyph" stroke="none" stroke-width="1" fill="none" fill-rule="evenodd">
        <g id="Glyph---16px" transform="translate(-277.000000, -382.000000)">
            <g id="Icon/Glyph/16px/ic_save-full" transform="translate(274.000000, 380.000000)">
                <g>
                    <rect id="Rectangle" x="0" y="0" width="16" height="16"></rect>
                    <path d="M11.4266667,2 L4.57333333,2 C3.83137233,1.99977928 3.22476324,2.59159302 3.20666667,3.33333333 L3.20666667,13.24 C3.20205333,13.4832596 3.32174497,13.7120945 3.52418562,13.8470549 C3.72662626,13.9820153 3.98389367,14.0044865 4.20666667,13.9066667 L7.68666667,12.42 C7.88654009,12.3332076 8.11345991,12.3332076 8.31333333,12.42 L11.7933333,13.9133333 C12.0162092,14.0074158 12.2714358,13.9832808 12.4727252,13.8490879 C12.6740146,13.7148949 12.7944572,13.4885838 12.7933333,13.2466667 L12.7933333,3.37333333 C12.7933422,2.61745816 12.1825329,2.0036693 11.4266667,2 L11.4266667,2 Z" id="Path" fill="#70727D" fill-rule="nonzero"></path>
                </g>
            </g>
        </g>
    </g>
</svg>