<?xml version="1.0" encoding="UTF-8"?>
<svg width="14px" height="12px" viewBox="0 0 14 12" version="1.1" xmlns="http://www.w3.org/2000/svg" xmlns:xlink="http://www.w3.org/1999/xlink">
    <!-- Generator: sketchtool 53 (72520) - https://sketchapp.com -->
    <title>558CC7A3-78F3-4090-A200-1FE266853D56</title>
    <desc>Created with sketchtool.</desc>
    <g id="Glyph" stroke="none" stroke-width="1" fill="none" fill-rule="evenodd">
        <g id="Glyph---16px" transform="translate(-723.000000, -574.000000)">
            <g id="Icon/Glyph/16px/ic_transaction" transform="translate(722.000000, 572.000000)">
                <g id="Icon/Glyph/24px/ic_transaction">
                    <g id="Icon/Glyph/24px/ic_arrow-right">
                        <rect id="Rectangle" x="0" y="0" width="16" height="16"></rect>
                    </g>
                    <path d="M6.11598329,12.3750178 C6.46115141,12.8061529 6.39146146,13.4354709 5.96032643,13.780639 C5.5291914,14.1258071 4.89987335,14.0561172 4.55470523,13.6249822 L1.88602764,10.2916488 C1.3618693,9.63694462 1.82798939,8.66666667 2.66666667,8.66666667 L13.3333333,8.66666667 C13.8856181,8.66666667 14.3333333,9.11438192 14.3333333,9.66666667 C14.3333333,10.2189514 13.8856181,10.6666667 13.3333333,10.6666667 L4.74827174,10.6666667 L6.11598329,12.3750178 Z" id="Path" fill="#70727D" fill-rule="nonzero"></path>
                    <path d="M6.11598329,5.70835117 C6.46115141,6.1394862 6.39146146,6.76880424 5.96032643,7.11397236 C5.5291914,7.45914048 4.89987335,7.38945053 4.55470523,6.9583155 L1.88602764,3.62498217 C1.3618693,2.97027795 1.82798939,2 2.66666667,2 L13.3333333,2 C13.8856181,2 14.3333333,2.44771525 14.3333333,3 C14.3333333,3.55228475 13.8856181,4 13.3333333,4 L4.74827174,4 L6.11598329,5.70835117 Z" id="Path-Copy-3" fill="#70727D" fill-rule="nonzero" transform="translate(7.999061, 4.666685) rotate(-180.000000) translate(-7.999061, -4.666685) "></path>
                </g>
            </g>
        </g>
    </g>
</svg>