<?xml version="1.0" encoding="UTF-8"?>
<svg width="10px" height="14px" viewBox="0 0 10 14" version="1.1" xmlns="http://www.w3.org/2000/svg" xmlns:xlink="http://www.w3.org/1999/xlink">
    <!-- Generator: sketchtool 53 (72520) - https://sketchapp.com -->
    <title>977C3828-077C-454C-8A75-2A5104F9A1F7</title>
    <desc>Created with sketchtool.</desc>
    <g id="Glyph" stroke="none" stroke-width="1" fill="none" fill-rule="evenodd">
        <g id="Glyph---16px" transform="translate(-837.000000, -189.000000)">
            <g id="Icon/Glyph/16px/ic_twist" transform="translate(834.000000, 188.000000)">
                <g>
                    <rect id="Rectangle" x="0" y="0" width="16" height="16"></rect>
                    <path d="M8,4.36666667 L8,5.79333333 C7.99984062,5.85816938 8.03882514,5.91669214 8.09871711,5.94152539 C8.15860908,5.96635865 8.22756704,5.95259254 8.27333333,5.90666667 L10.4266667,3.76 L8.27333333,1.60666667 C8.22672536,1.55976116 8.15606482,1.54635884 8.09551845,1.57294017 C8.03497208,1.5995215 7.99701471,1.66060974 8,1.72666667 L8,3.15333333 C6.38770379,3.15287916 4.88073605,3.95421375 3.97961875,5.29118304 C3.07850145,6.62815232 2.90122385,8.32569807 3.50666667,9.82 C3.58626943,10.0034252 3.75201561,10.1351426 3.94867931,10.1712645 C4.14534302,10.2073864 4.34707785,10.1431655 4.48666667,10 L4.48666667,10 C4.67266348,9.83147708 4.72916138,9.56243947 4.62666667,9.33333333 C4.45815782,8.90883092 4.36999476,8.45671266 4.36666667,8 C4.36666667,5.99336541 5.99336541,4.36666667 8,4.36666667 L8,4.36666667 Z M11.5066667,6 L11.5066667,6 C11.3243741,6.17062797 11.2684101,6.43712336 11.3666667,6.66666667 C11.5403959,7.08984994 11.6309359,7.54255036 11.6333333,8 C11.6333333,8.96361991 11.2505368,9.88777246 10.5691546,10.5691546 C9.88777246,11.2505368 8.96361991,11.6333333 8,11.6333333 L8,10.2066667 C8.00015938,10.1418306 7.96117486,10.0833079 7.90128289,10.0584746 C7.84139092,10.0336413 7.77243296,10.0474075 7.72666667,10.0933333 L5.57333333,12.24 L7.72666667,14.3933333 C7.77327464,14.4402388 7.84393518,14.4536412 7.90448155,14.4270598 C7.96502792,14.4004785 8.00298529,14.3393903 8,14.2733333 L8,12.8466667 C9.61229621,12.8471208 11.119264,12.0457863 12.0203813,10.708817 C12.9214986,9.37184768 13.0987762,7.67430193 12.4933333,6.18 C12.4119722,5.99647779 12.2450934,5.86508711 12.0476042,5.82905867 C11.8501149,5.79303023 11.6475906,5.85702981 11.5066667,6 L11.5066667,6 Z" id="Shape" fill="#70727D" fill-rule="nonzero"></path>
                </g>
            </g>
        </g>
    </g>
</svg>