<?xml version="1.0" encoding="UTF-8"?>
<svg width="14px" height="14px" viewBox="0 0 14 14" version="1.1" xmlns="http://www.w3.org/2000/svg" xmlns:xlink="http://www.w3.org/1999/xlink">
    <!-- Generator: sketchtool 53 (72520) - https://sketchapp.com -->
    <title>ABDFD5BE-A90F-429F-B3E0-233673C11483</title>
    <desc>Created with sketchtool.</desc>
    <g id="Glyph" stroke="none" stroke-width="1" fill="none" fill-rule="evenodd">
        <g id="Glyph---16px" transform="translate(-667.000000, -573.000000)">
            <g id="Icon/Glyph/16px/ic_timer" transform="translate(666.000000, 572.000000)">
                <g>
                    <rect id="Rectangle" x="0" y="0" width="16" height="16"></rect>
                    <path d="M8,15 C4.13400675,15 1,11.8659932 1,8 C1,4.13400675 4.13400675,1 8,1 C11.8659932,1 15,4.13400675 15,8 C15,11.8659932 11.8659932,15 8,15 Z M8.777756,7.53824374 L8.7777602,3.43444118 C8.77775839,3.00488638 8.42953396,2.65666487 7.99997916,2.65666667 C7.57042435,2.65666847 7.22220284,3.0048929 7.22220464,3.43444771 L7.22222222,7.62666993 C7.21835731,8.13912488 7.50113487,8.61715362 7.95724409,8.86333409 L10.5257042,10.2409657 C10.9042458,10.4440017 11.3757076,10.3017262 11.5787435,9.92318465 C11.7817795,9.54464306 11.639504,9.07318132 11.2609624,8.87014537 L8.777756,7.53824374 Z" id="Combined-Shape" fill="#70727D" fill-rule="nonzero"></path>
                </g>
            </g>
        </g>
    </g>
</svg>