<?xml version="1.0" encoding="UTF-8"?>
<svg width="12px" height="12px" viewBox="0 0 12 12" version="1.1" xmlns="http://www.w3.org/2000/svg" xmlns:xlink="http://www.w3.org/1999/xlink">
    <!-- Generator: sketchtool 53 (72520) - https://sketchapp.com -->
    <title>980D7625-FF32-4139-98C3-6AAA0E948A67</title>
    <desc>Created with sketchtool.</desc>
    <g id="Glyph" stroke="none" stroke-width="1" fill="none" fill-rule="evenodd">
        <g id="Glyph---16px" transform="translate(-892.000000, -190.000000)">
            <g id="Icon/Glyph/16px/ic_time" transform="translate(890.000000, 188.000000)">
                <g>
                    <rect id="Rectangle" x="0" y="0" width="16" height="16"></rect>
                    <path d="M8,2 C4.6862915,2 2,4.6862915 2,8 C2,11.3137085 4.6862915,14 8,14 C11.3137085,14 14,11.3137085 14,8 C14,4.6862915 11.3137085,2 8,2 Z M11.0666667,9.66 C10.9494019,9.8743203 10.7243026,10.0073335 10.48,10.0066667 C10.3685481,10.0053665 10.2589517,9.97796736 10.16,9.92666667 L8,8.74 C7.59748535,8.53864478 7.34048363,8.13001204 7.33333333,7.68 L7.33333333,4.08666667 C7.33333333,3.71847683 7.63181017,3.42 8,3.42 C8.36818983,3.42 8.66666667,3.71847683 8.66666667,4.08666667 L8.66666667,7.6 L10.7933333,8.75333333 C10.9503947,8.83673872 11.0676233,8.97943839 11.118953,9.1497029 C11.1702827,9.3199674 11.1514588,9.50368289 11.0666667,9.66 L11.0666667,9.66 Z" id="Shape" fill="#70727D" fill-rule="nonzero"></path>
                </g>
            </g>
        </g>
    </g>
</svg>