<?xml version="1.0" encoding="UTF-8"?>
<svg width="12px" height="12px" viewBox="0 0 12 12" version="1.1" xmlns="http://www.w3.org/2000/svg" xmlns:xlink="http://www.w3.org/1999/xlink">
    <!-- Generator: sketchtool 53 (72520) - https://sketchapp.com -->
    <title>05464949-F73D-4A25-9F9D-411D39041522</title>
    <desc>Created with sketchtool.</desc>
    <g id="Glyph" stroke="none" stroke-width="1" fill="none" fill-rule="evenodd">
        <g id="Glyph---16px" transform="translate(-948.000000, -190.000000)">
            <g id="Icon/Glyph/16px/ic_tag" transform="translate(946.000000, 188.000000)">
                <g>
                    <rect id="Rectangle" x="0" y="0" width="16" height="16"></rect>
                    <path d="M14,7.54666667 L13.26,3.33333333 C13.2068018,3.02911645 12.9702702,2.78992718 12.6666667,2.73333333 L8.42,2 C8.02321705,1.93560153 7.61952,2.06438831 7.33333333,2.34666667 L2.34666667,7.33333333 C1.84990903,7.83051327 1.84990903,8.6361534 2.34666667,9.13333333 L6.86,13.6466667 C7.35717994,14.1434243 8.16282006,14.1434243 8.66,13.6466667 L13.6266667,8.66666667 C13.9241849,8.37522091 14.0631471,7.95833419 14,7.54666667 Z M11.7170528,5.71111108 C11.3221544,6.09837209 10.6858787,6.09598269 10.293948,5.7057669 C9.90201733,5.31555111 9.90201733,4.68444889 10.293948,4.2942331 C10.6858787,3.90401731 11.3221544,3.90162791 11.7170528,4.28888892 C11.9042409,4.48115926 12.0060369,4.73975387 11.9997229,5.00696179 C11.9934088,5.27416971 11.8795102,5.52775011 11.683446,5.71111108 L11.7170528,5.71111108 Z" id="Shape" fill="#70727D" fill-rule="nonzero"></path>
                </g>
            </g>
        </g>
    </g>
</svg>