<?xml version="1.0" encoding="UTF-8"?>
<svg width="12px" height="12px" viewBox="0 0 12 12" version="1.1" xmlns="http://www.w3.org/2000/svg" xmlns:xlink="http://www.w3.org/1999/xlink">
    <!-- Generator: sketchtool 53 (72520) - https://sketchapp.com -->
    <title>BB606B85-13F8-4546-94B2-E3B0F79B175F</title>
    <desc>Created with sketchtool.</desc>
    <g id="Glyph" stroke="none" stroke-width="1" fill="none" fill-rule="evenodd">
        <g id="Glyph---16px" transform="translate(-500.000000, -286.000000)">
            <g id="Icon/Glyph/16px/ic_up" transform="translate(498.000000, 284.000000)">
                <g>
                    <rect id="Rectangle" x="0" y="0" width="16" height="16"></rect>
                    <path d="M12.6666667,2 C13.4030463,2 14,2.59695367 14,3.33333333 L14,12.6666667 C14,13.4030463 13.4030463,14 12.6666667,14 L3.33333333,14 C2.59695367,14 2,13.4030463 2,12.6666667 L2,3.33333333 C2,2.59695367 2.59695367,2 3.33333333,2 L12.6666667,2 Z M3.33333333,12.6666667 L12.6666667,12.6666667 L12.6666667,3.33333333 L3.33333333,3.33333333 L3.33333333,12.6666667 Z M11.72,4.8 C11.7298752,4.8348784 11.7365692,4.87057996 11.74,4.90666667 C11.7431338,4.95105587 11.7431338,4.9956108 11.74,5.04 L11.74,8.72 C11.74,9.08818983 11.4415232,9.38666667 11.0733333,9.38666667 C10.7051435,9.38666667 10.4066667,9.08818983 10.4066667,8.72 L10.4066667,6.62 L5.33333333,11.5333333 C5.2164732,11.6462989 5.06236985,11.7126819 4.9,11.72 C4.62739098,11.7216479 4.38124543,11.5571524 4.27848229,11.3046487 C4.17571915,11.052145 4.23704627,10.7625152 4.43333333,10.5733333 L9.56666667,5.61333333 L7.33333333,5.61333333 C6.9651435,5.61333333 6.66666667,5.3148565 6.66666667,4.94666667 C6.66666667,4.57847683 6.9651435,4.28 7.33333333,4.28 L11.0066667,4.28 C11.3317321,4.28127522 11.6193177,4.49091707 11.72,4.8 Z" id="Combined-Shape" fill="#70727D" fill-rule="nonzero"></path>
                </g>
            </g>
        </g>
    </g>
</svg>