<?xml version="1.0" encoding="UTF-8"?>
<svg width="12px" height="14px" viewBox="0 0 12 14" version="1.1" xmlns="http://www.w3.org/2000/svg" xmlns:xlink="http://www.w3.org/1999/xlink">
    <!-- Generator: sketchtool 53 (72520) - https://sketchapp.com -->
    <title>801A3E7D-E469-49F5-A579-9A7C4A36AADD</title>
    <desc>Created with sketchtool.</desc>
    <g id="Glyph" stroke="none" stroke-width="1" fill="none" fill-rule="evenodd">
        <g id="Glyph---16px" transform="translate(-780.000000, -189.000000)">
            <g id="Icon/Glyph/16px/ic_unlocked" transform="translate(778.000000, 188.000000)">
                <g>
                    <rect id="Rectangle" x="0" y="0" width="16" height="16"></rect>
                    <path d="M11.18,5.77333333 L11.18,5.77333333 L11.18,4.66666667 C11.2207043,2.98480528 9.98233827,1.54484479 8.31333333,1.33333333 C6.74195787,1.18064541 5.29567229,2.20155288 4.91333333,3.73333333 C4.86620957,3.91578955 4.90557577,4.10978073 5.02009404,4.25943529 C5.1346123,4.40908984 5.3115695,4.49779401 5.5,4.5 L5.5,4.5 C5.7895833,4.49053698 6.03492387,4.28378931 6.09333333,4 C6.36448456,2.99107396 7.36649616,2.36082319 8.39333333,2.55333333 C9.32895222,2.75737063 9.98865622,3.5959774 9.96666667,4.55333333 L9.96666667,5.77333333 L4.82,5.77333333 C3.76958151,5.77700615 2.91999358,6.62957509 2.92,7.68 L2.92,12.7666667 C2.92365735,13.814489 3.77217764,14.6630093 4.82,14.6666667 L11.18,14.6666667 C12.2304185,14.6629939 13.0800064,13.8104249 13.08,12.76 L13.08,7.68 C13.0800064,6.62957509 12.2304185,5.77700615 11.18,5.77333333 Z M8,11.4933333 C7.48437959,11.4933263 7.01965985,11.1823623 6.82296905,10.7057312 C6.62627826,10.2291002 6.73644674,9.68089775 7.10200112,9.31725727 C7.4675555,8.95361678 8.01632872,8.8463275 8.4919207,9.04551757 C8.96751267,9.24470764 9.27603292,9.71105332 9.27333333,10.2266667 C9.26966502,10.9273044 8.70064729,11.4933429 8,11.4933333 L8,11.4933333 Z" id="Shape" fill="#70727D" fill-rule="nonzero"></path>
                </g>
            </g>
        </g>
    </g>
</svg>