<?xml version="1.0" encoding="UTF-8"?>
<svg width="14px" height="10px" viewBox="0 0 14 10" version="1.1" xmlns="http://www.w3.org/2000/svg" xmlns:xlink="http://www.w3.org/1999/xlink">
    <!-- Generator: sketchtool 53 (72520) - https://sketchapp.com -->
    <title>3F224E58-CCE8-45BD-A18D-E202829D235D</title>
    <desc>Created with sketchtool.</desc>
    <g id="Glyph" stroke="none" stroke-width="1" fill="none" fill-rule="evenodd">
        <g id="Glyph---16px" transform="translate(-891.000000, -383.000000)">
            <g id="Icon/Glyph/16px/ic_visible" transform="translate(890.000000, 380.000000)">
                <g>
                    <rect id="Rectangle" x="0" y="0" width="16" height="16"></rect>
                    <path d="M8,3.40666667 C5.16242777,3.40429209 2.58605633,5.06276602 1.41333333,7.64666667 C1.30662663,7.87013768 1.30662663,8.12986232 1.41333333,8.35333333 C2.58624367,10.9375935 5.16202194,12.5971963 8,12.5971963 C10.8379781,12.5971963 13.4137563,10.9375935 14.5866667,8.35333333 C14.6933734,8.12986232 14.6933734,7.87013768 14.5866667,7.64666667 C13.4139437,5.06276602 10.8375722,3.40429209 8,3.40666667 L8,3.40666667 Z M8.83333333,10.9533333 C7.76467821,11.2517433 6.61814668,10.9509755 5.83358557,10.1664144 C5.04902447,9.38185332 4.74825673,8.23532179 5.04666667,7.16666667 C5.3266872,6.1336494 6.1336494,5.3266872 7.16666667,5.04666667 C8.23532179,4.74825673 9.38185332,5.04902447 10.1664144,5.83358557 C10.9509755,6.61814668 11.2517433,7.76467821 10.9533333,8.83333333 C10.6733128,9.8663506 9.8663506,10.6733128 8.83333333,10.9533333 L8.83333333,10.9533333 Z M8.36,6.19333333 C7.56518137,6.03561139 6.76074224,6.41641998 6.37892486,7.13114256 C5.99710749,7.84586514 6.12780122,8.72623816 6.70078153,9.29921847 C7.27376184,9.87219878 8.15413486,10.0028925 8.86885744,9.62107514 C9.58358002,9.23925776 9.96438861,8.43481863 9.80666667,7.64 C9.66003768,6.91030835 9.08969165,6.33996232 8.36,6.19333333 L8.36,6.19333333 Z" id="Shape" fill="#70727D" fill-rule="nonzero"></path>
                </g>
            </g>
        </g>
    </g>
</svg>