<?xml version="1.0" encoding="UTF-8"?>
<svg width="12px" height="10px" viewBox="0 0 12 10" version="1.1" xmlns="http://www.w3.org/2000/svg" xmlns:xlink="http://www.w3.org/1999/xlink">
    <!-- Generator: sketchtool 53 (72520) - https://sketchapp.com -->
    <title>6DCFA622-83F0-4EBC-93DC-F943D85CEA4A</title>
    <desc>Created with sketchtool.</desc>
    <g id="Glyph" stroke="none" stroke-width="1" fill="none" fill-rule="evenodd">
        <g id="Glyph---16px" transform="translate(-612.000000, -191.000000)">
            <g id="Icon/Glyph/16px/ic_view-list" transform="translate(610.000000, 188.000000)">
                <g>
                    <rect id="Rectangle" x="0" y="0" width="16" height="16"></rect>
                    <path d="M5.12666667,3.94666667 L13.1866667,3.94666667 C13.6358583,3.94666667 14,4.3108084 14,4.76 C14,5.2091916 13.6358583,5.57333333 13.1866667,5.57333333 L5.12666667,5.57333333 C4.67747507,5.57333333 4.31333333,5.2091916 4.31333333,4.76 C4.31333333,4.3108084 4.67747507,3.94666667 5.12666667,3.94666667 Z M2.81333333,3.94666667 C3.26252493,3.94666667 3.62666667,4.3108084 3.62666667,4.76 C3.62666667,5.2091916 3.26252493,5.57333333 2.81333333,5.57333333 C2.36414174,5.57333333 2,5.2091916 2,4.76 C2,4.3108084 2.36414174,3.94666667 2.81333333,3.94666667 Z M5.12666667,7.18666667 L13.1866667,7.18666667 C13.6358583,7.18666667 14,7.5508084 14,8 C14,8.4491916 13.6358583,8.81333333 13.1866667,8.81333333 L5.12666667,8.81333333 C4.67747507,8.81333333 4.31333333,8.4491916 4.31333333,8 C4.31333333,7.5508084 4.67747507,7.18666667 5.12666667,7.18666667 Z M2.81333333,7.18666667 C3.26252493,7.18666667 3.62666667,7.5508084 3.62666667,8 C3.62666667,8.4491916 3.26252493,8.81333333 2.81333333,8.81333333 C2.36414174,8.81333333 2,8.4491916 2,8 C2,7.5508084 2.36414174,7.18666667 2.81333333,7.18666667 Z M5.12666667,10.4333333 L13.1866667,10.4333333 C13.6358583,10.4333333 14,10.7974751 14,11.2466667 C14,11.6958583 13.6358583,12.06 13.1866667,12.06 L5.12666667,12.06 C4.67747507,12.06 4.31333333,11.6958583 4.31333333,11.2466667 C4.31333333,10.7974751 4.67747507,10.4333333 5.12666667,10.4333333 Z M2.81333333,10.4333333 C3.26252493,10.4333333 3.62666667,10.7974751 3.62666667,11.2466667 C3.62666667,11.6958583 3.26252493,12.06 2.81333333,12.06 C2.36414174,12.06 2,11.6958583 2,11.2466667 C2,10.7974751 2.36414174,10.4333333 2.81333333,10.4333333 Z" id="Combined-Shape" fill="#70727D" fill-rule="nonzero"></path>
                </g>
            </g>
        </g>
    </g>
</svg>