<?xml version="1.0" encoding="UTF-8"?>
<svg width="12px" height="12px" viewBox="0 0 12 12" version="1.1" xmlns="http://www.w3.org/2000/svg" xmlns:xlink="http://www.w3.org/1999/xlink">
    <!-- Generator: sketchtool 53 (72520) - https://sketchapp.com -->
    <title>F27DDC33-DA0B-4D33-8425-07E1543F7E4B</title>
    <desc>Created with sketchtool.</desc>
    <g id="Glyph" stroke="none" stroke-width="1" fill="none" fill-rule="evenodd">
        <g id="Glyph---16px" transform="translate(-668.000000, -190.000000)">
            <g id="Icon/Glyph/16px/ic_view-grid" transform="translate(666.000000, 188.000000)">
                <g>
                    <rect id="Rectangle" x="0" y="0" width="16" height="16"></rect>
                    <path d="M3.49,2 L6.02333333,2 C6.84623761,2 7.51333333,2.66709572 7.51333333,3.49 L7.51333333,6.02333333 C7.51333333,6.84623761 6.84623761,7.51333333 6.02333333,7.51333333 L3.49,7.51333333 C2.66709572,7.51333333 2,6.84623761 2,6.02333333 L2,3.49 C2,2.66709572 2.66709572,2 3.49,2 Z M9.97666667,2 L12.51,2 C13.3329043,2 14,2.66709572 14,3.49 L14,6.02333333 C14,6.84623761 13.3329043,7.51333333 12.51,7.51333333 L9.97666667,7.51333333 C9.15376239,7.51333333 8.48666667,6.84623761 8.48666667,6.02333333 L8.48666667,3.49 C8.48666667,2.66709572 9.15376239,2 9.97666667,2 Z M3.49,8.48666667 L6.02333333,8.48666667 C6.84623761,8.48666667 7.51333333,9.15376239 7.51333333,9.97666667 L7.51333333,12.51 C7.51333333,13.3329043 6.84623761,14 6.02333333,14 L3.49,14 C2.66709572,14 2,13.3329043 2,12.51 L2,9.97666667 C2,9.15376239 2.66709572,8.48666667 3.49,8.48666667 Z M9.97666667,8.48666667 L12.51,8.48666667 C13.3329043,8.48666667 14,9.15376239 14,9.97666667 L14,12.51 C14,13.3329043 13.3329043,14 12.51,14 L9.97666667,14 C9.15376239,14 8.48666667,13.3329043 8.48666667,12.51 L8.48666667,9.97666667 C8.48666667,9.15376239 9.15376239,8.48666667 9.97666667,8.48666667 Z" id="Combined-Shape" fill="#70727D" fill-rule="nonzero"></path>
                </g>
            </g>
        </g>
    </g>
</svg>