<?xml version="1.0" encoding="UTF-8"?>
<svg width="8px" height="14px" viewBox="0 0 8 14" version="1.1" xmlns="http://www.w3.org/2000/svg" xmlns:xlink="http://www.w3.org/1999/xlink">
    <!-- Generator: sketchtool 53 (72520) - https://sketchapp.com -->
    <title>65B4085B-3025-4625-8E44-1CB79D857244</title>
    <desc>Created with sketchtool.</desc>
    <g id="Glyph" stroke="none" stroke-width="1" fill="none" fill-rule="evenodd">
        <g id="Glyph---16px" transform="translate(-502.000000, -189.000000)">
            <g id="Icon/Glyph/16px/ic_waiting-outline" transform="translate(498.000000, 188.000000)">
                <g>
                    <rect id="Rectangle" x="0" y="0" width="16" height="16"></rect>
                    <path d="M5.04666667,1.33333333 C4.46860863,1.33333333 4,1.80194196 4,2.38 L4,3.78666667 C3.99755026,4.78644927 4.39338193,5.7460412 5.1,6.45333333 L6,7.33333333 C6.35220721,7.7079997 6.35220721,8.2920003 6,8.66666667 L5.1,9.56666667 C4.39212777,10.2731219 3.99607079,11.23326 4,12.2333333 L4,13.6333333 C4.00729797,14.2061777 4.47377584,14.6667132 5.04666667,14.6666667 L10.9533333,14.6666667 C11.5313914,14.6666667 12,14.198058 12,13.62 L12,12.22 C12.0039292,11.2199267 11.6078722,10.2597886 10.9,9.55333333 L10,8.66666667 C9.64444444,8.29333333 9.64444444,7.70666667 10,7.33333333 L10.88,6.45333333 C11.5878722,5.74687812 11.9839292,4.78673998 11.98,3.78666667 L11.98,2.38 C11.9801041,1.80966322 11.523566,1.34423148 10.9533333,1.33333333 L5.04666667,1.33333333 Z M10.6666667,12.2866667 L10.6666667,12.9533333 C10.6666667,13.1558377 10.5025044,13.32 10.3,13.32 L5.7,13.32 C5.50259034,13.3201306 5.34051182,13.1639458 5.33333333,12.9666667 L5.33333333,12.3 C5.33410712,11.4745889 5.66262568,10.6832668 6.24666667,10.1 L8,8.33333333 L9.75333333,10.0866667 C10.3373743,10.6699335 10.6658929,11.4612556 10.6666667,12.2866667 L10.6666667,12.2866667 Z M8,7.66666667 L6.24666667,5.91333333 C5.66262568,5.3300665 5.33410712,4.53874443 5.33333333,3.71333333 L5.33333333,3.04666667 C5.32971146,2.94713162 5.3667374,2.85040593 5.43589721,2.77873122 C5.50505701,2.70705651 5.6003991,2.66660079 5.7,2.66666667 L10.3,2.66666667 C10.5025044,2.66666667 10.6666667,2.83082893 10.6666667,3.03333333 L10.6666667,3.7 C10.6658929,4.52541109 10.3373743,5.31673317 9.75333333,5.9 L8,7.66666667 Z" id="Shape" fill="#70727D" fill-rule="nonzero"></path>
                </g>
            </g>
        </g>
    </g>
</svg>