<?xml version="1.0" encoding="UTF-8"?>
<svg width="14px" height="12px" viewBox="0 0 14 12" version="1.1" xmlns="http://www.w3.org/2000/svg" xmlns:xlink="http://www.w3.org/1999/xlink">
    <!-- Generator: sketchtool 53 (72520) - https://sketchapp.com -->
    <title>A6B96EA4-3E8F-4F17-A1BE-BA68F3A1337B</title>
    <desc>Created with sketchtool.</desc>
    <g id="Glyph" stroke="none" stroke-width="1" fill="none" fill-rule="evenodd">
        <g id="Glyph---16px" transform="translate(-387.000000, -190.000000)">
            <g id="Icon/Glyph/16px/ic_wishlist-outline" transform="translate(386.000000, 188.000000)">
                <g>
                    <rect id="Rectangle" x="0" y="0" width="16" height="16"></rect>
                    <path d="M8,14 C7.53929294,14.0011797 7.09649061,13.8216653 6.76666667,13.5 L5.54666667,12.32 C3.00666667,9.88666667 1.33333333,8.27333333 1.33333333,6.12666667 C1.32250883,5.15976901 1.70182841,4.22931388 2.38557114,3.54557114 C3.06931388,2.86182841 3.99976901,2.48250883 4.96666667,2.49333333 C6.14261743,2.50040131 7.25437963,3.03062636 8,3.94 C8.74413253,3.03241312 9.85305456,2.50237769 11.0266667,2.49333333 C11.9941643,2.48254065 12.9252796,2.86165344 13.6100732,3.54519276 C14.2948667,4.22873208 14.6756857,5.15915086 14.6666667,6.12666667 C14.6666667,8.27333333 12.9933333,9.88666667 10.4533333,12.32 L9.23333333,13.5 C8.90350939,13.8216653 8.46070706,14.0011797 8,14 Z M4.96666667,3.70666667 C4.32043829,3.69193203 3.69630356,3.94216109 3.23923233,4.39923233 C2.78216109,4.85630356 2.53193203,5.48043829 2.54666667,6.12666667 C2.54666667,7.75333333 4.07333333,9.22666667 6.38666667,11.46 C6.77333333,11.8333333 7.18666667,12.2266667 7.61333333,12.6466667 C7.82973084,12.8532282 8.17026916,12.8532282 8.38666667,12.6466667 C8.81333333,12.2266667 9.22666667,11.8333333 9.61333333,11.46 C11.9266667,9.24 13.4533333,7.76666667 13.4533333,6.12666667 C13.4681392,5.47925275 13.2170078,4.85405068 12.7584679,4.39677051 C12.299928,3.93949034 11.6740374,3.69007979 11.0266667,3.70666667 C10.1445929,3.71853005 9.32161325,4.15232954 8.81333333,4.87333333 L8.81333333,4.87333333 C8.63661462,5.15346004 8.33113447,5.3262316 8,5.33333333 L8,5.33333333 C7.67268822,5.33065628 7.3680102,5.16583047 7.18666667,4.89333333 C6.68138838,4.16285546 5.85475388,3.72099077 4.96666667,3.70666667 Z" id="Shape" fill="#70727D" fill-rule="nonzero"></path>
                </g>
            </g>
        </g>
    </g>
</svg>