<?xml version="1.0" encoding="UTF-8"?>
<svg width="14px" height="12px" viewBox="0 0 14 12" version="1.1" xmlns="http://www.w3.org/2000/svg" xmlns:xlink="http://www.w3.org/1999/xlink">
    <!-- Generator: sketchtool 53 (72520) - https://sketchapp.com -->
    <title>2ED51773-AE9A-46B1-9194-BCF7ACD551A2</title>
    <desc>Created with sketchtool.</desc>
    <g id="Glyph" stroke="none" stroke-width="1" fill="none" fill-rule="evenodd">
        <g id="Glyph---16px" transform="translate(-331.000000, -190.000000)">
            <g id="Icon/Glyph/16px/ic_wishlist" transform="translate(330.000000, 188.000000)">
                <g>
                    <rect id="Rectangle" x="0" y="0" width="16" height="16"></rect>
                    <path d="M8.34666667,4.24 C8.27058798,4.34886172 8.14614463,4.4137146 8.01333333,4.4137146 C7.88052203,4.4137146 7.75607869,4.34886172 7.68,4.24 C6.98941973,3.25873701 5.86656022,2.67246523 4.66666667,2.66666667 C3.777114,2.64831948 2.91856575,2.99361409 2.28942325,3.62275659 C1.66028075,4.25189909 1.31498615,5.11044733 1.33333333,6 C1.33333333,8.40666667 3.72,10.3133333 7.10666667,13.6333333 C7.60514455,14.1142289 8.39485545,14.1142289 8.89333333,13.6333333 C12.28,10.3133333 14.6666667,8.40666667 14.6666667,6 C14.6831169,5.11100407 14.3372125,4.2535662 13.7084898,3.62484354 C13.0797671,2.99612088 12.2223293,2.65021645 11.3333333,2.66666667 C10.1426027,2.67994186 9.03103712,3.26549874 8.34666667,4.24 Z" id="Path" fill="#70727D" fill-rule="nonzero"></path>
                </g>
            </g>
        </g>
    </g>
</svg>