<?xml version="1.0" encoding="UTF-8"?>
<svg width="8px" height="14px" viewBox="0 0 8 14" version="1.1" xmlns="http://www.w3.org/2000/svg" xmlns:xlink="http://www.w3.org/1999/xlink">
    <!-- Generator: sketchtool 53 (72520) - https://sketchapp.com -->
    <title>BDC04754-EFE1-42DE-A290-49C8A5DB3B3E</title>
    <desc>Created with sketchtool.</desc>
    <g id="Glyph" stroke="none" stroke-width="1" fill="none" fill-rule="evenodd">
        <g id="Glyph---16px" transform="translate(-558.000000, -189.000000)">
            <g id="Icon/Glyph/16px/ic_waiting-full" transform="translate(554.000000, 188.000000)">
                <g>
                    <rect id="Rectangle" x="0" y="0" width="16" height="16"></rect>
                    <path d="M4,2.46666667 L4,2.9 C4.00566038,4.45659911 4.62348736,5.94848364 5.72,7.05333333 L5.93333333,7.26666667 C6.33674263,7.67233672 6.33674263,8.32766328 5.93333333,8.73333333 L5.71333333,8.95333333 C4.61844048,10.0559976 4.00276119,11.5460852 4,13.1 L4,13.5333333 C4,13.833912 4.11940442,14.1221798 4.33194565,14.334721 C4.54448688,14.5472622 4.83275464,14.6666667 5.13333333,14.6666667 L10.8666667,14.6666667 C11.4925894,14.6666667 12,14.159256 12,13.5333333 L12,13.1066667 C11.9989835,11.5471796 11.3805873,10.0515235 10.28,8.94666667 L10.0666667,8.73333333 C9.8712489,8.53933386 9.76134432,8.2753614 9.76134432,8 C9.76134432,7.7246386 9.8712489,7.46066614 10.0666667,7.26666667 L10.2666667,7.06666667 C11.3779036,5.96239556 12.0019264,4.45994066 12,2.89333333 L12,2.46666667 C12,1.84074395 11.4925894,1.33333333 10.8666667,1.33333333 L5.13333333,1.33333333 C4.50741062,1.33333333 4,1.84074395 4,2.46666667 Z" id="Path" fill="#70727D" fill-rule="nonzero"></path>
                </g>
            </g>
        </g>
    </g>
</svg>