<?xml version="1.0" encoding="UTF-8"?>
<svg width="12px" height="12px" viewBox="0 0 12 12" version="1.1" xmlns="http://www.w3.org/2000/svg" xmlns:xlink="http://www.w3.org/1999/xlink">
    <!-- Generator: sketchtool 53 (72520) - https://sketchapp.com -->
    <title>7E4B8F9D-56E3-4215-AA93-D5512F17DB71</title>
    <desc>Created with sketchtool.</desc>
    <g id="Glyph" stroke="none" stroke-width="1" fill="none" fill-rule="evenodd">
        <g id="Glyph---16px" transform="translate(-444.000000, -190.000000)">
            <g id="Icon/Glyph/16px/ic_wallet" transform="translate(442.000000, 188.000000)">
                <g>
                    <rect id="Rectangle" x="0" y="0" width="16" height="16"></rect>
                    <path d="M13.3333333,12.5133333 L13.3333333,12.74 C13.33342,13.4281425 12.7813892,13.9890771 12.0933333,14 L4.66666667,14 C3.19390733,14 2,12.8060927 2,11.3333333 L2,5.33333333 C2,3.860574 3.19390733,2.66666667 4.66666667,2.66666667 L12.0933333,2.66666667 C12.7788024,2.67753935 13.3297923,3.23445385 13.3333333,3.92 L13.3333333,4.14666667 C13.3333333,4.37126246 13.1512625,4.55333333 12.9266667,4.55333333 L7.68666667,4.55333333 C7.35194981,4.55154814 7.0304256,4.68372442 6.79374168,4.92040834 C6.55705775,5.15709227 6.42488147,5.47861648 6.42666667,5.81333333 L6.42666667,10.8533333 C6.42666667,11.5492121 6.99078788,12.1133333 7.68666667,12.1133333 L12.9466667,12.1133333 C13.1623567,12.120527 13.3334533,12.2975234 13.3333333,12.5133333 L13.3333333,12.5133333 Z M8.33333333,10.8533333 L12.6666667,10.8533333 C13.4030463,10.8533333 14,10.2563797 14,9.52 L14,7.14 C14,6.40362033 13.4030463,5.80666667 12.6666667,5.80666667 L8.33333333,5.80666667 C7.9651435,5.80666667 7.66666667,6.1051435 7.66666667,6.47333333 L7.66666667,10.2266667 C7.68785322,10.5791493 7.98021517,10.8539695 8.33333333,10.8533333 Z M10.2066667,9.27333333 C9.82257576,9.27602881 9.47492699,9.04637477 9.3266939,8.69203025 C9.1784608,8.33768572 9.25902892,7.92889553 9.53062889,7.65729556 C9.80222887,7.38569558 10.2110191,7.30512747 10.5653636,7.45336056 C10.9197081,7.60159366 11.1493621,7.94924242 11.1466667,8.33333333 C11.1466667,8.852481 10.7258143,9.27333333 10.2066667,9.27333333 L10.2066667,9.27333333 Z" id="Shape" fill="#70727D" fill-rule="nonzero"></path>
                </g>
            </g>
        </g>
    </g>
</svg>