<?xml version="1.0" encoding="UTF-8"?>
<svg width="12px" height="12px" viewBox="0 0 12 12" version="1.1" xmlns="http://www.w3.org/2000/svg" xmlns:xlink="http://www.w3.org/1999/xlink">
    <!-- Generator: sketchtool 53 (72520) - https://sketchapp.com -->
    <title>C0444078-5FCF-49D2-B0C4-C836DBB21A44</title>
    <desc>Created with sketchtool.</desc>
    <g id="Glyph" stroke="none" stroke-width="1" fill="none" fill-rule="evenodd">
        <g id="Glyph---16px" transform="translate(-220.000000, -190.000000)">
            <g id="Icon/Glyph/16px/ic_zoom-out" transform="translate(218.000000, 188.000000)">
                <g>
                    <rect id="Rectangle" x="0" y="0" width="16" height="16"></rect>
                    <path d="M7.07333333,9.7 C8.42236937,9.48467042 9.48124282,8.42848447 9.7,7.08 C9.91991225,5.72439534 9.24097877,4.38155405 8.01890304,3.75501092 C6.79682731,3.12846778 5.31019383,3.36104964 4.3378723,4.33090336 C3.36555076,5.30075707 3.12919168,6.78679468 3.75262714,8.0104587 C4.3760626,9.23412271 5.71717419,9.91646655 7.07333333,9.7 Z M11.0066667,9.94666667 L13.78,12.7333333 C13.9204798,12.8712305 13.9996214,13.0598159 13.9996214,13.2566667 C13.9996214,13.4535174 13.9204798,13.6421029 13.78,13.78 C13.6421029,13.9204798 13.4535174,13.9996214 13.2566667,13.9996214 C13.0598159,13.9996214 12.8712305,13.9204798 12.7333333,13.78 L9.94666667,11 C9.81102077,10.8660989 9.71424937,10.697901 9.66666667,10.5133333 L9.54666667,10.0466667 C7.67499808,11.6496963 4.87113772,11.4872568 3.19711042,9.67880997 C1.52308312,7.87036317 1.5772565,5.06232385 3.31979017,3.31979017 C5.06232385,1.5772565 7.87036317,1.52308312 9.67880997,3.19711042 C11.4872568,4.87113772 11.6496963,7.67499808 10.0466667,9.54666667 L10.5133333,9.66666667 C10.6993115,9.71555366 10.8693417,9.81205727 11.0066667,9.94666667 Z M4.80666667,5.91333333 L8.23333333,5.91333333 C8.60152317,5.91333333 8.9,6.21181017 8.9,6.58 C8.9,6.94818983 8.60152317,7.24666667 8.23333333,7.24666667 L4.80666667,7.24666667 C4.43847683,7.24666667 4.14,6.94818983 4.14,6.58 C4.14,6.21181017 4.43847683,5.91333333 4.80666667,5.91333333 Z" id="Combined-Shape" fill="#70727D" fill-rule="nonzero"></path>
                </g>
            </g>
        </g>
    </g>
</svg>