<svg xmlns="http://www.w3.org/2000/svg" width="24" height="20" viewBox="0 0 24 20">
    <g fill="none" fill-rule="evenodd">
        <path d="M-3-5h30v30H-3z"/>
        <path fill="#C3C4C5" d="M17.914 18.735c-.868 0-1.572-.684-1.572-1.526 0-.84.704-1.525 1.572-1.525.869 0 1.573.684 1.573 1.525 0 .842-.704 1.526-1.573 1.526zm-9.375 0c-.868 0-1.574-.684-1.574-1.526 0-.84.706-1.525 1.574-1.525.867 0 1.573.684 1.573 1.525 0 .842-.706 1.526-1.573 1.526zM6.097 11.52l-.219-2.606h3.98v2.606H6.096zm-.582-6.945l.1.001 4.242.007V7.65H5.773l-.258-3.074zm5.638 6.944h4.134V8.915h-4.134v2.605zm0-6.934l.093.001 4.042.007V7.65h-4.135V4.586zm5.43 4.329h3.892l-.034.115-.732 2.49h-3.125V8.916zm0-4.32l.094.001 5.066.008-.035.116-.861 2.93h-4.263V4.595zM23.25 15.03a.64.64 0 0 0-.647-.633H6.339l-.136-1.612h13.942c.052 0 .162-.02.228-.04a.64.64 0 0 0 .45-.432l2.402-8.165a.618.618 0 0 0-.105-.554.657.657 0 0 0-.517-.253L5.41 3.31l-.136-1.625C5.273 1.004 4.732 0 3.243 0H1.398A.642.642 0 0 0 .75.632c0 .349.291.633.649.633h1.843c.174 0 .704 0 .738.466l1.116 13.35c.027.325.31.58.645.58h.421l-.084.138c-.27.445-.408.92-.408 1.41C5.67 18.747 6.957 20 8.539 20c1.582 0 2.869-1.253 2.869-2.791 0-.49-.139-.965-.41-1.41l-.082-.137h4.62l-.083.137c-.27.445-.408.92-.408 1.41 0 1.538 1.287 2.791 2.87 2.791 1.581 0 2.868-1.253 2.868-2.791 0-.49-.137-.965-.408-1.41l-.084-.137h2.31a.64.64 0 0 0 .648-.632z"/>
    </g>
</svg>
