<svg xmlns="http://www.w3.org/2000/svg" width="17" height="15" viewBox="0 0 17 15">
    <g fill="none" fill-rule="evenodd">
        <path d="M-7-7h30v30H-7z"/>
        <path fill="#367588" d="M11.88 10.799a24.83 24.83 0 0 1-3.414 2.455A24.866 24.866 0 0 1 5.053 10.8c-1.636-1.42-3.587-3.582-3.587-5.832 0-1.912 1.52-3.467 3.387-3.467a3.38 3.38 0 0 1 2.971 1.8.73.73 0 0 0 .642.39.73.73 0 0 0 .643-.39 3.379 3.379 0 0 1 2.97-1.8c1.869 0 3.388 1.555 3.388 3.467 0 2.25-1.95 4.413-3.588 5.832M12.08 0a4.806 4.806 0 0 0-3.613 1.651A4.805 4.805 0 0 0 4.853.001C2.177 0 0 2.227 0 4.966c0 5.313 7.79 9.63 8.121 9.81a.719.719 0 0 0 .69 0c.332-.181 8.121-4.497 8.121-9.81C16.932 2.228 14.755 0 12.08 0"/>
    </g>
</svg>
