<svg xmlns="http://www.w3.org/2000/svg" xmlns:xlink="http://www.w3.org/1999/xlink" width="12" height="17" viewBox="0 0 12 17">
    <defs>
        <path id="a" d="M0 0h11.805v17H0z"/>
    </defs>
    <g fill="none" fill-rule="evenodd">
        <path d="M-9-6h30v30H-9z"/>
        <g>
            <mask id="b" fill="#fff">
                <use xlink:href="#a"/>
            </mask>
            <path fill="#C3C4C5" d="M5.903 1.36c2.54 0 4.605 2.166 4.605 4.828 0 2.163-3.246 7.036-4.606 8.982-2.93-4.179-4.605-7.44-4.605-8.982 0-2.662 2.066-4.828 4.606-4.828m0-1.36C2.648 0 0 2.776 0 6.188c0 3.253 5.168 10.249 5.373 10.524a.606.606 0 0 0 .53.288.593.593 0 0 0 .515-.267c.22-.296 5.387-7.292 5.387-10.545C11.805 2.776 9.157 0 5.903 0" mask="url(#b)"/>
        </g>
        <path fill="#C3C4C5" d="M5.903 4.114c1.09 0 1.978.93 1.978 2.074 0 1.143-.888 2.074-1.978 2.074-1.091 0-1.979-.93-1.979-2.074 0-1.144.888-2.074 1.979-2.074m0-1.36c-1.806 0-3.276 1.54-3.276 3.434 0 1.893 1.47 3.434 3.276 3.434 1.806 0 3.275-1.54 3.275-3.434 0-1.893-1.47-3.434-3.275-3.434"/>
    </g>
</svg>
