<?xml version="1.0" encoding="UTF-8"?>
<svg width="24px" height="24px" viewBox="0 0 24 24" version="1.1" xmlns="http://www.w3.org/2000/svg" xmlns:xlink="http://www.w3.org/1999/xlink">
    <!-- Generator: sketchtool 52.5 (67469) - http://www.bohemiancoding.com/sketch -->
    <title>04608922-A0FB-42F2-A9DE-4220AD0C6A91</title>
    <desc>Created with sketchtool.</desc>
    <g id="•-Search-Bar" stroke="none" stroke-width="1" fill="none" fill-rule="evenodd">
        <g id="Search-Bar" transform="translate(-456.000000, -640.000000)">
            <g id="Desktop/Component/Searchbar/Large/Active" transform="translate(40.000000, 632.000000)">
                <g id="Group-2" transform="translate(412.000000, 4.000000)">
                    <g id="Group-3" transform="translate(4.000000, 4.000000)">
                        <rect id="Rectangle-6" x="0" y="0" width="24" height="24"></rect>
                        <path d="M23.7247713,22.3955464 L17.0099724,15.6804396 C20.1073975,11.910205 19.8913788,6.31370423 16.3665432,2.79940715 C14.5556874,0.99425225 12.1505633,0 9.59332955,0 C7.02481776,0 4.61130736,1.00177132 2.79784896,2.82022919 C0.989017475,4.63463833 -0.00461082054,7.04594585 1.60865448e-05,9.60965911 C0.00464299363,12.1733724 1.00694674,14.5809204 2.82214022,16.3880996 C4.63155007,18.1944113 7.03609585,19.1892419 9.59332955,19.1892419 C11.8411389,19.1892419 13.9700945,18.4220077 15.6823393,17.0110256 L22.3956923,23.7246864 C22.5793226,23.9083252 22.8196326,24 23.0602318,24 C23.300831,24 23.5411409,23.9083252 23.7247713,23.7246864 C24.0917429,23.357698 24.0917429,22.7625348 23.7247713,22.3955464 Z M4.14948419,15.0572245 C2.68969501,13.6037306 1.88374563,11.6675704 1.87998627,9.60618877 C1.87593773,7.54480714 2.67494674,5.60633337 4.12895229,4.14763402 C5.58729557,2.68517514 7.52799391,1.8797672 9.59332955,1.8797672 C11.6494114,1.8797672 13.5834585,2.67939124 15.0391992,4.13057152 C18.0513157,7.13328272 18.0594128,12.0273289 15.057996,15.0401619 C13.5996527,16.5034884 11.6589544,17.3094747 9.59332955,17.3094747 C7.53782608,17.3094747 5.60464647,16.5098507 4.14948419,15.0572245 Z" id="Shape" fill="#FFFFFF" fill-rule="nonzero"></path>
                    </g>
                </g>
            </g>
        </g>
    </g>
</svg>