<?xml version="1.0" encoding="UTF-8"?>
<svg width="26px" height="25px" viewBox="0 0 26 25" version="1.1" xmlns="http://www.w3.org/2000/svg" xmlns:xlink="http://www.w3.org/1999/xlink">
    <!-- Generator: sketchtool 53 (72520) - https://sketchapp.com -->
    <title>96B8B5BA-84DA-4A51-B0E3-AE6441D013DC</title>
    <desc>Created with sketchtool.</desc>
    <g id="Kategori" stroke="none" stroke-width="1" fill="none" fill-rule="evenodd">
        <g id="Special---40px" transform="translate(-312.000000, -240.000000)">
            <g id="Icon/Special/40px/Default/ic_fashion-pria" transform="translate(305.000000, 232.000000)">
                <g>
                    <rect id="Rectangle" x="0" y="0" width="40" height="40"></rect>
                    <circle id="Oval" fill="#FED156" fill-rule="nonzero" cx="22" cy="18" r="10"></circle>
                    <rect id="Rectangle" stroke="#434755" stroke-width="2" stroke-linecap="round" x="8" y="12" width="24" height="20" rx="3.35"></rect>
                    <path d="M20,15.98 L20,22.67" id="Path" stroke="#434755" stroke-width="2" stroke-linecap="round"></path>
                    <path d="M28,23.58 L24.29,23.58" id="Path" stroke="#434755" stroke-width="2" stroke-linecap="round"></path>
                    <path d="M28,13.05 L28,14 C27.9983269,14.2074276 27.9199626,14.4069005 27.78,14.56 L24.65,17.88 C24.4386862,18.1047083 24.1038998,18.1618669 23.83,18.02 L20,16 L27.06,12.47 C27.2612152,12.3696892 27.4999812,12.3804857 27.691322,12.498547 C27.8826629,12.6166084 27.9994049,12.8251679 28,13.05 Z" id="Path" stroke="#434755" stroke-width="2" stroke-linecap="round"></path>
                    <path d="M12,13.05 L12,14 C12.0016731,14.2074276 12.0800374,14.4069005 12.22,14.56 L15.35,17.88 C15.5613138,18.1047083 15.8961002,18.1618669 16.17,18.02 L20,16 L12.94,12.47 C12.7387848,12.3696892 12.5000188,12.3804857 12.308678,12.498547 C12.1173371,12.6166084 12.0005951,12.8251679 12,13.05 Z" id="Path" stroke="#434755" stroke-width="2" stroke-linecap="round"></path>
                </g>
            </g>
        </g>
    </g>
</svg>