<?xml version="1.0" encoding="UTF-8"?>
<svg width="26px" height="26px" viewBox="0 0 26 26" version="1.1" xmlns="http://www.w3.org/2000/svg" xmlns:xlink="http://www.w3.org/1999/xlink">
    <!-- Generator: sketchtool 53 (72520) - https://sketchapp.com -->
    <title>ACC69FC3-024B-4A6B-9BF4-40512700CFA1</title>
    <desc>Created with sketchtool.</desc>
    <g id="Kategori" stroke="none" stroke-width="1" fill="none" fill-rule="evenodd">
        <g id="Special---40px" transform="translate(-71.000000, -126.000000)">
            <g id="Icon/Special/40px/Default/ic_tiket" transform="translate(65.000000, 119.000000)">
                <g>
                    <rect id="Rectangle" x="0" y="0" width="40" height="40"></rect>
                    <circle id="Oval" fill="#FED156" fill-rule="nonzero" cx="22" cy="18" r="10"></circle>
                    <path d="M9.89,20.38 C9.20416394,20.5604695 8.61878869,21.007338 8.26390655,21.6213405 C7.9090244,22.2353429 7.81402103,22.9656374 8,23.65 L8,23.72 C8.19767924,24.370455 8.73448078,24.861245 9.4,25 C10.0607968,25.1748905 10.5787822,25.6879103 10.7600296,26.3469919 C10.941277,27.0060734 10.7584514,27.7118163 10.28,28.2 C9.8005386,28.6658181 9.60281077,29.3502606 9.76,30 L9.76,30.08 C10.1539877,31.4930056 11.6141232,32.3235413 13.03,31.94 L27.77,27.89 C28.4495456,27.7052835 29.0276245,27.2576878 29.376603,26.6460373 C29.7255815,26.0343868 29.8167574,25.3089875 29.63,24.63 L29.63,24.55 C29.4385957,23.918246 28.923438,23.4374322 28.28,23.29 C27.6192082,23.1117697 27.1022284,22.5969136 26.9212794,21.9368611 C26.7403304,21.2768086 26.9224789,20.5702912 27.4,20.08 C27.883379,19.6249162 28.0823768,18.9437316 27.92,18.3 L27.92,18.23 C27.733051,17.5497015 27.2834962,16.9715394 26.6702436,16.6227168 C26.056991,16.2738943 25.3302813,16.1829885 24.65,16.37 L9.89,20.38 Z" id="Path" stroke="#434755" stroke-width="2" stroke-linecap="round"></path>
                    <circle id="Oval" fill="#434755" fill-rule="nonzero" cx="22.08" cy="19.84" r="1"></circle>
                    <circle id="Oval" fill="#434755" fill-rule="nonzero" cx="22.95" cy="23" r="1"></circle>
                    <circle id="Oval" fill="#434755" fill-rule="nonzero" cx="23.81" cy="26.16" r="1"></circle>
                    <path d="M10.4,17.18 C9.31118005,16.5632675 8.9229054,15.184223 9.53,14.09 L9.53,14.03 C9.83754212,13.5197999 10.4059074,13.2259512 11,13.27 C11.5849483,13.2598694 12.1202052,12.9389003 12.4046738,12.4276814 C12.6891424,11.9164625 12.6797403,11.292417 12.38,10.79 C12.0827762,10.314405 12.0599413,9.71689242 12.32,9.22 L12.32,9.16 C12.9367325,8.07118005 14.315777,7.6829054 15.41,8.29 L24.68,13.49" id="Path" stroke="#434755" stroke-width="2" stroke-linecap="round"></path>
                    <circle id="Oval" fill="#434755" fill-rule="nonzero" cx="16.78" cy="11.71" r="1"></circle>
                    <circle id="Oval" fill="#434755" fill-rule="nonzero" cx="15.41" cy="14.15" r="1"></circle>
                    <circle id="Oval" fill="#434755" fill-rule="nonzero" cx="14.05" cy="16.59" r="1"></circle>
                </g>
            </g>
        </g>
    </g>
</svg>