<?xml version="1.0" encoding="UTF-8"?>
<svg width="25px" height="25px" viewBox="0 0 25 25" version="1.1" xmlns="http://www.w3.org/2000/svg" xmlns:xlink="http://www.w3.org/1999/xlink">
    <!-- Generator: sketchtool 53 (72520) - https://sketchapp.com -->
    <title>E9A883BC-A6C9-457C-A538-4FD2F4D4A592</title>
    <desc>Created with sketchtool.</desc>
    <g id="Kategori" stroke="none" stroke-width="1" fill="none" fill-rule="evenodd">
        <g id="Special---40px" transform="translate(-472.000000, -466.000000)">
            <g id="Icon/Special/40px/Active/ic_f&amp;b" transform="translate(465.000000, 458.000000)">
                <g>
                    <rect id="Rectangle" x="0" y="0" width="40" height="40"></rect>
                    <circle id="Oval" fill="#FED156" fill-rule="nonzero" cx="22" cy="18" r="10"></circle>
                    <path d="M11.14,20.13 L24.86,20.13 C26.5941741,20.13 28,21.5358259 28,23.27 L28,24.52 C28,28.6510899 24.6510899,32 20.52,32 L15.52,32 C13.5292592,32.0106458 11.6163997,31.2272789 10.2049645,29.8233512 C8.79352919,28.4194236 7.99997154,26.5107693 8,24.52 L8,23.27 C8,21.5358259 9.40582589,20.13 11.14,20.13 Z" id="Path" stroke="#E65015" stroke-width="2" stroke-linecap="round"></path>
                    <path d="M22.51,20.13 L25.79,15.59" id="Path" stroke="#E65015" stroke-width="2" stroke-linecap="round"></path>
                    <path d="M12.33,12 C11.8402777,12.6629927 11.8863081,13.5794162 12.44,14.19 C12.7904557,14.5651491 12.9760766,15.0650226 12.9554078,15.5779835 C12.934739,16.0909444 12.7095024,16.5742631 12.33,16.92" id="Path" stroke="#E65015" stroke-width="2" stroke-linecap="round"></path>
                    <path d="M17.37,12 C16.8802777,12.6629927 16.9263081,13.5794162 17.48,14.19 C17.8304557,14.5651491 18.0160766,15.0650226 17.9954078,15.5779835 C17.974739,16.0909444 17.7495024,16.5742631 17.37,16.92" id="Path" stroke="#E65015" stroke-width="2" stroke-linecap="round"></path>
                </g>
            </g>
        </g>
    </g>
</svg>