<?xml version="1.0" encoding="UTF-8"?>
<svg width="25px" height="27px" viewBox="0 0 25 27" version="1.1" xmlns="http://www.w3.org/2000/svg" xmlns:xlink="http://www.w3.org/1999/xlink">
    <!-- Generator: sketchtool 53 (72520) - https://sketchapp.com -->
    <title>0049EF9B-22AD-4E06-AA27-FFAE2552E926</title>
    <desc>Created with sketchtool.</desc>
    <g id="Kategori" stroke="none" stroke-width="1" fill="none" fill-rule="evenodd">
        <g id="Special---40px" transform="translate(-392.000000, -465.000000)">
            <g id="Icon/Special/40px/Active/ic_fashion-muslim" transform="translate(385.000000, 458.000000)">
                <g>
                    <rect id="Rectangle" x="0" y="0" width="40" height="40"></rect>
                    <circle id="Oval" fill="#FED156" fill-rule="nonzero" cx="22" cy="18" r="10"></circle>
                    <path d="M12.62,18 L13.75,20.22 C15.5556884,23.7719635 19.2054159,26.0066483 23.19,26 L23.53,26 C24.7189911,25.9999881 25.8589945,26.4736776 26.6978594,27.3162958 C27.5367244,28.158914 28.0053199,29.3010208 28,30.49 L28,30.49 C28.0011245,31.3603229 27.3693649,32.1023224 26.51,32.24 L25.57,32.38 C20.5483294,33.1800056 15.4316706,33.1800056 10.41,32.38 L9.49,32.24 C8.63063505,32.1023224 7.99887548,31.3603229 8,30.49 L8,30.49 C7.99911519,29.1812046 8.57314817,27.9380758 9.57,27.09 C11.3296241,25.5469691 12.2348424,23.248534 12,20.92 L12,20.92 L12,14 C12,10.6862915 14.6862915,8 18,8 L18,8 C21.3137085,8 24,10.6862915 24,14 L24,20.12 C24.0027721,22.6065295 24.8213006,25.023472 26.33,27 L26.33,27" id="Path" stroke="#E65015" stroke-width="2" stroke-linecap="round"></path>
                    <path d="M12.62,13 L15.55,12.39 C17.163296,12.0599843 18.826704,12.0599843 20.44,12.39 L23.65,13.03" id="Path" stroke="#E65015" stroke-width="2" stroke-linecap="round"></path>
                    <path d="M24,14.23 L23.15,18.23 C22.6394651,20.6683621 20.4912327,22.4161472 18,22.42 L18,22.42 C15.5148488,22.4181509 13.3687217,20.6804131 12.85,18.25 L12,14.25" id="Path" stroke="#E65015" stroke-width="2" stroke-linecap="round"></path>
                </g>
            </g>
        </g>
    </g>
</svg>