<?xml version="1.0" encoding="UTF-8"?>
<svg width="25px" height="27px" viewBox="0 0 25 27" version="1.1" xmlns="http://www.w3.org/2000/svg" xmlns:xlink="http://www.w3.org/1999/xlink">
    <!-- Generator: sketchtool 53 (72520) - https://sketchapp.com -->
    <title>2297FB8D-161A-4506-90BA-C4B7354976C2</title>
    <desc>Created with sketchtool.</desc>
    <g id="Kategori" stroke="none" stroke-width="1" fill="none" fill-rule="evenodd">
        <g id="Special---40px" transform="translate(-232.000000, -465.000000)">
            <g id="Icon/Special/40px/Active/ic_fashion-wanita" transform="translate(225.000000, 458.000000)">
                <g>
                    <rect id="Rectangle" x="0" y="0" width="40" height="40"></rect>
                    <circle id="Oval" fill="#FED156" fill-rule="nonzero" cx="22" cy="18" r="10"></circle>
                    <path d="M13.16,11.35 L13.61,11.35 C14.3479822,11.3517482 15.0724118,11.5483791 15.71,11.92 L15.71,11.92 C15.9334088,12.0592596 16.2165912,12.0592596 16.44,11.92 L16.44,11.92 C17.07703,11.5470472 17.801826,11.3503168 18.54,11.35 L19,11.35 C19.6033541,11.3389881 20.1794243,11.6009894 20.5676525,12.0629811 C20.9558808,12.5249727 21.1147569,13.1375573 21,13.73 L20.63,15.64 C20.1991939,17.8091969 18.2915448,19.3688572 16.08,19.36 L16.08,19.36 C13.8684552,19.3688572 11.9608061,17.8091969 11.53,15.64 L11.16,13.73 C11.0452431,13.1375573 11.2041192,12.5249727 11.5923475,12.0629811 C11.9805757,11.6009894 12.5566459,11.3389881 13.16,11.35 Z" id="Path" stroke="#E65015" stroke-width="2" stroke-linecap="round"></path>
                    <path d="M13.64,8 L13.64,11.35" id="Path" stroke="#E65015" stroke-width="2" stroke-linecap="round"></path>
                    <path d="M18.51,8 L18.51,11.35" id="Path" stroke="#E65015" stroke-width="2" stroke-linecap="round"></path>
                    <path d="M8,30.88 L9.06,25 C9.58753596,21.7737029 12.3512282,19.3891757 15.62,19.34 L16.53,19.34 C19.7987718,19.3891757 22.562464,21.7737029 23.09,25 L24.15,30.86" id="Path" stroke="#E65015" stroke-width="2" stroke-linecap="round"></path>
                    <path d="M13.38,30.88 C12.6795597,31.6174513 11.7070797,32.0350049 10.69,32.0350049 C9.67292033,32.0350049 8.70044032,31.6174513 8,30.88" id="Path" stroke="#E65015" stroke-width="2" stroke-linecap="round"></path>
                    <path d="M13.38,30.88 C14.0821951,31.6179999 15.0563137,32.0357506 16.075,32.0357506 C17.0936863,32.0357506 18.0678049,31.6179999 18.77,30.88" id="Path" stroke="#E65015" stroke-width="2" stroke-linecap="round"></path>
                    <path d="M18.77,30.88 C19.4704403,31.6174513 20.4429203,32.0350049 21.46,32.0350049 C22.4770797,32.0350049 23.4495597,31.6174513 24.15,30.88" id="Path" stroke="#E65015" stroke-width="2" stroke-linecap="round"></path>
                </g>
            </g>
        </g>
    </g>
</svg>