<?xml version="1.0" encoding="UTF-8"?>
<svg width="25px" height="26px" viewBox="0 0 25 26" version="1.1" xmlns="http://www.w3.org/2000/svg" xmlns:xlink="http://www.w3.org/1999/xlink">
    <!-- Generator: sketchtool 53 (72520) - https://sketchapp.com -->
    <title>69662C7C-3ADC-4D4F-8487-29A42025CBA4</title>
    <desc>Created with sketchtool.</desc>
    <g id="Kategori" stroke="none" stroke-width="1" fill="none" fill-rule="evenodd">
        <g id="Special---40px" transform="translate(-632.000000, -352.000000)">
            <g id="Icon/Special/40px/Active/ic_hiburan" transform="translate(625.000000, 345.000000)">
                <g>
                    <rect id="Rectangle" x="0" y="0" width="40" height="40"></rect>
                    <circle id="Oval" fill="#FED156" fill-rule="nonzero" cx="22" cy="18" r="10"></circle>
                    <path d="M21.79,31.68 L20.86,31.31 C20.1426299,31.0313486 19.3795877,30.8889141 18.61,30.89 L17.39,30.89 C16.6204123,30.8889141 15.8573701,31.0313486 15.14,31.31 L14.21,31.68 C12.8106042,32.2283467 11.2307003,32.0502441 9.98850435,31.2041106 C8.74630838,30.3579772 8.00210631,28.9529931 8,27.45 L8,24.73 C8,22.1618759 10.0818759,20.08 12.65,20.08 L23.35,20.08 C25.9181241,20.08 28,22.1618759 28,24.73 L28,27.45 C27.9978937,28.9529931 27.2536916,30.3579772 26.0114957,31.2041106 C24.7692997,32.0502441 23.1893958,32.2283467 21.79,31.68 Z" id="Path" stroke="#E65015" stroke-width="2" stroke-linecap="round"></path>
                    <path d="M12.74,24.19 L12.74,27.63" id="Path" stroke="#E65015" stroke-width="2" stroke-linecap="round"></path>
                    <path d="M14.46,25.91 L11.02,25.91" id="Path" stroke="#E65015" stroke-width="2" stroke-linecap="round"></path>
                    <circle id="Oval" fill="#E65015" fill-rule="nonzero" cx="22.82" cy="23.81" r="1.06"></circle>
                    <circle id="Oval" fill="#E65015" fill-rule="nonzero" cx="22.82" cy="28.01" r="1.06"></circle>
                    <circle id="Oval" fill="#E65015" fill-rule="nonzero" cx="24.92" cy="25.91" r="1.06"></circle>
                    <circle id="Oval" fill="#E65015" fill-rule="nonzero" cx="20.72" cy="25.91" r="1.06"></circle>
                    <path d="M18,20.08 C18,20.08 15.42,16.62 17.67,14.08 C19.92,11.54 20.38,10.42 20.09,8.08" id="Path" stroke="#E65015" stroke-width="2" stroke-linecap="round"></path>
                </g>
            </g>
        </g>
    </g>
</svg>