<?xml version="1.0" encoding="UTF-8"?>
<svg width="25px" height="26px" viewBox="0 0 25 26" version="1.1" xmlns="http://www.w3.org/2000/svg" xmlns:xlink="http://www.w3.org/1999/xlink">
    <!-- Generator: sketchtool 53 (72520) - https://sketchapp.com -->
    <title>BBB4F195-6968-4F15-9955-7930568F6C8C</title>
    <desc>Created with sketchtool.</desc>
    <g id="Kategori" stroke="none" stroke-width="1" fill="none" fill-rule="evenodd">
        <g id="Special---40px" transform="translate(-392.000000, -352.000000)">
            <g id="Icon/Special/40px/Active/ic_kosmetik" transform="translate(385.000000, 345.000000)">
                <g>
                    <rect id="Rectangle" x="0" y="0" width="40" height="40"></rect>
                    <circle id="Oval" fill="#FED156" fill-rule="nonzero" cx="22" cy="18" r="10"></circle>
                    <path d="M19.58,24.87 C15.4012357,26.3599567 10.7710738,24.4629716 8.83893377,20.4693672 C6.9067937,16.4757628 8.29311716,11.6679505 12.0549319,9.31618699 C15.8167466,6.9644235 20.7460726,7.82389842 23.49,11.31" id="Path" stroke="#E65015" stroke-width="2" stroke-linecap="round"></path>
                    <path d="M14.39,28.69 L18.9,28.69" id="Path" stroke="#E65015" stroke-width="2" stroke-linecap="round"></path>
                    <path d="M16.67,25.37 L16.64,28.69" id="Path" stroke="#E65015" stroke-width="2" stroke-linecap="round"></path>
                    <rect id="Rectangle" stroke="#E65015" stroke-width="2" stroke-linecap="round" x="22.01" y="20.71" width="6.65" height="11.29" rx="2.18"></rect>
                    <path d="M24.76,18.32 L25.91,18.32 C26.7384271,18.32 27.41,18.9915729 27.41,19.82 L27.41,20.72 L23.2599666,20.72 L23.26,19.83 C23.2573362,19.4304455 23.4141948,19.0463405 23.6957886,18.7628694 C23.9773824,18.4793984 24.3604366,18.3199911 24.76,18.32 L24.76,18.32 Z" id="Path" stroke="#E65015" stroke-width="2" stroke-linecap="round"></path>
                    <path d="M26.11,12.78 L24.86,13.25 C24.3485904,13.433917 24.0055597,13.9165533 24,14.46 L24,18.32 L26.59,18.32 L26.59,13.15 C26.5871509,13.0324042 26.5313769,12.9223764 26.4382125,12.8505622 C26.3450481,12.778748 26.2244471,12.75282 26.11,12.78 Z" id="Path" stroke="#E65015" stroke-width="2" stroke-linecap="round"></path>
                </g>
            </g>
        </g>
    </g>
</svg>