<?xml version="1.0" encoding="UTF-8"?>
<svg width="24px" height="24px" viewBox="0 0 24 24" version="1.1" xmlns="http://www.w3.org/2000/svg" xmlns:xlink="http://www.w3.org/1999/xlink">
    <!-- Generator: Sketch 53.2 (72643) - https://sketchapp.com -->
    <title>Icon/Glyph/24px/ic_add-document</title>
    <desc>Created with Sketch.</desc>
    <g id="Icon/Glyph/24px/ic_add-document" stroke="none" stroke-width="1" fill="none" fill-rule="evenodd">
        <g id="ic_add-document">
            <rect id="Bound" x="0" y="0" width="24" height="24"></rect>
            <path d="M14.47,2.47 C14.1674296,2.16825563 13.7573147,1.99917316 13.33,2 L6,2 C4.8954305,2 4,2.8954305 4,4 L4,20 C4,21.1045695 4.8954305,22 6,22 L18,22 C19.1045695,22 20,21.1045695 20,20 L20,8.67 C20.0008268,8.24268532 19.8317444,7.83257041 19.53,7.53 L14.47,2.47 Z M15,16 L13,16 L13,18 C13,18.5522847 12.5522847,19 12,19 L12,19 C11.4477153,19 11,18.5522847 11,18 L11,16 L9,16 C8.44771525,16 8,15.5522847 8,15 L8,15 C8,14.4477153 8.44771525,14 9,14 L11,14 L11,12 C11,11.4477153 11.4477153,11 12,11 L12,11 C12.5522847,11 13,11.4477153 13,12 L13,14 L15,14 C15.5522847,14 16,14.4477153 16,15 L16,15 C16,15.5522847 15.5522847,16 15,16 Z M13,8.17 L13,4.38 C12.9953678,4.23096088 13.0830952,4.09449169 13.2206046,4.03682646 C13.358114,3.97916122 13.5169409,4.01223669 13.62,4.12 L17.88,8.38 C17.9877633,8.48305914 18.0208388,8.64188595 17.9631735,8.77939536 C17.9055083,8.91690476 17.7690391,9.0046322 17.62,9 L13.83,9 C13.3716037,9 13,8.62839634 13,8.17 L13,8.17 Z" id="Icon" fill="#70727D" fill-rule="nonzero"></path>
        </g>
    </g>
</svg>