<?xml version="1.0" encoding="UTF-8"?>
<svg width="24px" height="24px" viewBox="0 0 24 24" version="1.1" xmlns="http://www.w3.org/2000/svg" xmlns:xlink="http://www.w3.org/1999/xlink">
    <!-- Generator: Sketch 53.2 (72643) - https://sketchapp.com -->
    <title>Icon/Glyph/24px/ic_autofill</title>
    <desc>Created with Sketch.</desc>
    <g id="Icon/Glyph/24px/ic_autofill" stroke="none" stroke-width="1" fill="none" fill-rule="evenodd">
        <g id="ic_autofill">
            <rect id="Bound" x="0" y="0" width="24" height="24"></rect>
            <path d="M19.724393,10.83145 L12.7582226,4.29518983 C12.5572989,4.10620767 12.2844946,4 12,4 C11.7155054,4 11.4427011,4.10620767 11.2417774,4.29518983 L4.275607,10.83145 C3.908131,11.1783053 3.908131,11.7384895 4.275607,12.0853448 C4.45356811,12.2536981 4.69581632,12.3483945 4.94852958,12.3483945 C5.20124285,12.3483945 5.44349106,12.2536981 5.62145216,12.0853448 L11.0522217,6.98972974 L11.0522217,19.1107129 C11.0522217,19.6018526 11.4765565,20 12,20 C12.5234435,20 12.9477783,19.6018526 12.9477783,19.1107129 L12.9477783,6.98972974 L18.3785478,12.0853448 C18.5565089,12.2536981 18.7987572,12.3483945 19.0514704,12.3483945 C19.3041837,12.3483945 19.5464319,12.2536981 19.724393,12.0853448 L19.724393,12.0853448 C20.091869,11.7384895 20.091869,11.1783053 19.724393,10.83145 Z" id="Icon" fill="#70727D" fill-rule="nonzero" transform="translate(12.000000, 12.000000) rotate(-45.000000) translate(-12.000000, -12.000000) "></path>
        </g>
    </g>
</svg>