<?xml version="1.0" encoding="UTF-8"?>
<svg width="24px" height="24px" viewBox="0 0 24 24" version="1.1" xmlns="http://www.w3.org/2000/svg" xmlns:xlink="http://www.w3.org/1999/xlink">
    <!-- Generator: Sketch 53.2 (72643) - https://sketchapp.com -->
    <title>ic_add-to-cart</title>
    <desc>Created with Sketch.</desc>
    <g id="ic_add-to-cart" stroke="none" stroke-width="1" fill="none" fill-rule="evenodd">
        <g>
            <rect id="Bound" x="0" y="0" width="24" height="24"></rect>
            <path d="M17,14.53 L8.56,15.31 C8.53540918,15.4963592 8.49526917,15.6803342 8.44,15.86 L19.11,15.86 C19.5203745,15.9948836 19.7977501,16.3780268 19.7977501,16.81 C19.7977501,17.2419732 19.5203745,17.6251164 19.11,17.76 L8.05,17.76 C7.5211184,17.7620327 7.02454359,17.505768 6.71977886,17.07352 C6.41501414,16.641272 6.3404362,16.0874703 6.52,15.59 L6.63,15.28 C6.71007814,15.0628177 6.74082122,14.8305367 6.72,14.6 L6.02,7.37 C5.99182315,7.10842434 5.82864796,6.88073803 5.59,6.77 L3.59,5.77 C3.14601615,5.53200267 2.96499637,4.98882774 3.17744337,4.53206668 C3.38989037,4.07530563 3.92193063,3.86378653 4.39,4.05 L6.39,5.05 C7.2267794,5.44196828 7.79896091,6.24150667 7.9,7.16 L8.5,13.4 L16.88,12.64 C17.5975252,12.5747515 18.1870954,12.0461714 18.33,11.34 L19.14,7.1 C19.2631343,6.60248953 19.7424743,6.27861114 20.25,6.35 C20.4976049,6.39593497 20.7164243,6.53930077 20.8574131,6.74796413 C20.9984018,6.9566275 21.0497685,7.21313703 21,7.46 L20.14,11.69 C19.8401843,13.2289452 18.5612247,14.3857112 17,14.53 Z M10.58,21.06 C9.79575566,21.06 9.16,20.4242443 9.16,19.64 C9.16,18.8557557 9.79575566,18.22 10.58,18.22 C11.3642443,18.22 12,18.8557557 12,19.64 C12,20.4242443 11.3642443,21.06 10.58,21.06 Z M16.86,21.06 C16.0757557,21.06 15.44,20.4242443 15.44,19.64 C15.44,18.8557557 16.0757557,18.22 16.86,18.22 C17.6442443,18.22 18.28,18.8557557 18.28,19.64 C18.28,20.4242443 17.6442443,21.06 16.86,21.06 Z M10.61,8.84 C10.3284274,8.84114291 10.0594208,8.72352399 9.86906756,8.51603894 C9.6787143,8.30855388 9.58465594,8.03043197 9.61,7.75 C9.61,7.19771525 10.0577153,6.75 10.61,6.75 L12.25,6.75 L12.25,5.1 C12.25,4.52286244 12.7178624,4.055 13.295,4.055 C13.8721376,4.055 14.34,4.52286244 14.34,5.1 L14.34,6.84 L16,6.84 C16.2737686,6.82629421 16.5411614,6.92556885 16.739656,7.11461125 C16.9381505,7.30365364 17.0503429,7.56588874 17.05,7.84 C17.0503429,8.11411126 16.9381505,8.37634636 16.739656,8.56538875 C16.5411614,8.75443115 16.2737686,8.85370579 16,8.84 L14.34,8.84 L14.34,10.48 C14.34,11.0571376 13.8721376,11.525 13.295,11.525 C12.7178624,11.525 12.25,11.0571376 12.25,10.48 L12.25,8.84 L10.61,8.84 Z" id="Icon" fill="#70727D" fill-rule="nonzero"></path>
        </g>
    </g>
</svg>