<?xml version="1.0" encoding="UTF-8"?>
<svg width="24px" height="24px" viewBox="0 0 24 24" version="1.1" xmlns="http://www.w3.org/2000/svg" xmlns:xlink="http://www.w3.org/1999/xlink">
    <!-- Generator: Sketch 53.2 (72643) - https://sketchapp.com -->
    <title>Icon/Glyph/24px/ic_attention</title>
    <desc>Created with Sketch.</desc>
    <g id="Icon/Glyph/24px/ic_attention" stroke="none" stroke-width="1" fill="none" fill-rule="evenodd">
        <g>
            <rect id="Bound" x="0" y="0" width="24" height="24"></rect>
            <path d="M22.220192,18.1400107 L13.7858362,3.53110163 C13.4132569,2.88548946 12.7455588,2.5 11.9999733,2.5 C11.2543878,2.5 10.5866898,2.88548946 10.2141104,3.53110163 L1.7797546,18.1400107 C1.40674847,18.7855161 1.40674847,19.5566017 1.7797546,20.2022139 C2.15233396,20.8477194 2.82003201,21.2333155 3.5656175,21.2333155 L20.4347559,21.2333155 C21.1799146,21.2333155 21.8476127,20.8477194 22.2206188,20.2022139 C22.5931982,19.5566017 22.5931982,18.7855161 22.220192,18.1400107 Z M11.9999733,18.8567885 C11.2598293,18.8567885 10.6575353,18.2546012 10.6575353,17.5143505 C10.6575353,16.7742064 11.2598293,16.1719125 11.9999733,16.1719125 C12.740224,16.1719125 13.3424113,16.7742064 13.3424113,17.5143505 C13.3424113,18.2546012 12.740224,18.8567885 11.9999733,18.8567885 Z M13.3515871,13.1186183 C13.3515871,13.863777 12.7452387,14.4698053 11.9999733,14.4698053 C11.2548146,14.4698053 10.6487863,13.863777 10.6487863,13.1186183 L10.6487863,6.91611096 C10.6487863,6.56230994 10.935156,6.27594025 11.288957,6.27594025 L12.7114164,6.27594025 C13.0653241,6.27594025 13.3515871,6.56230994 13.3515871,6.91611096 L13.3515871,13.1186183 Z" id="Icon" fill="#70727D" fill-rule="nonzero"></path>
        </g>
    </g>
</svg>