<?xml version="1.0" encoding="UTF-8"?>
<svg width="24px" height="24px" viewBox="0 0 24 24" version="1.1" xmlns="http://www.w3.org/2000/svg" xmlns:xlink="http://www.w3.org/1999/xlink">
    <!-- Generator: Sketch 53.2 (72643) - https://sketchapp.com -->
    <title>Icon/Glyph/24px/ic_attachment</title>
    <desc>Created with Sketch.</desc>
    <g id="Icon/Glyph/24px/ic_attachment" stroke="none" stroke-width="1" fill="none" fill-rule="evenodd">
        <g>
            <rect id="Bound" x="0" y="0" width="24" height="24"></rect>
            <path d="M17.74,6.11 C17.1877153,6.11 16.74,6.55771525 16.74,7.11 L16.74,15.23 C16.74,16.9234389 15.8365611,18.488241 14.37,19.3349605 C12.9034389,20.1816799 11.0965611,20.1816799 9.62999998,19.3349605 C8.16343887,18.488241 7.25999997,16.9234389 7.26,15.23 L7.26,7 C7.09444427,5.83814247 7.62158174,4.68643398 8.60913783,4.05235623 C9.59669392,3.41827848 10.8633061,3.41827848 11.8508622,4.05235623 C12.8384183,4.68643398 13.3655557,5.83814247 13.2,7 L13.2,15.09 C13.1468023,15.6383514 12.6859258,16.0566801 12.135,16.0566801 C11.5840742,16.0566801 11.1231977,15.6383514 11.07,15.09 L11.07,7.09 C11.07,6.53771525 10.6222847,6.09 10.07,6.09 C9.51771525,6.09 9.07,6.53771525 9.07,7.09 L9.07,15.09 C9.16284719,16.7148264 10.5075229,17.9848572 12.135,17.9848572 C13.7624771,17.9848572 15.1071528,16.7148264 15.2,15.09 L15.2,7 C15.4097368,5.09400018 14.5109711,3.23594081 12.8864897,2.21717443 C11.2620083,1.19840805 9.19799172,1.19840805 7.57351029,2.21717443 C5.94902886,3.23594081 5.05026318,5.09400018 5.26,7 L5.26,15.23 C5.26,18.9523992 8.27760079,21.97 12,21.97 C15.7223992,21.97 18.74,18.9523992 18.74,15.23 L18.74,7.11 C18.74,6.84478351 18.6346432,6.5904296 18.4471068,6.40289322 C18.2595704,6.21535684 18.0052165,6.11 17.74,6.11 Z" id="Icon" fill="#70727D" fill-rule="nonzero"></path>
        </g>
    </g>
</svg>