<?xml version="1.0" encoding="UTF-8"?>
<svg width="24px" height="24px" viewBox="0 0 24 24" version="1.1" xmlns="http://www.w3.org/2000/svg" xmlns:xlink="http://www.w3.org/1999/xlink">
    <!-- Generator: Sketch 53.2 (72643) - https://sketchapp.com -->
    <title>Icon/Glyph/24px/ic_arrow-up</title>
    <desc>Created with Sketch.</desc>
    <g id="Icon/Glyph/24px/ic_arrow-up" stroke="none" stroke-width="1" fill="none" fill-rule="evenodd">
        <g>
            <rect id="Bound" x="0" y="0" width="24" height="24"></rect>
            <path d="M20.15,10.69 L12.8,3.34 C12.5880056,3.12749028 12.30017,3.00806015 12,3.00806015 C11.69983,3.00806015 11.4119944,3.12749028 11.2,3.34 L3.85,10.69 C3.46227641,11.0800375 3.46227641,11.7099625 3.85,12.1 C4.0377666,12.2893127 4.29336246,12.3957983 4.56,12.3957983 C4.82663754,12.3957983 5.0822334,12.2893127 5.27,12.1 L11,6.37 L11,20 C11,20.5522847 11.4477153,21 12,21 C12.5522847,21 13,20.5522847 13,20 L13,6.37 L18.73,12.1 C18.9177666,12.2893127 19.1733625,12.3957983 19.44,12.3957983 C19.7066375,12.3957983 19.9622334,12.2893127 20.15,12.1 L20.15,12.1 C20.5377236,11.7099625 20.5377236,11.0800375 20.15,10.69 Z" id="Icon" fill="#70727D" fill-rule="nonzero"></path>
        </g>
    </g>
</svg>