<?xml version="1.0" encoding="UTF-8"?>
<svg width="24px" height="24px" viewBox="0 0 24 24" version="1.1" xmlns="http://www.w3.org/2000/svg" xmlns:xlink="http://www.w3.org/1999/xlink">
    <!-- Generator: Sketch 53.2 (72643) - https://sketchapp.com -->
    <title>ic_approved</title>
    <desc>Created with Sketch.</desc>
    <g id="ic_approved" stroke="none" stroke-width="1" fill="none" fill-rule="evenodd">
        <g id="Icon/Glyph/24px/ic_approved">
            <rect id="Bound" x="0" y="0" width="24" height="24"></rect>
            <path d="M13.53,3.13 C9.66532817,2.46368539 5.81410079,4.37656418 4.00987736,7.85858103 C2.20565394,11.3405979 2.86384022,15.5900506 5.63689481,18.3631052 C8.4099494,21.1361598 12.6594021,21.7943461 16.141419,19.9901226 C19.6234358,18.1858992 21.5363146,14.3346718 20.87,10.47 C20.222889,6.71671072 17.2832893,3.77711096 13.53,3.13 Z M10.63,16.07 C10.5170451,16.1860728 10.3619621,16.2515505 10.2,16.2515505 C10.0380379,16.2515505 9.88295494,16.1860728 9.77,16.07 L6.33,12.63 C6.16267933,12.4630381 6.06864935,12.2363736 6.06864935,12 C6.06864935,11.7636264 6.16267933,11.5369619 6.33,11.37 L6.33,11.37 C6.49734697,11.1995933 6.72616232,11.1035984 6.965,11.1035984 C7.20383768,11.1035984 7.43265303,11.1995933 7.6,11.37 L10.2,14 L16.39,7.81 C16.7445695,7.45922101 17.3154305,7.45922101 17.67,7.81 L17.67,7.81 C17.8373207,7.97696195 17.9313507,8.20362636 17.9313507,8.44 C17.9313507,8.67637364 17.8373207,8.90303805 17.67,9.07 L10.63,16.07 Z" id="Icon" fill="#70727D" fill-rule="nonzero"></path>
        </g>
    </g>
</svg>