<?xml version="1.0" encoding="UTF-8"?>
<svg width="24px" height="24px" viewBox="0 0 24 24" version="1.1" xmlns="http://www.w3.org/2000/svg" xmlns:xlink="http://www.w3.org/1999/xlink">
    <!-- Generator: Sketch 53.2 (72643) - https://sketchapp.com -->
    <title>Icon/Glyph/24px/ic_backtotop</title>
    <desc>Created with Sketch.</desc>
    <g id="Icon/Glyph/24px/ic_backtotop" stroke="none" stroke-width="1" fill="none" fill-rule="evenodd">
        <g id="ic_arrow-up">
            <rect id="Bound" x="0" y="0" width="24" height="24"></rect>
            <path d="M5.25,3 L18.75,3 C19.1642136,3 19.5,3.33578644 19.5,3.75 C19.5,4.16421356 19.1642136,4.5 18.75,4.5 L5.25,4.5 C4.83578644,4.5 4.5,4.16421356 4.5,3.75 C4.5,3.33578644 4.83578644,3 5.25,3 Z M20.15,11.5449328 C20.5377236,11.9026273 20.5377236,12.4803173 20.15,12.8380118 C19.9622334,13.0116262 19.7066375,13.1092818 19.44,13.1092818 C19.1733625,13.1092818 18.9177666,13.0116262 18.73,12.8380118 L13,7.58315879 L13,20.0829227 C13,20.5894105 12.5522847,21 12,21 C11.4477153,21 11,20.5894105 11,20.0829227 L11,7.58315879 L5.27,12.8380118 C5.0822334,13.0116262 4.82663754,13.1092818 4.56,13.1092818 C4.29336246,13.1092818 4.0377666,13.0116262 3.85,12.8380118 C3.46227641,12.4803173 3.46227641,11.9026273 3.85,11.5449328 L11.2,4.80441451 C11.4119944,4.60952666 11.69983,4.5 12,4.5 C12.30017,4.5 12.5880056,4.60952666 12.8,4.80441451 L20.15,11.5449328 Z" id="Icon" fill="#70727D"></path>
        </g>
    </g>
</svg>