<?xml version="1.0" encoding="UTF-8"?>
<svg width="24px" height="24px" viewBox="0 0 24 24" version="1.1" xmlns="http://www.w3.org/2000/svg" xmlns:xlink="http://www.w3.org/1999/xlink">
    <!-- Generator: Sketch 53.2 (72643) - https://sketchapp.com -->
    <title>Icon/Glyph/24px/ic_basket</title>
    <desc>Created with Sketch.</desc>
    <g id="Icon/Glyph/24px/ic_basket" stroke="none" stroke-width="1" fill="none" fill-rule="evenodd">
        <g>
            <rect id="Bound" x="0" y="0" width="24" height="24"></rect>
            <path d="M20.21,8.86 L17.21,8.86 L17.21,7.92 C17.21,5.08677923 14.9132208,2.79 12.08,2.79 C9.25250716,2.81160448 6.9626062,5.09261262 6.93,7.92 L6.93,8.86 L3.79,8.86 C3.24914312,8.8532599 2.73392694,9.0900982 2.38688972,9.50499187 C2.03985249,9.91988553 1.89778822,10.4688462 2,11 L3.57,18.55 C3.7350834,19.4040635 4.4902718,20.0158083 5.36,20 L18.64,20 C19.4885399,19.998376 20.2193452,19.4012037 20.39,18.57 L21.21,14.63 L22,11 C22.1022118,10.4688462 21.9601475,9.91988553 21.6131103,9.50499187 C21.2660731,9.0900982 20.7508569,8.8532599 20.21,8.86 L20.21,8.86 Z M8.93,7.92 C8.86443128,6.76136117 9.44529783,5.66154319 10.4392022,5.06246286 C11.4331066,4.46338252 12.6768934,4.46338252 13.6707978,5.06246286 C14.6647022,5.66154319 15.2455687,6.76136117 15.18,7.92 L15.18,8.86 L8.93,8.86 L8.93,7.92 Z M12,16.84 C10.6689938,16.84 9.59,15.7610062 9.59,14.43 C9.59,14.43 9.59,14.32 9.59,14.27 C9.68746796,12.9806001 10.7927643,12.0025551 12.0844415,12.0627405 C13.3761186,12.1229258 14.38568,13.199512 14.3628275,14.4923886 C14.339975,15.7852652 13.2929973,16.8255006 12,16.84 L12,16.84 Z" id="Icon" fill="#70727D" fill-rule="nonzero"></path>
        </g>
    </g>
</svg>