<?xml version="1.0" encoding="UTF-8"?>
<svg width="24px" height="24px" viewBox="0 0 24 24" version="1.1" xmlns="http://www.w3.org/2000/svg" xmlns:xlink="http://www.w3.org/1999/xlink">
    <!-- Generator: Sketch 53.2 (72643) - https://sketchapp.com -->
    <title>Icon/Glyph/24px/ic_category</title>
    <desc>Created with Sketch.</desc>
    <g id="Icon/Glyph/24px/ic_category" stroke="none" stroke-width="1" fill="none" fill-rule="evenodd">
        <g>
            <rect id="Bound" x="0" y="0" width="24" height="24"></rect>
            <path d="M19.93,15.74 C20.2137816,15.74 20.4859403,15.8527318 20.6866043,16.0533957 C20.8872682,16.2540597 21,16.5262184 21,16.81 L21,17.26 C21,17.8509447 20.5209447,18.33 19.93,18.33 L10.34,18.33 C9.74905532,18.33 9.27,17.8509447 9.27,17.26 L9.27,16.81 C9.27,16.2190553 9.74905532,15.74 10.34,15.74 L19.93,15.74 Z M4.08,15.74 L7.18,15.74 C7.77094468,15.74 8.25,16.2190553 8.25,16.81 L8.25,17.25 C8.25,17.8409447 7.77094468,18.32 7.18,18.32 L4.08,18.32 C3.48905532,18.32 3.01,17.8409447 3.01,17.25 L3.01,16.81 C3.01,16.2190553 3.48905532,15.74 4.08,15.74 Z M10.34,5.67 L19.93,5.67 C20.5209447,5.67 21,6.14905532 21,6.74 L21,7.18 C21,7.77094468 20.5209447,8.25 19.93,8.25 L10.34,8.25 C9.74905532,8.25 9.27,7.77094468 9.27,7.18 L9.27,6.74 C9.27,6.14905532 9.74905532,5.67 10.34,5.67 Z M7.63,5.78 C7.99296769,5.95688479 8.22235202,6.32623244 8.22,6.73 L8.22,7.19 C8.22601841,7.75478326 7.78417611,8.2231361 7.22,8.25 L4.07,8.25 C3.78539988,8.25269781 3.5116709,8.14083252 3.31041919,7.93958081 C3.10916748,7.7383291 2.99730219,7.46460012 3,7.18 L3,6.73 C2.99724617,6.44629247 3.10942167,6.17354582 3.3109823,5.97386893 C3.51254293,5.77419204 3.78633083,5.66458243 4.07,5.67 L7.18,5.67 C7.33654225,5.67093858 7.4906777,5.70861614 7.63,5.78 Z M10.34,10.71 L19.93,10.71 C20.5209447,10.71 21,11.1890553 21,11.78 L21,12.22 C21,12.8109447 20.5209447,13.29 19.93,13.29 L10.34,13.29 C9.74905532,13.29 9.27,12.8109447 9.27,12.22 L9.27,11.78 C9.27,11.1890553 9.74905532,10.71 10.34,10.71 Z M7.56,10.78 C7.94445631,10.9581316 8.18758247,11.3463492 8.18,11.77 L8.18,12.22 C8.18562967,12.2731848 8.18562967,12.3268152 8.18,12.38 C8.11229735,12.8861445 7.69026812,13.2701911 7.18,13.29 L4.06,13.29 C3.7771293,13.2900126 3.50598754,13.1769627 3.306909,12.976006 C3.10783047,12.7750494 2.99733141,12.5028581 3,12.22 L3,11.77 C2.99724617,11.4862925 3.10942167,11.2135458 3.3109823,11.0138689 C3.51254293,10.814192 3.78633083,10.7045824 4.07,10.71 L7.18,10.71 C7.30958092,10.7129991 7.43785604,10.7366288 7.56,10.78 Z" id="Combined-Shape" fill="#70727D" fill-rule="nonzero"></path>
        </g>
    </g>
</svg>