<?xml version="1.0" encoding="UTF-8"?>
<svg width="24px" height="24px" viewBox="0 0 24 24" version="1.1" xmlns="http://www.w3.org/2000/svg" xmlns:xlink="http://www.w3.org/1999/xlink">
    <!-- Generator: Sketch 53.2 (72643) - https://sketchapp.com -->
    <title>Icon/Glyph/24px/ic_cancel</title>
    <desc>Created with Sketch.</desc>
    <g id="Icon/Glyph/24px/ic_cancel" stroke="none" stroke-width="1" fill="none" fill-rule="evenodd">
        <g>
            <rect id="Bound" x="0" y="0" width="24" height="24"></rect>
            <path d="M13.4,12 L20.4,5 C20.7746537,4.61240338 20.7746537,3.99759662 20.4,3.61 L20.4,3.61 C20.0138846,3.22606609 19.3915605,3.22162092 19,3.6 L12,10.6 L5,3.6 C4.61240338,3.22534631 3.99759662,3.22534631 3.61,3.6 L3.61,3.6 C3.22606609,3.9861154 3.22162092,4.6084395 3.6,5 L10.6,12 L3.6,19 C3.30140977,19.3981203 3.34100126,19.9552148 3.69289322,20.3071068 C4.04478517,20.6589987 4.6018797,20.6985902 5,20.4 L12,13.4 L19,20.4 C19.3981203,20.6985902 19.9552148,20.6589987 20.3071068,20.3071068 C20.6589987,19.9552148 20.6985902,19.3981203 20.4,19 L13.4,12 Z" id="Icon" fill="#70727D" fill-rule="nonzero"></path>
        </g>
    </g>
</svg>