<?xml version="1.0" encoding="UTF-8"?>
<svg width="24px" height="24px" viewBox="0 0 24 24" version="1.1" xmlns="http://www.w3.org/2000/svg" xmlns:xlink="http://www.w3.org/1999/xlink">
    <!-- Generator: Sketch 53.2 (72643) - https://sketchapp.com -->
    <title>Icon/Glyph/24px/ic_chevron-down</title>
    <desc>Created with Sketch.</desc>
    <g id="Icon/Glyph/24px/ic_chevron-down" stroke="none" stroke-width="1" fill="none" fill-rule="evenodd">
        <g>
            <rect id="Bound" x="0" y="0" width="24" height="24"></rect>
            <path d="M5.27,7.6 L12,14.33 L18.73,7.6 C18.9177666,7.41068735 19.1733625,7.30420168 19.44,7.30420168 C19.7066375,7.30420168 19.9622334,7.41068735 20.15,7.6 L20.15,7.6 C20.3393127,7.7877666 20.4457983,8.04336246 20.4457983,8.31 C20.4457983,8.57663754 20.3393127,8.8322334 20.15,9.02 L12.8,16.36 C12.5880056,16.5725097 12.30017,16.6919399 12,16.6919399 C11.69983,16.6919399 11.4119944,16.5725097 11.2,16.36 L3.85,9 C3.66068735,8.8122334 3.55420168,8.55663754 3.55420168,8.29 C3.55420168,8.02336246 3.66068735,7.7677666 3.85,7.58 L3.85,7.58 C4.04042018,7.39330715 4.297521,7.29040444 4.56416676,7.29416001 C4.83081252,7.29791559 5.08491327,7.40801832 5.27,7.6 Z" id="Icon" fill="#70727D" fill-rule="nonzero"></path>
        </g>
    </g>
</svg>