<?xml version="1.0" encoding="UTF-8"?>
<svg width="24px" height="24px" viewBox="0 0 24 24" version="1.1" xmlns="http://www.w3.org/2000/svg" xmlns:xlink="http://www.w3.org/1999/xlink">
    <!-- Generator: Sketch 53.2 (72643) - https://sketchapp.com -->
    <title>Icon/Glyph/24px/ic_chevron-left</title>
    <desc>Created with Sketch.</desc>
    <g id="Icon/Glyph/24px/ic_chevron-left" stroke="none" stroke-width="1" fill="none" fill-rule="evenodd">
        <g>
            <rect id="Bound" x="0" y="0" width="24" height="24"></rect>
            <path d="M16.4,5.27 L9.67,12 L16.4,18.73 C16.5893127,18.9177666 16.6957983,19.1733625 16.6957983,19.44 C16.6957983,19.7066375 16.5893127,19.9622334 16.4,20.15 L16.4,20.15 C16.2122334,20.3393127 15.9566375,20.4457983 15.69,20.4457983 C15.4233625,20.4457983 15.1677666,20.3393127 14.98,20.15 L7.64,12.8 C7.42749028,12.5880056 7.30806015,12.30017 7.30806015,12 C7.30806015,11.69983 7.42749028,11.4119944 7.64,11.2 L15,3.85 C15.1877666,3.66068735 15.4433625,3.55420168 15.71,3.55420168 C15.9766375,3.55420168 16.2322334,3.66068735 16.42,3.85 L16.42,3.85 C16.6066929,4.04042018 16.7095956,4.297521 16.70584,4.56416676 C16.7020844,4.83081252 16.5919817,5.08491327 16.4,5.27 Z" id="Icon" fill="#70727D" fill-rule="nonzero"></path>
        </g>
    </g>
</svg>