<?xml version="1.0" encoding="UTF-8"?>
<svg width="24px" height="24px" viewBox="0 0 24 24" version="1.1" xmlns="http://www.w3.org/2000/svg" xmlns:xlink="http://www.w3.org/1999/xlink">
    <!-- Generator: Sketch 53.2 (72643) - https://sketchapp.com -->
    <title>Icon/Glyph/24px/ic_cart</title>
    <desc>Created with Sketch.</desc>
    <g id="Icon/Glyph/24px/ic_cart" stroke="none" stroke-width="1" fill="none" fill-rule="evenodd">
        <g>
            <rect id="Bound" x="0" y="0" width="24" height="24"></rect>
            <path d="M20,15.5 C20.5522847,15.5 21,15.9477153 21,16.5 C21,17.0522847 20.5522847,17.5 20,17.5 L8.32,17.5 C7.76526634,17.5006532 7.24510546,17.2306062 6.92645194,16.776525 C6.60779842,16.3224437 6.53073741,15.7414495 6.72,15.22 L6.83,14.89 C6.91969545,14.6647876 6.95066535,14.4204694 6.92,14.18 L6.18,6.54 C6.15074828,6.26808374 5.97946053,6.03208729 5.73,5.92 L3.57,4.92 C3.23976185,4.77239212 3.0149811,4.45794971 2.98218472,4.09771407 C2.94938835,3.73747843 3.11368959,3.38761342 3.41184242,3.18279592 C3.70999525,2.97797841 4.09551504,2.95014123 4.42,3.11 L6.58,4.11 C7.11832359,4.36499601 7.55763696,4.79025135 7.83,5.32 L20,5.32 C20.2913558,5.31712844 20.5694741,5.44147363 20.7616145,5.66051362 C20.9537548,5.8795536 21.0408059,6.17150164 21,6.46 L20.13,10.95 C19.909105,12.1363873 18.9225266,13.0288109 17.72,13.13 L8.91,13.94 L8.91,14 C8.95588068,14.5063575 8.89803585,15.016753 8.74,15.5 L20,15.5 Z M11,21 C10.1715729,21 9.5,20.3284271 9.5,19.5 C9.5,18.6715729 10.1715729,18 11,18 C11.8284271,18 12.5,18.6715729 12.5,19.5 C12.5,20.3284271 11.8284271,21 11,21 Z M17.63,21 C16.8015729,21 16.13,20.3284271 16.13,19.5 C16.13,18.6715729 16.8015729,18 17.63,18 C18.4584271,18 19.13,18.6715729 19.13,19.5 C19.13,20.3284271 18.4584271,21 17.63,21 Z" id="Icon" fill="#70727D" fill-rule="nonzero"></path>
        </g>
    </g>
</svg>