<?xml version="1.0" encoding="UTF-8"?>
<svg width="24px" height="24px" viewBox="0 0 24 24" version="1.1" xmlns="http://www.w3.org/2000/svg" xmlns:xlink="http://www.w3.org/1999/xlink">
    <!-- Generator: Sketch 53.2 (72643) - https://sketchapp.com -->
    <title>Icon/Glyph/24px/ic_chat</title>
    <desc>Created with Sketch.</desc>
    <g id="Icon/Glyph/24px/ic_chat" stroke="none" stroke-width="1" fill="none" fill-rule="evenodd">
        <g>
            <rect id="Bound" x="0" y="0" width="24" height="24"></rect>
            <path d="M17.46,3 L6.54,3 C5.60205437,2.99734292 4.7016139,3.36807924 4.03744609,4.03037087 C3.37327828,4.69266249 2.99999624,5.5920506 3,6.53 L3,19.23 C2.99686296,19.5276382 3.17474992,19.7973727 3.44957314,19.9116992 C3.72439636,20.0260256 4.04110901,19.9620446 4.25,19.75 L6.44,17.56 C6.54112753,17.45941 6.67737826,17.4020413 6.82,17.4 L17.46,17.4 C19.4128081,17.3945068 20.9945068,15.8128081 21,13.86 L21,6.54 C20.9945068,4.58719185 19.4128081,3.00549316 17.46,3 Z M16.46,13.8 L7.46,13.8 C6.96294373,13.8 6.56,13.3970563 6.56,12.9 L6.56,12.9 C6.56,12.4029437 6.96294373,12 7.46,12 L16.46,12 C16.9570563,12 17.36,12.4029437 17.36,12.9 L17.36,12.9 C17.3604761,13.3818453 16.9813694,13.7785849 16.5,13.8 L16.46,13.8 Z M17.36,10.2 C17.36,10.6970563 16.9570563,11.1 16.46,11.1 L7.46,11.1 C6.96294373,11.1 6.56,10.6970563 6.56,10.2 L6.56,10.2 C6.56,9.70294373 6.96294373,9.3 7.46,9.3 L16.46,9.3 C16.9570563,9.3 17.36,9.70294373 17.36,10.2 L17.36,10.2 Z M16.46,8.4 L7.46,8.4 C6.96294373,8.4 6.56,7.99705627 6.56,7.5 L6.56,7.5 C6.56,7.00294373 6.96294373,6.6 7.46,6.6 L16.46,6.6 C16.9570563,6.6 17.36,7.00294373 17.36,7.5 L17.36,7.5 C17.3604761,7.98184526 16.9813694,8.37858488 16.5,8.4 L16.46,8.4 Z" id="Icon" fill="#70727D" fill-rule="nonzero"></path>
        </g>
    </g>
</svg>