<?xml version="1.0" encoding="UTF-8"?>
<svg width="24px" height="24px" viewBox="0 0 24 24" version="1.1" xmlns="http://www.w3.org/2000/svg" xmlns:xlink="http://www.w3.org/1999/xlink">
    <!-- Generator: Sketch 53.2 (72643) - https://sketchapp.com -->
    <title>Icon/Glyph/24px/ic_cash</title>
    <desc>Created with Sketch.</desc>
    <g id="Icon/Glyph/24px/ic_cash" stroke="none" stroke-width="1" fill="none" fill-rule="evenodd">
        <g>
            <g id="Icon/Glyph/24px/ic_approved">
                <rect id="Bound" x="0" y="0" width="24" height="24"></rect>
            </g>
            <g id="Group" transform="translate(3.000000, 3.000000)" fill="#70727D" fill-rule="nonzero">
                <path d="M5.4039091,6.63157895 L12.0787229,6.63157895 C12.8956438,6.63157895 13.6205882,7.15517077 13.8774002,7.93067536 L16.3872041,15.5096227 C16.7161672,16.5030048 16.1775493,17.5749774 15.1841672,17.9039405 C14.9920256,17.9675691 14.7909299,18 14.5885268,18 L2.89410518,18 C1.84767092,18 0.999368341,17.1516974 0.999368341,16.1052632 C0.999368341,15.9028601 1.03179924,15.7017644 1.09542784,15.5096227 L3.60523176,7.93067536 C3.86204374,7.15517077 4.58698819,6.63157895 5.4039091,6.63157895 Z M8.94821053,9.672 L8.94821053,9.14147368 C8.94821053,9.08589446 8.9280002,9.03789494 8.88757895,8.99747368 C8.84715769,8.95705243 8.79915817,8.93684211 8.74357895,8.93684211 L8.12968421,8.93684211 C8.07410499,8.93684211 8.02610547,8.95705243 7.98568421,8.99747368 C7.94526296,9.03789494 7.92505263,9.08589446 7.92505263,9.14147368 L7.92505263,9.65684211 C7.70273573,9.69726336 7.4981062,9.76168377 7.31115789,9.85010526 C7.12420959,9.93852676 6.96379014,10.0496835 6.82989474,10.1835789 C6.69599933,10.3174744 6.59115827,10.4677886 6.51536842,10.6345263 C6.43957857,10.801264 6.40168421,10.9831569 6.40168421,11.1802105 C6.40168421,11.4075801 6.4319997,11.6033676 6.49263158,11.7675789 C6.55326346,11.9317903 6.64547307,12.0745257 6.76926316,12.1957895 C6.89305325,12.3170532 7.04968326,12.419368 7.23915789,12.5027368 C7.42863253,12.5861057 7.64968295,12.658105 7.90231579,12.7187368 C8.18021192,12.789474 8.4252621,12.8475787 8.63747368,12.8930526 C8.84968527,12.9385265 9.02778875,12.9865261 9.17178947,13.0370526 C9.31579019,13.0875792 9.42315754,13.1482102 9.49389474,13.2189474 C9.56463193,13.2896846 9.6,13.380631 9.6,13.4917895 C9.6,13.6080006 9.56715822,13.7052628 9.50147368,13.7835789 C9.43578915,13.8618951 9.34989527,13.9275787 9.24378947,13.9806316 C9.13768368,14.0336845 9.01389544,14.0715788 8.87242105,14.0943158 C8.73094666,14.1170527 8.58442181,14.1284211 8.43284211,14.1284211 C8.24084115,14.1284211 8.0804217,14.1120002 7.95157895,14.0791579 C7.8227362,14.0463156 7.71536885,14.0046318 7.62947368,13.9541053 C7.54357852,13.9035787 7.47536867,13.845474 7.42484211,13.7797895 C7.37431554,13.7141049 7.3313686,13.6484214 7.296,13.5827368 C7.26568406,13.522105 7.2277897,13.4766317 7.18231579,13.4463158 C7.13684188,13.4159998 7.07115832,13.4008421 6.98526316,13.4008421 L6.45473684,13.4008421 C6.39915762,13.4008421 6.34989495,13.4197893 6.30694737,13.4576842 C6.26399979,13.4955791 6.24505261,13.5448418 6.25010526,13.6054737 C6.26021058,13.7974746 6.31073639,13.9730518 6.40168421,14.1322105 C6.49263203,14.2913692 6.61263083,14.4315783 6.76168421,14.5528421 C6.91073759,14.6741059 7.08505163,14.7764206 7.28463158,14.8597895 C7.48421152,14.9431583 7.69768307,15.0025261 7.92505263,15.0378947 L7.92505263,15.5532632 C7.92505263,15.6088424 7.94526296,15.6568419 7.98568421,15.6972632 C8.02610547,15.7376844 8.07410499,15.7578947 8.12968421,15.7578947 L8.74357895,15.7578947 C8.79915817,15.7578947 8.84715769,15.7376844 8.88757895,15.6972632 C8.9280002,15.6568419 8.94821053,15.6088424 8.94821053,15.5532632 L8.94821053,15.0378947 C9.21094868,15.0025261 9.4458937,14.9393689 9.65305263,14.8484211 C9.86021156,14.7574732 10.0357888,14.6437902 10.1797895,14.5073684 C10.3237902,14.3709467 10.4336838,14.216843 10.5094737,14.0450526 C10.5852635,13.8732623 10.6231579,13.6888431 10.6231579,13.4917895 C10.6231579,13.2846305 10.5941056,13.1002113 10.536,12.9385263 C10.4778944,12.7768413 10.3818954,12.6341059 10.248,12.5103158 C10.1141046,12.3865257 9.94231684,12.2804215 9.73263158,12.192 C9.52294632,12.1035785 9.26652783,12.0265266 8.96336842,11.9608421 C8.68547229,11.9002102 8.44926413,11.8471581 8.25473684,11.8016842 C8.06020955,11.7562103 7.90105325,11.7069476 7.77726316,11.6538947 C7.65347307,11.6008418 7.56378975,11.5376846 7.50821053,11.4644211 C7.4526313,11.3911575 7.42484211,11.2964216 7.42484211,11.1802105 C7.42484211,11.08421 7.45010501,10.9983162 7.50063158,10.9225263 C7.55115815,10.8467365 7.62063114,10.7823161 7.70905263,10.7292632 C7.79747413,10.6762103 7.90105204,10.6357896 8.01978947,10.608 C8.13852691,10.5802104 8.26357829,10.5663158 8.39494737,10.5663158 C8.69810678,10.5663158 8.92673607,10.6130522 9.08084211,10.7065263 C9.23494814,10.8000005 9.34989436,10.9098941 9.42568421,11.0362105 C9.46105281,11.0917898 9.50021031,11.1359998 9.54315789,11.1688421 C9.58610548,11.2016844 9.65052589,11.2181053 9.73642105,11.2181053 L10.2669474,11.2181053 C10.3225266,11.2181053 10.3717893,11.1991581 10.4147368,11.1612632 C10.4576844,11.1233682 10.4766316,11.0741056 10.4715789,11.0134737 C10.4614736,10.8922099 10.4235793,10.762106 10.3578947,10.6231579 C10.2922102,10.4842098 10.1962112,10.3515796 10.0698947,10.2252632 C9.94357832,10.0989467 9.7869483,9.98652681 9.6,9.888 C9.4130517,9.78947319 9.19579071,9.71747391 8.94821053,9.672 Z" id="Icon"></path>
                <path d="M6.52922474,2.19524204e-16 L10.9530452,8.8817842e-16 C11.6821731,7.54239788e-16 12.3466146,0.418383433 12.6617139,1.07590912 L13.5697091,2.97064596 C14.0219352,3.91431764 13.6235398,5.04591636 12.6798681,5.49814242 C12.4242774,5.62062656 12.1444641,5.68421053 11.8610404,5.68421053 L5.62122951,5.68421053 C4.57479525,5.68421053 3.72649267,4.83590795 3.72649267,3.78947368 C3.72649267,3.50604996 3.79007664,3.22623673 3.91256077,2.97064596 L4.820556,1.07590912 C5.13565526,0.418383433 5.80009679,3.55983237e-16 6.52922474,2.22044605e-16 Z" id="Rectangle-Copy" transform="translate(8.741316, 2.842105) rotate(-180.000000) translate(-8.741316, -2.842105) "></path>
            </g>
        </g>
    </g>
</svg>