<?xml version="1.0" encoding="UTF-8"?>
<svg width="24px" height="24px" viewBox="0 0 24 24" version="1.1" xmlns="http://www.w3.org/2000/svg" xmlns:xlink="http://www.w3.org/1999/xlink">
    <!-- Generator: Sketch 53.2 (72643) - https://sketchapp.com -->
    <title>Icon/Glyph/24px/ic_chevron-up</title>
    <desc>Created with Sketch.</desc>
    <g id="Icon/Glyph/24px/ic_chevron-up" stroke="none" stroke-width="1" fill="none" fill-rule="evenodd">
        <g>
            <rect id="Bound" x="0" y="0" width="24" height="24"></rect>
            <path d="M18.73,16.4 L12,9.67 L5.27,16.4 C5.0822334,16.5893127 4.82663754,16.6957983 4.56,16.6957983 C4.29336246,16.6957983 4.0377666,16.5893127 3.85,16.4 L3.85,16.4 C3.66068735,16.2122334 3.55420168,15.9566375 3.55420168,15.69 C3.55420168,15.4233625 3.66068735,15.1677666 3.85,14.98 L11.2,7.64 C11.4119944,7.42749028 11.69983,7.30806015 12,7.30806015 C12.30017,7.30806015 12.5880056,7.42749028 12.8,7.64 L20.15,15 C20.3393127,15.1877666 20.4457983,15.4433625 20.4457983,15.71 C20.4457983,15.9766375 20.3393127,16.2322334 20.15,16.42 L20.15,16.42 C19.9595798,16.6066929 19.702479,16.7095956 19.4358332,16.70584 C19.1691875,16.7020844 18.9150867,16.5919817 18.73,16.4 Z" id="Icon" fill="#70727D" fill-rule="nonzero"></path>
        </g>
    </g>
</svg>