<?xml version="1.0" encoding="UTF-8"?>
<svg width="24px" height="24px" viewBox="0 0 24 24" version="1.1" xmlns="http://www.w3.org/2000/svg" xmlns:xlink="http://www.w3.org/1999/xlink">
    <!-- Generator: Sketch 53.2 (72643) - https://sketchapp.com -->
    <title>Icon/Glyph/24px/ic_date</title>
    <desc>Created with Sketch.</desc>
    <g id="Icon/Glyph/24px/ic_date" stroke="none" stroke-width="1" fill="none" fill-rule="evenodd">
        <g>
            <rect id="Bound" x="0" y="0" width="24" height="24"></rect>
            <path d="M16.98,5 L18.9,5 C20.059798,5 21,5.94020203 21,7.1 L21,9.4 C21,9.67614237 20.7761424,9.9 20.5,9.9 L3.5,9.9 C3.22385763,9.9 3,9.67614237 3,9.4 L3,7.1 C3,6.54304537 3.22124936,6.00890215 3.61507576,5.61507576 C4.00890215,5.22124936 4.54304537,5 5.1,5 L7.02,5 L7.02,3.82 C7.02,3.36712651 7.38712651,3 7.84,3 C8.29287349,3 8.66,3.36712651 8.66,3.82 L8.66,5 L15.34,5 L15.34,3.82 C15.34,3.36712651 15.7071265,3 16.16,3 C16.6128735,3 16.98,3.36712651 16.98,3.82 L16.98,5 Z M3.5,11 L20.5,11 C20.7761424,11 21,11.2238576 21,11.5 L21,18.9 C21,19.4569546 20.7787506,19.9910978 20.3849242,20.3849242 C19.9910978,20.7787506 19.4569546,21 18.9,21 L5.1,21 C4.54304537,21 4.00890215,20.7787506 3.61507576,20.3849242 C3.22124936,19.9910978 3,19.4569546 3,18.9 L3,11.5 C3,11.2238576 3.22385763,11 3.5,11 Z" id="Icon" fill="#70727D" fill-rule="nonzero"></path>
        </g>
    </g>
</svg>