<?xml version="1.0" encoding="UTF-8"?>
<svg width="24px" height="24px" viewBox="0 0 24 24" version="1.1" xmlns="http://www.w3.org/2000/svg" xmlns:xlink="http://www.w3.org/1999/xlink">
    <!-- Generator: Sketch 53.2 (72643) - https://sketchapp.com -->
    <title>Icon/Glyph/24px/ic_down</title>
    <desc>Created with Sketch.</desc>
    <g id="Icon/Glyph/24px/ic_down" stroke="none" stroke-width="1" fill="none" fill-rule="evenodd">
        <g>
            <rect id="Bound" x="0" y="0" width="24" height="24"></rect>
            <path d="M19,3 C20.1045695,3 21,3.8954305 21,5 L21,19 C21,20.1045695 20.1045695,21 19,21 L5,21 C3.8954305,21 3,20.1045695 3,19 L3,5 C3,3.8954305 3.8954305,3 5,3 L19,3 Z M5,19 L19,19 L19,5 L5,5 L5,19 Z M16,6.7 C16.406877,6.42681966 16.951775,6.48875793 17.2869594,6.84628803 C17.6221439,7.20381813 17.6488352,7.75157511 17.35,8.14 L9.66,15.58 L13,15.58 C13.5522847,15.58 14,16.0277153 14,16.58 C14,17.1322847 13.5522847,17.58 13,17.58 L7.42,17.58 C6.93240182,17.5780872 6.50102339,17.2636244 6.35,16.8 C6.3451746,16.7434361 6.3451746,16.6865639 6.35,16.63 C6.34431246,16.5667944 6.34431246,16.5032056 6.35,16.44 L6.35,10.92 C6.35,10.3677153 6.79771525,9.92 7.35,9.92 C7.90228475,9.92 8.35,10.3677153 8.35,10.92 L8.35,14.07 L16,6.7 Z" id="Icon" fill="#70727D" fill-rule="nonzero"></path>
        </g>
    </g>
</svg>