<?xml version="1.0" encoding="UTF-8"?>
<svg width="24px" height="24px" viewBox="0 0 24 24" version="1.1" xmlns="http://www.w3.org/2000/svg" xmlns:xlink="http://www.w3.org/1999/xlink">
    <!-- Generator: Sketch 53.2 (72643) - https://sketchapp.com -->
    <title>Icon/Glyph/24px/ic_download-full</title>
    <desc>Created with Sketch.</desc>
    <g id="Icon/Glyph/24px/ic_download-full" stroke="none" stroke-width="1" fill="none" fill-rule="evenodd">
        <g>
            <rect id="Bound" x="0" y="0" width="24" height="24"></rect>
            <path d="M17.68,9.35 L15.18,9.35 L15.18,5 C15.18,3.8954305 14.2845695,3 13.18,3 L10.82,3 C9.7154305,3 8.82,3.8954305 8.82,5 L8.82,9.35 L6.32,9.35 C6.02823777,9.34928277 5.76488538,9.52471314 5.65313573,9.79422701 C5.54138607,10.0637409 5.60333358,10.3740517 5.81,10.58 L11.29,16.05 C11.4777666,16.2393127 11.7333625,16.3457983 12,16.3457983 C12.2666375,16.3457983 12.5222334,16.2393127 12.71,16.05 L18.19,10.58 C18.3966664,10.3740517 18.4586139,10.0637409 18.3468643,9.79422701 C18.2351146,9.52471314 17.9717622,9.34928277 17.68,9.35 L17.68,9.35 Z M4.59,19.94 L4.59,19.94 C4.58730175,20.221948 4.69811333,20.4931337 4.8974898,20.6925102 C5.09686627,20.8918867 5.368052,21.0026983 5.65,21 L18.35,21 C18.631948,21.0026983 18.9031337,20.8918867 19.1025102,20.6925102 C19.3018867,20.4931337 19.4126983,20.221948 19.41,19.94 L19.41,19.94 C19.41,19.3545782 18.9354218,18.88 18.35,18.88 L5.65,18.88 C5.36887052,18.88 5.09925537,18.9916783 4.90046681,19.1904668 C4.70167825,19.3892554 4.59,19.6588705 4.59,19.94 Z" id="Icon" fill="#70727D" fill-rule="nonzero"></path>
        </g>
    </g>
</svg>