<?xml version="1.0" encoding="UTF-8"?>
<svg width="24px" height="24px" viewBox="0 0 24 24" version="1.1" xmlns="http://www.w3.org/2000/svg" xmlns:xlink="http://www.w3.org/1999/xlink">
    <!-- Generator: Sketch 53.2 (72643) - https://sketchapp.com -->
    <title>Icon/Glyph/24px/ic_document</title>
    <desc>Created with Sketch.</desc>
    <g id="Icon/Glyph/24px/ic_document" stroke="none" stroke-width="1" fill="none" fill-rule="evenodd">
        <g>
            <rect id="Bound" x="0" y="0" width="24" height="24"></rect>
            <path d="M19.53,7.53 L14.47,2.47 C14.1674296,2.16825563 13.7573147,1.99917316 13.33,2 L6,2 C4.8954305,2 4,2.8954305 4,4 L4,20 C4,21.1045695 4.8954305,22 6,22 L18,22 C19.1045695,22 20,21.1045695 20,20 L20,8.67 C20.0008268,8.24268532 19.8317444,7.83257041 19.53,7.53 Z M16,16.67 C16,17.2222847 15.5522847,17.67 15,17.67 L9,17.67 C8.44771525,17.67 8,17.2222847 8,16.67 L8,16.67 C8,16.1177153 8.44771525,15.67 9,15.67 L15,15.67 C15.5522847,15.67 16,16.1177153 16,16.67 Z M15,14 L9,14 C8.44771525,14 8,13.5522847 8,13 C8,12.4477153 8.44771525,12 9,12 L15,12 C15.5522847,12 16,12.4477153 16,13 C16,13.5522847 15.5522847,14 15,14 Z M17.66,9 L13.83,9 C13.3716037,9 13,8.62839634 13,8.17 L13,4.38 C12.9953678,4.23096088 13.0830952,4.09449169 13.2206046,4.03682646 C13.358114,3.97916122 13.5169409,4.01223669 13.62,4.12 L17.88,8.38 C17.9877633,8.48305914 18.0208388,8.64188595 17.9631735,8.77939536 C17.9055083,8.91690476 17.7690391,9.0046322 17.62,9 L17.66,9 Z" id="Icon" fill="#70727D" fill-rule="nonzero"></path>
        </g>
    </g>
</svg>