<?xml version="1.0" encoding="UTF-8"?>
<svg width="24px" height="24px" viewBox="0 0 24 24" version="1.1" xmlns="http://www.w3.org/2000/svg" xmlns:xlink="http://www.w3.org/1999/xlink">
    <!-- Generator: Sketch 53.2 (72643) - https://sketchapp.com -->
    <title>Icon/Glyph/24px/ic_decrease</title>
    <desc>Created with Sketch.</desc>
    <g id="Icon/Glyph/24px/ic_decrease" stroke="none" stroke-width="1" fill="none" fill-rule="evenodd">
        <g>
            <rect id="Bound" x="0" y="0" width="24" height="24"></rect>
            <path d="M21.72,6.35 C21.3299625,5.96227641 20.7000375,5.96227641 20.31,6.35 L14.31,12.17 L11.83,9 C11.5370156,8.68520145 11.1194122,8.51669484 10.69,8.54 C10.3020078,8.56174388 9.94019044,8.74265255 9.69,9.04 L4,14.44 L4,12 C4,11.4477153 3.55228475,11 3,11 C2.44771525,11 2,11.4477153 2,12 L2,16.83 C1.99660494,16.8866158 1.99660494,16.9433842 2,17 L2,17.15 C2.14839814,17.6341184 2.59366317,17.9660432 3.1,17.97 L8,17.97 C8.55228475,17.97 9,17.5222847 9,16.97 C9,16.4177153 8.55228475,15.97 8,15.97 L5.31,15.97 L10.71,10.82 L13.16,13.95 C13.4364851,14.2508575 13.8263935,14.4220855 14.235,14.4220855 C14.6436065,14.4220855 15.0335149,14.2508575 15.31,13.95 L21.69,7.79 C21.8895342,7.60562263 22.0054629,7.34799658 22.0111216,7.07637753 C22.0167804,6.80475848 21.9116821,6.54252771 21.72,6.35 Z" id="Icon" fill="#70727D" fill-rule="nonzero"></path>
        </g>
    </g>
</svg>