<?xml version="1.0" encoding="UTF-8"?>
<svg width="24px" height="24px" viewBox="0 0 24 24" version="1.1" xmlns="http://www.w3.org/2000/svg" xmlns:xlink="http://www.w3.org/1999/xlink">
    <!-- Generator: Sketch 53.2 (72643) - https://sketchapp.com -->
    <title>Icon/Glyph/24px/ic_delivery</title>
    <desc>Created with Sketch.</desc>
    <g id="Icon/Glyph/24px/ic_delivery" stroke="none" stroke-width="1" fill="none" fill-rule="evenodd">
        <g id="Icon/Glyph/24px/ic_pin-point">
            <rect id="Bound" x="0" y="0" width="24" height="24"></rect>
            <path d="M5.78430448,8.84766681 L10.5414571,8.84766681 C10.3203958,9.62791182 10.3569957,10.4766329 10.6785928,11.2594268 C11.2479342,12.6452505 12.5977823,13.5500768 14.0960002,13.5501736 C16.1179834,13.5446483 17.7621944,11.9191215 17.790827,9.8973335 C17.8078522,8.39921228 16.9185113,7.03911179 15.5392846,6.45397012 C14.1600579,5.86882846 12.5640099,6.17449417 11.4985735,7.22782334 C11.4833953,7.24282912 11.4683675,7.25794432 11.4534907,7.27316678 L6.14597436,7.27316678 L2.25,7.27316678 C1.83578644,7.27316678 1.5,6.93738034 1.5,6.52316678 L1.5,6.44866675 C1.5,6.03445319 1.83578644,5.69866675 2.25,5.69866675 L6.8579091,5.69866675 C8.31940335,3.19033936 11.0271557,1.52397057 14.0960002,1.5 C18.4081105,1.50152641 22.0273047,4.74975322 22.4933337,9.03660681 L22.4933337,9.12058015 C22.5090017,9.43178419 22.5090017,9.74357946 22.4933337,10.0547835 C22.5139657,12.556624 21.4449849,14.9436314 19.5647637,16.594207 C17.5898423,18.2068622 15.8884523,20.1280151 14.5263636,22.2834004 C14.4524172,22.4170506 14.3117233,22.5 14.1589802,22.5 C14.0062372,22.5 13.8655433,22.4170506 13.7915969,22.2834004 C12.4295082,20.1280151 10.7281182,18.2068622 8.75319681,16.594207 C7.34942124,15.3856774 6.38660539,13.7694126 5.97968914,11.9966669 L8.62250015,11.9966669 C9.03671372,11.9966669 9.37250015,11.6608804 9.37250015,11.2466669 L9.37250015,11.1721668 C9.37250015,10.7579533 9.03671372,10.4221668 8.62250015,10.4221668 L5.76877517,10.4221668 L3.82450003,10.4221668 C3.41028647,10.4221668 3.07450003,10.0863804 3.07450003,9.67216684 L3.07450003,9.59766681 C3.07450003,9.18345325 3.41028647,8.84766681 3.82450003,8.84766681 L5.78430448,8.84766681 Z" id="Icon" fill="#70727D" fill-rule="nonzero"></path>
        </g>
    </g>
</svg>