<?xml version="1.0" encoding="UTF-8"?>
<svg width="24px" height="24px" viewBox="0 0 24 24" version="1.1" xmlns="http://www.w3.org/2000/svg" xmlns:xlink="http://www.w3.org/1999/xlink">
    <!-- Generator: Sketch 53.2 (72643) - https://sketchapp.com -->
    <title>Icon/Glyph/24px/ic_download-outline</title>
    <desc>Created with Sketch.</desc>
    <g id="Icon/Glyph/24px/ic_download-outline" stroke="none" stroke-width="1" fill="none" fill-rule="evenodd">
        <g>
            <rect id="Bound" x="0" y="0" width="24" height="24"></rect>
            <path d="M12,16.35 C11.5049484,16.3466214 11.0309856,16.149137 10.68,15.8 L6,11.15 C5.53410597,10.6856647 5.39752796,9.98461456 5.6550425,9.37934535 C5.91255704,8.77407614 6.51236971,8.38632681 7.17,8.4 L8.3,8.4 L8.3,5.7 C8.3,4.20883118 9.50883118,3 11,3 L13,3 C13.7160845,3 14.4028401,3.28446347 14.9091883,3.79081169 C15.4155365,4.29715991 15.7,4.98391548 15.7,5.7 L15.7,8.4 L16.83,8.4 C17.4876303,8.38632681 18.087443,8.77407614 18.3449575,9.37934535 C18.602472,9.98461456 18.465894,10.6856647 18,11.15 L13.31,15.8 C12.9639437,16.1503863 12.492466,16.3483349 12,16.35 Z M8.11,10.35 L12,14.29 L15.89,10.4 L13.7,10.4 L13.7,5.7 C13.7,5.31340068 13.3865993,5 13,5 L11,5 C10.6134007,5 10.3,5.31340068 10.3,5.7 L10.3,10.4 L8.11,10.35 Z M5.65,18.88 L18.35,18.88 C18.9354218,18.88 19.41,19.3545782 19.41,19.94 C19.41,20.5254218 18.9354218,21 18.35,21 L5.65,21 C5.06457817,21 4.59,20.5254218 4.59,19.94 C4.59,19.3545782 5.06457817,18.88 5.65,18.88 Z" id="Icon" fill="#70727D" fill-rule="nonzero"></path>
        </g>
    </g>
</svg>