<?xml version="1.0" encoding="UTF-8"?>
<svg width="24px" height="24px" viewBox="0 0 24 24" version="1.1" xmlns="http://www.w3.org/2000/svg" xmlns:xlink="http://www.w3.org/1999/xlink">
    <!-- Generator: Sketch 53.2 (72643) - https://sketchapp.com -->
    <title>Icon/Glyph/24px/ic_delete</title>
    <desc>Created with Sketch.</desc>
    <g id="Icon/Glyph/24px/ic_delete" stroke="none" stroke-width="1" fill="none" fill-rule="evenodd">
        <g>
            <rect id="Bound" x="0" y="0" width="24" height="24"></rect>
            <path d="M5.33,18.5 C5.33549283,20.4307168 6.89928316,21.9945072 8.83,22 L15.17,22 C17.1007168,21.9945072 18.6645072,20.4307168 18.67,18.5 L18.67,7.58 C18.67,7.2776532 18.5498932,6.98768974 18.3361017,6.77389827 C18.1223103,6.5601068 17.8323468,6.44 17.53,6.44 L6.47,6.44 C5.84039539,6.44 5.33,6.95039539 5.33,7.58 L5.33,18.5 Z M19.1,3.11 L15.89,3.11 L15.09,2.31 C14.8910206,2.11126819 14.6212242,1.99975234 14.34,2 L9.66,2 C9.37877578,1.99975234 9.10897937,2.11126819 8.91,2.31 L8.11,3.11 L4.9,3.11 C4.71883121,3.10727519 4.54428286,3.17804252 4.41616269,3.30616269 C4.28804252,3.43428286 4.21727519,3.60883121 4.22,3.79 L4.22,4.66 C4.21998001,4.83944131 4.29194016,5.0113916 4.4197607,5.13733243 C4.54758124,5.26327325 4.72057868,5.33267823 4.9,5.33 L19.1,5.33 C19.2794213,5.33267823 19.4524188,5.26327325 19.5802393,5.13733243 C19.7080598,5.0113916 19.78002,4.83944131 19.78,4.66 L19.78,3.79 C19.7827248,3.60883121 19.7119575,3.43428286 19.5838373,3.30616269 C19.4557171,3.17804252 19.2811688,3.10727519 19.1,3.11 Z" id="Icon" fill="#70727D" fill-rule="nonzero"></path>
        </g>
    </g>
</svg>