<?xml version="1.0" encoding="UTF-8"?>
<svg width="24px" height="24px" viewBox="0 0 24 24" version="1.1" xmlns="http://www.w3.org/2000/svg" xmlns:xlink="http://www.w3.org/1999/xlink">
    <!-- Generator: Sketch 53.2 (72643) - https://sketchapp.com -->
    <title>Icon/Glyph/24px/ic_edit</title>
    <desc>Created with Sketch.</desc>
    <g id="Icon/Glyph/24px/ic_edit" stroke="none" stroke-width="1" fill="none" fill-rule="evenodd">
        <g>
            <polygon id="Bound" points="0 0 24 0 24 24 0 24"></polygon>
            <path d="M3,20.509753 C3,20.7805089 3.22334933,21 3.49024701,21 L6.25975299,21 C6.53050894,21 6.90634764,20.8436524 7.10545952,20.6445405 L17.4545405,10.2954595 C17.6508554,10.0991446 17.6488672,9.77886719 17.4504342,9.58043424 L14.4195658,6.54956576 C14.2209831,6.35098308 13.9036524,6.34634764 13.7045405,6.54545952 L3.35545952,16.8945405 C3.15914465,17.0908554 3,17.4733493 3,17.740247 L3,20.509753 Z M20.71,5.63 L18.37,3.29 C17.98,2.9 17.35,2.9 16.96,3.29 L15.4828424,4.76715759 C15.2879729,4.96202707 15.2911328,5.28113281 15.4895658,5.47956576 L18.5204342,8.51043424 C18.7190169,8.70901692 19.0360248,8.71397523 19.2328424,8.51715759 L20.71,7.04 C21.1,6.65 21.1,6.02 20.71,5.63 Z" id="Icon" fill="#70727D" fill-rule="nonzero"></path>
        </g>
    </g>
</svg>