<?xml version="1.0" encoding="UTF-8"?>
<svg width="24px" height="24px" viewBox="0 0 24 24" version="1.1" xmlns="http://www.w3.org/2000/svg" xmlns:xlink="http://www.w3.org/1999/xlink">
    <!-- Generator: Sketch 53.2 (72643) - https://sketchapp.com -->
    <title>Icon/Glyph/24px/ic_filter</title>
    <desc>Created with Sketch.</desc>
    <g id="Icon/Glyph/24px/ic_filter" stroke="none" stroke-width="1" fill="none" fill-rule="evenodd">
        <g id="Group-6">
            <rect id="Bound" x="0" y="0" width="24" height="24"></rect>
            <path d="M4,5 L20,5 C20.5522847,5 21,5.44771525 21,6 C21,6.55228475 20.5522847,7 20,7 L4,7 C3.44771525,7 3,6.55228475 3,6 C3,5.44771525 3.44771525,5 4,5 Z M4,10 L14,10 C14.5522847,10 15,10.4477153 15,11 C15,11.5522847 14.5522847,12 14,12 L4,12 C3.44771525,12 3,11.5522847 3,11 C3,10.4477153 3.44771525,10 4,10 Z M19,16.4130569 L20.1201637,15.2928932 C20.510688,14.9023689 21.143853,14.9023689 21.5343773,15.2928932 C21.9249016,15.6834175 21.9249016,16.3165825 21.5343773,16.7071068 L18.7193748,19.5221092 C18.3288506,19.9126335 17.6956856,19.9126335 17.3051613,19.5221092 L14.4901588,16.7071068 C14.0996346,16.3165825 14.0996346,15.6834175 14.4901588,15.2928932 C14.8806831,14.9023689 15.5138481,14.9023689 15.9043724,15.2928932 L17,16.3885208 L17,10 C17,9.44771525 17.4477153,9 18,9 C18.5522847,9 19,9.44771525 19,10 L19,16.4130569 Z M4,15 L12,15 C12.5522847,15 13,15.4477153 13,16 C13,16.5522847 12.5522847,17 12,17 L4,17 C3.44771525,17 3,16.5522847 3,16 C3,15.4477153 3.44771525,15 4,15 Z" id="Icon" fill="#70727D" fill-rule="nonzero"></path>
        </g>
    </g>
</svg>