<?xml version="1.0" encoding="UTF-8"?>
<svg width="24px" height="24px" viewBox="0 0 24 24" version="1.1" xmlns="http://www.w3.org/2000/svg" xmlns:xlink="http://www.w3.org/1999/xlink">
    <!-- Generator: Sketch 53.2 (72643) - https://sketchapp.com -->
    <title>Icon/Glyph/24px/ic_fingerprint</title>
    <desc>Created with Sketch.</desc>
    <g id="Icon/Glyph/24px/ic_fingerprint" stroke="none" stroke-width="1" fill="none" fill-rule="evenodd">
        <g>
            <rect id="Bound" x="0" y="0" width="24" height="24"></rect>
            <path d="M17.23,5.22 C17.1641402,5.23466815 17.0958598,5.23466815 17.03,5.22 C15.4931639,4.35867536 13.7617397,3.90430558 12,3.9 C10.2523165,3.89013925 8.53113777,4.32731866 7,5.17 C6.78381383,5.28458051 6.51576333,5.20987791 6.39,5 C6.33023746,4.89581757 6.31566125,4.77173288 6.34965345,4.65653708 C6.38364565,4.54134129 6.46325143,4.44504801 6.57,4.39 C9.96147039,2.55684237 14.0485296,2.55684237 17.44,4.39 C17.5478275,4.44117626 17.6295331,4.53486743 17.6655656,4.64865423 C17.7015981,4.76244103 17.6887153,4.88608518 17.63,4.99 C17.550782,5.1360356 17.3960629,5.22499908 17.23,5.22 Z M4.35,10 C4.25760536,9.99787477 4.16760759,9.97018315 4.09,9.92 C3.97899863,9.84844547 3.90503303,9.73174245 3.88770485,9.60081848 C3.87037668,9.4698945 3.9114354,9.33796767 4,9.24 C4.86553482,7.99993365 6.01835503,6.98778495 7.36,6.29 C10.2822274,4.83495696 13.7177726,4.83495696 16.64,6.29 C17.9803185,6.97631328 19.1334941,7.97847774 20,9.21 C20.1111877,9.33935191 20.1396833,9.52044968 20.0735918,9.67769638 C20.0075002,9.83494308 19.8581837,9.94130555 19.6879724,9.95238414 C19.5177611,9.96346273 19.3559171,9.87735287 19.27,9.73 C18.4798989,8.61801251 17.4337753,7.71251538 16.22,7.09 C13.5567294,5.76037326 10.4232706,5.76037326 7.76,7.09 C6.54378392,7.72232142 5.49764964,8.63811766 4.71,9.76 C4.64735477,9.90359695 4.50664535,9.99740323 4.35,10 Z M10,20.81 C9.88007288,20.8120945 9.76448871,20.7651385 9.68,20.68 C8.95448159,19.9899062 8.34648585,19.1860008 7.88,18.3 C7.21418646,17.1050593 6.8696382,15.7578756 6.88,14.39 C6.96171278,11.6400592 9.24966726,9.47275854 12,9.54 C14.7426108,9.48391875 17.0182778,11.6480335 17.1,14.39 C17.1,14.6385281 16.8985281,14.84 16.65,14.84 C16.4014719,14.84 16.2,14.6385281 16.2,14.39 C16.1764455,13.3016258 15.7199647,12.2675492 14.9316471,11.5167705 C14.1433295,10.7659918 13.0882284,10.3604666 12,10.39 C10.9134796,10.3631707 9.8609607,10.7699005 9.07482318,11.5203898 C8.28868565,12.2708791 7.83358485,13.3034043 7.81,14.39 C7.78536657,15.5998285 8.07477987,16.795381 8.65,17.86 C9.08554636,18.6573749 9.64597549,19.3798558 10.31,20 C10.4776823,20.1803833 10.4776823,20.4596167 10.31,20.64 C10.23206,20.7340449 10.1211992,20.7948396 10,20.81 Z M16.45,19.15 C15.4603053,19.1731046 14.4870722,18.8940413 13.66,18.35 C12.3218543,17.4591425 11.5185093,15.957563 11.52,14.35 C11.52,14.1014719 11.7214719,13.9 11.97,13.9 C12.2185281,13.9 12.42,14.1014719 12.42,14.35 C12.4310689,15.6450009 13.0875124,16.8491059 14.17,17.56 C14.8463903,18.0020873 15.6423528,18.2255153 16.45,18.2 C16.7651371,18.1934457 17.0793445,18.163362 17.39,18.11 C17.5084208,18.0868644 17.6311466,18.1133749 17.729459,18.1833279 C17.8277713,18.253281 17.893043,18.3605378 17.91,18.48 C17.9302439,18.5980673 17.9025773,18.7193334 17.8331283,18.8169374 C17.7636792,18.9145414 17.6581804,18.9804269 17.54,19 C17.1754139,19.0841039 16.8038323,19.1343176 16.43,19.15 L16.45,19.15 Z M14.62,21 L14.51,21 C13.2387579,20.6951725 12.078277,20.0404534 11.16,19.11 C9.90314968,17.8701556 9.20002402,16.1754425 9.21,14.41 C9.21000003,12.8801713 10.4501713,11.6400001 11.98,11.6400001 C13.5098287,11.6400001 14.75,12.8801713 14.75,14.41 C14.75,15.4427725 15.5872275,16.28 16.62,16.28 C17.6527725,16.28 18.49,15.4427725 18.49,14.41 C18.3918835,10.9199143 15.4904544,8.16601547 12,8.25 C9.46971297,8.20034896 7.13585745,9.60844179 6,11.87 C5.63770727,12.6599946 5.45662371,13.5209957 5.47,14.39 C5.46533976,15.501292 5.66884781,16.6036273 6.07,17.64 C6.11514557,17.7511922 6.11291507,17.8759998 6.06382525,17.9855079 C6.01473543,18.0950159 5.92304628,18.1797214 5.81,18.22 C5.59460254,18.2958316 5.35618368,18.2021671 5.25,18 C4.81873085,16.8592368 4.59848192,15.649562 4.6,14.43 C4.58110236,13.4263935 4.78964763,12.43153 5.21,11.52 C6.47828296,8.93422577 9.12011482,7.30788451 12,7.34 C15.9741656,7.24446105 19.2840684,10.3670108 19.42,14.34 C19.42,15.8698288 18.1798288,17.11 16.65,17.11 C15.1201712,17.11 13.88,15.8698288 13.88,14.34 C13.8208927,13.3558983 12.9850674,12.6000988 12,12.64 C11.5208409,12.6210973 11.0539463,12.7941705 10.702883,13.1208283 C10.3518198,13.4474861 10.1456117,13.9007224 10.13,14.38 C10.1204219,15.9043482 10.7261195,17.3681174 11.81,18.44 C12.6113685,19.2647681 13.6312014,19.8440609 14.75,20.11 C14.9902237,20.1735392 15.1334798,20.4197606 15.07,20.66 C15.01844,20.8649357 14.8312257,21.0063865 14.62,21 L14.62,21 Z" id="Icon" fill="#70727D" fill-rule="nonzero"></path>
        </g>
    </g>
</svg>