<?xml version="1.0" encoding="UTF-8"?>
<svg width="24px" height="24px" viewBox="0 0 24 24" version="1.1" xmlns="http://www.w3.org/2000/svg" xmlns:xlink="http://www.w3.org/1999/xlink">
    <!-- Generator: Sketch 53.2 (72643) - https://sketchapp.com -->
    <title>Icon/Glyph/24px/ic_fav-product</title>
    <desc>Created with Sketch.</desc>
    <g id="Icon/Glyph/24px/ic_fav-product" stroke="none" stroke-width="1" fill="none" fill-rule="evenodd">
        <g>
            <rect id="Bound" x="0" y="0" width="24" height="24"></rect>
            <path d="M20.47,11.62 L12.37,3.52 C12.0325611,3.18482787 11.5756051,2.99772778 11.1,3 L4.8,3 C3.80815987,3.00546481 3.00546481,3.80815987 3,4.8 L3,11.1 C2.99882161,11.5802887 3.1896387,12.04113 3.53,12.38 L11.63,20.48 C11.9674389,20.8151721 12.4243949,21.0022722 12.9,21 C13.3777196,21.0030176 13.836142,20.8117074 14.17,20.47 L20.47,14.17 C20.8117074,13.836142 21.0030176,13.3777196 21,12.9 C20.9968389,12.4205788 20.8066787,11.961324 20.47,11.62 L20.47,11.62 Z M6.15,7.5 C5.40441559,7.5 4.8,6.89558441 4.8,6.15 C4.8,5.40441559 5.40441559,4.8 6.15,4.8 C6.89558441,4.8 7.5,5.40441559 7.5,6.15 C7.5026882,6.50885961 7.36131986,6.8538015 7.10756068,7.10756068 C6.8538015,7.36131986 6.50885961,7.5026882 6.15,7.5 Z M16.74,14.94 L13.35,18.33 C13.231504,18.4509395 13.0693153,18.5190918 12.9,18.5190918 C12.7306847,18.5190918 12.568496,18.4509395 12.45,18.33 L9.06,14.94 C8.42930869,14.3860134 8.1594575,13.5270004 8.36005377,12.7118722 C8.56065005,11.8967441 9.19833198,11.2610675 10.0140878,11.0630395 C10.8298437,10.8650116 11.6880026,11.137567 12.24,11.77 L12.9,12.41 L13.56,11.76 C13.9796516,11.3350911 14.5528006,11.0971802 15.15,11.1 C15.7467371,11.1 16.3190334,11.3370529 16.7409903,11.7590097 C17.1629471,12.1809666 17.4,12.7532629 17.4,13.35 C17.4028198,13.9471994 17.1649089,14.5203484 16.74,14.94 L16.74,14.94 Z" id="Icon" fill="#70727D" fill-rule="nonzero"></path>
        </g>
    </g>
</svg>