<?xml version="1.0" encoding="UTF-8"?>
<svg width="24px" height="24px" viewBox="0 0 24 24" version="1.1" xmlns="http://www.w3.org/2000/svg" xmlns:xlink="http://www.w3.org/1999/xlink">
    <!-- Generator: Sketch 53.2 (72643) - https://sketchapp.com -->
    <title>Icon/Glyph/24px/ic_help</title>
    <desc>Created with Sketch.</desc>
    <g id="Icon/Glyph/24px/ic_help" stroke="none" stroke-width="1" fill="none" fill-rule="evenodd">
        <g>
            <rect id="Bound" x="0" y="0" width="24" height="24"></rect>
            <path d="M12,3 C7.02943725,3 3,7.02943725 3,12 C3,16.9705627 7.02943725,21 12,21 C16.9705627,21 21,16.9705627 21,12 C21,7.02943725 16.9705627,3 12,3 Z M13.15,17.23 C13.1501387,17.3436997 13.1030563,17.4523515 13.02,17.53 C12.939836,17.609414 12.8327622,17.6558126 12.72,17.66 L11.35,17.66 C11.2339667,17.657327 11.1232326,17.6108901 11.04,17.53 C10.9634018,17.448837 10.9205068,17.3415996 10.92,17.23 L10.92,15.82 C10.9205068,15.7084004 10.9634018,15.601163 11.04,15.52 C11.1232326,15.4391099 11.2339667,15.392673 11.35,15.39 L12.72,15.39 C12.8327622,15.3941874 12.939836,15.440586 13.02,15.52 C13.1030563,15.5976485 13.1501387,15.7063003 13.15,15.82 L13.15,17.23 Z M15.82,10.65 C15.6882567,10.9545988 15.5167668,11.2404153 15.31,11.5 C15.1037747,11.7462256 14.8762256,11.9737747 14.63,12.18 L13.94,12.77 C13.7319468,12.9480307 13.5380307,13.1419468 13.36,13.35 C13.2052943,13.5396455 13.1050534,13.76778 13.07,14.01 C13.0512194,14.1227807 12.9989562,14.2273071 12.92,14.31 C12.8528523,14.3956494 12.7487604,14.4439778 12.64,14.44 L11.43,14.44 C11.313075,14.4417117 11.2007301,14.3945993 11.12,14.31 C11.0303504,14.2334665 10.9852464,14.1169476 11,14 C11.0067276,13.6221277 11.0954386,13.2502239 11.26,12.91 C11.4052286,12.6014403 11.5938009,12.3152145 11.82,12.06 C12.0331744,11.8134647 12.2673906,11.5859404 12.52,11.38 C12.77,11.18 13,10.99 13.21,10.8 C13.4070942,10.6337847 13.5848773,10.4459384 13.74,10.24 C13.8718935,10.0641721 13.9421835,9.84978756 13.94,9.63 C13.9459983,9.23279934 13.7550399,8.85837113 13.43,8.63 C13.0390729,8.34602727 12.5625255,8.20482806 12.08,8.23 C11.1929947,8.21538618 10.3924858,8.7597322 10.08,9.59 C10.0372227,9.68499289 9.97986415,9.77271777 9.91,9.85 C9.82892002,9.91695043 9.72473851,9.94928263 9.62,9.94 L8.33,9.94 C8.23968623,9.94091424 8.15294456,9.90477188 8.09,9.84 C8.0294359,9.77910982 7.9968456,9.69582351 8,9.61 C8.02140179,9.20704551 8.1416,8.81554277 8.35,8.47 C8.56743412,8.07143013 8.85543986,7.71565833 9.2,7.42 C9.58489848,7.09437547 10.0207094,6.83424029 10.49,6.65 C10.9937946,6.4409074 11.5345569,6.33547575 12.08,6.34 C12.5742716,6.3388813 13.0660808,6.40962098 13.54,6.55 C13.9918638,6.67959779 14.4180751,6.88593817 14.8,7.16 C15.1608481,7.42724473 15.4608029,7.76810244 15.68,8.16 C15.9053027,8.58778005 16.015573,9.06676656 16,9.55 C16.0132492,9.92495686 15.9520712,10.2988228 15.82,10.65 Z" id="Icon" fill="#70727D" fill-rule="nonzero"></path>
        </g>
    </g>
</svg>