<?xml version="1.0" encoding="UTF-8"?>
<svg width="24px" height="24px" viewBox="0 0 24 24" version="1.1" xmlns="http://www.w3.org/2000/svg" xmlns:xlink="http://www.w3.org/1999/xlink">
    <!-- Generator: Sketch 53.2 (72643) - https://sketchapp.com -->
    <title>Icon/Glyph/24px/ic_home</title>
    <desc>Created with Sketch.</desc>
    <g id="Icon/Glyph/24px/ic_home" stroke="none" stroke-width="1" fill="none" fill-rule="evenodd">
        <g>
            <rect id="Bound" x="0" y="0" width="24" height="24"></rect>
            <path d="M20.76,9.17 L13,3.31 C12.428944,2.88988505 11.651056,2.88988505 11.08,3.31 L7.4,6 L3.24,9.17 C3.03644788,9.33792796 2.96650519,9.61913497 3.06767133,9.86285341 C3.16883748,10.1065718 3.41736208,10.2555849 3.68,10.23 L4.09,10.23 L5.09,20.08 C5.18648341,20.6455249 5.69802054,21.0443505 6.27,21 L8.79,21 C9.20973641,21 9.55,20.6597364 9.55,20.24 L9.55,16.7 C9.55209479,16.0532186 9.78629737,15.4286784 10.21,14.94 C10.6035193,14.4846932 11.1525654,14.192344 11.75,14.12 C12.4394435,14.0524109 13.12543,14.2786496 13.6393984,14.7431248 C14.1533668,15.2075999 14.447673,15.8672553 14.45,16.56 L14.45,20.24 C14.45,20.6597364 14.7902636,21 15.21,21 L17.73,21 C18.29087,21.0284014 18.7845908,20.6334247 18.88,20.08 L19.32,15.84 L19.91,10.23 L20.32,10.23 C20.5826379,10.2555849 20.8311625,10.1065718 20.9323287,9.86285341 C21.0334948,9.61913497 20.9635521,9.33792796 20.76,9.17 Z" id="Icon" fill="#70727D" fill-rule="nonzero"></path>
        </g>
    </g>
</svg>