<?xml version="1.0" encoding="UTF-8"?>
<svg width="24px" height="24px" viewBox="0 0 24 24" version="1.1" xmlns="http://www.w3.org/2000/svg" xmlns:xlink="http://www.w3.org/1999/xlink">
    <!-- Generator: Sketch 53.2 (72643) - https://sketchapp.com -->
    <title>Icon/Glyph/24px/ic_handphone</title>
    <desc>Created with Sketch.</desc>
    <g id="Icon/Glyph/24px/ic_handphone" stroke="none" stroke-width="1" fill="none" fill-rule="evenodd">
        <g id="Group">
            <rect id="Bound" x="0" y="0" width="24" height="24"></rect>
            <path d="M10,2 L15,2 C17.209139,2 19,3.790861 19,6 L19,18 C19,20.209139 17.209139,22 15,22 L10,22 C7.790861,22 6,20.209139 6,18 L6,6 C6,3.790861 7.790861,2 10,2 Z M9,7 C8.44771525,7 8,7.44771525 8,8 L8,15.1666667 C8,15.7189514 8.44771525,16.1666667 9,16.1666667 L16,16.1666667 C16.5522847,16.1666667 17,15.7189514 17,15.1666667 L17,8 C17,7.44771525 16.5522847,7 16,7 L9,7 Z M12.25,6.30833333 C12.7884776,6.30833333 13.225,5.87181096 13.225,5.33333333 C13.225,4.7948557 12.7884776,4.35833333 12.25,4.35833333 C11.7115224,4.35833333 11.275,4.7948557 11.275,5.33333333 C11.275,5.87181096 11.7115224,6.30833333 12.25,6.30833333 Z M10.7916667,19.5 L13.7083333,19.5 C14.1685706,19.5 14.5416667,19.126904 14.5416667,18.6666667 C14.5416667,18.2064294 14.1685706,17.8333333 13.7083333,17.8333333 L10.7916667,17.8333333 C10.3314294,17.8333333 9.95833333,18.2064294 9.95833333,18.6666667 C9.95833333,19.126904 10.3314294,19.5 10.7916667,19.5 Z" id="Icon" fill="#70727D" fill-rule="nonzero"></path>
        </g>
    </g>
</svg>