<?xml version="1.0" encoding="UTF-8"?>
<svg width="24px" height="24px" viewBox="0 0 24 24" version="1.1" xmlns="http://www.w3.org/2000/svg" xmlns:xlink="http://www.w3.org/1999/xlink">
    <!-- Generator: Sketch 53.2 (72643) - https://sketchapp.com -->
    <title>Icon/Glyph/24px/ic_image</title>
    <desc>Created with Sketch.</desc>
    <g id="Icon/Glyph/24px/ic_image" stroke="none" stroke-width="1" fill="none" fill-rule="evenodd">
        <g>
            <rect id="Bound" x="0" y="0" width="24" height="24"></rect>
            <path d="M2.82,7 L2.82,7 C2.36616375,7.0159995 2.00506063,7.38591002 2,7.84 L2,11.17 L2,11.17 L2,15.88 C1.99999382,18.33929 3.99071616,20.3344859 6.45,20.34 L17.82,20.34 C18.2800092,20.3345233 18.6500326,19.9600418 18.65,19.5 L18.65,19.5 C18.65,19.0416037 18.2783963,18.67 17.82,18.67 L6.93,18.67 C5.11850602,18.67 3.65,17.201494 3.65,15.39 L3.65,7.84 C3.6500326,7.37995816 3.28000924,7.00547669 2.82,7 Z M19.09,5.34 L14.15,5.34 C13.8298229,5.34391585 13.5209408,5.22179965 13.29,5 L12.34,4 C12.1122972,3.77087917 11.8030215,3.64141494 11.48,3.64 L8.22,3.64 C6.62453066,3.64544513 5.3309562,4.93455898 5.32,6.53 L5.32,14.08 C5.3146791,14.8508572 5.61649089,15.5921125 6.15876038,16.1400111 C6.70102988,16.6879097 7.439129,16.9973602 8.21,17 L19.09,17 C19.8591292,17.0026567 20.5978118,16.6996669 21.1435436,16.1576858 C21.6892755,15.6157047 21.9973524,14.8791292 22,14.11 L22,8.23 C21.9973524,7.46087076 21.6892755,6.72429532 21.1435436,6.1823142 C20.5978118,5.64033308 19.8591292,5.33734326 19.09,5.34 Z M8.25,13.93 L11.25,9.93 C11.3201813,9.84142672 11.4269927,9.78978251 11.54,9.78978251 C11.6530073,9.78978251 11.7598187,9.84142672 11.83,9.93 L14.18,12.93 C14.2483471,13.0145753 14.3512604,13.0637258 14.46,13.0637258 C14.5687396,13.0637258 14.6716529,13.0145753 14.74,12.93 L16.25,11.11 C16.3183471,11.0254247 16.4212604,10.9762742 16.53,10.9762742 C16.6387396,10.9762742 16.7416529,11.0254247 16.81,11.11 L19,13.92 C19.0833579,14.0279434 19.0985609,14.1737235 19.0392685,14.2965434 C18.9799762,14.4193633 18.8563702,14.4981323 18.72,14.5 L8.54,14.5 C8.40541408,14.4991035 8.28256832,14.4232087 8.221538,14.3032526 C8.16050769,14.1832965 8.17148682,14.0393154 8.25,13.93 Z" id="Icon" fill="#70727D" fill-rule="nonzero"></path>
        </g>
    </g>
</svg>