<?xml version="1.0" encoding="UTF-8"?>
<svg width="24px" height="24px" viewBox="0 0 24 24" version="1.1" xmlns="http://www.w3.org/2000/svg" xmlns:xlink="http://www.w3.org/1999/xlink">
    <!-- Generator: Sketch 53.2 (72643) - https://sketchapp.com -->
    <title>Icon/Glyph/24px/ic_invisible</title>
    <desc>Created with Sketch.</desc>
    <g id="Icon/Glyph/24px/ic_invisible" stroke="none" stroke-width="1" fill="none" fill-rule="evenodd">
        <g>
            <rect id="Bound" x="0" y="0" width="24" height="24"></rect>
            <path d="M12.66,7.42 C14.6723458,7.72851614 16.2514839,9.30765418 16.56,11.32 C16.6745063,12.111897 16.5743552,12.9200132 16.27,13.66 L19,16.34 C20.2479244,15.2957599 21.2486342,13.9876648 21.93,12.51 C22.0848944,12.1701503 22.0848944,11.7798497 21.93,11.44 C20.1604144,7.54890042 16.274564,5.0561646 12,5.07 C10.7511443,5.06833253 9.51191192,5.28841478 8.34,5.72 L10.34,7.72 C11.0739706,7.41951245 11.8737372,7.31609435 12.66,7.42 Z M3.39,4.28 C3.06838818,4.60369605 3.06838818,5.12630395 3.39,5.45 L4.9,7 L5.33,7.42 C3.94702721,8.49343752 2.84545546,9.88670272 2.12,11.48 C1.95963122,11.8186399 1.95963122,12.2113601 2.12,12.55 C3.8948509,16.4067905 7.75442628,18.8756686 12,18.87 C13.3696434,18.8645997 14.7262324,18.6034563 16,18.1 L16.39,18.48 L18.5,20.59 C18.823696,20.9116118 19.346304,20.9116118 19.67,20.59 L19.67,20.59 C19.9916118,20.266304 19.9916118,19.743696 19.67,19.42 L4.56,4.28 C4.23630395,3.95838818 3.71369605,3.95838818 3.39,4.28 Z M7.89,10 L9.32,11.42 C9.27210635,11.6163648 9.24859581,11.8178838 9.25,12.02 C9.27186615,13.5231392 10.4967018,14.730159 12,14.73 C12.2018915,14.7276171 12.4029821,14.7041565 12.6,14.66 L14,16.08 C12.9481213,16.6201605 11.7239476,16.7173743 10.6,16.35 C9.17725146,15.8881688 8.06183119,14.7727485 7.6,13.35 C7.25803935,12.2380362 7.36203932,11.0366572 7.89,10 L7.89,10 Z M11.89,9.28 L14.78,12.18 L14.78,12.03 C14.796303,11.2850819 14.5096374,10.5654318 13.9856097,10.0357491 C13.461582,9.50606646 12.7450502,9.2116933 12,9.22 L11.89,9.28 Z" id="Icon" fill="#70727D" fill-rule="nonzero"></path>
        </g>
    </g>
</svg>