<?xml version="1.0" encoding="UTF-8"?>
<svg width="24px" height="24px" viewBox="0 0 24 24" version="1.1" xmlns="http://www.w3.org/2000/svg" xmlns:xlink="http://www.w3.org/1999/xlink">
    <!-- Generator: Sketch 53.2 (72643) - https://sketchapp.com -->
    <title>Icon/Glyph/24px/ic_information</title>
    <desc>Created with Sketch.</desc>
    <g id="Icon/Glyph/24px/ic_information" stroke="none" stroke-width="1" fill="none" fill-rule="evenodd">
        <g>
            <rect id="Bound" x="0" y="0" width="24" height="24"></rect>
            <path d="M12,22.5 C6.20101013,22.5 1.5,17.7989899 1.5,12 C1.5,6.20101013 6.20101013,1.5 12,1.5 C17.7989899,1.5 22.5,6.20101013 22.5,12 C22.5,17.7989899 17.7989899,22.5 12,22.5 Z M15.0004201,17.5835728 C14.9055799,17.6284197 14.7522182,17.6790011 14.5426875,17.7369345 C14.3324217,17.795015 14.1428884,17.8248639 13.9762931,17.8248639 C13.621929,17.8248639 13.3721096,17.7661953 13.2272762,17.6497404 C13.083766,17.5331384 13.011864,17.3130209 13.011864,16.9914465 C13.011864,16.8639637 13.0331846,16.6738422 13.0786197,16.4250521 C13.1227314,16.1746446 13.1727247,15.9518804 13.2290406,15.7570537 L13.9136545,13.3332619 C13.9808513,13.1109389 14.0268745,12.8662659 14.0515771,12.5998311 C14.0768678,12.3332493 14.0883369,12.1472449 14.0883369,12.0409357 C14.0883369,11.530269 13.9090963,11.1150308 13.550615,10.7950738 C13.1922809,10.4757049 12.6822024,10.3155794 12.0205267,10.3155794 C11.6523409,10.3155794 11.2635696,10.3810118 10.8517132,10.5120236 C10.4398568,10.6423002 10.0090324,10.7991909 9.55879882,10.9824015 L9.375,11.7330359 C9.50939369,11.6830426 9.66907811,11.6296674 9.85625882,11.5745278 C10.0424103,11.5193881 10.2250328,11.4913037 10.4025089,11.4913037 C10.7655483,11.4913037 11.0102213,11.552766 11.1382923,11.6745144 C11.2663633,11.7968508 11.3307665,12.0144686 11.3307665,12.3253092 C11.3307665,12.4970508 11.3100339,12.6876134 11.2681278,12.8955267 C11.2262217,13.104028 11.1744639,13.3251748 11.1130016,13.5577905 L10.425594,15.9914339 C10.3645728,16.2469878 10.319873,16.4762217 10.2916415,16.6789885 C10.263557,16.8823436 10.2503235,17.0809933 10.2503235,17.2752319 C10.2503235,17.7748706 10.4352986,18.1873152 10.8046607,18.5130067 C11.1738758,18.8369337 11.6920414,19 12.3582754,19 C12.7918935,19 13.1727247,18.9430959 13.5001806,18.8294347 C13.8274896,18.7157735 14.2669893,18.5503546 14.8172095,18.3331779 L15.0004201,17.5835728 Z M15.1739262,7.40802917 C15.1739262,6.98646821 15.0152711,6.62519325 14.694873,6.32479246 C14.3760923,6.02556799 13.9917322,5.875 13.5420868,5.875 C13.091118,5.875 12.7046994,6.02497983 12.3829779,6.32479246 C12.0608154,6.62519325 11.8993665,6.98646821 11.8993665,7.40802917 C11.8993665,7.8301783 12.0608154,8.19027694 12.3829779,8.48729583 C12.7057286,8.78475583 13.0906769,8.93355935 13.5420868,8.93355935 C13.9917322,8.93355935 14.3760923,8.78475583 14.694873,8.48729583 C15.0146829,8.19086509 15.1739262,7.8301783 15.1739262,7.40802917 Z" id="Icon" fill="#70727D" fill-rule="nonzero"></path>
        </g>
    </g>
</svg>