<?xml version="1.0" encoding="UTF-8"?>
<svg width="24px" height="24px" viewBox="0 0 24 24" version="1.1" xmlns="http://www.w3.org/2000/svg" xmlns:xlink="http://www.w3.org/1999/xlink">
    <!-- Generator: Sketch 53.2 (72643) - https://sketchapp.com -->
    <title>Icon/Glyph/24px/ic_increase</title>
    <desc>Created with Sketch.</desc>
    <g id="Icon/Glyph/24px/ic_increase" stroke="none" stroke-width="1" fill="none" fill-rule="evenodd">
        <g>
            <rect id="Bound" x="0" y="0" width="24" height="24"></rect>
            <path d="M21.7,6.42 C21.4886275,6.21912313 21.2001041,6.12051386 20.91,6.15 L20.83,6.15 L16,6.15 C15.4477153,6.15 15,6.59771525 15,7.15 C15,7.70228475 15.4477153,8.15 16,8.15 L18.6,8.15 L13.36,13.43 L10.92,10.31 C10.6303641,9.99036669 10.2103569,9.82089011 9.78,9.85 C9.39622334,9.87113881 9.03654078,10.0437864 8.78,10.33 L2.33,16.13 C2.0246154,16.4075699 1.92110404,16.8442258 2.06939583,17.2293418 C2.21768762,17.6144578 2.58732139,17.8689257 3,17.87 C3.24783583,17.869353 3.4866017,17.7766976 3.67,17.61 L9.79,12.08 L12.25,15.23 C12.5398914,15.5432068 12.9537783,15.7116917 13.38,15.69 C13.7667695,15.6637109 14.126907,15.4836422 14.38,15.19 L20,9.56 L20,12.12 C20,12.6722847 20.4477153,13.12 21,13.12 C21.5522847,13.12 22,12.6722847 22,12.12 L22,7.3 C22.0044757,7.27352114 22.0044757,7.24647886 22,7.22 C22.0246874,6.92188534 21.9146207,6.62837413 21.7,6.42 Z" id="Icon" fill="#70727D" fill-rule="nonzero"></path>
        </g>
    </g>
</svg>