<?xml version="1.0" encoding="UTF-8"?>
<svg width="24px" height="24px" viewBox="0 0 24 24" version="1.1" xmlns="http://www.w3.org/2000/svg" xmlns:xlink="http://www.w3.org/1999/xlink">
    <!-- Generator: Sketch 53.2 (72643) - https://sketchapp.com -->
    <title>Icon/Glyph/24px/ic_locked</title>
    <desc>Created with Sketch.</desc>
    <g id="Icon/Glyph/24px/ic_locked" stroke="none" stroke-width="1" fill="none" fill-rule="evenodd">
        <g>
            <rect id="Bound" x="0" y="0" width="24" height="24"></rect>
            <path d="M16.76,8.66 L16.76,8.66 L16.76,7 C16.8263034,4.47891662 14.971879,2.31758289 12.47,2 C11.1290438,1.87007345 9.79567767,2.31326634 8.79932124,3.22008405 C7.80296481,4.12690175 7.23654474,5.41276856 7.24,6.76 L7.24,8.66 L7.24,8.66 C5.66274365,8.66548616 4.38548616,9.94274365 4.38,11.52 L4.38,19.14 C4.38548616,20.7172564 5.66274365,21.9945138 7.24,22 L16.76,22 C18.3372564,21.9945138 19.6145138,20.7172564 19.62,19.14 L19.62,11.52 C19.6145138,9.94274365 18.3372564,8.66548616 16.76,8.66 Z M12,17.24 C10.9451361,17.24 10.09,16.3848639 10.09,15.33 C10.09,14.2751361 10.9451361,13.42 12,13.42 C13.0548639,13.42 13.91,14.2751361 13.91,15.33 C13.9045319,16.3825906 13.0525906,17.2345319 12,17.24 Z M15,8.66 L9.05,8.66 L9.05,6.87 C9.01701567,5.4339661 10.0065717,4.17605594 11.41,3.87 C12.2827597,3.69480285 13.1882527,3.9162407 13.8816599,4.47444318 C14.5750672,5.03264565 14.9847712,5.86995974 15,6.76 L15,8.66 Z" id="Icon" fill="#70727D" fill-rule="nonzero"></path>
        </g>
    </g>
</svg>