<?xml version="1.0" encoding="UTF-8"?>
<svg width="24px" height="24px" viewBox="0 0 24 24" version="1.1" xmlns="http://www.w3.org/2000/svg" xmlns:xlink="http://www.w3.org/1999/xlink">
    <!-- Generator: Sketch 53.2 (72643) - https://sketchapp.com -->
    <title>Icon/Glyph/24px/ic_more-vertical</title>
    <desc>Created with Sketch.</desc>
    <g id="Icon/Glyph/24px/ic_more-vertical" stroke="none" stroke-width="1" fill="none" fill-rule="evenodd">
        <g id="Icon/Glyph/24px/ic_more">
            <rect id="Bound" x="0" y="0" width="24" height="24"></rect>
            <path d="M12,21 C10.8291563,21 9.88,20.0508437 9.88,18.88 C9.88,17.7091563 10.8291563,16.76 12,16.76 C13.1708437,16.76 14.12,17.7091563 14.12,18.88 C14.12,20.0508437 13.1708437,21 12,21 Z M12,14.12 C10.8291563,14.12 9.88,13.1708437 9.88,12 C9.88,10.8291563 10.8291563,9.88 12,9.88 C13.1708437,9.88 14.12,10.8291563 14.12,12 C14.12,13.1708437 13.1708437,14.12 12,14.12 Z M12,7.24 C10.8291563,7.24 9.88,6.29084367 9.88,5.12 C9.88,3.94915633 10.8291563,3 12,3 C13.1708437,3 14.12,3.94915633 14.12,5.12 C14.12,6.29084367 13.1708437,7.24 12,7.24 Z" id="Icon" fill="#70727D" fill-rule="nonzero"></path>
        </g>
    </g>
</svg>