<?xml version="1.0" encoding="UTF-8"?>
<svg width="24px" height="24px" viewBox="0 0 24 24" version="1.1" xmlns="http://www.w3.org/2000/svg" xmlns:xlink="http://www.w3.org/1999/xlink">
    <!-- Generator: Sketch 53.2 (72643) - https://sketchapp.com -->
    <title>Icon/Glyph/24px/ic_notification</title>
    <desc>Created with Sketch.</desc>
    <g id="Icon/Glyph/24px/ic_notification" stroke="none" stroke-width="1" fill="none" fill-rule="evenodd">
        <g>
            <rect id="Bound" x="0" y="0" width="24" height="24"></rect>
            <path d="M19.83,12.81 C20.2508039,13.4900156 20.3406955,14.3241194 20.0744424,15.0781794 C19.8081892,15.8322394 19.2144917,16.4249728 18.46,16.69 L10,19.77 C9.24659997,20.0506383 8.40653467,19.9740771 7.71627883,19.561868 C7.02602299,19.1496589 6.56022318,18.4463795 6.45,17.65 L5.57,11.33 C5.23809335,8.96794195 6.36851655,6.63990258 8.43,5.44 L8.23,4.88 C8.1031707,4.52273441 8.17657453,4.12494476 8.42256096,3.83647457 C8.6685474,3.54800439 9.04974525,3.41267915 9.42256098,3.48147457 C9.79537671,3.55026998 10.1031707,3.8127344 10.23,4.17 L10.44,4.72 C12.799499,4.30527276 15.1742651,5.36600161 16.44,7.4 L19.83,12.81 Z M14.39,20.71 C14.0413568,20.8382612 13.655879,20.8216279 13.31958,20.6638116 C12.983281,20.5059953 12.7241471,20.2201293 12.6,19.87 L16.6,18.42 C16.8612388,19.1462035 16.4855146,19.9468539 15.76,20.21 L14.39,20.71 Z" id="Icon" fill="#70727D" fill-rule="nonzero"></path>
        </g>
    </g>
</svg>