<?xml version="1.0" encoding="UTF-8"?>
<svg width="24px" height="24px" viewBox="0 0 24 24" version="1.1" xmlns="http://www.w3.org/2000/svg" xmlns:xlink="http://www.w3.org/1999/xlink">
    <!-- Generator: Sketch 53.2 (72643) - https://sketchapp.com -->
    <title>Icon/Glyph/24px/ic_penjualan</title>
    <desc>Created with Sketch.</desc>
    <g id="Icon/Glyph/24px/ic_penjualan" stroke="none" stroke-width="1" fill="none" fill-rule="evenodd">
        <g>
            <polygon id="Bound" points="0 0 24 0 24 24 0 24"></polygon>
            <path d="M21,10.25 L21,6.75 C21,5.7875 20.19,5 19.2,5 L4.8,5 C3.81,5 3.009,5.7875 3.009,6.75 L3.009,10.25 C3.999,10.25 4.8,11.0375 4.8,12 C4.8,12.9625 3.999,13.75 3,13.75 L3,17.25 C3,18.2125 3.81,19 4.8,19 L19.2,19 C20.19,19 21,18.2125 21,17.25 L21,13.75 C20.01,13.75 19.2,12.9625 19.2,12 C19.2,11.0375 20.01,10.25 21,10.25 Z M12,14.1875 L9.62454257,15.6712393 C9.15701002,15.9632658 8.89331814,15.7723026 9.03847816,15.2339262 L9.75,12.595 L7.56696789,10.8596701 C7.13730809,10.5181261 7.22674372,10.2161566 7.79160908,10.183776 L10.605,10.0225 L11.6261656,7.49886673 C11.8326286,6.98862923 12.1699508,6.99880409 12.3714226,7.50121157 L13.386,10.03125 L16.1993909,10.192526 C16.7531166,10.224268 16.8507068,10.5292491 16.4240321,10.8684201 L14.241,12.60375 L14.95911,15.236271 C15.1043001,15.7685238 14.8397417,15.9612369 14.3754574,15.6712393 L12,14.1875 Z" id="Icon" fill="#70727D" fill-rule="nonzero"></path>
        </g>
    </g>
</svg>