<?xml version="1.0" encoding="UTF-8"?>
<svg width="24px" height="24px" viewBox="0 0 24 24" version="1.1" xmlns="http://www.w3.org/2000/svg" xmlns:xlink="http://www.w3.org/1999/xlink">
    <!-- Generator: Sketch 53.2 (72643) - https://sketchapp.com -->
    <title>Icon/Glyph/24px/ic_poin</title>
    <desc>Created with Sketch.</desc>
    <g id="Icon/Glyph/24px/ic_poin" stroke="none" stroke-width="1" fill="none" fill-rule="evenodd">
        <g id="Group-3">
            <g id="Icon/Glyph/24px/ic_token-Copy">
                <g id="Icon/Glyph/24px/ic_information">
                    <rect id="Bound" x="0" y="0" width="24" height="24"></rect>
                </g>
            </g>
            <path d="M16.5,22.5 C13.4624339,22.5 11,20.0375661 11,17 C11,13.9624339 13.4624339,11.5 16.5,11.5 C19.5375661,11.5 22,13.9624339 22,17 C22,20.0375661 19.5375661,22.5 16.5,22.5 Z M16.5,18.75 L18.198554,19.6429827 C18.237486,19.6634505 18.2820797,19.6705134 18.3254312,19.663078 C18.4342985,19.6444058 18.507416,19.5410147 18.4887438,19.4321474 L18.1643489,17.5407797 L19.5385079,16.2013058 C19.5700046,16.170604 19.5905021,16.1303755 19.596827,16.0868481 C19.6127105,15.9775392 19.5369742,15.8760506 19.4276652,15.8601671 L17.5286242,15.5842203 L16.6793472,13.8633972 C16.6598812,13.8239546 16.6279557,13.7920291 16.5885131,13.7725631 C16.4894624,13.7236786 16.3695372,13.7643464 16.3206528,13.8633972 L15.4713758,15.5842203 L13.5723348,15.8601671 C13.5288074,15.866492 13.4885789,15.8869894 13.4578771,15.9184861 C13.3807769,15.9975829 13.3823954,16.1242055 13.4614921,16.2013058 L14.8356511,17.5407797 L14.5112562,19.4321474 C14.5038208,19.4754989 14.5108837,19.5200925 14.5313515,19.5590246 C14.5827517,19.6567935 14.7036771,19.6943828 14.801446,19.6429827 L16.5,18.75 Z M18.00001,9.6500292 C17.515342,9.5516461 17.0137023,9.5 16.5,9.5 C14.1641768,9.5 12.0777542,10.5678112 10.7022484,12.2419175 C10.4681656,12.2549263 10.2340828,12.2614307 10,12.2614307 C7.41275809,12.2614307 4.82551619,11.4668405 2.23827428,9.87766016 C2.09018064,9.78669553 1.99993952,9.62536099 1.99993952,9.45156142 L2,7.8397365 C2,7.80631391 2.00837309,7.77342385 2.02435464,7.74406981 C2.07718989,7.64702491 2.19869176,7.6111859 2.29573667,7.66402115 L2.2957032,7.66408261 C4.86380214,9.06226167 7.43190107,9.7613512 10,9.7613512 C12.5680844,9.7613512 15.1361688,9.06226959 17.7042532,7.66410636 C17.7336318,7.6481115 17.7665494,7.63973144 17.8,7.63973144 C17.9105886,7.63973144 18.0002384,7.72938124 18.0002384,7.83996987 L18.00001,9.6500292 Z M9.73456954,13.7588618 C9.36988334,14.5187159 9.12943923,15.3495143 9.03956277,16.2249313 C6.77246661,16.0526188 4.50537045,15.2701951 2.23827428,13.8776602 C2.09018064,13.7866955 1.99993952,13.625361 1.99993952,13.4515614 L2,11.8397365 C2,11.8063139 2.00837309,11.7734238 2.02435464,11.7440698 C2.07718989,11.6470249 2.19869176,11.6111859 2.29573667,11.6640212 L2.2957032,11.6640826 C4.77532532,13.0140912 7.25494743,13.712351 9.73456954,13.7588618 Z M9.03492236,17.7284424 C9.12160442,18.6277971 9.36712201,19.4807197 9.7430839,20.258819 C7.24148069,20.2079576 4.73987749,19.414238 2.23827428,17.8776602 C2.09018064,17.7866955 1.99993952,17.625361 1.99993952,17.4515614 L2,15.8397365 C2,15.8063139 2.00837309,15.7734238 2.02435464,15.7440698 C2.07718989,15.6470249 2.19869176,15.6111859 2.29573667,15.6640212 L2.2957032,15.6640826 C4.54210959,16.887119 6.78851598,17.5752389 9.03492236,17.7284424 Z M10,8 C5.581722,8 2,6.43299662 2,4.5 C2,2.56700338 5.581722,1 10,1 C14.418278,1 18,2.56700338 18,4.5 C18,6.43299662 14.418278,8 10,8 Z" id="Icon" fill="#70727D" fill-rule="nonzero"></path>
        </g>
    </g>
</svg>