<?xml version="1.0" encoding="UTF-8"?>
<svg width="24px" height="24px" viewBox="0 0 24 24" version="1.1" xmlns="http://www.w3.org/2000/svg" xmlns:xlink="http://www.w3.org/1999/xlink">
    <!-- Generator: Sketch 53.2 (72643) - https://sketchapp.com -->
    <title>Icon/Glyph/24px/ic_plus</title>
    <desc>Created with Sketch.</desc>
    <g id="Icon/Glyph/24px/ic_plus" stroke="none" stroke-width="1" fill="none" fill-rule="evenodd">
        <g>
            <rect id="Bound" x="0" y="0" width="24" height="24"></rect>
            <path d="M20,11 L13,11 L13,4 C13,3.44771525 12.5522847,3 12,3 C11.4477153,3 11,3.44771525 11,4 L11,11 L4,11 C3.44771525,11 3,11.4477153 3,12 C3,12.5522847 3.44771525,13 4,13 L11,13 L11,20 C11,20.5522847 11.4477153,21 12,21 C12.5522847,21 13,20.5522847 13,20 L13,13 L20,13 C20.5522847,13 21,12.5522847 21,12 C21,11.4477153 20.5522847,11 20,11 Z" id="Icon" fill="#70727D" fill-rule="nonzero"></path>
        </g>
    </g>
</svg>