<?xml version="1.0" encoding="UTF-8"?>
<svg width="24px" height="24px" viewBox="0 0 24 24" version="1.1" xmlns="http://www.w3.org/2000/svg" xmlns:xlink="http://www.w3.org/1999/xlink">
    <!-- Generator: Sketch 53.2 (72643) - https://sketchapp.com -->
    <title>Icon/Glyph/24px/ic_pin-point</title>
    <desc>Created with Sketch.</desc>
    <g id="Icon/Glyph/24px/ic_pin-point" stroke="none" stroke-width="1" fill="none" fill-rule="evenodd">
        <g>
            <rect id="Bound" x="0" y="0" width="24" height="24"></rect>
            <path d="M20,9.26 L20,9.18 C19.5560219,5.09598586 16.1080757,2.00145418 12,2 C7.91487848,2.03190866 4.50138646,5.11866845 4.06,9.18 L4.06,9.26 C4.04507342,9.55647891 4.04507342,9.85352109 4.06,10.15 C4.05542138,12.5430453 5.09644453,14.8186854 6.91,16.38 C8.79147473,17.9163499 10.4123607,19.7466003 11.71,21.8 C11.7804475,21.9273263 11.9144842,22.0063508 12.06,22.0063508 C12.2055158,22.0063508 12.3395525,21.9273263 12.41,21.8 C13.7076393,19.7466003 15.3285253,17.9163499 17.21,16.38 C19.0012555,14.8075241 20.0196558,12.5334618 20,10.15 C20.0149266,9.85352109 20.0149266,9.55647891 20,9.26 L20,9.26 Z M12,13.48 C10.5726727,13.4799078 9.28669482,12.6178948 8.74429276,11.2976436 C8.20189069,9.97739237 8.51045122,8.46029124 9.52547476,7.45680206 C10.5404983,6.45331288 12.0610266,6.16211023 13.374993,6.71956497 C14.6889593,7.2770197 15.5362196,8.57276482 15.52,10 C15.4927222,11.9261238 13.9263098,13.4747362 12,13.48 Z" id="Icon" fill="#70727D" fill-rule="nonzero"></path>
        </g>
    </g>
</svg>