<?xml version="1.0" encoding="UTF-8"?>
<svg width="24px" height="24px" viewBox="0 0 24 24" version="1.1" xmlns="http://www.w3.org/2000/svg" xmlns:xlink="http://www.w3.org/1999/xlink">
    <!-- Generator: Sketch 53.2 (72643) - https://sketchapp.com -->
    <title>Icon/Glyph/24px/ic_profile</title>
    <desc>Created with Sketch.</desc>
    <g id="Icon/Glyph/24px/ic_profile" stroke="none" stroke-width="1" fill="none" fill-rule="evenodd">
        <g>
            <rect id="Bound" x="0" y="0" width="24" height="24"></rect>
            <path d="M19.74,15.7 C20.5566106,16.7027394 21.0017179,17.9568116 21,19.25 C21,20.2164983 20.2164983,21 19.25,21 L4.75,21 C4.28587114,21 3.8407518,20.8156255 3.51256313,20.4874369 C3.18437447,20.1592482 3,19.7141289 3,19.25 C3,16.1295912 5.52959116,13.6 8.65,13.6 L15.35,13.6 C17.0552593,13.6016462 18.6685542,14.3733818 19.74,15.7 Z M11.98,12.22 C9.4339673,12.22 7.37,10.1560327 7.37,7.61 C7.37,5.0639673 9.4339673,3 11.98,3 C14.5260327,3 16.59,5.0639673 16.59,7.61 C16.59,10.1560327 14.5260327,12.22 11.98,12.22 Z" id="Icon" fill="#70727D" fill-rule="nonzero"></path>
        </g>
    </g>
</svg>