<?xml version="1.0" encoding="UTF-8"?>
<svg width="24px" height="24px" viewBox="0 0 24 24" version="1.1" xmlns="http://www.w3.org/2000/svg" xmlns:xlink="http://www.w3.org/1999/xlink">
    <!-- Generator: Sketch 53.2 (72643) - https://sketchapp.com -->
    <title>Icon/Glyph/24px/ic_print</title>
    <desc>Created with Sketch.</desc>
    <g id="Icon/Glyph/24px/ic_print" stroke="none" stroke-width="1" fill="none" fill-rule="evenodd">
        <g>
            <rect id="Bound" x="0" y="0" width="24" height="24"></rect>
            <path d="M18.3,8.4 L5.7,8.4 C4.20883118,8.4 3,9.60883118 3,11.1 L3,15.56 C3,16.0791477 3.42085234,16.5 3.94,16.5 L6.6,16.5 L6.6,19.26 C6.60540013,19.7216639 6.97833612,20.0945999 7.44,20.1 L16.56,20.1 C17.0216639,20.0945999 17.3945999,19.7216639 17.4,19.26 L17.4,16.5 L20.06,16.5 C20.5791477,16.5 21,16.0791477 21,15.56 L21,11.1 C21,9.60883118 19.7911688,8.4 18.3,8.4 Z M15.6,18.3 L8.4,18.3 L8.4,13.8 L15.6,13.8 L15.6,18.3 Z M18.3,12 C17.8029437,12 17.4,11.5970563 17.4,11.1 C17.4,10.6029437 17.8029437,10.2 18.3,10.2 C18.7970563,10.2 19.2,10.6029437 19.2,11.1 C19.2,11.5970563 18.7970563,12 18.3,12 L18.3,12 Z M16.25,3.9 L7.75,3.9 C7.11713645,3.9054326 6.6054326,4.41713645 6.6,5.05 L6.6,6.35 C6.6054326,6.98286355 7.11713645,7.4945674 7.75,7.5 L16.25,7.5 C16.8828635,7.4945674 17.3945674,6.98286355 17.4,6.35 L17.4,5.05 C17.3945674,4.41713645 16.8828635,3.9054326 16.25,3.9 Z" id="Icon" fill="#70727D" fill-rule="nonzero"></path>
        </g>
    </g>
</svg>