<?xml version="1.0" encoding="UTF-8"?>
<svg width="24px" height="24px" viewBox="0 0 24 24" version="1.1" xmlns="http://www.w3.org/2000/svg" xmlns:xlink="http://www.w3.org/1999/xlink">
    <!-- Generator: Sketch 53.2 (72643) - https://sketchapp.com -->
    <title>Icon/Glyph/24px/ic_qna</title>
    <desc>Created with Sketch.</desc>
    <g id="Icon/Glyph/24px/ic_qna" stroke="none" stroke-width="1" fill="none" fill-rule="evenodd">
        <g>
            <rect id="Bound" x="0" y="0" width="24" height="24"></rect>
            <path d="M18.3,6.6 L18.3,6.6 L18.3,12 C18.3,13.4690774 17.1090774,14.66 15.64,14.66 L6.64,14.66 C6.64,16.1511688 7.84883118,17.36 9.34,17.36 L17.44,17.36 L19.84,19.76 C20.0403362,19.9645291 20.3450294,20.0264462 20.6093048,19.9163314 C20.8735802,19.8062167 21.0441626,19.5462681 21.04,19.26 L21.04,9.3 C21.0400794,8.57693085 20.7501316,7.88404314 20.2350989,7.37652922 C19.7200663,6.86901529 19.0229898,6.58928786 18.3,6.6 Z M16.5,10.2 L16.5,5.7 C16.5,4.20883118 15.2911688,3 13.8,3 L5.7,3 C4.20883118,3 3,4.20883118 3,5.7 L3,14.8 C2.99583739,15.0862681 3.16641984,15.3462167 3.43069524,15.4563314 C3.69497064,15.5664462 3.99966378,15.5045291 4.2,15.3 L6.6,12.9 L13.8,12.9 C15.2911688,12.9 16.5,11.6911688 16.5,10.2 Z" id="Icon" fill="#70727D" fill-rule="nonzero"></path>
        </g>
    </g>
</svg>