<?xml version="1.0" encoding="UTF-8"?>
<svg width="24px" height="24px" viewBox="0 0 24 24" version="1.1" xmlns="http://www.w3.org/2000/svg" xmlns:xlink="http://www.w3.org/1999/xlink">
    <!-- Generator: Sketch 53.2 (72643) - https://sketchapp.com -->
    <title>Icon/Glyph/24px/ic_reset</title>
    <desc>Created with Sketch.</desc>
    <g id="Icon/Glyph/24px/ic_reset" stroke="none" stroke-width="1" fill="none" fill-rule="evenodd">
        <g>
            <rect id="Bound" x="0" y="0" width="24" height="24"></rect>
            <path d="M15,3.43 C18.5331428,4.14887046 21.2622387,6.96358027 21.8716666,10.5172362 C22.4810945,14.0708922 20.8457633,17.6340716 17.7540206,19.4890649 C14.6622779,21.3440583 10.7487343,21.11011 7.9,18.9 C7.68163548,18.7281137 7.54464533,18.473112 7.52188106,18.1961468 C7.49911679,17.9191815 7.59263169,17.6452342 7.78,17.44 C8.13364113,17.1103003 8.67251448,17.0808307 9.06,17.37 C11.1208914,18.9994904 13.9368831,19.2938315 16.2901919,18.1257346 C18.6435006,16.9576377 20.1117533,14.5367535 20.06,11.91 C19.9654161,8.24406189 17.0159381,5.29458388 13.35,5.2 C11.5309848,5.17592268 9.77816699,5.88170589 8.4833877,7.15957224 C7.18860841,8.4374386 6.45984066,10.1808255 6.46,12 L8.7,12 C8.81450724,11.998335 8.91848667,12.0665679 8.96253257,12.1722781 C9.00657847,12.2779883 8.98181163,12.3998655 8.9,12.48 L5.73,15.63 C5.65654489,15.7057611 5.5555244,15.7485226 5.45,15.7485226 C5.3444756,15.7485226 5.24345511,15.7057611 5.17,15.63 L2.08,12.48 C1.99818837,12.3998655 1.97342153,12.2779883 2.01746743,12.1722781 C2.06151333,12.0665679 2.16549276,11.998335 2.28,12 L4.52,12 C4.52217956,9.37733625 5.70066436,6.89394853 7.73092632,5.23370569 C9.76118827,3.57346286 12.4291077,2.91146083 15,3.43 Z M13.82,11.99 L16.65,13.62 C16.8189068,13.7163411 16.9423964,13.8760892 16.993083,14.0638176 C17.0437697,14.251546 17.0174641,14.4517388 16.92,14.62 C16.8219856,14.7872125 16.661497,14.9085821 16.4739121,14.9573542 C16.2863271,15.0061262 16.0870467,14.9782966 15.92,14.88 L12.36,12.83 L12.36,8.73 C12.36,8.32683213 12.6868321,8 13.09,8 C13.4931679,8 13.82,8.32683213 13.82,8.73 L13.82,11.99 Z" id="Icon" fill="#70727D" fill-rule="nonzero"></path>
        </g>
    </g>
</svg>