<?xml version="1.0" encoding="UTF-8"?>
<svg width="24px" height="24px" viewBox="0 0 24 24" version="1.1" xmlns="http://www.w3.org/2000/svg" xmlns:xlink="http://www.w3.org/1999/xlink">
    <!-- Generator: Sketch 53.2 (72643) - https://sketchapp.com -->
    <title>Icon/Glyph/24px/ic_reply-outline</title>
    <desc>Created with Sketch.</desc>
    <g id="Icon/Glyph/24px/ic_reply-outline" stroke="none" stroke-width="1" fill="none" fill-rule="evenodd">
        <g>
            <rect id="Bound" x="0" y="0" width="24" height="24"></rect>
            <path d="M21.995575,18.5550537 C21.2089844,12.1309509 15.8674927,7.23989867 9.45056152,6.95761109 L9.45056152,5.50970461 C9.45056152,4.40985109 8.85134887,4.01953125 8.3383484,4.01953125 C7.96466062,4.01953125 7.58563234,4.20904539 7.21209719,4.58258055 L2.68344117,9.11123656 C1.77218629,10.0224914 1.77218629,11.505188 2.68344117,12.4164429 L7.21209719,16.9450989 C7.58563234,17.318634 7.96466062,17.5081482 8.3383484,17.5081482 C8.85134887,17.5081482 9.45056152,17.1178284 9.45056152,16.0179748 L9.45056152,14.4696655 C10.180542,14.3271484 10.9204407,14.255127 11.6562195,14.255127 C15.3084106,14.255127 18.77948,16.0185852 20.9413452,18.9723816 C21.0542602,19.1264954 21.2315674,19.2122498 21.4143677,19.2122498 C21.4863891,19.2122498 21.5594787,19.198822 21.6296692,19.171051 C21.8776245,19.072937 22.0280762,18.8197937 21.995575,18.5550537 L21.995575,18.5550537 Z M17.4837036,14.5012512 C15.6972046,13.5736695 13.6821289,13.0835571 11.6562195,13.0835571 C10.6776734,13.0835571 9.69317625,13.1989136 8.72988891,13.4267273 C8.46560668,13.4892883 8.27899172,13.7253418 8.27899172,13.9967957 L8.27899172,16.0179748 C8.27899172,16.1409607 8.26678469,16.230835 8.25289918,16.2918701 C8.19979859,16.2586059 8.12762453,16.2036743 8.04064941,16.1165466 L3.51184082,11.5880432 C3.05743406,11.1334839 3.05743406,10.3941955 3.51184082,9.93963625 L8.04049684,5.41098023 C8.12762453,5.32400512 8.19964602,5.2689209 8.25289918,5.23565672 C8.26678469,5.29684449 8.27899172,5.38656617 8.27899172,5.50970461 L8.27899172,7.53073121 C8.27899172,7.85421754 8.54129027,8.11651609 8.8647766,8.11651609 C14.2065735,8.11651609 18.8244934,11.6229859 20.3718872,16.5613403 C19.509613,15.7442322 18.5345764,15.0469055 17.4837036,14.5012512 Z" id="Icon" fill="#70727D" fill-rule="nonzero"></path>
        </g>
    </g>
</svg>