<?xml version="1.0" encoding="UTF-8"?>
<svg width="24px" height="24px" viewBox="0 0 24 24" version="1.1" xmlns="http://www.w3.org/2000/svg" xmlns:xlink="http://www.w3.org/1999/xlink">
    <!-- Generator: Sketch 53.2 (72643) - https://sketchapp.com -->
    <title>Icon/Glyph/24px/ic_reply</title>
    <desc>Created with Sketch.</desc>
    <g id="Icon/Glyph/24px/ic_reply" stroke="none" stroke-width="1" fill="none" fill-rule="evenodd">
        <g>
            <rect id="Bound" x="0" y="0" width="24" height="24"></rect>
            <path d="M21.995575,18.5355225 C21.2089844,12.1114197 15.8674926,7.22036742 9.45056151,6.93807984 L9.45056151,5.49017336 C9.45056151,4.39031984 8.85134886,4 8.33834839,4 C7.96466062,4 7.58563233,4.18951414 7.21209718,4.5630493 L2.68344116,9.09170531 C1.77218628,10.0029602 1.77218628,11.4856567 2.68344116,12.3969116 L7.21209718,16.9255676 C7.58563233,17.2991028 7.96466062,17.488617 8.33834839,17.488617 C8.85150147,17.488617 9.45056151,17.0982971 9.45056151,15.9984436 L9.45056151,14.4501343 C10.180542,14.3076172 10.9204407,14.2355957 11.6563721,14.2355957 C15.3085632,14.2355957 18.7796326,15.9990539 20.9414978,18.9528504 C21.0544128,19.1069641 21.23172,19.1927185 21.4143676,19.1927185 C21.4865417,19.1927185 21.5596313,19.1792908 21.6298218,19.1515198 C21.8776245,19.0534058 22.0280762,18.8002625 21.995575,18.5355225 L21.995575,18.5355225 Z" id="Icon" fill="#70727D" fill-rule="nonzero"></path>
        </g>
    </g>
</svg>