<?xml version="1.0" encoding="UTF-8"?>
<svg width="24px" height="24px" viewBox="0 0 24 24" version="1.1" xmlns="http://www.w3.org/2000/svg" xmlns:xlink="http://www.w3.org/1999/xlink">
    <!-- Generator: Sketch 53.2 (72643) - https://sketchapp.com -->
    <title>Icon/Glyph/24px/ic_remind</title>
    <desc>Created with Sketch.</desc>
    <g id="Icon/Glyph/24px/ic_remind" stroke="none" stroke-width="1" fill="none" fill-rule="evenodd">
        <g>
            <rect id="Bound" x="0" y="0" width="24" height="24"></rect>
            <path d="M13.59,5 C16.8228532,5.62983782 19.3550033,8.15013702 20,11.38 C20.6959529,14.8800993 19.0222025,18.4238306 15.8768759,20.1096437 C12.7315492,21.7954567 8.85385602,21.2271543 6.32454907,18.709685 C3.79524213,16.1922157 3.20875519,12.3172312 4.87979453,9.16403074 C6.55083386,6.01083031 10.0866744,4.32047423 13.59,5 Z M16.39,15.93 L16.39,15.94 C16.6513549,15.4590995 16.4775426,14.8574413 16,14.59 L12.74,12.86 L12.74,7.58 C12.74,7.02771525 12.2922847,6.58 11.74,6.58 C11.1877153,6.58 10.74,7.02771525 10.74,7.58 L10.74,12.97 C10.7507255,13.6450181 11.136228,14.2579672 11.74,14.56 L15.04,16.34 C15.5261466,16.59818 16.129538,16.4149278 16.39,15.93 Z M4.85,7.2 C4.66715165,7.35418079 4.43045254,7.4292386 4.19216852,7.40859983 C3.95388449,7.38796106 3.73361571,7.27332335 3.58,7.09 C3.42581921,6.90715165 3.3507614,6.67045254 3.37140017,6.43216852 C3.39203894,6.19388449 3.50667665,5.97361571 3.69,5.82 L6.45,3.51 C6.83520798,3.19692393 7.40024988,3.25031372 7.72,3.63 C8.03196442,4.01194303 7.97845318,4.57381103 7.6,4.89 L4.85,7.2 Z M20.31,5.83 C20.6853468,6.14910229 20.7343738,6.71068401 20.42,7.09 C20.2663843,7.27332335 20.0461155,7.38796106 19.8078315,7.40859983 C19.5695475,7.4292386 19.3328484,7.35418079 19.15,7.2 L16.39,4.88 C16.2073081,4.7281628 16.0928983,4.50959121 16.0722382,4.27293952 C16.0515781,4.03628784 16.1263826,3.80119754 16.28,3.62 C16.4336157,3.43667665 16.6538845,3.32203894 16.8921685,3.30140017 C17.1304525,3.2807614 17.3671516,3.35581921 17.55,3.51 L20.31,5.83 Z" id="Icon" fill="#70727D" fill-rule="nonzero"></path>
        </g>
    </g>
</svg>