<?xml version="1.0" encoding="UTF-8"?>
<svg width="24px" height="24px" viewBox="0 0 24 24" version="1.1" xmlns="http://www.w3.org/2000/svg" xmlns:xlink="http://www.w3.org/1999/xlink">
    <!-- Generator: Sketch 53.2 (72643) - https://sketchapp.com -->
    <title>Icon/Glyph/24px/ic_share</title>
    <desc>Created with Sketch.</desc>
    <g id="Icon/Glyph/24px/ic_share" stroke="none" stroke-width="1" fill="none" fill-rule="evenodd">
        <g>
            <rect id="Bound" x="0" y="0" width="24" height="24"></rect>
            <path d="M20.2071676,9.68193985 C20.5976108,10.0719773 20.5976108,10.7019024 20.2071676,11.0919399 C20.0180839,11.2812525 19.7606952,11.3877382 19.4921873,11.3877382 C19.2236795,11.3877382 18.9662908,11.2812525 18.7772071,11.0919399 L13.0070144,5.36193985 L13.0070144,15.4381181 C13.0070144,15.9904028 12.5561587,16.4381181 12,16.4381181 C11.4438413,16.4381181 10.9929856,15.9904028 10.9929856,15.4381181 L10.9929856,5.36193985 L5.22279292,11.0919399 C5.03370925,11.2812525 4.77632053,11.3877382 4.50781268,11.3877382 C4.23930484,11.3877382 3.98191611,11.2812525 3.79283244,11.0919399 C3.40238919,10.7019024 3.40238919,10.0719773 3.79283244,9.68193985 L11.1943885,2.33193985 C11.4078699,2.11943013 11.6977245,2 12,2 C12.3022755,2 12.5921301,2.11943013 12.8056115,2.33193985 L20.2071676,9.68193985 Z M4.61841461,15 C4.61841461,14.4477153 5.06612986,14 5.61841461,14 C6.17069936,14 6.61841461,14.4477153 6.61841461,15 L6.61841461,17 C6.61841461,18.6568542 7.96156036,20 9.61841461,20 L14.6184146,20 C16.2752689,20 17.6184146,18.6568542 17.6184146,17 L17.6184146,15 C17.6184146,14.4477153 18.0661299,14 18.6184146,14 C19.1706994,14 19.6184146,14.4477153 19.6184146,15 L19.6184146,17 C19.6184146,19.7614237 17.3798384,22 14.6184146,22 L9.61841461,22 C6.85699086,22 4.61841461,19.7614237 4.61841461,17 L4.61841461,15 Z" id="Icon" fill="#70727D" fill-rule="nonzero"></path>
        </g>
    </g>
</svg>