<?xml version="1.0" encoding="UTF-8"?>
<svg width="24px" height="24px" viewBox="0 0 24 24" version="1.1" xmlns="http://www.w3.org/2000/svg" xmlns:xlink="http://www.w3.org/1999/xlink">
    <!-- Generator: Sketch 53.2 (72643) - https://sketchapp.com -->
    <title>Icon/Glyph/24px/ic_scan</title>
    <desc>Created with Sketch.</desc>
    <g id="Icon/Glyph/24px/ic_scan" stroke="none" stroke-width="1" fill="none" fill-rule="evenodd">
        <g>
            <rect id="Bound" x="0" y="0" width="24" height="24"></rect>
            <path d="M4,8.88 C3.73478351,8.88 3.4804296,8.77464316 3.29289322,8.58710678 C3.10535684,8.3995704 3,8.14521649 3,7.88 L3,4.43 C3,3.64023281 3.64023281,3 4.43,3 L7.88,3 C8.43228475,3 8.88,3.44771525 8.88,4 C8.88,4.55228475 8.43228475,5 7.88,5 L5.58,5 C5.25967485,5 5,5.25967485 5,5.58 L5,7.88 C5,8.43228475 4.55228475,8.88 4,8.88 Z M7.88,19 C8.43228475,19 8.88,19.4477153 8.88,20 C8.88,20.5522847 8.43228475,21 7.88,21 L4.43,21 C3.64023281,21 3,20.3597672 3,19.57 L3,16.12 C3,15.5677153 3.44771525,15.12 4,15.12 C4.55228475,15.12 5,15.5677153 5,16.12 L5,18.42 C5,18.7403252 5.25967485,19 5.58,19 L7.88,19 Z M20,15.12 C20.5522847,15.12 21,15.5677153 21,16.12 L21,19.57 C21,20.3597672 20.3597672,21 19.57,21 L16.12,21 C15.5677153,21 15.12,20.5522847 15.12,20 C15.12,19.4477153 15.5677153,19 16.12,19 L18.42,19 C18.7403252,19 19,18.7403252 19,18.42 L19,16.12 C19,15.5677153 19.4477153,15.12 20,15.12 Z M19.57,3 C20.3597672,3 21,3.64023281 21,4.43 L21,7.88 C21,8.43228475 20.5522847,8.88 20,8.88 C19.4477153,8.88 19,8.43228475 19,7.88 L19,5.58 C19,5.25967485 18.7403252,5 18.42,5 L16.12,5 C15.5677153,5 15.12,4.55228475 15.12,4 C15.12,3.44771525 15.5677153,3 16.12,3 L19.57,3 Z M3.71,14 C3.31787783,14 3,13.6821222 3,13.29 C3,12.8978778 3.31787783,12.58 3.71,12.58 L20.29,12.58 C20.6821222,12.58 21,12.8978778 21,13.29 C21,13.6821222 20.6821222,14 20.29,14 L17.56,14 L17.56,16.81 C17.5627178,17.0097332 17.4845733,17.2020818 17.3433275,17.3433275 C17.2020818,17.4845733 17.0097332,17.5627178 16.81,17.56 L7.19,17.56 C6.99026685,17.5627178 6.79791822,17.4845733 6.65667248,17.3433275 C6.51542674,17.2020818 6.43728216,17.0097332 6.44,16.81 L6.44,14 L3.71,14 Z M6.44,7.19 C6.43728216,6.99026685 6.51542674,6.79791822 6.65667248,6.65667248 C6.79791822,6.51542674 6.99026685,6.43728216 7.19,6.44 L16.81,6.44 C17.0097332,6.43728216 17.2020818,6.51542674 17.3433275,6.65667248 C17.4845733,6.79791822 17.5627178,6.99026685 17.56,7.19 L17.5600686,11.5 L6.4399314,11.5 L6.44,7.19 Z" id="Icon" fill="#70727D" fill-rule="nonzero"></path>
        </g>
    </g>
</svg>