<?xml version="1.0" encoding="UTF-8"?>
<svg width="24px" height="24px" viewBox="0 0 24 24" version="1.1" xmlns="http://www.w3.org/2000/svg" xmlns:xlink="http://www.w3.org/1999/xlink">
    <!-- Generator: Sketch 53.2 (72643) - https://sketchapp.com -->
    <title>Icon/Glyph/24px/ic_sharelink</title>
    <desc>Created with Sketch.</desc>
    <g id="Icon/Glyph/24px/ic_sharelink" stroke="none" stroke-width="1" fill="none" fill-rule="evenodd">
        <g>
            <rect id="Bound" x="0" y="0" width="24" height="24"></rect>
            <path d="M17.79,14.59 C16.8118454,14.5936816 15.8898091,15.0473235 15.29,15.82 L9.36,12.4 C9.39195812,12.2385904 9.40869818,12.0745378 9.41,11.91 C9.41540431,11.8034018 9.41540431,11.6965982 9.41,11.59 L15.32,8.18 C15.9198091,8.95267652 16.8418454,9.40631839 17.82,9.41 C19.1201349,9.41404399 20.2943137,8.63343872 20.7937237,7.43304009 C21.2931337,6.23264146 21.0191359,4.84954144 20.0997972,3.93020276 C19.1804586,3.01086408 17.7973585,2.73686627 16.5969599,3.23627626 C15.3965613,3.73568625 14.615956,4.90986506 14.62,6.21 C14.6153215,6.22972639 14.6153215,6.25027361 14.62,6.27 L8.62,9.75 C8.00648841,9.06770467 7.12743652,8.68471526 6.21,8.7 C4.75654353,8.6911615 3.47851972,9.66005538 3.0945274,11.0618984 C2.71053507,12.4637413 3.31640826,13.9486716 4.57148056,14.6817523 C5.82655286,15.414833 7.41759244,15.2131072 8.45,14.19 L14.6,17.73 C14.5953215,17.7497264 14.5953215,17.7702736 14.6,17.79 C14.595956,19.0901349 15.3765613,20.2643137 16.5769599,20.7637237 C17.7773585,21.2631337 19.1604586,20.9891359 20.0797972,20.0697972 C20.9991359,19.1504586 21.2731337,17.7673585 20.7737237,16.5669599 C20.2743137,15.3665613 19.1001349,14.585956 17.8,14.59 L17.79,14.59 Z M17.79,5 C18.280289,4.99594789 18.7245587,5.28817189 18.9149986,5.73998197 C19.1054385,6.19179205 19.004399,6.71386626 18.659142,7.06200034 C18.3138851,7.41013443 17.7926673,7.51550298 17.3392924,7.32881904 C16.8859175,7.14213511 16.5900167,6.70030572 16.59,6.21 C16.5899773,5.5456213 17.125644,5.00549073 17.79,5 Z M6.21,13.11 C5.71880416,13.114043 5.27390672,12.8207282 5.08406181,12.3676845 C4.8942169,11.9146408 4.99710211,11.3917815 5.34444178,11.0444418 C5.69178145,10.6971021 6.21464081,10.5942169 6.66768452,10.7840618 C7.12072824,10.9739067 7.41404297,11.4188042 7.41,11.91 C7.4045637,12.5704768 6.87047681,13.1045637 6.21,13.11 Z M17.79,19 C17.1217355,19 16.58,18.4582645 16.58,17.79 C16.58,17.1217355 17.1217355,16.58 17.79,16.58 C18.4582645,16.58 19,17.1217355 19,17.79 C19,18.4582645 18.4582645,19 17.79,19 Z" id="Icon" fill="#70727D" fill-rule="nonzero"></path>
        </g>
    </g>
</svg>