<?xml version="1.0" encoding="UTF-8"?>
<svg width="24px" height="24px" viewBox="0 0 24 24" version="1.1" xmlns="http://www.w3.org/2000/svg" xmlns:xlink="http://www.w3.org/1999/xlink">
    <!-- Generator: Sketch 53.2 (72643) - https://sketchapp.com -->
    <title>Icon/Glyph/24px/ic_sort</title>
    <desc>Created with Sketch.</desc>
    <g id="Icon/Glyph/24px/ic_sort" stroke="none" stroke-width="1" fill="none" fill-rule="evenodd">
        <g id="Group-6">
            <rect id="Bound" x="0" y="0" width="24" height="24"></rect>
            <path d="M12.2675644,18 L4,18 C3.44771525,18 3,17.5522847 3,17 C3,16.4477153 3.44771525,16 4,16 L12.2675644,16 C12.6133738,15.4021986 13.2597176,15 14,15 C14.7402824,15 15.3866262,15.4021986 15.7324356,16 L20,16 C20.5522847,16 21,16.4477153 21,17 C21,17.5522847 20.5522847,18 20,18 L15.7324356,18 C15.3866262,18.5978014 14.7402824,19 14,19 C13.2597176,19 12.6133738,18.5978014 12.2675644,18 Z M7.26756439,13 L4,13 C3.44771525,13 3,12.5522847 3,12 C3,11.4477153 3.44771525,11 4,11 L7.26756439,11 C7.61337381,10.4021986 8.25971764,10 9,10 C9.74028236,10 10.3866262,10.4021986 10.7324356,11 L20,11 C20.5522847,11 21,11.4477153 21,12 C21,12.5522847 20.5522847,13 20,13 L10.7324356,13 C10.3866262,13.5978014 9.74028236,14 9,14 C8.25971764,14 7.61337381,13.5978014 7.26756439,13 Z M15.2675644,6 C15.6133738,5.40219863 16.2597176,5 17,5 C17.7402824,5 18.3866262,5.40219863 18.7324356,6 L20,6 C20.5522847,6 21,6.44771525 21,7 C21,7.55228475 20.5522847,8 20,8 L18.7324356,8 C18.3866262,8.59780137 17.7402824,9 17,9 C16.2597176,9 15.6133738,8.59780137 15.2675644,8 L4,8 C3.44771525,8 3,7.55228475 3,7 C3,6.44771525 3.44771525,6 4,6 L15.2675644,6 Z" id="Icon" fill="#70727D" fill-rule="nonzero"></path>
        </g>
    </g>
</svg>