<?xml version="1.0" encoding="UTF-8"?>
<svg width="24px" height="24px" viewBox="0 0 24 24" version="1.1" xmlns="http://www.w3.org/2000/svg" xmlns:xlink="http://www.w3.org/1999/xlink">
    <!-- Generator: Sketch 53.2 (72643) - https://sketchapp.com -->
    <title>Icon/Glyph/24px/ic_star</title>
    <desc>Created with Sketch.</desc>
    <g id="Icon/Glyph/24px/ic_star" stroke="none" stroke-width="1" fill="none" fill-rule="evenodd">
        <rect id="Bound" x="0" y="0" width="24" height="24"></rect>
        <path d="M12,17.7912481 L6.84918239,19.805815 C6.59201036,19.9063991 6.30199173,19.7794595 6.20140765,19.5222874 C6.17511077,19.4550519 6.16368605,19.3829191 6.16791895,19.3108481 L6.49219572,13.7895941 L2.9845386,9.51341084 C2.80940693,9.29990789 2.84051299,8.98485729 3.05401594,8.80972561 C3.10983452,8.76393888 3.1749065,8.73078305 3.24475808,8.71253764 L8.59598975,7.31478184 L11.578956,2.65738838 C11.7278907,2.42485222 12.037134,2.35707986 12.2696701,2.50601456 C12.3304648,2.54495231 12.3821062,2.59659372 12.421044,2.65738838 L15.4040102,7.31478184 L20.7552419,8.71253764 C21.0224203,8.78232533 21.1824371,9.05549031 21.1126494,9.3226687 C21.094404,9.39252028 21.0612481,9.45759226 21.0154614,9.51341084 L17.5078043,13.7895941 L17.832081,19.3108481 C17.8482717,19.5865155 17.6379242,19.8231131 17.3622569,19.8393037 C17.290186,19.8435366 17.2180531,19.8321119 17.1508176,19.805815 L12,17.7912481 Z" id="Icon" fill="#70727D" fill-rule="nonzero"></path>
    </g>
</svg>