<?xml version="1.0" encoding="UTF-8"?>
<svg width="24px" height="24px" viewBox="0 0 24 24" version="1.1" xmlns="http://www.w3.org/2000/svg" xmlns:xlink="http://www.w3.org/1999/xlink">
    <!-- Generator: Sketch 53.2 (72643) - https://sketchapp.com -->
    <title>Icon/Glyph/24px/ic_search</title>
    <desc>Created with Sketch.</desc>
    <g id="Icon/Glyph/24px/ic_search" stroke="none" stroke-width="1" fill="none" fill-rule="evenodd">
        <g>
            <rect id="Bound" x="0" y="0" width="24" height="24"></rect>
            <path d="M10.61,14.55 C8.57576129,14.8746998 6.5640939,13.8511841 5.62894072,12.015688 C4.69378753,10.180192 5.04832615,7.9511356 6.50680845,6.49635503 C7.96529075,5.04157446 10.195241,4.69270167 12.0283546,5.63251637 C13.8614682,6.57233107 14.8798684,8.58659301 14.55,10.62 C14.2218642,12.6427267 12.6335541,14.2270056 10.61,14.55 Z M16.51,14.92 C16.3040126,14.7180859 16.0489673,14.5733305 15.77,14.5 L15.07,14.32 C17.4745444,11.5124971 17.2308852,7.30670658 14.518215,4.79566563 C11.8055448,2.28462468 7.59348578,2.36588474 4.97968526,4.97968526 C2.36588474,7.59348578 2.28462468,11.8055448 4.79566563,14.518215 C7.30670658,17.2308852 11.5124971,17.4745444 14.32,15.07 L14.5,15.77 C14.5713741,16.0468514 14.7165312,16.2991483 14.92,16.5 L19.1,20.67 C19.3068457,20.8807197 19.5897239,20.999432 19.885,20.999432 C20.1802761,20.999432 20.4631543,20.8807197 20.67,20.67 L20.67,20.67 C20.8807197,20.4631543 20.999432,20.1802761 20.999432,19.885 C20.999432,19.5897239 20.8807197,19.3068457 20.67,19.1 L16.51,14.92 Z" id="Icon" fill="#70727D" fill-rule="nonzero"></path>
        </g>
    </g>
</svg>