<?xml version="1.0" encoding="UTF-8"?>
<svg width="24px" height="24px" viewBox="0 0 24 24" version="1.1" xmlns="http://www.w3.org/2000/svg" xmlns:xlink="http://www.w3.org/1999/xlink">
    <!-- Generator: Sketch 53.2 (72643) - https://sketchapp.com -->
    <title>Icon/Glyph/24px/ic_statistic</title>
    <desc>Created with Sketch.</desc>
    <g id="Icon/Glyph/24px/ic_statistic" stroke="none" stroke-width="1" fill="none" fill-rule="evenodd">
        <g>
            <polygon id="Bound" points="0 0 24 0 24 24 0 24"></polygon>
            <path d="M12.9906311,20 C13.5480902,20 14,19.5553691 14,18.9991283 L14,5.00087166 C14,4.4481055 13.5566468,4 12.9906311,4 L11.0093689,4 C10.4519098,4 10,4.44463086 10,5.00087166 L10,18.9991283 C10,19.5518945 10.4433532,20 11.0093689,20 L12.9906311,20 Z M6.9906311,20 C7.54809015,20 8,19.5469637 8,19.0029699 L8,12.9970301 C8,12.4463856 7.55664682,12 6.9906311,12 L5.0093689,12 C4.45190985,12 4,12.4530363 4,12.9970301 L4,19.0029699 C4,19.5536144 4.44335318,20 5.0093689,20 L6.9906311,20 Z M16,19.0044225 C16,19.5542648 16.4433532,20 17.0093689,20 L18.9906311,20 C19.5480902,20 20,19.555163 20,19.0044225 L20,9.9955775 C20,9.44573523 19.5566468,9 18.9906311,9 L17.0093689,9 C16.4519098,9 16,9.44483697 16,9.9955775 L16,19.0044225 Z" id="Icon" fill="#70727D" fill-rule="nonzero"></path>
        </g>
    </g>
</svg>