<?xml version="1.0" encoding="UTF-8"?>
<svg width="24px" height="24px" viewBox="0 0 24 24" version="1.1" xmlns="http://www.w3.org/2000/svg" xmlns:xlink="http://www.w3.org/1999/xlink">
    <!-- Generator: Sketch 53.2 (72643) - https://sketchapp.com -->
    <title>Icon/Glyph/24px/ic_setting</title>
    <desc>Created with Sketch.</desc>
    <g id="Icon/Glyph/24px/ic_setting" stroke="none" stroke-width="1" fill="none" fill-rule="evenodd">
        <g>
            <rect id="Bound" x="0" y="0" width="24" height="24"></rect>
            <path d="M18.71,12.38 C18.71,12.14 18.71,11.86 18.71,11.62 C18.700345,11.2947304 18.8495624,10.9851044 19.11,10.79 L20.59,9.63 C20.7570639,9.49004763 20.8029898,9.25206801 20.7,9.06 L18.9,5.94 C18.7877832,5.7507077 18.5551289,5.67033623 18.35,5.75 L16.62,6.44 C16.2879824,6.57291152 15.9111453,6.52769106 15.62,6.32 C15.4487547,6.20460169 15.271869,6.09780276 15.09,6 C14.7780916,5.84857894 14.5610424,5.5529429 14.51,5.21 L14.24,3.38 C14.2098201,3.16067659 14.0213805,2.99793329 13.8,3 L10.2,3 C9.97861952,2.99793329 9.79017992,3.16067659 9.76,3.38 L9.5,5.21 C9.44415471,5.55094518 9.22856374,5.84459495 8.92,6 C8.72334224,6.09807648 8.53297476,6.20828924 8.35,6.33 C8.06072062,6.54387606 7.67885271,6.58588153 7.35,6.44 L5.66,5.75 C5.45497987,5.6657604 5.21930681,5.74717473 5.11,5.94 L3.31,9.06 C3.18832835,9.24884245 3.23679604,9.4999932 3.42,9.63 L4.9,10.79 C5.15667497,10.9872372 5.30199971,11.2965181 5.29,11.62 L5.29,12.38 C5.30199971,12.7034819 5.15667497,13.0127628 4.9,13.21 L3.42,14.37 C3.24126085,14.5028475 3.1935296,14.7501822 3.31,14.94 L5.11,18.06 C5.21902879,18.2530566 5.4524306,18.33793 5.66,18.26 L7.38,17.56 C7.71201759,17.4270885 8.08885472,17.4723089 8.38,17.68 C8.56100695,17.7962796 8.74792485,17.9030898 8.94,18 C9.2535082,18.1516293 9.47361179,18.4463443 9.53,18.79 L9.79,20.62 C9.82017992,20.8393234 10.0086195,21.0020667 10.23,21 L13.83,21 C14.0513805,21.0020667 14.2398201,20.8393234 14.27,20.62 L14.54,18.79 C14.5910424,18.4470571 14.8080916,18.1514211 15.12,18 C15.3122035,17.8996783 15.4991173,17.7895327 15.68,17.67 C15.9692794,17.4561239 16.3511473,17.4141185 16.68,17.56 L18.41,18.26 C18.6175223,18.3425927 18.8540023,18.2565999 18.96,18.06 L20.76,14.94 C20.8629898,14.747932 20.8170639,14.5099524 20.65,14.37 L19.17,13.21 C18.8868006,13.0283359 18.7139396,12.7164346 18.71,12.38 Z M12.62,15.09 C11.2587686,15.3626524 9.87952756,14.7120063 9.22428641,13.488099 C8.56904526,12.2641916 8.79230759,10.7556161 9.77396184,9.77396184 C10.7556161,8.79230759 12.2641916,8.56904526 13.488099,9.22428641 C14.7120063,9.87952756 15.3626524,11.2587686 15.09,12.62 C14.8379142,13.8649254 13.8649254,14.8379142 12.62,15.09 L12.62,15.09 Z" id="Icon" fill="#70727D" fill-rule="nonzero"></path>
        </g>
    </g>
</svg>