<?xml version="1.0" encoding="UTF-8"?>
<svg width="24px" height="24px" viewBox="0 0 24 24" version="1.1" xmlns="http://www.w3.org/2000/svg" xmlns:xlink="http://www.w3.org/1999/xlink">
    <!-- Generator: Sketch 53.2 (72643) - https://sketchapp.com -->
    <title>Icon/Glyph/24px/ic_template pengiriman</title>
    <desc>Created with Sketch.</desc>
    <g id="Icon/Glyph/24px/ic_template-pengiriman" stroke="none" stroke-width="1" fill="none" fill-rule="evenodd">
        <g>
            <polygon id="Bound" points="0 0 24 0 24 24 0 24"></polygon>
            <path d="M11.9047388,7.63636364 C11.0736945,7.63636364 10.4,8.3006415 10.4,9.12885888 L10.4,11.7765551 C10.4,12.0505834 10.1775269,12.2727273 9.89375,12.2727273 L9.30625,12.2727273 C9.02665585,12.2727273 8.8,12.0527131 8.8,11.7668431 L8.8,7.08412513 C8.8,6.53558706 9.24296875,6.09090909 9.7945631,6.09090909 L12.6054369,6.09090909 C13.1547189,6.09090909 13.6,5.63483481 13.6,5.09591226 L13.6,3.99499683 C13.6,3.44547525 13.1601021,3 12.6,3 L8.2,3 C7.64771525,3 7.2,3.44455404 7.2,4.00602186 L7.2,7.63636364 L5.6,7.63636364 C4.72,7.63636364 4,8.33181818 4,9.18181818 L4,18.4545455 C4,19.3045455 4.72,20 5.6,20 L18.4,20 C19.28,20 20,19.3045455 20,18.4545455 L20,9.18181818 C20,8.33181818 19.28,7.63636364 18.4,7.63636364 L11.9047388,7.63636364 Z" id="Icon" fill="#70727D" fill-rule="nonzero"></path>
        </g>
    </g>
</svg>