<?xml version="1.0" encoding="UTF-8"?>
<svg width="24px" height="24px" viewBox="0 0 24 24" version="1.1" xmlns="http://www.w3.org/2000/svg" xmlns:xlink="http://www.w3.org/1999/xlink">
    <!-- Generator: Sketch 53.2 (72643) - https://sketchapp.com -->
    <title>Icon/Glyph/24px/ic_twist</title>
    <desc>Created with Sketch.</desc>
    <g id="Icon/Glyph/24px/ic_twist" stroke="none" stroke-width="1" fill="none" fill-rule="evenodd">
        <g>
            <rect id="Bound" x="0" y="0" width="24" height="24"></rect>
            <path d="M12,6.55 L12,8.69 C11.9997609,8.78725408 12.0582377,8.87503821 12.1480757,8.91228809 C12.2379136,8.94953798 12.3413506,8.92888881 12.41,8.86 L15.64,5.64 L12.41,2.41 C12.340088,2.33964174 12.2340972,2.31953826 12.1432777,2.35941026 C12.0524581,2.39928226 11.9955221,2.49091461 12,2.59 L12,4.73 C9.58155569,4.72931874 7.32110407,5.93132062 5.96942812,7.93677455 C4.61775217,9.94222849 4.35183577,12.4885471 5.26,14.73 C5.37940414,15.0051378 5.62802341,15.2027139 5.92301897,15.2568967 C6.21801452,15.3110796 6.52061678,15.2147483 6.73,15 L6.73,15 C7.00899522,14.7472156 7.09374207,14.3436592 6.94,14 C6.68723673,13.3632464 6.55499214,12.685069 6.55,12 C6.55,8.99004811 8.99004811,6.55 12,6.55 L12,6.55 Z M17.26,9 L17.26,9 C16.9865611,9.25594196 16.9026151,9.65568504 17.05,10 C17.3105938,10.6347749 17.4464039,11.3138255 17.45,12 C17.45,13.4454299 16.8758052,14.8316587 15.853732,15.853732 C14.8316587,16.8758052 13.4454299,17.45 12,17.45 L12,15.31 C12.0002391,15.2127459 11.9417623,15.1249618 11.8519243,15.0877119 C11.7620864,15.050462 11.6586494,15.0711112 11.59,15.14 L8.36,18.36 L11.59,21.59 C11.659912,21.6603583 11.7659028,21.6804617 11.8567223,21.6405897 C11.9475419,21.6007177 12.0044779,21.5090854 12,21.41 L12,19.27 C14.4184443,19.2706813 16.6788959,18.0686794 18.0305719,16.0632254 C19.3822478,14.0577715 19.6481642,11.5114529 18.74,9.27 C18.6179582,8.99471668 18.3676401,8.79763067 18.0714062,8.74358801 C17.7751724,8.68954535 17.471386,8.78554472 17.26,9 L17.26,9 Z" id="Icon" fill="#70727D" fill-rule="nonzero"></path>
        </g>
    </g>
</svg>