<?xml version="1.0" encoding="UTF-8"?>
<svg width="24px" height="24px" viewBox="0 0 24 24" version="1.1" xmlns="http://www.w3.org/2000/svg" xmlns:xlink="http://www.w3.org/1999/xlink">
    <!-- Generator: Sketch 53.2 (72643) - https://sketchapp.com -->
    <title>Icon/Glyph/24px/ic_thumbs-up-full</title>
    <desc>Created with Sketch.</desc>
    <g id="Icon/Glyph/24px/ic_thumbs-up-full" stroke="none" stroke-width="1" fill="none" fill-rule="evenodd">
        <g>
            <rect id="Bound" x="0" y="0" width="24" height="24"></rect>
            <g id="thumb-up" transform="translate(3.000000, 4.000000)" fill="#70727D" fill-rule="nonzero">
                <path d="M1.15,16 L2.24,16 C2.55292021,16.0001047 2.85260986,15.8737812 3.07103538,15.6497068 C3.2894609,15.4256323 3.40809278,15.1228156 3.4,14.81 L3.4,6.93 C3.39451064,6.29325836 2.8767653,5.77997634 2.24,5.78 L1.15,5.78 C0.517136455,5.7854326 0.00543260447,6.29713645 9.92587089e-17,6.93 L9.92587089e-17,14.81 C-0.00805877022,15.1210884 0.10921426,15.4223693 0.325467706,15.6461447 C0.541721152,15.86992 0.838817911,15.9974217 1.15,16 L1.15,16 Z M16.36,5.33 L12.59,5.33 C12.2566852,5.33060675 11.9407412,5.18139757 11.7294623,4.92359857 C11.5181834,4.66579957 11.433937,4.32670287 11.5,4 L12,1.69 C12.0096348,1.61029009 12.0096348,1.52970991 12,1.45 L12,1.32 C11.9882044,1.06079087 11.9089221,0.809155576 11.77,0.59 C11.7113828,0.491697547 11.6408489,0.401011088 11.56,0.32 L11.56,0.32 C11.1280941,-0.0888979964 10.4519059,-0.0888979964 10.02,0.32 L5.44,5 L5.36,5 C5.05010475,5.28308168 4.884718,5.69103566 4.91,6.11 L4.91,13.18 C4.89389181,13.9206061 5.17617447,14.6365994 5.69336215,15.1669518 C6.21054982,15.6973043 6.91922303,15.9974912 7.66,16 L13.91,16 C14.5563089,15.9919637 15.1351562,15.59819 15.38,15 L17.92,9.2 C17.9855762,9.01752199 18.0128102,8.82347961 18,8.63 L18,7 C18.0049463,6.95012233 18.0049463,6.89987767 18,6.85 C17.923256,5.99810936 17.2152575,5.34191558 16.36,5.33 Z" id="Icon"></path>
            </g>
        </g>
    </g>
</svg>