<?xml version="1.0" encoding="UTF-8"?>
<svg width="24px" height="24px" viewBox="0 0 24 24" version="1.1" xmlns="http://www.w3.org/2000/svg" xmlns:xlink="http://www.w3.org/1999/xlink">
    <!-- Generator: Sketch 53.2 (72643) - https://sketchapp.com -->
    <title>Icon/Glyph/24px/ic_token</title>
    <desc>Created with Sketch.</desc>
    <g id="Icon/Glyph/24px/ic_token" stroke="none" stroke-width="1" fill="none" fill-rule="evenodd">
        <g id="Icon/Glyph/24px/ic_information">
            <rect id="Bound" x="0" y="0" width="24" height="24"></rect>
        </g>
        <path d="M12,22 C6.4771525,22 2,17.5228475 2,12 C2,6.4771525 6.4771525,2 12,2 C17.5228475,2 22,6.4771525 22,12 C22,17.5228475 17.5228475,22 12,22 Z M12,17.7142857 C8.84408714,17.7142857 6.28571429,15.1559129 6.28571429,12 C6.28571429,8.84408714 8.84408714,6.28571429 12,6.28571429 C15.1559129,6.28571429 17.7142857,8.84408714 17.7142857,12 C17.7142857,15.1559129 15.1559129,17.7142857 12,17.7142857 Z M12,19.1428571 C15.9448911,19.1428571 19.1428571,15.9448911 19.1428571,12 C19.1428571,8.05510893 15.9448911,4.85714286 12,4.85714286 C8.05510893,4.85714286 4.85714286,8.05510893 4.85714286,12 C4.85714286,15.9448911 8.05510893,19.1428571 12,19.1428571 Z M12,14.1428571 L14.1603852,15.2786389 C14.1993173,15.2991067 14.2439109,15.3061696 14.2872625,15.2987342 C14.3961297,15.280062 14.4692473,15.1766709 14.4505751,15.0678036 L14.0379782,12.6621793 L15.7857666,10.9585067 C15.8172633,10.927805 15.8377608,10.8875765 15.8440857,10.8440491 C15.8599692,10.7347401 15.7842329,10.6332515 15.6749239,10.617368 L13.2595398,10.2663922 L12.1793472,8.07768286 C12.1598812,8.03824034 12.1279557,8.00631484 12.0885131,7.98684879 C11.9894624,7.93796433 11.8695372,7.97863213 11.8206528,8.07768286 L10.7404602,10.2663922 L8.32507607,10.617368 C8.28154866,10.6236929 8.24132018,10.6441903 8.21061846,10.6756871 C8.13351821,10.7547838 8.13513668,10.8814064 8.21423339,10.9585067 L9.96202175,12.6621793 L9.54942489,15.0678036 C9.54198952,15.1111551 9.54905245,15.1557487 9.56952027,15.1946808 C9.62092043,15.2924497 9.74184586,15.330039 9.83961478,15.2786389 L12,14.1428571 Z" id="Icon" fill="#70727D" fill-rule="nonzero"></path>
    </g>
</svg>