<?xml version="1.0" encoding="UTF-8"?>
<svg width="24px" height="24px" viewBox="0 0 24 24" version="1.1" xmlns="http://www.w3.org/2000/svg" xmlns:xlink="http://www.w3.org/1999/xlink">
    <!-- Generator: Sketch 53.2 (72643) - https://sketchapp.com -->
    <title>Icon/Glyph/24px/ic_tag</title>
    <desc>Created with Sketch.</desc>
    <g id="Icon/Glyph/24px/ic_tag" stroke="none" stroke-width="1" fill="none" fill-rule="evenodd">
        <g>
            <rect id="Bound" x="0" y="0" width="24" height="24"></rect>
            <path d="M21,11.32 L19.89,5 C19.8102027,4.54367467 19.4554053,4.18489077 19,4.1 L12.63,3 C12.0348256,2.90340229 11.42928,3.09658247 11,3.52 L3.52,11 C2.77486355,11.7457699 2.77486355,12.9542301 3.52,13.7 L10.29,20.47 C11.0357699,21.2151365 12.2442301,21.2151365 12.99,20.47 L20.44,13 C20.8862773,12.5628314 21.0947206,11.9375013 21,11.32 Z M17.5755792,8.56666662 C16.9832316,9.14755813 16.0288181,9.14397403 15.440922,8.55865035 C14.853026,7.97332667 14.853026,7.02667333 15.440922,6.44134965 C16.0288181,5.85602597 16.9832316,5.85244187 17.5755792,6.43333338 C17.8563614,6.7217389 18.0090554,7.10963081 17.9995843,7.51044268 C17.9901132,7.91125456 17.8192653,8.29162517 17.525169,8.56666662 L17.5755792,8.56666662 Z" id="Icon" fill="#70727D" fill-rule="nonzero"></path>
        </g>
    </g>
</svg>