<?xml version="1.0" encoding="UTF-8"?>
<svg width="24px" height="24px" viewBox="0 0 24 24" version="1.1" xmlns="http://www.w3.org/2000/svg" xmlns:xlink="http://www.w3.org/1999/xlink">
    <!-- Generator: Sketch 53.2 (72643) - https://sketchapp.com -->
    <title>Icon/Glyph/24px/ic_timer</title>
    <desc>Created with Sketch.</desc>
    <g id="Icon/Glyph/24px/ic_timer" stroke="none" stroke-width="1" fill="none" fill-rule="evenodd">
        <g>
            <rect id="Bound" x="0" y="0" width="24" height="24"></rect>
            <path d="M12,22.5 C6.20101013,22.5 1.5,17.7989899 1.5,12 C1.5,6.20101013 6.20101013,1.5 12,1.5 C17.7989899,1.5 22.5,6.20101013 22.5,12 C22.5,17.7989899 17.7989899,22.5 12,22.5 Z M13.166634,11.3073656 L13.1666403,5.15166177 C13.1666376,4.50732957 12.6443009,3.9849973 11.9999687,3.985 C11.3556365,3.9850027 10.8333043,4.50733935 10.833307,5.15167156 L10.8333333,11.4400049 C10.827536,12.2086873 11.2517023,12.9257304 11.9358661,13.2950011 L15.7885564,15.3614486 C16.3563687,15.6660025 17.0635614,15.4525894 17.3681153,14.884777 C17.6726692,14.3169646 17.459256,13.609772 16.8914436,13.3052181 L13.166634,11.3073656 Z" id="Icon" fill="#70727D" fill-rule="nonzero"></path>
        </g>
    </g>
</svg>