<?xml version="1.0" encoding="UTF-8"?>
<svg width="24px" height="24px" viewBox="0 0 24 24" version="1.1" xmlns="http://www.w3.org/2000/svg" xmlns:xlink="http://www.w3.org/1999/xlink">
    <!-- Generator: Sketch 53.2 (72643) - https://sketchapp.com -->
    <title>Icon/Glyph/24px/ic_thumbs-up-outline</title>
    <desc>Created with Sketch.</desc>
    <g id="Icon/Glyph/24px/ic_thumbs-up-outline" stroke="none" stroke-width="1" fill="none" fill-rule="evenodd">
        <g>
            <rect id="Bound" x="0" y="0" width="24" height="24"></rect>
            <g id="thumb-up" transform="translate(3.000000, 3.000000)" fill="#70727D" fill-rule="nonzero">
                <path d="M1.89,18 L0.73,18 C0.375215272,18.0416464 0.0516883822,17.7934614 0,17.44 L0,7.34 C0.0516883822,6.98653864 0.375215272,6.73835363 0.73,6.78 L1.89,6.78 C2.24478473,6.73835363 2.56831162,6.98653864 2.62,7.34 L2.62,17.44 C2.56831162,17.7934614 2.24478473,18.0416464 1.89,18 Z M13.89,18 L7.66,18 C5.58893219,18 3.91,16.3210678 3.91,14.25 L3.91,7.15 C3.88293898,6.43329776 4.18052307,5.74260876 4.72,5.27 L9.34,0.65 C10.1372817,-0.152115666 11.4251986,-0.182990385 12.26,0.58 C12.4211384,0.732553748 12.5592487,0.907717988 12.67,1.1 C12.8852391,1.47062615 12.9990572,1.89140846 13,2.32 L13,2.45 C13.0147092,2.5996394 13.0147092,2.7503606 13,2.9 L12.5,5.2 L12.61,5.33 L16.38,5.33 C17.7504587,5.3308351 18.890572,6.3839168 19,7.75 C19,7.85 19,7.95 19,8.04 L19,9.62 C19.014971,9.96354992 18.9499281,10.3058809 18.81,10.62 L16.3,16.39 C15.9008079,17.3594529 14.9584087,17.9942909 13.91,18 L13.89,18 Z M10.83,2 C10.8076226,1.99055416 10.7823774,1.99055416 10.76,2 L6.14,6.68 L6,6.81 C5.93332763,6.91003109 5.90492679,7.03073465 5.92,7.15 L5.92,14.22 C5.91197599,14.6875758 6.09142857,15.1389124 6.41832452,15.4733232 C6.74522047,15.807734 7.19236257,15.9973966 7.66,16 L13.91,16 C14.1534526,15.9966588 14.3707486,15.846527 14.46,15.62 L17,9.79 C17.0048254,9.73343606 17.0048254,9.67656394 17,9.62 L17,8 C16.9,7.29 16.51,7.29 16.36,7.29 L12.59,7.29 C11.9489573,7.29722772 11.3400585,7.00985214 10.9381509,6.51039419 C10.5362433,6.01093624 10.3857922,5.35465354 10.53,4.73 L11,2.32 C10.9821765,2.23438589 10.9482408,2.15294024 10.9,2.08 C10.8864659,2.04613497 10.8617688,2.0179097 10.83,2 Z" id="Icon"></path>
            </g>
        </g>
    </g>
</svg>