<?xml version="1.0" encoding="UTF-8"?>
<svg width="24px" height="24px" viewBox="0 0 24 24" version="1.1" xmlns="http://www.w3.org/2000/svg" xmlns:xlink="http://www.w3.org/1999/xlink">
    <!-- Generator: Sketch 53.2 (72643) - https://sketchapp.com -->
    <title>Icon/Glyph/24px/ic_transaction</title>
    <desc>Created with Sketch.</desc>
    <g id="Icon/Glyph/24px/ic_transaction" stroke="none" stroke-width="1" fill="none" fill-rule="evenodd">
        <g id="Group">
            <rect id="Bound" x="0" y="0" width="24" height="24"></rect>
            <path d="M9.17397494,18.5625268 C9.69172711,19.2092293 9.58719219,20.1532064 8.94048964,20.6709585 C8.2937871,21.1887107 7.34981003,21.0841758 6.83205785,20.4374732 L2.82904146,15.4374732 C2.04280394,14.4554169 2.74198408,13 4,13 L20,13 C20.8284271,13 21.5,13.6715729 21.5,14.5 C21.5,15.3284271 20.8284271,16 20,16 L7.12240762,16 L9.17397494,18.5625268 Z M14.8232081,5.43752813 C14.3054559,4.79082559 14.4099909,3.84684852 15.0566934,3.32909634 C15.703396,2.81134416 16.647373,2.91587909 17.1651252,3.56258164 L21.1681416,8.56258164 C21.9543791,9.54463796 21.255199,11.0000549 19.9971831,11.0000549 L3.99718305,11.0000549 C3.16875593,11.0000549 2.49718305,10.328482 2.49718305,9.50005488 C2.49718305,8.67162776 3.16875593,8.00005488 3.99718305,8.00005488 L16.8747754,8.00005488 L14.8232081,5.43752813 Z" id="Icon" fill="#70727D" fill-rule="nonzero"></path>
        </g>
    </g>
</svg>