<?xml version="1.0" encoding="UTF-8"?>
<svg width="24px" height="24px" viewBox="0 0 24 24" version="1.1" xmlns="http://www.w3.org/2000/svg" xmlns:xlink="http://www.w3.org/1999/xlink">
    <!-- Generator: Sketch 53.2 (72643) - https://sketchapp.com -->
    <title>Icon/Glyph/24px/ic_unlocked</title>
    <desc>Created with Sketch.</desc>
    <g id="Icon/Glyph/24px/ic_unlocked" stroke="none" stroke-width="1" fill="none" fill-rule="evenodd">
        <g>
            <rect id="Bound" x="0" y="0" width="24" height="24"></rect>
            <path d="M16.77,8.66 L16.77,8.66 L16.77,7 C16.8310564,4.47720792 14.9735074,2.31726718 12.47,2 C10.1129368,1.77096811 7.94350843,3.30232932 7.37,5.6 C7.29931435,5.87368432 7.35836366,6.1646711 7.53014106,6.38915293 C7.70191846,6.61363476 7.96735425,6.74669101 8.25,6.75 L8.25,6.75 C8.68437495,6.73580547 9.05238581,6.42568396 9.14,6 C9.54672685,4.48661094 11.0497442,3.54123479 12.59,3.83 C13.9934283,4.13605594 14.9829843,5.3939661 14.95,6.83 L14.95,8.66 L7.23,8.66 C5.65437226,8.66550922 4.37999037,9.94436263 4.38,11.52 L4.38,19.15 C4.38548603,20.7217335 5.65826646,21.994514 7.23,22 L16.77,22 C18.3456277,21.9944908 19.6200096,20.7156374 19.62,19.14 L19.62,11.52 C19.6200096,9.94436263 18.3456277,8.66550922 16.77,8.66 Z M12,17.24 C11.2265694,17.2399894 10.5294898,16.7735434 10.2344536,16.0585969 C9.93941739,15.3436503 10.1046701,14.5213466 10.6530017,13.9758859 C11.2013333,13.4304252 12.0244931,13.2694913 12.737881,13.5682764 C13.451269,13.8670615 13.9140494,14.56658 13.91,15.34 C13.9044975,16.3909565 13.0509709,17.2400144 12,17.24 L12,17.24 Z" id="Icon" fill="#70727D" fill-rule="nonzero"></path>
        </g>
    </g>
</svg>