<?xml version="1.0" encoding="UTF-8"?>
<svg width="24px" height="24px" viewBox="0 0 24 24" version="1.1" xmlns="http://www.w3.org/2000/svg" xmlns:xlink="http://www.w3.org/1999/xlink">
    <!-- Generator: Sketch 53.2 (72643) - https://sketchapp.com -->
    <title>Icon/Glyph/24px/ic_up</title>
    <desc>Created with Sketch.</desc>
    <g id="Icon/Glyph/24px/ic_up" stroke="none" stroke-width="1" fill="none" fill-rule="evenodd">
        <g>
            <rect id="Bound" x="0" y="0" width="24" height="24"></rect>
            <path d="M19,3 C20.1045695,3 21,3.8954305 21,5 L21,19 C21,20.1045695 20.1045695,21 19,21 L5,21 C3.8954305,21 3,20.1045695 3,19 L3,5 C3,3.8954305 3.8954305,3 5,3 L19,3 Z M5,19 L19,19 L19,5 L5,5 L5,19 Z M17.58,7.2 C17.5948127,7.2523176 17.6048538,7.30586993 17.61,7.36 C17.6147007,7.42658381 17.6147007,7.49341619 17.61,7.56 L17.61,13.08 C17.61,13.6322847 17.1622847,14.08 16.61,14.08 C16.0577153,14.08 15.61,13.6322847 15.61,13.08 L15.61,9.93 L8,17.3 C7.8247098,17.4694484 7.59355477,17.5690229 7.35,17.58 C6.94108647,17.5824719 6.57186815,17.3357286 6.41772343,16.956973 C6.26357872,16.5782174 6.35556941,16.1437728 6.65,15.86 L14.35,8.42 L11,8.42 C10.4477153,8.42 10,7.97228475 10,7.42 C10,6.86771525 10.4477153,6.42 11,6.42 L16.51,6.42 C16.9975982,6.42191283 17.4289766,6.73637561 17.58,7.2 Z" id="Icon" fill="#70727D" fill-rule="nonzero"></path>
        </g>
    </g>
</svg>