<?xml version="1.0" encoding="UTF-8"?>
<svg width="24px" height="24px" viewBox="0 0 24 24" version="1.1" xmlns="http://www.w3.org/2000/svg" xmlns:xlink="http://www.w3.org/1999/xlink">
    <!-- Generator: Sketch 53.2 (72643) - https://sketchapp.com -->
    <title>Icon/Glyph/24px/ic_view-grid</title>
    <desc>Created with Sketch.</desc>
    <g id="Icon/Glyph/24px/ic_view-grid" stroke="none" stroke-width="1" fill="none" fill-rule="evenodd">
        <g>
            <rect id="Bound" x="0" y="0" width="24" height="24"></rect>
            <path d="M4.49,3 L9.78,3 C10.6029043,3 11.27,3.66709572 11.27,4.49 L11.27,9.78 C11.27,10.6029043 10.6029043,11.27 9.78,11.27 L4.49,11.27 C3.66709572,11.27 3,10.6029043 3,9.78 L3,4.49 C3,3.66709572 3.66709572,3 4.49,3 Z M14.22,3 L19.51,3 C20.3329043,3 21,3.66709572 21,4.49 L21,9.78 C21,10.6029043 20.3329043,11.27 19.51,11.27 L14.22,11.27 C13.3970957,11.27 12.73,10.6029043 12.73,9.78 L12.73,4.49 C12.73,3.66709572 13.3970957,3 14.22,3 Z M4.49,12.73 L9.78,12.73 C10.6029043,12.73 11.27,13.3970957 11.27,14.22 L11.27,19.51 C11.27,20.3329043 10.6029043,21 9.78,21 L4.49,21 C3.66709572,21 3,20.3329043 3,19.51 L3,14.22 C3,13.3970957 3.66709572,12.73 4.49,12.73 Z M14.22,12.73 L19.51,12.73 C20.3329043,12.73 21,13.3970957 21,14.22 L21,19.51 C21,20.3329043 20.3329043,21 19.51,21 L14.22,21 C13.3970957,21 12.73,20.3329043 12.73,19.51 L12.73,14.22 C12.73,13.3970957 13.3970957,12.73 14.22,12.73 Z" id="Icon" fill="#70727D" fill-rule="nonzero"></path>
        </g>
    </g>
</svg>