<?xml version="1.0" encoding="UTF-8"?>
<svg width="24px" height="24px" viewBox="0 0 24 24" version="1.1" xmlns="http://www.w3.org/2000/svg" xmlns:xlink="http://www.w3.org/1999/xlink">
    <!-- Generator: Sketch 53.2 (72643) - https://sketchapp.com -->
    <title>Icon/Glyph/24px/ic_view-list</title>
    <desc>Created with Sketch.</desc>
    <g id="Icon/Glyph/24px/ic_view-list" stroke="none" stroke-width="1" fill="none" fill-rule="evenodd">
        <g>
            <rect id="Bound" x="0" y="0" width="24" height="24"></rect>
            <path d="M7.69,5.92 L19.78,5.92 C20.4537874,5.92 21,6.46621261 21,7.14 C21,7.81378739 20.4537874,8.36 19.78,8.36 L7.69,8.36 C7.01621261,8.36 6.47,7.81378739 6.47,7.14 C6.47,6.46621261 7.01621261,5.92 7.69,5.92 Z M4.22,5.92 C4.89378739,5.92 5.44,6.46621261 5.44,7.14 C5.44,7.81378739 4.89378739,8.36 4.22,8.36 C3.54621261,8.36 3,7.81378739 3,7.14 C3,6.46621261 3.54621261,5.92 4.22,5.92 Z M7.69,10.78 L19.78,10.78 C20.4537874,10.78 21,11.3262126 21,12 C21,12.6737874 20.4537874,13.22 19.78,13.22 L7.69,13.22 C7.01621261,13.22 6.47,12.6737874 6.47,12 C6.47,11.3262126 7.01621261,10.78 7.69,10.78 Z M4.22,10.78 C4.89378739,10.78 5.44,11.3262126 5.44,12 C5.44,12.6737874 4.89378739,13.22 4.22,13.22 C3.54621261,13.22 3,12.6737874 3,12 C3,11.3262126 3.54621261,10.78 4.22,10.78 Z M7.69,15.65 L19.78,15.65 C20.4537874,15.65 21,16.1962126 21,16.87 C21,17.5437874 20.4537874,18.09 19.78,18.09 L7.69,18.09 C7.01621261,18.09 6.47,17.5437874 6.47,16.87 C6.47,16.1962126 7.01621261,15.65 7.69,15.65 Z M4.22,15.65 C4.89378739,15.65 5.44,16.1962126 5.44,16.87 C5.44,17.5437874 4.89378739,18.09 4.22,18.09 C3.54621261,18.09 3,17.5437874 3,16.87 C3,16.1962126 3.54621261,15.65 4.22,15.65 Z" id="Icon" fill="#70727D" fill-rule="nonzero"></path>
        </g>
    </g>
</svg>