<?xml version="1.0" encoding="UTF-8"?>
<svg width="24px" height="24px" viewBox="0 0 24 24" version="1.1" xmlns="http://www.w3.org/2000/svg" xmlns:xlink="http://www.w3.org/1999/xlink">
    <!-- Generator: Sketch 53.2 (72643) - https://sketchapp.com -->
    <title>Icon/Glyph/24px/ic_visible</title>
    <desc>Created with Sketch.</desc>
    <g id="Icon/Glyph/24px/ic_visible" stroke="none" stroke-width="1" fill="none" fill-rule="evenodd">
        <g>
            <rect id="Bound" x="0" y="0" width="24" height="24"></rect>
            <path d="M12,5.11 C7.74364166,5.10643814 3.87908449,7.59414903 2.12,11.47 C1.95993994,11.8052065 1.95993994,12.1947935 2.12,12.53 C3.8793655,16.4063903 7.74303291,18.8957944 12,18.8957944 C16.2569671,18.8957944 20.1206345,16.4063903 21.88,12.53 C22.0400601,12.1947935 22.0400601,11.8052065 21.88,11.47 C20.1209155,7.59414903 16.2563583,5.10643814 12,5.11 L12,5.11 Z M13.25,16.43 C11.6470173,16.8776149 9.92722002,16.4264633 8.75037836,15.2496216 C7.5735367,14.07278 7.1223851,12.3529827 7.57,10.75 C7.99003081,9.2004741 9.2004741,7.99003081 10.75,7.57 C12.3529827,7.1223851 14.07278,7.5735367 15.2496216,8.75037836 C16.4264633,9.92722002 16.8776149,11.6470173 16.43,13.25 C16.0099692,14.7995259 14.7995259,16.0099692 13.25,16.43 L13.25,16.43 Z M12.54,9.29 C11.347772,9.05341708 10.1411134,9.62462998 9.56838729,10.6967138 C8.99566123,11.7687977 9.19170182,13.0893572 10.0511723,13.9488277 C10.9106428,14.8082982 12.2312023,15.0043388 13.3032862,14.4316127 C14.37537,13.8588866 14.9465829,12.652228 14.71,11.46 C14.4900565,10.3654625 13.6345375,9.50994348 12.54,9.29 L12.54,9.29 Z" id="Icon" fill="#70727D" fill-rule="nonzero"></path>
        </g>
    </g>
</svg>