<?xml version="1.0" encoding="UTF-8"?>
<svg width="24px" height="24px" viewBox="0 0 24 24" version="1.1" xmlns="http://www.w3.org/2000/svg" xmlns:xlink="http://www.w3.org/1999/xlink">
    <!-- Generator: Sketch 53.2 (72643) - https://sketchapp.com -->
    <title>Icon/Glyph/24px/ic_waiting-full</title>
    <desc>Created with Sketch.</desc>
    <g id="Icon/Glyph/24px/ic_waiting-full" stroke="none" stroke-width="1" fill="none" fill-rule="evenodd">
        <g>
            <rect id="Bound" x="0" y="0" width="24" height="24"></rect>
            <path d="M6,3.7 L6,4.35 C6.00849057,6.68489866 6.93523104,8.92272545 8.58,10.58 L8.9,10.9 C9.50511394,11.5085051 9.50511394,12.4914949 8.9,13.1 L8.57,13.43 C6.92766071,15.0839964 6.00414178,17.3191278 6,19.65 L6,20.3 C6,20.750868 6.17910663,21.1832697 6.49791847,21.5020815 C6.81673032,21.8208934 7.24913197,22 7.7,22 L16.3,22 C17.2388841,22 18,21.2388841 18,20.3 L18,19.66 C17.9984753,17.3207694 17.0708809,15.0772853 15.42,13.42 L15.1,13.1 C14.8068733,12.8090008 14.6420165,12.4130421 14.6420165,12 C14.6420165,11.5869579 14.8068733,11.1909992 15.1,10.9 L15.4,10.6 C17.0668554,8.94359334 18.0028896,6.68991099 18,4.34 L18,3.7 C18,2.76111593 17.2388841,2 16.3,2 L7.7,2 C6.76111593,2 6,2.76111593 6,3.7 Z" id="Icon" fill="#70727D" fill-rule="nonzero"></path>
        </g>
    </g>
</svg>