<?xml version="1.0" encoding="UTF-8"?>
<svg width="24px" height="24px" viewBox="0 0 24 24" version="1.1" xmlns="http://www.w3.org/2000/svg" xmlns:xlink="http://www.w3.org/1999/xlink">
    <!-- Generator: Sketch 53.2 (72643) - https://sketchapp.com -->
    <title>Icon/Glyph/24px/ic_wallet</title>
    <desc>Created with Sketch.</desc>
    <g id="Icon/Glyph/24px/ic_wallet" stroke="none" stroke-width="1" fill="none" fill-rule="evenodd">
        <g>
            <rect id="Bound" x="0" y="0" width="24" height="24"></rect>
            <path d="M20,18.77 L20,19.11 C20.00013,20.1422138 19.1720838,20.9836157 18.14,21 L7,21 C4.790861,21 3,19.209139 3,17 L3,8 C3,5.790861 4.790861,4 7,4 L18.14,4 C19.1682036,4.01630903 19.9946884,4.85168077 20,5.88 L20,6.22 C20,6.5568937 19.7268937,6.83 19.39,6.83 L11.53,6.83 C11.0279247,6.82732221 10.5456384,7.02558662 10.1906125,7.38061251 C9.83558662,7.7356384 9.63732221,8.21792471 9.64,8.72 L9.64,16.28 C9.64,17.3238182 10.4861818,18.17 11.53,18.17 L19.42,18.17 C19.7435351,18.1807904 20.0001799,18.4462851 20,18.77 L20,18.77 Z M12.5,16.28 L19,16.28 C20.1045695,16.28 21,15.3845695 21,14.28 L21,10.71 C21,9.6054305 20.1045695,8.71 19,8.71 L12.5,8.71 C11.9477153,8.71 11.5,9.15771525 11.5,9.71 L11.5,15.34 C11.5317798,15.8687239 11.9703227,16.2809542 12.5,16.28 Z M15.31,13.91 C14.7338636,13.9140432 14.2123905,13.5695622 13.9900408,13.0380454 C13.7676912,12.5065286 13.8885434,11.8933433 14.2959433,11.4859433 C14.7033433,11.0785434 15.3165286,10.9576912 15.8480454,11.1800408 C16.3795622,11.4023905 16.7240432,11.9238636 16.72,12.5 C16.72,13.2787215 16.0887215,13.91 15.31,13.91 L15.31,13.91 Z" id="Icon" fill="#70727D" fill-rule="nonzero"></path>
        </g>
    </g>
</svg>