<?xml version="1.0" encoding="UTF-8"?>
<svg width="24px" height="24px" viewBox="0 0 24 24" version="1.1" xmlns="http://www.w3.org/2000/svg" xmlns:xlink="http://www.w3.org/1999/xlink">
    <!-- Generator: Sketch 53.2 (72643) - https://sketchapp.com -->
    <title>Icon/Glyph/24px/ic_waiting-outline</title>
    <desc>Created with Sketch.</desc>
    <g id="Icon/Glyph/24px/ic_waiting-outline" stroke="none" stroke-width="1" fill="none" fill-rule="evenodd">
        <g>
            <rect id="Bound" x="0" y="0" width="24" height="24"></rect>
            <path d="M7.57,2 C6.70291294,2 6,2.70291294 6,3.57 L6,5.68 C5.99632539,7.17967391 6.5900729,8.6190618 7.65,9.68 L9,11 C9.52831081,11.5619995 9.52831081,12.4380005 9,13 L7.65,14.35 C6.58819165,15.4096828 5.99410618,16.84989 6,18.35 L6,20.45 C6.01094696,21.3092665 6.71066376,22.0000697 7.57,22 L16.43,22 C17.2970871,22 18,21.2970871 18,20.43 L18,18.33 C18.0058938,16.82989 17.4118084,15.3896828 16.35,14.33 L15,13 C14.4666667,12.44 14.4666667,11.56 15,11 L16.32,9.68 C17.3818084,8.62031717 17.9758938,7.18010997 17.97,5.68 L17.97,3.57 C17.9701562,2.71449483 17.285349,2.01634722 16.43,2 L7.57,2 Z M16,18.43 L16,19.43 C16,19.7337566 15.7537566,19.98 15.45,19.98 L8.55,19.98 C8.2538855,19.9801958 8.01076774,19.7459187 8,19.45 L8,18.45 C8.00116068,17.2118834 8.49393852,16.0249002 9.37,15.15 L12,12.5 L14.63,15.13 C15.5060615,16.0049002 15.9988393,17.1918834 16,18.43 L16,18.43 Z M12,11.5 L9.37,8.87 C8.49393852,7.99509975 8.00116068,6.80811664 8,5.57 L8,4.57 C7.99456719,4.42069743 8.0501061,4.2756089 8.15384581,4.16809683 C8.25758552,4.06058477 8.40059865,3.99990119 8.55,4 L15.45,4 C15.7537566,4 16,4.24624339 16,4.55 L16,5.55 C15.9988393,6.78811664 15.5060615,7.97509975 14.63,8.85 L12,11.5 Z" id="Icon" fill="#70727D" fill-rule="nonzero"></path>
        </g>
    </g>
</svg>