<?xml version="1.0" encoding="UTF-8"?>
<svg width="24px" height="24px" viewBox="0 0 24 24" version="1.1" xmlns="http://www.w3.org/2000/svg" xmlns:xlink="http://www.w3.org/1999/xlink">
    <!-- Generator: Sketch 53.2 (72643) - https://sketchapp.com -->
    <title>Icon/Glyph/24px/ic_wishlist-outline</title>
    <desc>Created with Sketch.</desc>
    <g id="Icon/Glyph/24px/ic_wishlist-outline" stroke="none" stroke-width="1" fill="none" fill-rule="evenodd">
        <g>
            <rect id="Bound" x="0" y="0" width="24" height="24"></rect>
            <path d="M12,21 C11.3089394,21.0017696 10.6447359,20.7324979 10.15,20.25 L8.32,18.48 C4.51,14.83 2,12.41 2,9.19 C1.98376325,7.73965351 2.55274262,6.34397082 3.57835672,5.31835672 C4.60397082,4.29274262 5.99965351,3.72376325 7.45,3.74 C9.21392614,3.75060196 10.8815695,4.54593954 12,5.91 C13.1161988,4.54861968 14.7795818,3.75356654 16.54,3.74 C17.9912465,3.72381098 19.3879195,4.29248016 20.4151097,5.31778914 C21.4423,6.34309813 22.0135286,7.7387263 22,9.19 C22,12.41 19.49,14.83 15.68,18.48 L13.85,20.25 C13.3552641,20.7324979 12.6910606,21.0017696 12,21 Z M7.45,5.56 C6.48065743,5.53789804 5.54445534,5.91324164 4.85884849,6.59884849 C4.17324164,7.28445534 3.79789804,8.22065743 3.82,9.19 C3.82,11.63 6.11,13.84 9.58,17.19 C10.16,17.75 10.78,18.34 11.42,18.97 C11.7445963,19.2798423 12.2554037,19.2798423 12.58,18.97 C13.22,18.34 13.84,17.75 14.42,17.19 C17.89,13.86 20.18,11.65 20.18,9.19 C20.2022088,8.21887912 19.8255117,7.28107602 19.1377018,6.59515576 C18.449892,5.9092355 17.5110561,5.53511968 16.54,5.56 C15.2168893,5.57779507 13.9824199,6.22849431 13.22,7.31 L13.22,7.31 C12.9549219,7.73019005 12.4967017,7.9893474 12,8 L12,8 C11.5090323,7.99598442 11.0520153,7.74874571 10.78,7.34 C10.0220826,6.24428319 8.78213082,5.58148616 7.45,5.56 Z" id="Icon" fill="#70727D" fill-rule="nonzero"></path>
        </g>
    </g>
</svg>