<?xml version="1.0" encoding="UTF-8"?>
<svg width="24px" height="24px" viewBox="0 0 24 24" version="1.1" xmlns="http://www.w3.org/2000/svg" xmlns:xlink="http://www.w3.org/1999/xlink">
    <!-- Generator: Sketch 53.2 (72643) - https://sketchapp.com -->
    <title>Icon/Glyph/24px/ic_zoom-out</title>
    <desc>Created with Sketch.</desc>
    <g id="Icon/Glyph/24px/ic_zoom-out" stroke="none" stroke-width="1" fill="none" fill-rule="evenodd">
        <g>
            <rect id="Bound" x="0" y="0" width="24" height="24"></rect>
            <path d="M10.61,14.55 C12.6335541,14.2270056 14.2218642,12.6427267 14.55,10.62 C14.8798684,8.58659301 13.8614682,6.57233107 12.0283546,5.63251637 C10.195241,4.69270167 7.96529075,5.04157446 6.50680845,6.49635503 C5.04832615,7.9511356 4.69378753,10.180192 5.62894072,12.015688 C6.5640939,13.8511841 8.57576129,14.8746998 10.61,14.55 Z M16.51,14.92 L20.67,19.1 C20.8807197,19.3068457 20.999432,19.5897239 20.999432,19.885 C20.999432,20.1802761 20.8807197,20.4631543 20.67,20.67 C20.4631543,20.8807197 20.1802761,20.999432 19.885,20.999432 C19.5897239,20.999432 19.3068457,20.8807197 19.1,20.67 L14.92,16.5 C14.7165312,16.2991483 14.5713741,16.0468514 14.5,15.77 L14.32,15.07 C11.5124971,17.4745444 7.30670658,17.2308852 4.79566563,14.518215 C2.28462468,11.8055448 2.36588474,7.59348578 4.97968526,4.97968526 C7.59348578,2.36588474 11.8055448,2.28462468 14.518215,4.79566563 C17.2308852,7.30670658 17.4745444,11.5124971 15.07,14.32 L15.77,14.5 C16.0489673,14.5733305 16.3040126,14.7180859 16.51,14.92 Z M7.21,8.87 L12.35,8.87 C12.9022847,8.87 13.35,9.31771525 13.35,9.87 C13.35,10.4222847 12.9022847,10.87 12.35,10.87 L7.21,10.87 C6.65771525,10.87 6.21,10.4222847 6.21,9.87 C6.21,9.31771525 6.65771525,8.87 7.21,8.87 Z" id="Icon" fill="#70727D" fill-rule="nonzero"></path>
        </g>
    </g>
</svg>