<?xml version="1.0" encoding="UTF-8"?>
<svg width="23px" height="25px" viewBox="0 0 23 25" version="1.1" xmlns="http://www.w3.org/2000/svg" xmlns:xlink="http://www.w3.org/1999/xlink">
    <!-- Generator: sketchtool 53 (72520) - https://sketchapp.com -->
    <title>3E4C930B-8ACA-455F-968F-B93A2852A3AE</title>
    <desc>Created with sketchtool.</desc>
    <g id="Kategori" stroke="none" stroke-width="1" fill="none" fill-rule="evenodd">
        <g id="Special---36px" transform="translate(-375.000000, -225.000000)">
            <g id="Icon/Special/36px/Default/ic_fashion-muslim" transform="translate(369.000000, 219.000000)">
                <g>
                    <rect id="Rectangle" x="0" y="0" width="36" height="36"></rect>
                    <circle id="Oval" fill="#FED156" fill-rule="nonzero" cx="19.8" cy="16.2" r="9"></circle>
                    <path d="M11.358,16.2 L12.375,18.198 C14.0001195,21.3947671 17.2848743,23.4059835 20.871,23.4 L21.177,23.4 C22.247092,23.3999893 23.2730951,23.8263099 24.0280735,24.5846662 C24.7830519,25.3430226 25.2047879,26.3709187 25.2,27.441 L25.2,27.441 C25.2010121,28.2242906 24.6324285,28.8920902 23.859,29.016 L23.013,29.142 C18.4934964,29.862005 13.8885036,29.862005 9.369,29.142 L8.541,29.016 C7.76757155,28.8920902 7.19898793,28.2242906 7.2,27.441 L7.2,27.441 C7.19920367,26.2630841 7.71583335,25.1442683 8.613,24.381 C10.1966617,22.9922721 11.0113582,20.9236806 10.8,18.828 L10.8,18.828 L10.8,12.6 C10.8,9.61766235 13.2176624,7.2 16.2,7.2 L16.2,7.2 C19.1823376,7.2 21.6,9.61766235 21.6,12.6 L21.6,18.108 C21.6024949,20.3458765 22.3391706,22.5211248 23.697,24.3 L23.697,24.3" id="Path" stroke="#434755" stroke-width="2" stroke-linecap="round"></path>
                    <path d="M11.358,11.7 L13.995,11.151 C15.4469664,10.8539859 16.9440336,10.8539859 18.396,11.151 L21.285,11.727" id="Path" stroke="#434755" stroke-width="2" stroke-linecap="round"></path>
                    <path d="M21.6,12.807 L20.835,16.407 C20.3755186,18.6015259 18.4421095,20.1745325 16.2,20.178 L16.2,20.178 C13.9633639,20.1763358 12.0318495,18.6123718 11.565,16.425 L10.8,12.825" id="Path" stroke="#434755" stroke-width="2" stroke-linecap="round"></path>
                </g>
            </g>
        </g>
    </g>
</svg>