<?xml version="1.0" encoding="UTF-8"?>
<svg width="23px" height="23px" viewBox="0 0 23 23" version="1.1" xmlns="http://www.w3.org/2000/svg" xmlns:xlink="http://www.w3.org/1999/xlink">
    <!-- Generator: sketchtool 53 (72520) - https://sketchapp.com -->
    <title>096D11F5-7F43-4FC3-BE5A-790ACBA48AFF</title>
    <desc>Created with sketchtool.</desc>
    <g id="Kategori" stroke="none" stroke-width="1" fill="none" fill-rule="evenodd">
        <g id="Special---36px" transform="translate(-451.000000, -226.000000)">
            <g id="Icon/Special/36px/Default/ic_f&amp;b" transform="translate(445.000000, 219.000000)">
                <g>
                    <rect id="Rectangle" x="0" y="0" width="36" height="36"></rect>
                    <circle id="Oval" fill="#FED156" fill-rule="nonzero" cx="19.8" cy="16.2" r="9"></circle>
                    <path d="M10.026,18.117 L22.374,18.117 C23.9347567,18.117 25.2,19.3822433 25.2,20.943 L25.2,22.068 C25.2,25.7859809 22.1859809,28.8 18.468,28.8 L13.968,28.8 C12.1763333,28.8095812 10.4547597,28.104551 9.18446801,26.8410161 C7.91417627,25.5774812 7.19997438,23.8596923 7.2,22.068 L7.2,20.943 C7.2,19.3822433 8.4652433,18.117 10.026,18.117 Z" id="Path" stroke="#434755" stroke-width="2" stroke-linecap="round"></path>
                    <path d="M20.259,18.117 L23.211,14.031" id="Path" stroke="#434755" stroke-width="2" stroke-linecap="round"></path>
                    <path d="M11.097,10.8 C10.65625,11.3966935 10.6976773,12.2214746 11.196,12.771 C11.5114101,13.1086342 11.6784689,13.5585203 11.659867,14.0201851 C11.6412651,14.4818499 11.4385522,14.9168368 11.097,15.228" id="Path" stroke="#434755" stroke-width="2" stroke-linecap="round"></path>
                    <path d="M15.633,10.8 C15.19225,11.3966935 15.2336773,12.2214746 15.732,12.771 C16.0474101,13.1086342 16.2144689,13.5585203 16.195867,14.0201851 C16.1772651,14.4818499 15.9745522,14.9168368 15.633,15.228" id="Path" stroke="#434755" stroke-width="2" stroke-linecap="round"></path>
                </g>
            </g>
        </g>
    </g>
</svg>