<?xml version="1.0" encoding="UTF-8"?>
<svg width="24px" height="23px" viewBox="0 0 24 23" version="1.1" xmlns="http://www.w3.org/2000/svg" xmlns:xlink="http://www.w3.org/1999/xlink">
    <!-- Generator: sketchtool 53 (72520) - https://sketchapp.com -->
    <title>75C66E49-D1E4-48B3-8A00-1E518B5291CA</title>
    <desc>Created with sketchtool.</desc>
    <g id="Kategori" stroke="none" stroke-width="1" fill="none" fill-rule="evenodd">
        <g id="Special---36px" transform="translate(-299.000000, -226.000000)">
            <g id="Icon/Special/36px/Default/ic_fashion-pria" transform="translate(293.000000, 219.000000)">
                <g>
                    <rect id="Rectangle" x="0" y="0" width="36" height="36"></rect>
                    <circle id="Oval" fill="#FED156" fill-rule="nonzero" cx="19.8" cy="16.2" r="9"></circle>
                    <rect id="Rectangle" stroke="#434755" stroke-width="2" stroke-linecap="round" x="7.2" y="10.8" width="21.6" height="18" rx="3.35"></rect>
                    <path d="M18,14.382 L18,20.403" id="Path" stroke="#434755" stroke-width="2" stroke-linecap="round"></path>
                    <path d="M25.2,21.222 L21.861,21.222" id="Path" stroke="#434755" stroke-width="2" stroke-linecap="round"></path>
                    <path d="M25.2,11.745 L25.2,12.6 C25.1984943,12.7866848 25.1279663,12.9662104 25.002,13.104 L22.185,16.092 C21.9948176,16.2942374 21.6935098,16.3456802 21.447,16.218 L18,14.4 L24.354,11.223 C24.5350937,11.1327203 24.7499831,11.1424371 24.9221898,11.2486923 C25.0943966,11.3549476 25.1994644,11.5426511 25.2,11.745 Z" id="Path" stroke="#434755" stroke-width="2" stroke-linecap="round"></path>
                    <path d="M10.8,11.745 L10.8,12.6 C10.8015057,12.7866848 10.8720337,12.9662104 10.998,13.104 L13.815,16.092 C14.0051824,16.2942374 14.3064902,16.3456802 14.553,16.218 L18,14.4 L11.646,11.223 C11.4649063,11.1327203 11.2500169,11.1424371 11.0778102,11.2486923 C10.9056034,11.3549476 10.8005356,11.5426511 10.8,11.745 Z" id="Path" stroke="#434755" stroke-width="2" stroke-linecap="round"></path>
                </g>
            </g>
        </g>
    </g>
</svg>