<?xml version="1.0" encoding="UTF-8"?>
<svg width="68px" height="54px" viewBox="0 0 68 54" version="1.1" xmlns="http://www.w3.org/2000/svg" xmlns:xlink="http://www.w3.org/1999/xlink">
    <!-- Generator: sketchtool 52.4 (67378) - http://www.bohemiancoding.com/sketch -->
    <title>700A1F04-8DA9-4A38-9D22-DD928926BED8</title>
    <desc>Created with sketchtool.</desc>
    <g id="✦-Modal-Box" stroke="none" stroke-width="1" fill="none" fill-rule="evenodd">
        <g id="Modal-Box" transform="translate(-422.000000, -4255.000000)">
            <g id="Desktop/Modules/Modalbox/Large/Customized_01" transform="translate(64.000000, 4056.000000)">
                <g id="Group-19" transform="translate(24.000000, 146.000000)">
                    <g id="ic_large_upload" transform="translate(328.000000, 40.000000)">
                        <rect id="Rectangle" x="0" y="0" width="80" height="80"></rect>
                        <path d="M66.2666667,33.5333333 L60,33.5333333 C58.0636708,33.5322262 56.2063666,32.7653393 54.8333333,31.4 L50.6,27.2 C49.2156044,25.8559628 47.3628355,25.1029019 45.4333333,25.1 L35.1,25.1 C35.1,25.4333333 35.1,25.8 35.1,26.1666667 C35.1,30.3305656 33.4458976,34.323922 30.5015765,37.2682431 C27.5572553,40.2125643 23.5638989,41.8666667 19.4,41.8666667 C18.4819791,41.845124 17.5675058,41.744755 16.6666667,41.5666667 L16.6666667,60 C16.7935752,63.7849508 19.9474124,66.760269 23.7333333,66.6666667 L66.2666667,66.6666667 C70.0525876,66.760269 73.2064248,63.7849508 73.3333333,60 L73.3333333,40.2 C73.2810557,38.3785875 72.5069697,36.6526392 71.1815402,35.4022341 C69.8561107,34.1518289 68.0880341,33.4795106 66.2666667,33.5333333 Z" id="Path" fill="#DCDEE3"></path>
                        <path d="M19.5,13.3333333 C12.4123457,13.3333333 6.66666667,19.0790124 6.66666667,26.1666667 C6.66666667,33.254321 12.4123457,39 19.5,39 C26.5876543,39 32.3333333,33.254321 32.3333333,26.1666667 C32.3333333,22.763055 30.9812539,19.4988465 28.574537,17.0921296 C26.1678202,14.6854128 22.9036116,13.3333333 19.5,13.3333333 Z M26.1666667,26.4 C25.7062138,26.8276856 24.9937862,26.8276856 24.5333333,26.4 L21.2,23.0666667 L21.2,32.0666667 C21.2287575,32.3988991 21.1139697,32.7275572 20.8846243,32.969644 C20.6552788,33.2117309 20.3333007,33.3441035 20,33.3333333 C19.3556678,33.3333333 18.8333333,32.8109989 18.8333333,32.1666667 L18.8333333,23.0666667 L15.5,26.4 C15.0397627,26.8602373 14.2935706,26.8602373 13.8333333,26.4 C13.3730961,25.9397627 13.3730961,25.1935706 13.8333333,24.7333333 L19.1666667,19.4333333 C19.3803243,19.2112864 19.6751865,19.0858117 19.9833333,19.0858117 C20.2914801,19.0858117 20.5863423,19.2112864 20.8,19.4333333 L26.1,24.7333333 C26.3239621,24.9527704 26.4501701,25.2531198 26.4501701,25.5666667 C26.4501701,25.8802136 26.3239621,26.1805629 26.1,26.4 L26.1666667,26.4 Z" id="Shape" fill="#9C9DA6" fill-rule="nonzero"></path>
                    </g>
                </g>
            </g>
        </g>
    </g>
</svg>