<?xml version="1.0" encoding="UTF-8"?>
<svg width="23px" height="24px" viewBox="0 0 23 24" version="1.1" xmlns="http://www.w3.org/2000/svg" xmlns:xlink="http://www.w3.org/1999/xlink">
    <!-- Generator: sketchtool 53 (72520) - https://sketchapp.com -->
    <title>73EBCDE4-2FD7-45EC-A2C1-671502002E86</title>
    <desc>Created with sketchtool.</desc>
    <g id="Kategori" stroke="none" stroke-width="1" fill="none" fill-rule="evenodd">
        <g id="Special---36px" transform="translate(-71.000000, -125.000000)">
            <g id="Icon/Special/36px/Default/ic_tiket" transform="translate(65.000000, 119.000000)">
                <g>
                    <rect id="Rectangle" x="0" y="0" width="36" height="36"></rect>
                    <circle id="Oval" fill="#FED156" fill-rule="nonzero" cx="19.8" cy="16.2" r="9"></circle>
                    <path d="M8.901,18.342 C8.28374755,18.5044226 7.75690982,18.9066042 7.43751589,19.4592064 C7.11812196,20.0118086 7.03261893,20.6690737 7.2,21.285 L7.2,21.348 C7.37791132,21.9334095 7.8610327,22.3751205 8.46,22.5 C9.0547171,22.6574015 9.52090399,23.1191193 9.68402667,23.7122927 C9.84714934,24.305466 9.68260622,24.9406346 9.252,25.38 C8.82048474,25.7992363 8.64252969,26.4152345 8.784,27 L8.784,27.072 C9.13858897,28.343705 10.4527109,29.0911872 11.727,28.746 L24.993,25.101 C25.604591,24.9347552 26.124862,24.531919 26.4389427,23.9814336 C26.7530234,23.4309481 26.8350817,22.7780888 26.667,22.167 L26.667,22.095 C26.4947361,21.5264214 26.0310942,21.093689 25.452,20.961 C24.8572874,20.8005927 24.3920055,20.3372223 24.2291514,19.743175 C24.0662973,19.1491277 24.230231,18.5132621 24.66,18.072 C25.0950411,17.6624246 25.2741391,17.0493584 25.128,16.47 L25.128,16.407 C24.9597459,15.7947314 24.5551466,15.2743855 24.0032193,14.9604451 C23.4512919,14.6465048 22.7972532,14.5646896 22.185,14.733 L8.901,18.342 Z" id="Path" stroke="#434755" stroke-width="2" stroke-linecap="round"></path>
                    <circle id="Oval" fill="#434755" fill-rule="nonzero" cx="19.872" cy="17.856" r="1"></circle>
                    <circle id="Oval" fill="#434755" fill-rule="nonzero" cx="20.655" cy="20.7" r="1"></circle>
                    <circle id="Oval" fill="#434755" fill-rule="nonzero" cx="21.429" cy="23.544" r="1"></circle>
                    <path d="M9.36,15.462 C8.38006204,14.9069407 8.03061486,13.6658007 8.577,12.681 L8.577,12.627 C8.85378791,12.1678199 9.36531666,11.9033561 9.9,11.943 C10.4264535,11.9338824 10.9081847,11.6450102 11.1642064,11.1849132 C11.4202281,10.7248162 11.4117663,10.1631753 11.142,9.711 C10.8744986,9.2829645 10.8539472,8.74520318 11.088,8.298 L11.088,8.244 C11.6430593,7.26406204 12.8841993,6.91461486 13.869,7.461 L22.212,12.141" id="Path" stroke="#434755" stroke-width="2" stroke-linecap="round"></path>
                    <circle id="Oval" fill="#434755" fill-rule="nonzero" cx="15.102" cy="10.539" r="1"></circle>
                    <circle id="Oval" fill="#434755" fill-rule="nonzero" cx="13.869" cy="12.735" r="1"></circle>
                    <circle id="Oval" fill="#434755" fill-rule="nonzero" cx="12.645" cy="14.931" r="1"></circle>
                </g>
            </g>
        </g>
    </g>
</svg>